%TF.GenerationSoftware,KiCad,Pcbnew,7.0.5*%
%TF.CreationDate,2024-04-29T22:33:29+02:00*%
%TF.ProjectId,porcupine,706f7263-7570-4696-9e65-2e6b69636164,v0.0.1*%
%TF.SameCoordinates,Original*%
%TF.FileFunction,Legend,Top*%
%TF.FilePolarity,Positive*%
%FSLAX46Y46*%
G04 Gerber Fmt 4.6, Leading zero omitted, Abs format (unit mm)*
G04 Created by KiCad (PCBNEW 7.0.5) date 2024-04-29 22:33:29*
%MOMM*%
%LPD*%
G01*
G04 APERTURE LIST*
G04 Aperture macros list*
%AMRoundRect*
0 Rectangle with rounded corners*
0 $1 Rounding radius*
0 $2 $3 $4 $5 $6 $7 $8 $9 X,Y pos of 4 corners*
0 Add a 4 corners polygon primitive as box body*
4,1,4,$2,$3,$4,$5,$6,$7,$8,$9,$2,$3,0*
0 Add four circle primitives for the rounded corners*
1,1,$1+$1,$2,$3*
1,1,$1+$1,$4,$5*
1,1,$1+$1,$6,$7*
1,1,$1+$1,$8,$9*
0 Add four rect primitives between the rounded corners*
20,1,$1+$1,$2,$3,$4,$5,0*
20,1,$1+$1,$4,$5,$6,$7,0*
20,1,$1+$1,$6,$7,$8,$9,0*
20,1,$1+$1,$8,$9,$2,$3,0*%
G04 Aperture macros list end*
%ADD10C,0.150000*%
%ADD11C,0.100000*%
%ADD12C,0.120000*%
%ADD13C,0.200000*%
%ADD14C,0.010000*%
%ADD15RoundRect,0.250000X-0.625000X-0.350000X0.625000X-0.350000X0.625000X0.350000X-0.625000X0.350000X0*%
%ADD16O,1.750000X1.200000*%
G04 APERTURE END LIST*
D10*
X180949850Y-103762222D02*
X181073885Y-104465656D01*
X181073885Y-104465656D02*
X181051796Y-104614612D01*
X181051796Y-104614612D02*
X180974543Y-104724941D01*
X180974543Y-104724941D02*
X180842125Y-104796644D01*
X180842125Y-104796644D02*
X180748334Y-104813182D01*
X182061411Y-104581651D02*
X181592455Y-104664340D01*
X181592455Y-104664340D02*
X181418807Y-103679533D01*
X182935890Y-104330749D02*
X182897263Y-104385914D01*
X182897263Y-104385914D02*
X182764845Y-104457616D01*
X182764845Y-104457616D02*
X182671054Y-104474154D01*
X182671054Y-104474154D02*
X182522098Y-104452065D01*
X182522098Y-104452065D02*
X182411769Y-104374812D01*
X182411769Y-104374812D02*
X182348335Y-104289290D01*
X182348335Y-104289290D02*
X182268364Y-104109976D01*
X182268364Y-104109976D02*
X182243557Y-103969290D01*
X182243557Y-103969290D02*
X182257377Y-103773438D01*
X182257377Y-103773438D02*
X182287735Y-103671378D01*
X182287735Y-103671378D02*
X182364988Y-103561049D01*
X182364988Y-103561049D02*
X182497406Y-103489346D01*
X182497406Y-103489346D02*
X182591197Y-103472809D01*
X182591197Y-103472809D02*
X182740153Y-103494897D01*
X182740153Y-103494897D02*
X182795317Y-103533524D01*
X183482213Y-103315698D02*
X183606248Y-104019132D01*
X183606248Y-104019132D02*
X183584159Y-104168088D01*
X183584159Y-104168088D02*
X183506906Y-104278417D01*
X183506906Y-104278417D02*
X183374488Y-104350120D01*
X183374488Y-104350120D02*
X183280697Y-104366658D01*
X184593774Y-104135127D02*
X184124818Y-104217816D01*
X184124818Y-104217816D02*
X183951170Y-103233009D01*
X185468253Y-103884225D02*
X185429626Y-103939390D01*
X185429626Y-103939390D02*
X185297208Y-104011092D01*
X185297208Y-104011092D02*
X185203417Y-104027630D01*
X185203417Y-104027630D02*
X185054461Y-104005541D01*
X185054461Y-104005541D02*
X184944132Y-103928288D01*
X184944132Y-103928288D02*
X184880699Y-103842766D01*
X184880699Y-103842766D02*
X184800727Y-103663452D01*
X184800727Y-103663452D02*
X184775920Y-103522766D01*
X184775920Y-103522766D02*
X184789740Y-103326914D01*
X184789740Y-103326914D02*
X184820098Y-103224854D01*
X184820098Y-103224854D02*
X184897351Y-103114525D01*
X184897351Y-103114525D02*
X185029769Y-103042822D01*
X185029769Y-103042822D02*
X185123560Y-103026285D01*
X185123560Y-103026285D02*
X185272516Y-103048373D01*
X185272516Y-103048373D02*
X185327681Y-103087000D01*
X186014577Y-102869174D02*
X186138611Y-103572608D01*
X186138611Y-103572608D02*
X186116522Y-103721564D01*
X186116522Y-103721564D02*
X186039269Y-103831893D01*
X186039269Y-103831893D02*
X185906851Y-103903596D01*
X185906851Y-103903596D02*
X185813060Y-103920134D01*
X187126137Y-103688603D02*
X186657181Y-103771292D01*
X186657181Y-103771292D02*
X186483533Y-102786485D01*
X188000616Y-103437701D02*
X187961989Y-103492866D01*
X187961989Y-103492866D02*
X187829572Y-103564568D01*
X187829572Y-103564568D02*
X187735780Y-103581106D01*
X187735780Y-103581106D02*
X187586825Y-103559018D01*
X187586825Y-103559018D02*
X187476495Y-103481764D01*
X187476495Y-103481764D02*
X187413062Y-103396242D01*
X187413062Y-103396242D02*
X187333090Y-103216929D01*
X187333090Y-103216929D02*
X187308284Y-103076242D01*
X187308284Y-103076242D02*
X187322103Y-102880390D01*
X187322103Y-102880390D02*
X187352461Y-102778330D01*
X187352461Y-102778330D02*
X187429714Y-102668001D01*
X187429714Y-102668001D02*
X187562132Y-102596299D01*
X187562132Y-102596299D02*
X187655923Y-102579761D01*
X187655923Y-102579761D02*
X187804879Y-102601849D01*
X187804879Y-102601849D02*
X187860044Y-102640476D01*
X188546940Y-102422650D02*
X188670974Y-103126084D01*
X188670974Y-103126084D02*
X188648886Y-103275040D01*
X188648886Y-103275040D02*
X188571632Y-103385369D01*
X188571632Y-103385369D02*
X188439214Y-103457072D01*
X188439214Y-103457072D02*
X188345423Y-103473610D01*
X189658500Y-103242079D02*
X189189544Y-103324768D01*
X189189544Y-103324768D02*
X189015896Y-102339961D01*
X190532979Y-102991177D02*
X190494353Y-103046342D01*
X190494353Y-103046342D02*
X190361935Y-103118044D01*
X190361935Y-103118044D02*
X190268144Y-103134582D01*
X190268144Y-103134582D02*
X190119188Y-103112494D01*
X190119188Y-103112494D02*
X190008859Y-103035240D01*
X190008859Y-103035240D02*
X189945425Y-102949718D01*
X189945425Y-102949718D02*
X189865454Y-102770405D01*
X189865454Y-102770405D02*
X189840647Y-102629718D01*
X189840647Y-102629718D02*
X189854467Y-102433866D01*
X189854467Y-102433866D02*
X189884824Y-102331806D01*
X189884824Y-102331806D02*
X189962078Y-102221477D01*
X189962078Y-102221477D02*
X190094495Y-102149775D01*
X190094495Y-102149775D02*
X190188287Y-102133237D01*
X190188287Y-102133237D02*
X190337242Y-102155325D01*
X190337242Y-102155325D02*
X190392407Y-102193952D01*
X203736779Y-148283152D02*
X203736779Y-149283152D01*
X203736779Y-148330771D02*
X203832017Y-148283152D01*
X203832017Y-148283152D02*
X204022493Y-148283152D01*
X204022493Y-148283152D02*
X204117731Y-148330771D01*
X204117731Y-148330771D02*
X204165350Y-148378390D01*
X204165350Y-148378390D02*
X204212969Y-148473628D01*
X204212969Y-148473628D02*
X204212969Y-148759342D01*
X204212969Y-148759342D02*
X204165350Y-148854580D01*
X204165350Y-148854580D02*
X204117731Y-148902200D01*
X204117731Y-148902200D02*
X204022493Y-148949819D01*
X204022493Y-148949819D02*
X203832017Y-148949819D01*
X203832017Y-148949819D02*
X203736779Y-148902200D01*
X204784398Y-148949819D02*
X204689160Y-148902200D01*
X204689160Y-148902200D02*
X204641541Y-148854580D01*
X204641541Y-148854580D02*
X204593922Y-148759342D01*
X204593922Y-148759342D02*
X204593922Y-148473628D01*
X204593922Y-148473628D02*
X204641541Y-148378390D01*
X204641541Y-148378390D02*
X204689160Y-148330771D01*
X204689160Y-148330771D02*
X204784398Y-148283152D01*
X204784398Y-148283152D02*
X204927255Y-148283152D01*
X204927255Y-148283152D02*
X205022493Y-148330771D01*
X205022493Y-148330771D02*
X205070112Y-148378390D01*
X205070112Y-148378390D02*
X205117731Y-148473628D01*
X205117731Y-148473628D02*
X205117731Y-148759342D01*
X205117731Y-148759342D02*
X205070112Y-148854580D01*
X205070112Y-148854580D02*
X205022493Y-148902200D01*
X205022493Y-148902200D02*
X204927255Y-148949819D01*
X204927255Y-148949819D02*
X204784398Y-148949819D01*
X205546303Y-148949819D02*
X205546303Y-148283152D01*
X205546303Y-148473628D02*
X205593922Y-148378390D01*
X205593922Y-148378390D02*
X205641541Y-148330771D01*
X205641541Y-148330771D02*
X205736779Y-148283152D01*
X205736779Y-148283152D02*
X205832017Y-148283152D01*
X206593922Y-148902200D02*
X206498684Y-148949819D01*
X206498684Y-148949819D02*
X206308208Y-148949819D01*
X206308208Y-148949819D02*
X206212970Y-148902200D01*
X206212970Y-148902200D02*
X206165351Y-148854580D01*
X206165351Y-148854580D02*
X206117732Y-148759342D01*
X206117732Y-148759342D02*
X206117732Y-148473628D01*
X206117732Y-148473628D02*
X206165351Y-148378390D01*
X206165351Y-148378390D02*
X206212970Y-148330771D01*
X206212970Y-148330771D02*
X206308208Y-148283152D01*
X206308208Y-148283152D02*
X206498684Y-148283152D01*
X206498684Y-148283152D02*
X206593922Y-148330771D01*
X207451065Y-148283152D02*
X207451065Y-148949819D01*
X207022494Y-148283152D02*
X207022494Y-148806961D01*
X207022494Y-148806961D02*
X207070113Y-148902200D01*
X207070113Y-148902200D02*
X207165351Y-148949819D01*
X207165351Y-148949819D02*
X207308208Y-148949819D01*
X207308208Y-148949819D02*
X207403446Y-148902200D01*
X207403446Y-148902200D02*
X207451065Y-148854580D01*
X207927256Y-148283152D02*
X207927256Y-149283152D01*
X207927256Y-148330771D02*
X208022494Y-148283152D01*
X208022494Y-148283152D02*
X208212970Y-148283152D01*
X208212970Y-148283152D02*
X208308208Y-148330771D01*
X208308208Y-148330771D02*
X208355827Y-148378390D01*
X208355827Y-148378390D02*
X208403446Y-148473628D01*
X208403446Y-148473628D02*
X208403446Y-148759342D01*
X208403446Y-148759342D02*
X208355827Y-148854580D01*
X208355827Y-148854580D02*
X208308208Y-148902200D01*
X208308208Y-148902200D02*
X208212970Y-148949819D01*
X208212970Y-148949819D02*
X208022494Y-148949819D01*
X208022494Y-148949819D02*
X207927256Y-148902200D01*
X208832018Y-148949819D02*
X208832018Y-148283152D01*
X208832018Y-147949819D02*
X208784399Y-147997438D01*
X208784399Y-147997438D02*
X208832018Y-148045057D01*
X208832018Y-148045057D02*
X208879637Y-147997438D01*
X208879637Y-147997438D02*
X208832018Y-147949819D01*
X208832018Y-147949819D02*
X208832018Y-148045057D01*
X209308208Y-148283152D02*
X209308208Y-148949819D01*
X209308208Y-148378390D02*
X209355827Y-148330771D01*
X209355827Y-148330771D02*
X209451065Y-148283152D01*
X209451065Y-148283152D02*
X209593922Y-148283152D01*
X209593922Y-148283152D02*
X209689160Y-148330771D01*
X209689160Y-148330771D02*
X209736779Y-148426009D01*
X209736779Y-148426009D02*
X209736779Y-148949819D01*
X210593922Y-148902200D02*
X210498684Y-148949819D01*
X210498684Y-148949819D02*
X210308208Y-148949819D01*
X210308208Y-148949819D02*
X210212970Y-148902200D01*
X210212970Y-148902200D02*
X210165351Y-148806961D01*
X210165351Y-148806961D02*
X210165351Y-148426009D01*
X210165351Y-148426009D02*
X210212970Y-148330771D01*
X210212970Y-148330771D02*
X210308208Y-148283152D01*
X210308208Y-148283152D02*
X210498684Y-148283152D01*
X210498684Y-148283152D02*
X210593922Y-148330771D01*
X210593922Y-148330771D02*
X210641541Y-148426009D01*
X210641541Y-148426009D02*
X210641541Y-148521247D01*
X210641541Y-148521247D02*
X210165351Y-148616485D01*
X211736780Y-148283152D02*
X211974875Y-148949819D01*
X211974875Y-148949819D02*
X212212970Y-148283152D01*
X212784399Y-147949819D02*
X212879637Y-147949819D01*
X212879637Y-147949819D02*
X212974875Y-147997438D01*
X212974875Y-147997438D02*
X213022494Y-148045057D01*
X213022494Y-148045057D02*
X213070113Y-148140295D01*
X213070113Y-148140295D02*
X213117732Y-148330771D01*
X213117732Y-148330771D02*
X213117732Y-148568866D01*
X213117732Y-148568866D02*
X213070113Y-148759342D01*
X213070113Y-148759342D02*
X213022494Y-148854580D01*
X213022494Y-148854580D02*
X212974875Y-148902200D01*
X212974875Y-148902200D02*
X212879637Y-148949819D01*
X212879637Y-148949819D02*
X212784399Y-148949819D01*
X212784399Y-148949819D02*
X212689161Y-148902200D01*
X212689161Y-148902200D02*
X212641542Y-148854580D01*
X212641542Y-148854580D02*
X212593923Y-148759342D01*
X212593923Y-148759342D02*
X212546304Y-148568866D01*
X212546304Y-148568866D02*
X212546304Y-148330771D01*
X212546304Y-148330771D02*
X212593923Y-148140295D01*
X212593923Y-148140295D02*
X212641542Y-148045057D01*
X212641542Y-148045057D02*
X212689161Y-147997438D01*
X212689161Y-147997438D02*
X212784399Y-147949819D01*
X213546304Y-148854580D02*
X213593923Y-148902200D01*
X213593923Y-148902200D02*
X213546304Y-148949819D01*
X213546304Y-148949819D02*
X213498685Y-148902200D01*
X213498685Y-148902200D02*
X213546304Y-148854580D01*
X213546304Y-148854580D02*
X213546304Y-148949819D01*
X214546303Y-148949819D02*
X213974875Y-148949819D01*
X214260589Y-148949819D02*
X214260589Y-147949819D01*
X214260589Y-147949819D02*
X214165351Y-148092676D01*
X214165351Y-148092676D02*
X214070113Y-148187914D01*
X214070113Y-148187914D02*
X213974875Y-148235533D01*
X203736779Y-150559819D02*
X203736779Y-149559819D01*
X203736779Y-149940771D02*
X203832017Y-149893152D01*
X203832017Y-149893152D02*
X204022493Y-149893152D01*
X204022493Y-149893152D02*
X204117731Y-149940771D01*
X204117731Y-149940771D02*
X204165350Y-149988390D01*
X204165350Y-149988390D02*
X204212969Y-150083628D01*
X204212969Y-150083628D02*
X204212969Y-150369342D01*
X204212969Y-150369342D02*
X204165350Y-150464580D01*
X204165350Y-150464580D02*
X204117731Y-150512200D01*
X204117731Y-150512200D02*
X204022493Y-150559819D01*
X204022493Y-150559819D02*
X203832017Y-150559819D01*
X203832017Y-150559819D02*
X203736779Y-150512200D01*
X204546303Y-149893152D02*
X204784398Y-150559819D01*
X205022493Y-149893152D02*
X204784398Y-150559819D01*
X204784398Y-150559819D02*
X204689160Y-150797914D01*
X204689160Y-150797914D02*
X204641541Y-150845533D01*
X204641541Y-150845533D02*
X204546303Y-150893152D01*
X206117732Y-150274104D02*
X206593922Y-150274104D01*
X206022494Y-150559819D02*
X206355827Y-149559819D01*
X206355827Y-149559819D02*
X206689160Y-150559819D01*
X207022494Y-149893152D02*
X207022494Y-150559819D01*
X207022494Y-149988390D02*
X207070113Y-149940771D01*
X207070113Y-149940771D02*
X207165351Y-149893152D01*
X207165351Y-149893152D02*
X207308208Y-149893152D01*
X207308208Y-149893152D02*
X207403446Y-149940771D01*
X207403446Y-149940771D02*
X207451065Y-150036009D01*
X207451065Y-150036009D02*
X207451065Y-150559819D01*
X208355827Y-150559819D02*
X208355827Y-150036009D01*
X208355827Y-150036009D02*
X208308208Y-149940771D01*
X208308208Y-149940771D02*
X208212970Y-149893152D01*
X208212970Y-149893152D02*
X208022494Y-149893152D01*
X208022494Y-149893152D02*
X207927256Y-149940771D01*
X208355827Y-150512200D02*
X208260589Y-150559819D01*
X208260589Y-150559819D02*
X208022494Y-150559819D01*
X208022494Y-150559819D02*
X207927256Y-150512200D01*
X207927256Y-150512200D02*
X207879637Y-150416961D01*
X207879637Y-150416961D02*
X207879637Y-150321723D01*
X207879637Y-150321723D02*
X207927256Y-150226485D01*
X207927256Y-150226485D02*
X208022494Y-150178866D01*
X208022494Y-150178866D02*
X208260589Y-150178866D01*
X208260589Y-150178866D02*
X208355827Y-150131247D01*
X208832018Y-150559819D02*
X208832018Y-149893152D01*
X208832018Y-150083628D02*
X208879637Y-149988390D01*
X208879637Y-149988390D02*
X208927256Y-149940771D01*
X208927256Y-149940771D02*
X209022494Y-149893152D01*
X209022494Y-149893152D02*
X209117732Y-149893152D01*
X209451066Y-150559819D02*
X209451066Y-149893152D01*
X209451066Y-149559819D02*
X209403447Y-149607438D01*
X209403447Y-149607438D02*
X209451066Y-149655057D01*
X209451066Y-149655057D02*
X209498685Y-149607438D01*
X209498685Y-149607438D02*
X209451066Y-149559819D01*
X209451066Y-149559819D02*
X209451066Y-149655057D01*
X210070113Y-150559819D02*
X209974875Y-150512200D01*
X209974875Y-150512200D02*
X209927256Y-150464580D01*
X209927256Y-150464580D02*
X209879637Y-150369342D01*
X209879637Y-150369342D02*
X209879637Y-150083628D01*
X209879637Y-150083628D02*
X209927256Y-149988390D01*
X209927256Y-149988390D02*
X209974875Y-149940771D01*
X209974875Y-149940771D02*
X210070113Y-149893152D01*
X210070113Y-149893152D02*
X210212970Y-149893152D01*
X210212970Y-149893152D02*
X210308208Y-149940771D01*
X210308208Y-149940771D02*
X210355827Y-149988390D01*
X210355827Y-149988390D02*
X210403446Y-150083628D01*
X210403446Y-150083628D02*
X210403446Y-150369342D01*
X210403446Y-150369342D02*
X210355827Y-150464580D01*
X210355827Y-150464580D02*
X210308208Y-150512200D01*
X210308208Y-150512200D02*
X210212970Y-150559819D01*
X210212970Y-150559819D02*
X210070113Y-150559819D01*
X210832018Y-150559819D02*
X210832018Y-149559819D01*
X210832018Y-149559819D02*
X211403446Y-150559819D01*
X211403446Y-150559819D02*
X211403446Y-149559819D01*
X264818287Y-112994356D02*
X264865906Y-112857452D01*
X264865906Y-112857452D02*
X264865906Y-112619356D01*
X264865906Y-112619356D02*
X264818287Y-112518166D01*
X264818287Y-112518166D02*
X264770667Y-112464594D01*
X264770667Y-112464594D02*
X264675429Y-112405071D01*
X264675429Y-112405071D02*
X264580191Y-112393166D01*
X264580191Y-112393166D02*
X264484953Y-112428880D01*
X264484953Y-112428880D02*
X264437334Y-112470547D01*
X264437334Y-112470547D02*
X264389715Y-112559833D01*
X264389715Y-112559833D02*
X264342096Y-112744356D01*
X264342096Y-112744356D02*
X264294477Y-112833642D01*
X264294477Y-112833642D02*
X264246858Y-112875309D01*
X264246858Y-112875309D02*
X264151620Y-112911023D01*
X264151620Y-112911023D02*
X264056382Y-112899118D01*
X264056382Y-112899118D02*
X263961144Y-112839594D01*
X263961144Y-112839594D02*
X263913525Y-112786023D01*
X263913525Y-112786023D02*
X263865906Y-112684833D01*
X263865906Y-112684833D02*
X263865906Y-112446737D01*
X263865906Y-112446737D02*
X263913525Y-112309833D01*
X264865906Y-111857452D02*
X264818287Y-111946737D01*
X264818287Y-111946737D02*
X264770667Y-111988404D01*
X264770667Y-111988404D02*
X264675429Y-112024118D01*
X264675429Y-112024118D02*
X264389715Y-111988404D01*
X264389715Y-111988404D02*
X264294477Y-111928880D01*
X264294477Y-111928880D02*
X264246858Y-111875309D01*
X264246858Y-111875309D02*
X264199239Y-111774118D01*
X264199239Y-111774118D02*
X264199239Y-111631261D01*
X264199239Y-111631261D02*
X264246858Y-111541975D01*
X264246858Y-111541975D02*
X264294477Y-111500309D01*
X264294477Y-111500309D02*
X264389715Y-111464594D01*
X264389715Y-111464594D02*
X264675429Y-111500309D01*
X264675429Y-111500309D02*
X264770667Y-111559832D01*
X264770667Y-111559832D02*
X264818287Y-111613404D01*
X264818287Y-111613404D02*
X264865906Y-111714594D01*
X264865906Y-111714594D02*
X264865906Y-111857452D01*
X264865906Y-110952690D02*
X264818287Y-111041975D01*
X264818287Y-111041975D02*
X264723048Y-111077690D01*
X264723048Y-111077690D02*
X263865906Y-110970547D01*
X264865906Y-110143165D02*
X263865906Y-110018165D01*
X264818287Y-110137213D02*
X264865906Y-110238403D01*
X264865906Y-110238403D02*
X264865906Y-110428880D01*
X264865906Y-110428880D02*
X264818287Y-110518165D01*
X264818287Y-110518165D02*
X264770667Y-110559832D01*
X264770667Y-110559832D02*
X264675429Y-110595546D01*
X264675429Y-110595546D02*
X264389715Y-110559832D01*
X264389715Y-110559832D02*
X264294477Y-110500308D01*
X264294477Y-110500308D02*
X264246858Y-110446737D01*
X264246858Y-110446737D02*
X264199239Y-110345546D01*
X264199239Y-110345546D02*
X264199239Y-110155070D01*
X264199239Y-110155070D02*
X264246858Y-110065784D01*
X264818287Y-109280070D02*
X264865906Y-109381260D01*
X264865906Y-109381260D02*
X264865906Y-109571737D01*
X264865906Y-109571737D02*
X264818287Y-109661022D01*
X264818287Y-109661022D02*
X264723048Y-109696737D01*
X264723048Y-109696737D02*
X264342096Y-109649118D01*
X264342096Y-109649118D02*
X264246858Y-109589594D01*
X264246858Y-109589594D02*
X264199239Y-109488403D01*
X264199239Y-109488403D02*
X264199239Y-109297927D01*
X264199239Y-109297927D02*
X264246858Y-109208641D01*
X264246858Y-109208641D02*
X264342096Y-109172927D01*
X264342096Y-109172927D02*
X264437334Y-109184832D01*
X264437334Y-109184832D02*
X264532572Y-109672927D01*
X264865906Y-108809832D02*
X264199239Y-108726498D01*
X264389715Y-108750308D02*
X264294477Y-108690784D01*
X264294477Y-108690784D02*
X264246858Y-108637213D01*
X264246858Y-108637213D02*
X264199239Y-108536022D01*
X264199239Y-108536022D02*
X264199239Y-108440784D01*
X264199239Y-107488402D02*
X264199239Y-107107450D01*
X263865906Y-107303879D02*
X264723048Y-107411022D01*
X264723048Y-107411022D02*
X264818287Y-107375307D01*
X264818287Y-107375307D02*
X264865906Y-107286022D01*
X264865906Y-107286022D02*
X264865906Y-107190783D01*
X264865906Y-106857450D02*
X263865906Y-106732450D01*
X264865906Y-106428878D02*
X264342096Y-106363402D01*
X264342096Y-106363402D02*
X264246858Y-106399116D01*
X264246858Y-106399116D02*
X264199239Y-106488402D01*
X264199239Y-106488402D02*
X264199239Y-106631259D01*
X264199239Y-106631259D02*
X264246858Y-106732450D01*
X264246858Y-106732450D02*
X264294477Y-106786021D01*
X264818287Y-105565783D02*
X264865906Y-105666973D01*
X264865906Y-105666973D02*
X264865906Y-105857450D01*
X264865906Y-105857450D02*
X264818287Y-105946735D01*
X264818287Y-105946735D02*
X264723048Y-105982450D01*
X264723048Y-105982450D02*
X264342096Y-105934831D01*
X264342096Y-105934831D02*
X264246858Y-105875307D01*
X264246858Y-105875307D02*
X264199239Y-105774116D01*
X264199239Y-105774116D02*
X264199239Y-105583640D01*
X264199239Y-105583640D02*
X264246858Y-105494354D01*
X264246858Y-105494354D02*
X264342096Y-105458640D01*
X264342096Y-105458640D02*
X264437334Y-105470545D01*
X264437334Y-105470545D02*
X264532572Y-105958640D01*
X264199239Y-104250306D02*
X265056382Y-104357449D01*
X265056382Y-104357449D02*
X265151620Y-104416973D01*
X265151620Y-104416973D02*
X265199239Y-104518163D01*
X265199239Y-104518163D02*
X265199239Y-104565783D01*
X263865906Y-104208640D02*
X263913525Y-104262211D01*
X263913525Y-104262211D02*
X263961144Y-104220544D01*
X263961144Y-104220544D02*
X263913525Y-104166973D01*
X263913525Y-104166973D02*
X263865906Y-104208640D01*
X263865906Y-104208640D02*
X263961144Y-104220544D01*
X264199239Y-103345545D02*
X264865906Y-103428878D01*
X264199239Y-103774116D02*
X264723048Y-103839593D01*
X264723048Y-103839593D02*
X264818287Y-103803878D01*
X264818287Y-103803878D02*
X264865906Y-103714593D01*
X264865906Y-103714593D02*
X264865906Y-103571735D01*
X264865906Y-103571735D02*
X264818287Y-103470545D01*
X264818287Y-103470545D02*
X264770667Y-103416973D01*
X264865906Y-102952688D02*
X264199239Y-102869354D01*
X264294477Y-102881259D02*
X264246858Y-102827688D01*
X264246858Y-102827688D02*
X264199239Y-102726497D01*
X264199239Y-102726497D02*
X264199239Y-102583640D01*
X264199239Y-102583640D02*
X264246858Y-102494354D01*
X264246858Y-102494354D02*
X264342096Y-102458640D01*
X264342096Y-102458640D02*
X264865906Y-102524116D01*
X264342096Y-102458640D02*
X264246858Y-102399116D01*
X264246858Y-102399116D02*
X264199239Y-102297926D01*
X264199239Y-102297926D02*
X264199239Y-102155069D01*
X264199239Y-102155069D02*
X264246858Y-102065783D01*
X264246858Y-102065783D02*
X264342096Y-102030069D01*
X264342096Y-102030069D02*
X264865906Y-102095545D01*
X264199239Y-101536021D02*
X265199239Y-101661021D01*
X264246858Y-101541974D02*
X264199239Y-101440783D01*
X264199239Y-101440783D02*
X264199239Y-101250307D01*
X264199239Y-101250307D02*
X264246858Y-101161021D01*
X264246858Y-101161021D02*
X264294477Y-101119355D01*
X264294477Y-101119355D02*
X264389715Y-101083640D01*
X264389715Y-101083640D02*
X264675429Y-101119355D01*
X264675429Y-101119355D02*
X264770667Y-101178878D01*
X264770667Y-101178878D02*
X264818287Y-101232450D01*
X264818287Y-101232450D02*
X264865906Y-101333640D01*
X264865906Y-101333640D02*
X264865906Y-101524117D01*
X264865906Y-101524117D02*
X264818287Y-101613402D01*
X264818287Y-100327688D02*
X264865906Y-100428878D01*
X264865906Y-100428878D02*
X264865906Y-100619355D01*
X264865906Y-100619355D02*
X264818287Y-100708640D01*
X264818287Y-100708640D02*
X264723048Y-100744355D01*
X264723048Y-100744355D02*
X264342096Y-100696736D01*
X264342096Y-100696736D02*
X264246858Y-100637212D01*
X264246858Y-100637212D02*
X264199239Y-100536021D01*
X264199239Y-100536021D02*
X264199239Y-100345545D01*
X264199239Y-100345545D02*
X264246858Y-100256259D01*
X264246858Y-100256259D02*
X264342096Y-100220545D01*
X264342096Y-100220545D02*
X264437334Y-100232450D01*
X264437334Y-100232450D02*
X264532572Y-100720545D01*
X264865906Y-99857450D02*
X264199239Y-99774116D01*
X264389715Y-99797926D02*
X264294477Y-99738402D01*
X264294477Y-99738402D02*
X264246858Y-99684831D01*
X264246858Y-99684831D02*
X264199239Y-99583640D01*
X264199239Y-99583640D02*
X264199239Y-99488402D01*
X264818287Y-99280068D02*
X264865906Y-99190783D01*
X264865906Y-99190783D02*
X264865906Y-99000306D01*
X264865906Y-99000306D02*
X264818287Y-98899116D01*
X264818287Y-98899116D02*
X264723048Y-98839592D01*
X264723048Y-98839592D02*
X264675429Y-98833640D01*
X264675429Y-98833640D02*
X264580191Y-98869354D01*
X264580191Y-98869354D02*
X264532572Y-98958640D01*
X264532572Y-98958640D02*
X264532572Y-99101497D01*
X264532572Y-99101497D02*
X264484953Y-99190783D01*
X264484953Y-99190783D02*
X264389715Y-99226497D01*
X264389715Y-99226497D02*
X264342096Y-99220545D01*
X264342096Y-99220545D02*
X264246858Y-99161021D01*
X264246858Y-99161021D02*
X264199239Y-99059830D01*
X264199239Y-99059830D02*
X264199239Y-98916973D01*
X264199239Y-98916973D02*
X264246858Y-98827687D01*
X264818287Y-98375306D02*
X264865906Y-98381259D01*
X264865906Y-98381259D02*
X264961144Y-98440782D01*
X264961144Y-98440782D02*
X265008763Y-98494354D01*
X270265906Y-112524118D02*
X269742096Y-112458642D01*
X269742096Y-112458642D02*
X269646858Y-112494356D01*
X269646858Y-112494356D02*
X269599239Y-112583642D01*
X269599239Y-112583642D02*
X269599239Y-112774118D01*
X269599239Y-112774118D02*
X269646858Y-112875309D01*
X270218287Y-112518166D02*
X270265906Y-112619356D01*
X270265906Y-112619356D02*
X270265906Y-112857452D01*
X270265906Y-112857452D02*
X270218287Y-112946737D01*
X270218287Y-112946737D02*
X270123048Y-112982452D01*
X270123048Y-112982452D02*
X270027810Y-112970547D01*
X270027810Y-112970547D02*
X269932572Y-112911023D01*
X269932572Y-112911023D02*
X269884953Y-112809833D01*
X269884953Y-112809833D02*
X269884953Y-112571737D01*
X269884953Y-112571737D02*
X269837334Y-112470547D01*
X269599239Y-111964594D02*
X270265906Y-112047928D01*
X269694477Y-111976499D02*
X269646858Y-111922928D01*
X269646858Y-111922928D02*
X269599239Y-111821737D01*
X269599239Y-111821737D02*
X269599239Y-111678880D01*
X269599239Y-111678880D02*
X269646858Y-111589594D01*
X269646858Y-111589594D02*
X269742096Y-111553880D01*
X269742096Y-111553880D02*
X270265906Y-111619356D01*
X270265906Y-110714594D02*
X269265906Y-110589594D01*
X270218287Y-110708642D02*
X270265906Y-110809832D01*
X270265906Y-110809832D02*
X270265906Y-111000309D01*
X270265906Y-111000309D02*
X270218287Y-111089594D01*
X270218287Y-111089594D02*
X270170667Y-111131261D01*
X270170667Y-111131261D02*
X270075429Y-111166975D01*
X270075429Y-111166975D02*
X269789715Y-111131261D01*
X269789715Y-111131261D02*
X269694477Y-111071737D01*
X269694477Y-111071737D02*
X269646858Y-111018166D01*
X269646858Y-111018166D02*
X269599239Y-110916975D01*
X269599239Y-110916975D02*
X269599239Y-110726499D01*
X269599239Y-110726499D02*
X269646858Y-110637213D01*
X269599239Y-109393165D02*
X270599239Y-109518165D01*
X269646858Y-109399118D02*
X269599239Y-109297927D01*
X269599239Y-109297927D02*
X269599239Y-109107451D01*
X269599239Y-109107451D02*
X269646858Y-109018165D01*
X269646858Y-109018165D02*
X269694477Y-108976499D01*
X269694477Y-108976499D02*
X269789715Y-108940784D01*
X269789715Y-108940784D02*
X270075429Y-108976499D01*
X270075429Y-108976499D02*
X270170667Y-109036022D01*
X270170667Y-109036022D02*
X270218287Y-109089594D01*
X270218287Y-109089594D02*
X270265906Y-109190784D01*
X270265906Y-109190784D02*
X270265906Y-109381261D01*
X270265906Y-109381261D02*
X270218287Y-109470546D01*
X270265906Y-108428880D02*
X270218287Y-108518165D01*
X270218287Y-108518165D02*
X270123048Y-108553880D01*
X270123048Y-108553880D02*
X269265906Y-108446737D01*
X270265906Y-107619355D02*
X269742096Y-107553879D01*
X269742096Y-107553879D02*
X269646858Y-107589593D01*
X269646858Y-107589593D02*
X269599239Y-107678879D01*
X269599239Y-107678879D02*
X269599239Y-107869355D01*
X269599239Y-107869355D02*
X269646858Y-107970546D01*
X270218287Y-107613403D02*
X270265906Y-107714593D01*
X270265906Y-107714593D02*
X270265906Y-107952689D01*
X270265906Y-107952689D02*
X270218287Y-108041974D01*
X270218287Y-108041974D02*
X270123048Y-108077689D01*
X270123048Y-108077689D02*
X270027810Y-108065784D01*
X270027810Y-108065784D02*
X269932572Y-108006260D01*
X269932572Y-108006260D02*
X269884953Y-107905070D01*
X269884953Y-107905070D02*
X269884953Y-107666974D01*
X269884953Y-107666974D02*
X269837334Y-107565784D01*
X270218287Y-106708641D02*
X270265906Y-106809831D01*
X270265906Y-106809831D02*
X270265906Y-107000308D01*
X270265906Y-107000308D02*
X270218287Y-107089593D01*
X270218287Y-107089593D02*
X270170667Y-107131260D01*
X270170667Y-107131260D02*
X270075429Y-107166974D01*
X270075429Y-107166974D02*
X269789715Y-107131260D01*
X269789715Y-107131260D02*
X269694477Y-107071736D01*
X269694477Y-107071736D02*
X269646858Y-107018165D01*
X269646858Y-107018165D02*
X269599239Y-106916974D01*
X269599239Y-106916974D02*
X269599239Y-106726498D01*
X269599239Y-106726498D02*
X269646858Y-106637212D01*
X270218287Y-105899117D02*
X270265906Y-106000307D01*
X270265906Y-106000307D02*
X270265906Y-106190784D01*
X270265906Y-106190784D02*
X270218287Y-106280069D01*
X270218287Y-106280069D02*
X270123048Y-106315784D01*
X270123048Y-106315784D02*
X269742096Y-106268165D01*
X269742096Y-106268165D02*
X269646858Y-106208641D01*
X269646858Y-106208641D02*
X269599239Y-106107450D01*
X269599239Y-106107450D02*
X269599239Y-105916974D01*
X269599239Y-105916974D02*
X269646858Y-105827688D01*
X269646858Y-105827688D02*
X269742096Y-105791974D01*
X269742096Y-105791974D02*
X269837334Y-105803879D01*
X269837334Y-105803879D02*
X269932572Y-106291974D01*
X270265906Y-104666974D02*
X269265906Y-104541974D01*
X269265906Y-104541974D02*
X269980191Y-104297926D01*
X269980191Y-104297926D02*
X269265906Y-103875307D01*
X269265906Y-103875307D02*
X270265906Y-104000307D01*
X270170667Y-102940783D02*
X270218287Y-102994355D01*
X270218287Y-102994355D02*
X270265906Y-103143164D01*
X270265906Y-103143164D02*
X270265906Y-103238402D01*
X270265906Y-103238402D02*
X270218287Y-103375307D01*
X270218287Y-103375307D02*
X270123048Y-103458640D01*
X270123048Y-103458640D02*
X270027810Y-103494355D01*
X270027810Y-103494355D02*
X269837334Y-103518164D01*
X269837334Y-103518164D02*
X269694477Y-103500307D01*
X269694477Y-103500307D02*
X269504001Y-103428879D01*
X269504001Y-103428879D02*
X269408763Y-103369355D01*
X269408763Y-103369355D02*
X269313525Y-103262212D01*
X269313525Y-103262212D02*
X269265906Y-103113402D01*
X269265906Y-103113402D02*
X269265906Y-103018164D01*
X269265906Y-103018164D02*
X269313525Y-102881260D01*
X269313525Y-102881260D02*
X269361144Y-102839593D01*
X269265906Y-102399117D02*
X270075429Y-102500307D01*
X270075429Y-102500307D02*
X270170667Y-102464593D01*
X270170667Y-102464593D02*
X270218287Y-102422926D01*
X270218287Y-102422926D02*
X270265906Y-102333640D01*
X270265906Y-102333640D02*
X270265906Y-102143164D01*
X270265906Y-102143164D02*
X270218287Y-102041974D01*
X270218287Y-102041974D02*
X270170667Y-101988402D01*
X270170667Y-101988402D02*
X270075429Y-101928879D01*
X270075429Y-101928879D02*
X269265906Y-101827688D01*
X269599239Y-100774116D02*
X269599239Y-100393164D01*
X270265906Y-100714593D02*
X269408763Y-100607450D01*
X269408763Y-100607450D02*
X269313525Y-100547926D01*
X269313525Y-100547926D02*
X269265906Y-100446736D01*
X269265906Y-100446736D02*
X269265906Y-100351497D01*
X270265906Y-99714592D02*
X269742096Y-99649116D01*
X269742096Y-99649116D02*
X269646858Y-99684830D01*
X269646858Y-99684830D02*
X269599239Y-99774116D01*
X269599239Y-99774116D02*
X269599239Y-99964592D01*
X269599239Y-99964592D02*
X269646858Y-100065783D01*
X270218287Y-99708640D02*
X270265906Y-99809830D01*
X270265906Y-99809830D02*
X270265906Y-100047926D01*
X270265906Y-100047926D02*
X270218287Y-100137211D01*
X270218287Y-100137211D02*
X270123048Y-100172926D01*
X270123048Y-100172926D02*
X270027810Y-100161021D01*
X270027810Y-100161021D02*
X269932572Y-100101497D01*
X269932572Y-100101497D02*
X269884953Y-100000307D01*
X269884953Y-100000307D02*
X269884953Y-99762211D01*
X269884953Y-99762211D02*
X269837334Y-99661021D01*
X270218287Y-98803878D02*
X270265906Y-98905068D01*
X270265906Y-98905068D02*
X270265906Y-99095545D01*
X270265906Y-99095545D02*
X270218287Y-99184830D01*
X270218287Y-99184830D02*
X270170667Y-99226497D01*
X270170667Y-99226497D02*
X270075429Y-99262211D01*
X270075429Y-99262211D02*
X269789715Y-99226497D01*
X269789715Y-99226497D02*
X269694477Y-99166973D01*
X269694477Y-99166973D02*
X269646858Y-99113402D01*
X269646858Y-99113402D02*
X269599239Y-99012211D01*
X269599239Y-99012211D02*
X269599239Y-98821735D01*
X269599239Y-98821735D02*
X269646858Y-98732449D01*
X270265906Y-98381259D02*
X269599239Y-98297925D01*
X269265906Y-98256259D02*
X269313525Y-98309830D01*
X269313525Y-98309830D02*
X269361144Y-98268163D01*
X269361144Y-98268163D02*
X269313525Y-98214592D01*
X269313525Y-98214592D02*
X269265906Y-98256259D01*
X269265906Y-98256259D02*
X269361144Y-98268163D01*
X269599239Y-97821735D02*
X270265906Y-97905069D01*
X269694477Y-97833640D02*
X269646858Y-97780069D01*
X269646858Y-97780069D02*
X269599239Y-97678878D01*
X269599239Y-97678878D02*
X269599239Y-97536021D01*
X269599239Y-97536021D02*
X269646858Y-97446735D01*
X269646858Y-97446735D02*
X269742096Y-97411021D01*
X269742096Y-97411021D02*
X270265906Y-97476497D01*
X269599239Y-96488402D02*
X270408763Y-96589592D01*
X270408763Y-96589592D02*
X270504001Y-96649116D01*
X270504001Y-96649116D02*
X270551620Y-96702688D01*
X270551620Y-96702688D02*
X270599239Y-96803878D01*
X270599239Y-96803878D02*
X270599239Y-96946735D01*
X270599239Y-96946735D02*
X270551620Y-97036021D01*
X270218287Y-96565783D02*
X270265906Y-96666973D01*
X270265906Y-96666973D02*
X270265906Y-96857450D01*
X270265906Y-96857450D02*
X270218287Y-96946735D01*
X270218287Y-96946735D02*
X270170667Y-96988402D01*
X270170667Y-96988402D02*
X270075429Y-97024116D01*
X270075429Y-97024116D02*
X269789715Y-96988402D01*
X269789715Y-96988402D02*
X269694477Y-96928878D01*
X269694477Y-96928878D02*
X269646858Y-96875307D01*
X269646858Y-96875307D02*
X269599239Y-96774116D01*
X269599239Y-96774116D02*
X269599239Y-96583640D01*
X269599239Y-96583640D02*
X269646858Y-96494354D01*
X269265906Y-95208640D02*
X270075429Y-95309830D01*
X270075429Y-95309830D02*
X270170667Y-95274116D01*
X270170667Y-95274116D02*
X270218287Y-95232449D01*
X270218287Y-95232449D02*
X270265906Y-95143163D01*
X270265906Y-95143163D02*
X270265906Y-94952687D01*
X270265906Y-94952687D02*
X270218287Y-94851497D01*
X270218287Y-94851497D02*
X270170667Y-94797925D01*
X270170667Y-94797925D02*
X270075429Y-94738402D01*
X270075429Y-94738402D02*
X269265906Y-94637211D01*
X270265906Y-94286021D02*
X269265906Y-94161021D01*
X269265906Y-94161021D02*
X269265906Y-93780068D01*
X269265906Y-93780068D02*
X269313525Y-93690783D01*
X269313525Y-93690783D02*
X269361144Y-93649116D01*
X269361144Y-93649116D02*
X269456382Y-93613402D01*
X269456382Y-93613402D02*
X269599239Y-93631259D01*
X269599239Y-93631259D02*
X269694477Y-93690783D01*
X269694477Y-93690783D02*
X269742096Y-93744354D01*
X269742096Y-93744354D02*
X269789715Y-93845544D01*
X269789715Y-93845544D02*
X269789715Y-94226497D01*
X270170667Y-93274116D02*
X270218287Y-93232449D01*
X270218287Y-93232449D02*
X270265906Y-93286021D01*
X270265906Y-93286021D02*
X270218287Y-93327687D01*
X270218287Y-93327687D02*
X270170667Y-93274116D01*
X270170667Y-93274116D02*
X270265906Y-93286021D01*
X269884953Y-93238402D02*
X269313525Y-93214592D01*
X269313525Y-93214592D02*
X269265906Y-93161021D01*
X269265906Y-93161021D02*
X269313525Y-93119354D01*
X269313525Y-93119354D02*
X269884953Y-93238402D01*
X269884953Y-93238402D02*
X269265906Y-93161021D01*
X170382150Y-159483554D02*
X183770416Y-155390350D01*
X183770416Y-155390350D02*
X179677212Y-142002084D01*
X179677212Y-142002084D02*
X166288946Y-146095288D01*
X166288946Y-146095288D02*
X170382150Y-159483554D01*
X165411831Y-143226373D02*
X178800097Y-139133170D01*
X178800097Y-139133170D02*
X174706893Y-125744903D01*
X174706893Y-125744903D02*
X161318627Y-129838107D01*
X161318627Y-129838107D02*
X165411831Y-143226373D01*
X160441512Y-126969192D02*
X173829778Y-122875989D01*
X173829778Y-122875989D02*
X169736574Y-109487722D01*
X169736574Y-109487722D02*
X156348308Y-113580926D01*
X156348308Y-113580926D02*
X160441512Y-126969192D01*
X183613031Y-136847588D02*
X197400339Y-134416514D01*
X197400339Y-134416514D02*
X194969265Y-120629205D01*
X194969265Y-120629205D02*
X181181956Y-123060280D01*
X181181956Y-123060280D02*
X183613031Y-136847588D01*
X180661012Y-120105856D02*
X194448320Y-117674782D01*
X194448320Y-117674782D02*
X192017246Y-103887473D01*
X192017246Y-103887473D02*
X178229937Y-106318548D01*
X178229937Y-106318548D02*
X180661012Y-120105856D01*
X177708993Y-103364125D02*
X191496301Y-100933050D01*
X191496301Y-100933050D02*
X189065227Y-87145742D01*
X189065227Y-87145742D02*
X175277918Y-89576816D01*
X175277918Y-89576816D02*
X177708993Y-103364125D01*
X201340019Y-127404596D02*
X215286744Y-126184416D01*
X215286744Y-126184416D02*
X214066564Y-112237690D01*
X214066564Y-112237690D02*
X200119838Y-113457870D01*
X200119838Y-113457870D02*
X201340019Y-127404596D01*
X200057610Y-110451855D02*
X214004336Y-109231675D01*
X214004336Y-109231675D02*
X212784155Y-95284949D01*
X212784155Y-95284949D02*
X198837429Y-96505129D01*
X198837429Y-96505129D02*
X200057610Y-110451855D01*
X198775201Y-93499114D02*
X212721927Y-92278934D01*
X212721927Y-92278934D02*
X211501747Y-78332208D01*
X211501747Y-78332208D02*
X197555021Y-79552388D01*
X197555021Y-79552388D02*
X198775201Y-93499114D01*
X220411087Y-130850184D02*
X234411087Y-130850184D01*
X234411087Y-130850184D02*
X234411087Y-116850184D01*
X234411087Y-116850184D02*
X220411087Y-116850184D01*
X220411087Y-116850184D02*
X220411087Y-130850184D01*
X220411087Y-113850184D02*
X234411087Y-113850184D01*
X234411087Y-113850184D02*
X234411087Y-99850184D01*
X234411087Y-99850184D02*
X220411087Y-99850184D01*
X220411087Y-99850184D02*
X220411087Y-113850184D01*
X220411087Y-96850184D02*
X234411087Y-96850184D01*
X234411087Y-96850184D02*
X234411087Y-82850184D01*
X234411087Y-82850184D02*
X220411087Y-82850184D01*
X220411087Y-82850184D02*
X220411087Y-96850184D01*
X239411087Y-133683517D02*
X253411087Y-133683517D01*
X253411087Y-133683517D02*
X253411087Y-119683517D01*
X253411087Y-119683517D02*
X239411087Y-119683517D01*
X239411087Y-119683517D02*
X239411087Y-133683517D01*
X239411087Y-116683517D02*
X253411087Y-116683517D01*
X253411087Y-116683517D02*
X253411087Y-102683517D01*
X253411087Y-102683517D02*
X239411087Y-102683517D01*
X239411087Y-102683517D02*
X239411087Y-116683517D01*
X239411087Y-99683517D02*
X253411087Y-99683517D01*
X253411087Y-99683517D02*
X253411087Y-85683517D01*
X253411087Y-85683517D02*
X239411087Y-85683517D01*
X239411087Y-85683517D02*
X239411087Y-99683517D01*
X232225208Y-155181577D02*
X246088961Y-157130001D01*
X246088961Y-157130001D02*
X248037384Y-143266248D01*
X248037384Y-143266248D02*
X234173631Y-141317824D01*
X234173631Y-141317824D02*
X232225208Y-155181577D01*
X251383344Y-158499221D02*
X264453470Y-163516373D01*
X264453470Y-163516373D02*
X269470621Y-150446247D01*
X269470621Y-150446247D02*
X256400495Y-145429095D01*
X256400495Y-145429095D02*
X251383344Y-158499221D01*
X269276325Y-166329176D02*
X280744454Y-174359246D01*
X280744454Y-174359246D02*
X288774524Y-162891118D01*
X288774524Y-162891118D02*
X277306395Y-154861047D01*
X277306395Y-154861047D02*
X269276325Y-166329176D01*
%TO.C,MCU1*%
X256639658Y-90075812D02*
X256639658Y-89275812D01*
X256639658Y-89275812D02*
X256944420Y-89275812D01*
X256944420Y-89275812D02*
X257020610Y-89313907D01*
X257020610Y-89313907D02*
X257058705Y-89352002D01*
X257058705Y-89352002D02*
X257096801Y-89428193D01*
X257096801Y-89428193D02*
X257096801Y-89542478D01*
X257096801Y-89542478D02*
X257058705Y-89618669D01*
X257058705Y-89618669D02*
X257020610Y-89656764D01*
X257020610Y-89656764D02*
X256944420Y-89694859D01*
X256944420Y-89694859D02*
X256639658Y-89694859D01*
X257592039Y-89275812D02*
X257668229Y-89275812D01*
X257668229Y-89275812D02*
X257744420Y-89313907D01*
X257744420Y-89313907D02*
X257782515Y-89352002D01*
X257782515Y-89352002D02*
X257820610Y-89428193D01*
X257820610Y-89428193D02*
X257858705Y-89580574D01*
X257858705Y-89580574D02*
X257858705Y-89771050D01*
X257858705Y-89771050D02*
X257820610Y-89923431D01*
X257820610Y-89923431D02*
X257782515Y-89999621D01*
X257782515Y-89999621D02*
X257744420Y-90037717D01*
X257744420Y-90037717D02*
X257668229Y-90075812D01*
X257668229Y-90075812D02*
X257592039Y-90075812D01*
X257592039Y-90075812D02*
X257515848Y-90037717D01*
X257515848Y-90037717D02*
X257477753Y-89999621D01*
X257477753Y-89999621D02*
X257439658Y-89923431D01*
X257439658Y-89923431D02*
X257401562Y-89771050D01*
X257401562Y-89771050D02*
X257401562Y-89580574D01*
X257401562Y-89580574D02*
X257439658Y-89428193D01*
X257439658Y-89428193D02*
X257477753Y-89352002D01*
X257477753Y-89352002D02*
X257515848Y-89313907D01*
X257515848Y-89313907D02*
X257592039Y-89275812D01*
X258620610Y-90075812D02*
X258163467Y-90075812D01*
X258392039Y-90075812D02*
X258392039Y-89275812D01*
X258392039Y-89275812D02*
X258315848Y-89390097D01*
X258315848Y-89390097D02*
X258239658Y-89466288D01*
X258239658Y-89466288D02*
X258163467Y-89504383D01*
X256639658Y-92615812D02*
X256639658Y-91815812D01*
X256639658Y-91815812D02*
X256944420Y-91815812D01*
X256944420Y-91815812D02*
X257020610Y-91853907D01*
X257020610Y-91853907D02*
X257058705Y-91892002D01*
X257058705Y-91892002D02*
X257096801Y-91968193D01*
X257096801Y-91968193D02*
X257096801Y-92082478D01*
X257096801Y-92082478D02*
X257058705Y-92158669D01*
X257058705Y-92158669D02*
X257020610Y-92196764D01*
X257020610Y-92196764D02*
X256944420Y-92234859D01*
X256944420Y-92234859D02*
X256639658Y-92234859D01*
X257592039Y-91815812D02*
X257668229Y-91815812D01*
X257668229Y-91815812D02*
X257744420Y-91853907D01*
X257744420Y-91853907D02*
X257782515Y-91892002D01*
X257782515Y-91892002D02*
X257820610Y-91968193D01*
X257820610Y-91968193D02*
X257858705Y-92120574D01*
X257858705Y-92120574D02*
X257858705Y-92311050D01*
X257858705Y-92311050D02*
X257820610Y-92463431D01*
X257820610Y-92463431D02*
X257782515Y-92539621D01*
X257782515Y-92539621D02*
X257744420Y-92577717D01*
X257744420Y-92577717D02*
X257668229Y-92615812D01*
X257668229Y-92615812D02*
X257592039Y-92615812D01*
X257592039Y-92615812D02*
X257515848Y-92577717D01*
X257515848Y-92577717D02*
X257477753Y-92539621D01*
X257477753Y-92539621D02*
X257439658Y-92463431D01*
X257439658Y-92463431D02*
X257401562Y-92311050D01*
X257401562Y-92311050D02*
X257401562Y-92120574D01*
X257401562Y-92120574D02*
X257439658Y-91968193D01*
X257439658Y-91968193D02*
X257477753Y-91892002D01*
X257477753Y-91892002D02*
X257515848Y-91853907D01*
X257515848Y-91853907D02*
X257592039Y-91815812D01*
X258353944Y-91815812D02*
X258430134Y-91815812D01*
X258430134Y-91815812D02*
X258506325Y-91853907D01*
X258506325Y-91853907D02*
X258544420Y-91892002D01*
X258544420Y-91892002D02*
X258582515Y-91968193D01*
X258582515Y-91968193D02*
X258620610Y-92120574D01*
X258620610Y-92120574D02*
X258620610Y-92311050D01*
X258620610Y-92311050D02*
X258582515Y-92463431D01*
X258582515Y-92463431D02*
X258544420Y-92539621D01*
X258544420Y-92539621D02*
X258506325Y-92577717D01*
X258506325Y-92577717D02*
X258430134Y-92615812D01*
X258430134Y-92615812D02*
X258353944Y-92615812D01*
X258353944Y-92615812D02*
X258277753Y-92577717D01*
X258277753Y-92577717D02*
X258239658Y-92539621D01*
X258239658Y-92539621D02*
X258201563Y-92463431D01*
X258201563Y-92463431D02*
X258163467Y-92311050D01*
X258163467Y-92311050D02*
X258163467Y-92120574D01*
X258163467Y-92120574D02*
X258201563Y-91968193D01*
X258201563Y-91968193D02*
X258239658Y-91892002D01*
X258239658Y-91892002D02*
X258277753Y-91853907D01*
X258277753Y-91853907D02*
X258353944Y-91815812D01*
X257001563Y-94393907D02*
X256925373Y-94355812D01*
X256925373Y-94355812D02*
X256811087Y-94355812D01*
X256811087Y-94355812D02*
X256696801Y-94393907D01*
X256696801Y-94393907D02*
X256620611Y-94470097D01*
X256620611Y-94470097D02*
X256582516Y-94546288D01*
X256582516Y-94546288D02*
X256544420Y-94698669D01*
X256544420Y-94698669D02*
X256544420Y-94812955D01*
X256544420Y-94812955D02*
X256582516Y-94965336D01*
X256582516Y-94965336D02*
X256620611Y-95041526D01*
X256620611Y-95041526D02*
X256696801Y-95117717D01*
X256696801Y-95117717D02*
X256811087Y-95155812D01*
X256811087Y-95155812D02*
X256887278Y-95155812D01*
X256887278Y-95155812D02*
X257001563Y-95117717D01*
X257001563Y-95117717D02*
X257039659Y-95079621D01*
X257039659Y-95079621D02*
X257039659Y-94812955D01*
X257039659Y-94812955D02*
X256887278Y-94812955D01*
X257382516Y-95155812D02*
X257382516Y-94355812D01*
X257382516Y-94355812D02*
X257839659Y-95155812D01*
X257839659Y-95155812D02*
X257839659Y-94355812D01*
X258220611Y-95155812D02*
X258220611Y-94355812D01*
X258220611Y-94355812D02*
X258411087Y-94355812D01*
X258411087Y-94355812D02*
X258525373Y-94393907D01*
X258525373Y-94393907D02*
X258601563Y-94470097D01*
X258601563Y-94470097D02*
X258639658Y-94546288D01*
X258639658Y-94546288D02*
X258677754Y-94698669D01*
X258677754Y-94698669D02*
X258677754Y-94812955D01*
X258677754Y-94812955D02*
X258639658Y-94965336D01*
X258639658Y-94965336D02*
X258601563Y-95041526D01*
X258601563Y-95041526D02*
X258525373Y-95117717D01*
X258525373Y-95117717D02*
X258411087Y-95155812D01*
X258411087Y-95155812D02*
X258220611Y-95155812D01*
X257001563Y-96933907D02*
X256925373Y-96895812D01*
X256925373Y-96895812D02*
X256811087Y-96895812D01*
X256811087Y-96895812D02*
X256696801Y-96933907D01*
X256696801Y-96933907D02*
X256620611Y-97010097D01*
X256620611Y-97010097D02*
X256582516Y-97086288D01*
X256582516Y-97086288D02*
X256544420Y-97238669D01*
X256544420Y-97238669D02*
X256544420Y-97352955D01*
X256544420Y-97352955D02*
X256582516Y-97505336D01*
X256582516Y-97505336D02*
X256620611Y-97581526D01*
X256620611Y-97581526D02*
X256696801Y-97657717D01*
X256696801Y-97657717D02*
X256811087Y-97695812D01*
X256811087Y-97695812D02*
X256887278Y-97695812D01*
X256887278Y-97695812D02*
X257001563Y-97657717D01*
X257001563Y-97657717D02*
X257039659Y-97619621D01*
X257039659Y-97619621D02*
X257039659Y-97352955D01*
X257039659Y-97352955D02*
X256887278Y-97352955D01*
X257382516Y-97695812D02*
X257382516Y-96895812D01*
X257382516Y-96895812D02*
X257839659Y-97695812D01*
X257839659Y-97695812D02*
X257839659Y-96895812D01*
X258220611Y-97695812D02*
X258220611Y-96895812D01*
X258220611Y-96895812D02*
X258411087Y-96895812D01*
X258411087Y-96895812D02*
X258525373Y-96933907D01*
X258525373Y-96933907D02*
X258601563Y-97010097D01*
X258601563Y-97010097D02*
X258639658Y-97086288D01*
X258639658Y-97086288D02*
X258677754Y-97238669D01*
X258677754Y-97238669D02*
X258677754Y-97352955D01*
X258677754Y-97352955D02*
X258639658Y-97505336D01*
X258639658Y-97505336D02*
X258601563Y-97581526D01*
X258601563Y-97581526D02*
X258525373Y-97657717D01*
X258525373Y-97657717D02*
X258411087Y-97695812D01*
X258411087Y-97695812D02*
X258220611Y-97695812D01*
X256639658Y-100235812D02*
X256639658Y-99435812D01*
X256639658Y-99435812D02*
X256944420Y-99435812D01*
X256944420Y-99435812D02*
X257020610Y-99473907D01*
X257020610Y-99473907D02*
X257058705Y-99512002D01*
X257058705Y-99512002D02*
X257096801Y-99588193D01*
X257096801Y-99588193D02*
X257096801Y-99702478D01*
X257096801Y-99702478D02*
X257058705Y-99778669D01*
X257058705Y-99778669D02*
X257020610Y-99816764D01*
X257020610Y-99816764D02*
X256944420Y-99854859D01*
X256944420Y-99854859D02*
X256639658Y-99854859D01*
X257592039Y-99435812D02*
X257668229Y-99435812D01*
X257668229Y-99435812D02*
X257744420Y-99473907D01*
X257744420Y-99473907D02*
X257782515Y-99512002D01*
X257782515Y-99512002D02*
X257820610Y-99588193D01*
X257820610Y-99588193D02*
X257858705Y-99740574D01*
X257858705Y-99740574D02*
X257858705Y-99931050D01*
X257858705Y-99931050D02*
X257820610Y-100083431D01*
X257820610Y-100083431D02*
X257782515Y-100159621D01*
X257782515Y-100159621D02*
X257744420Y-100197717D01*
X257744420Y-100197717D02*
X257668229Y-100235812D01*
X257668229Y-100235812D02*
X257592039Y-100235812D01*
X257592039Y-100235812D02*
X257515848Y-100197717D01*
X257515848Y-100197717D02*
X257477753Y-100159621D01*
X257477753Y-100159621D02*
X257439658Y-100083431D01*
X257439658Y-100083431D02*
X257401562Y-99931050D01*
X257401562Y-99931050D02*
X257401562Y-99740574D01*
X257401562Y-99740574D02*
X257439658Y-99588193D01*
X257439658Y-99588193D02*
X257477753Y-99512002D01*
X257477753Y-99512002D02*
X257515848Y-99473907D01*
X257515848Y-99473907D02*
X257592039Y-99435812D01*
X258163467Y-99512002D02*
X258201563Y-99473907D01*
X258201563Y-99473907D02*
X258277753Y-99435812D01*
X258277753Y-99435812D02*
X258468229Y-99435812D01*
X258468229Y-99435812D02*
X258544420Y-99473907D01*
X258544420Y-99473907D02*
X258582515Y-99512002D01*
X258582515Y-99512002D02*
X258620610Y-99588193D01*
X258620610Y-99588193D02*
X258620610Y-99664383D01*
X258620610Y-99664383D02*
X258582515Y-99778669D01*
X258582515Y-99778669D02*
X258125372Y-100235812D01*
X258125372Y-100235812D02*
X258620610Y-100235812D01*
X256639658Y-102775812D02*
X256639658Y-101975812D01*
X256639658Y-101975812D02*
X256944420Y-101975812D01*
X256944420Y-101975812D02*
X257020610Y-102013907D01*
X257020610Y-102013907D02*
X257058705Y-102052002D01*
X257058705Y-102052002D02*
X257096801Y-102128193D01*
X257096801Y-102128193D02*
X257096801Y-102242478D01*
X257096801Y-102242478D02*
X257058705Y-102318669D01*
X257058705Y-102318669D02*
X257020610Y-102356764D01*
X257020610Y-102356764D02*
X256944420Y-102394859D01*
X256944420Y-102394859D02*
X256639658Y-102394859D01*
X257592039Y-101975812D02*
X257668229Y-101975812D01*
X257668229Y-101975812D02*
X257744420Y-102013907D01*
X257744420Y-102013907D02*
X257782515Y-102052002D01*
X257782515Y-102052002D02*
X257820610Y-102128193D01*
X257820610Y-102128193D02*
X257858705Y-102280574D01*
X257858705Y-102280574D02*
X257858705Y-102471050D01*
X257858705Y-102471050D02*
X257820610Y-102623431D01*
X257820610Y-102623431D02*
X257782515Y-102699621D01*
X257782515Y-102699621D02*
X257744420Y-102737717D01*
X257744420Y-102737717D02*
X257668229Y-102775812D01*
X257668229Y-102775812D02*
X257592039Y-102775812D01*
X257592039Y-102775812D02*
X257515848Y-102737717D01*
X257515848Y-102737717D02*
X257477753Y-102699621D01*
X257477753Y-102699621D02*
X257439658Y-102623431D01*
X257439658Y-102623431D02*
X257401562Y-102471050D01*
X257401562Y-102471050D02*
X257401562Y-102280574D01*
X257401562Y-102280574D02*
X257439658Y-102128193D01*
X257439658Y-102128193D02*
X257477753Y-102052002D01*
X257477753Y-102052002D02*
X257515848Y-102013907D01*
X257515848Y-102013907D02*
X257592039Y-101975812D01*
X258125372Y-101975812D02*
X258620610Y-101975812D01*
X258620610Y-101975812D02*
X258353944Y-102280574D01*
X258353944Y-102280574D02*
X258468229Y-102280574D01*
X258468229Y-102280574D02*
X258544420Y-102318669D01*
X258544420Y-102318669D02*
X258582515Y-102356764D01*
X258582515Y-102356764D02*
X258620610Y-102432955D01*
X258620610Y-102432955D02*
X258620610Y-102623431D01*
X258620610Y-102623431D02*
X258582515Y-102699621D01*
X258582515Y-102699621D02*
X258544420Y-102737717D01*
X258544420Y-102737717D02*
X258468229Y-102775812D01*
X258468229Y-102775812D02*
X258239658Y-102775812D01*
X258239658Y-102775812D02*
X258163467Y-102737717D01*
X258163467Y-102737717D02*
X258125372Y-102699621D01*
X256639658Y-105315812D02*
X256639658Y-104515812D01*
X256639658Y-104515812D02*
X256944420Y-104515812D01*
X256944420Y-104515812D02*
X257020610Y-104553907D01*
X257020610Y-104553907D02*
X257058705Y-104592002D01*
X257058705Y-104592002D02*
X257096801Y-104668193D01*
X257096801Y-104668193D02*
X257096801Y-104782478D01*
X257096801Y-104782478D02*
X257058705Y-104858669D01*
X257058705Y-104858669D02*
X257020610Y-104896764D01*
X257020610Y-104896764D02*
X256944420Y-104934859D01*
X256944420Y-104934859D02*
X256639658Y-104934859D01*
X257592039Y-104515812D02*
X257668229Y-104515812D01*
X257668229Y-104515812D02*
X257744420Y-104553907D01*
X257744420Y-104553907D02*
X257782515Y-104592002D01*
X257782515Y-104592002D02*
X257820610Y-104668193D01*
X257820610Y-104668193D02*
X257858705Y-104820574D01*
X257858705Y-104820574D02*
X257858705Y-105011050D01*
X257858705Y-105011050D02*
X257820610Y-105163431D01*
X257820610Y-105163431D02*
X257782515Y-105239621D01*
X257782515Y-105239621D02*
X257744420Y-105277717D01*
X257744420Y-105277717D02*
X257668229Y-105315812D01*
X257668229Y-105315812D02*
X257592039Y-105315812D01*
X257592039Y-105315812D02*
X257515848Y-105277717D01*
X257515848Y-105277717D02*
X257477753Y-105239621D01*
X257477753Y-105239621D02*
X257439658Y-105163431D01*
X257439658Y-105163431D02*
X257401562Y-105011050D01*
X257401562Y-105011050D02*
X257401562Y-104820574D01*
X257401562Y-104820574D02*
X257439658Y-104668193D01*
X257439658Y-104668193D02*
X257477753Y-104592002D01*
X257477753Y-104592002D02*
X257515848Y-104553907D01*
X257515848Y-104553907D02*
X257592039Y-104515812D01*
X258544420Y-104782478D02*
X258544420Y-105315812D01*
X258353944Y-104477717D02*
X258163467Y-105049145D01*
X258163467Y-105049145D02*
X258658706Y-105049145D01*
X256639658Y-107855812D02*
X256639658Y-107055812D01*
X256639658Y-107055812D02*
X256944420Y-107055812D01*
X256944420Y-107055812D02*
X257020610Y-107093907D01*
X257020610Y-107093907D02*
X257058705Y-107132002D01*
X257058705Y-107132002D02*
X257096801Y-107208193D01*
X257096801Y-107208193D02*
X257096801Y-107322478D01*
X257096801Y-107322478D02*
X257058705Y-107398669D01*
X257058705Y-107398669D02*
X257020610Y-107436764D01*
X257020610Y-107436764D02*
X256944420Y-107474859D01*
X256944420Y-107474859D02*
X256639658Y-107474859D01*
X257592039Y-107055812D02*
X257668229Y-107055812D01*
X257668229Y-107055812D02*
X257744420Y-107093907D01*
X257744420Y-107093907D02*
X257782515Y-107132002D01*
X257782515Y-107132002D02*
X257820610Y-107208193D01*
X257820610Y-107208193D02*
X257858705Y-107360574D01*
X257858705Y-107360574D02*
X257858705Y-107551050D01*
X257858705Y-107551050D02*
X257820610Y-107703431D01*
X257820610Y-107703431D02*
X257782515Y-107779621D01*
X257782515Y-107779621D02*
X257744420Y-107817717D01*
X257744420Y-107817717D02*
X257668229Y-107855812D01*
X257668229Y-107855812D02*
X257592039Y-107855812D01*
X257592039Y-107855812D02*
X257515848Y-107817717D01*
X257515848Y-107817717D02*
X257477753Y-107779621D01*
X257477753Y-107779621D02*
X257439658Y-107703431D01*
X257439658Y-107703431D02*
X257401562Y-107551050D01*
X257401562Y-107551050D02*
X257401562Y-107360574D01*
X257401562Y-107360574D02*
X257439658Y-107208193D01*
X257439658Y-107208193D02*
X257477753Y-107132002D01*
X257477753Y-107132002D02*
X257515848Y-107093907D01*
X257515848Y-107093907D02*
X257592039Y-107055812D01*
X258582515Y-107055812D02*
X258201563Y-107055812D01*
X258201563Y-107055812D02*
X258163467Y-107436764D01*
X258163467Y-107436764D02*
X258201563Y-107398669D01*
X258201563Y-107398669D02*
X258277753Y-107360574D01*
X258277753Y-107360574D02*
X258468229Y-107360574D01*
X258468229Y-107360574D02*
X258544420Y-107398669D01*
X258544420Y-107398669D02*
X258582515Y-107436764D01*
X258582515Y-107436764D02*
X258620610Y-107512955D01*
X258620610Y-107512955D02*
X258620610Y-107703431D01*
X258620610Y-107703431D02*
X258582515Y-107779621D01*
X258582515Y-107779621D02*
X258544420Y-107817717D01*
X258544420Y-107817717D02*
X258468229Y-107855812D01*
X258468229Y-107855812D02*
X258277753Y-107855812D01*
X258277753Y-107855812D02*
X258201563Y-107817717D01*
X258201563Y-107817717D02*
X258163467Y-107779621D01*
X256639658Y-110395812D02*
X256639658Y-109595812D01*
X256639658Y-109595812D02*
X256944420Y-109595812D01*
X256944420Y-109595812D02*
X257020610Y-109633907D01*
X257020610Y-109633907D02*
X257058705Y-109672002D01*
X257058705Y-109672002D02*
X257096801Y-109748193D01*
X257096801Y-109748193D02*
X257096801Y-109862478D01*
X257096801Y-109862478D02*
X257058705Y-109938669D01*
X257058705Y-109938669D02*
X257020610Y-109976764D01*
X257020610Y-109976764D02*
X256944420Y-110014859D01*
X256944420Y-110014859D02*
X256639658Y-110014859D01*
X257592039Y-109595812D02*
X257668229Y-109595812D01*
X257668229Y-109595812D02*
X257744420Y-109633907D01*
X257744420Y-109633907D02*
X257782515Y-109672002D01*
X257782515Y-109672002D02*
X257820610Y-109748193D01*
X257820610Y-109748193D02*
X257858705Y-109900574D01*
X257858705Y-109900574D02*
X257858705Y-110091050D01*
X257858705Y-110091050D02*
X257820610Y-110243431D01*
X257820610Y-110243431D02*
X257782515Y-110319621D01*
X257782515Y-110319621D02*
X257744420Y-110357717D01*
X257744420Y-110357717D02*
X257668229Y-110395812D01*
X257668229Y-110395812D02*
X257592039Y-110395812D01*
X257592039Y-110395812D02*
X257515848Y-110357717D01*
X257515848Y-110357717D02*
X257477753Y-110319621D01*
X257477753Y-110319621D02*
X257439658Y-110243431D01*
X257439658Y-110243431D02*
X257401562Y-110091050D01*
X257401562Y-110091050D02*
X257401562Y-109900574D01*
X257401562Y-109900574D02*
X257439658Y-109748193D01*
X257439658Y-109748193D02*
X257477753Y-109672002D01*
X257477753Y-109672002D02*
X257515848Y-109633907D01*
X257515848Y-109633907D02*
X257592039Y-109595812D01*
X258544420Y-109595812D02*
X258392039Y-109595812D01*
X258392039Y-109595812D02*
X258315848Y-109633907D01*
X258315848Y-109633907D02*
X258277753Y-109672002D01*
X258277753Y-109672002D02*
X258201563Y-109786288D01*
X258201563Y-109786288D02*
X258163467Y-109938669D01*
X258163467Y-109938669D02*
X258163467Y-110243431D01*
X258163467Y-110243431D02*
X258201563Y-110319621D01*
X258201563Y-110319621D02*
X258239658Y-110357717D01*
X258239658Y-110357717D02*
X258315848Y-110395812D01*
X258315848Y-110395812D02*
X258468229Y-110395812D01*
X258468229Y-110395812D02*
X258544420Y-110357717D01*
X258544420Y-110357717D02*
X258582515Y-110319621D01*
X258582515Y-110319621D02*
X258620610Y-110243431D01*
X258620610Y-110243431D02*
X258620610Y-110052955D01*
X258620610Y-110052955D02*
X258582515Y-109976764D01*
X258582515Y-109976764D02*
X258544420Y-109938669D01*
X258544420Y-109938669D02*
X258468229Y-109900574D01*
X258468229Y-109900574D02*
X258315848Y-109900574D01*
X258315848Y-109900574D02*
X258239658Y-109938669D01*
X258239658Y-109938669D02*
X258201563Y-109976764D01*
X258201563Y-109976764D02*
X258163467Y-110052955D01*
X256639658Y-112935812D02*
X256639658Y-112135812D01*
X256639658Y-112135812D02*
X256944420Y-112135812D01*
X256944420Y-112135812D02*
X257020610Y-112173907D01*
X257020610Y-112173907D02*
X257058705Y-112212002D01*
X257058705Y-112212002D02*
X257096801Y-112288193D01*
X257096801Y-112288193D02*
X257096801Y-112402478D01*
X257096801Y-112402478D02*
X257058705Y-112478669D01*
X257058705Y-112478669D02*
X257020610Y-112516764D01*
X257020610Y-112516764D02*
X256944420Y-112554859D01*
X256944420Y-112554859D02*
X256639658Y-112554859D01*
X257592039Y-112135812D02*
X257668229Y-112135812D01*
X257668229Y-112135812D02*
X257744420Y-112173907D01*
X257744420Y-112173907D02*
X257782515Y-112212002D01*
X257782515Y-112212002D02*
X257820610Y-112288193D01*
X257820610Y-112288193D02*
X257858705Y-112440574D01*
X257858705Y-112440574D02*
X257858705Y-112631050D01*
X257858705Y-112631050D02*
X257820610Y-112783431D01*
X257820610Y-112783431D02*
X257782515Y-112859621D01*
X257782515Y-112859621D02*
X257744420Y-112897717D01*
X257744420Y-112897717D02*
X257668229Y-112935812D01*
X257668229Y-112935812D02*
X257592039Y-112935812D01*
X257592039Y-112935812D02*
X257515848Y-112897717D01*
X257515848Y-112897717D02*
X257477753Y-112859621D01*
X257477753Y-112859621D02*
X257439658Y-112783431D01*
X257439658Y-112783431D02*
X257401562Y-112631050D01*
X257401562Y-112631050D02*
X257401562Y-112440574D01*
X257401562Y-112440574D02*
X257439658Y-112288193D01*
X257439658Y-112288193D02*
X257477753Y-112212002D01*
X257477753Y-112212002D02*
X257515848Y-112173907D01*
X257515848Y-112173907D02*
X257592039Y-112135812D01*
X258125372Y-112135812D02*
X258658706Y-112135812D01*
X258658706Y-112135812D02*
X258315848Y-112935812D01*
X256639658Y-115475812D02*
X256639658Y-114675812D01*
X256639658Y-114675812D02*
X256944420Y-114675812D01*
X256944420Y-114675812D02*
X257020610Y-114713907D01*
X257020610Y-114713907D02*
X257058705Y-114752002D01*
X257058705Y-114752002D02*
X257096801Y-114828193D01*
X257096801Y-114828193D02*
X257096801Y-114942478D01*
X257096801Y-114942478D02*
X257058705Y-115018669D01*
X257058705Y-115018669D02*
X257020610Y-115056764D01*
X257020610Y-115056764D02*
X256944420Y-115094859D01*
X256944420Y-115094859D02*
X256639658Y-115094859D01*
X257592039Y-114675812D02*
X257668229Y-114675812D01*
X257668229Y-114675812D02*
X257744420Y-114713907D01*
X257744420Y-114713907D02*
X257782515Y-114752002D01*
X257782515Y-114752002D02*
X257820610Y-114828193D01*
X257820610Y-114828193D02*
X257858705Y-114980574D01*
X257858705Y-114980574D02*
X257858705Y-115171050D01*
X257858705Y-115171050D02*
X257820610Y-115323431D01*
X257820610Y-115323431D02*
X257782515Y-115399621D01*
X257782515Y-115399621D02*
X257744420Y-115437717D01*
X257744420Y-115437717D02*
X257668229Y-115475812D01*
X257668229Y-115475812D02*
X257592039Y-115475812D01*
X257592039Y-115475812D02*
X257515848Y-115437717D01*
X257515848Y-115437717D02*
X257477753Y-115399621D01*
X257477753Y-115399621D02*
X257439658Y-115323431D01*
X257439658Y-115323431D02*
X257401562Y-115171050D01*
X257401562Y-115171050D02*
X257401562Y-114980574D01*
X257401562Y-114980574D02*
X257439658Y-114828193D01*
X257439658Y-114828193D02*
X257477753Y-114752002D01*
X257477753Y-114752002D02*
X257515848Y-114713907D01*
X257515848Y-114713907D02*
X257592039Y-114675812D01*
X258315848Y-115018669D02*
X258239658Y-114980574D01*
X258239658Y-114980574D02*
X258201563Y-114942478D01*
X258201563Y-114942478D02*
X258163467Y-114866288D01*
X258163467Y-114866288D02*
X258163467Y-114828193D01*
X258163467Y-114828193D02*
X258201563Y-114752002D01*
X258201563Y-114752002D02*
X258239658Y-114713907D01*
X258239658Y-114713907D02*
X258315848Y-114675812D01*
X258315848Y-114675812D02*
X258468229Y-114675812D01*
X258468229Y-114675812D02*
X258544420Y-114713907D01*
X258544420Y-114713907D02*
X258582515Y-114752002D01*
X258582515Y-114752002D02*
X258620610Y-114828193D01*
X258620610Y-114828193D02*
X258620610Y-114866288D01*
X258620610Y-114866288D02*
X258582515Y-114942478D01*
X258582515Y-114942478D02*
X258544420Y-114980574D01*
X258544420Y-114980574D02*
X258468229Y-115018669D01*
X258468229Y-115018669D02*
X258315848Y-115018669D01*
X258315848Y-115018669D02*
X258239658Y-115056764D01*
X258239658Y-115056764D02*
X258201563Y-115094859D01*
X258201563Y-115094859D02*
X258163467Y-115171050D01*
X258163467Y-115171050D02*
X258163467Y-115323431D01*
X258163467Y-115323431D02*
X258201563Y-115399621D01*
X258201563Y-115399621D02*
X258239658Y-115437717D01*
X258239658Y-115437717D02*
X258315848Y-115475812D01*
X258315848Y-115475812D02*
X258468229Y-115475812D01*
X258468229Y-115475812D02*
X258544420Y-115437717D01*
X258544420Y-115437717D02*
X258582515Y-115399621D01*
X258582515Y-115399621D02*
X258620610Y-115323431D01*
X258620610Y-115323431D02*
X258620610Y-115171050D01*
X258620610Y-115171050D02*
X258582515Y-115094859D01*
X258582515Y-115094859D02*
X258544420Y-115056764D01*
X258544420Y-115056764D02*
X258468229Y-115018669D01*
X256639658Y-118015812D02*
X256639658Y-117215812D01*
X256639658Y-117215812D02*
X256944420Y-117215812D01*
X256944420Y-117215812D02*
X257020610Y-117253907D01*
X257020610Y-117253907D02*
X257058705Y-117292002D01*
X257058705Y-117292002D02*
X257096801Y-117368193D01*
X257096801Y-117368193D02*
X257096801Y-117482478D01*
X257096801Y-117482478D02*
X257058705Y-117558669D01*
X257058705Y-117558669D02*
X257020610Y-117596764D01*
X257020610Y-117596764D02*
X256944420Y-117634859D01*
X256944420Y-117634859D02*
X256639658Y-117634859D01*
X257592039Y-117215812D02*
X257668229Y-117215812D01*
X257668229Y-117215812D02*
X257744420Y-117253907D01*
X257744420Y-117253907D02*
X257782515Y-117292002D01*
X257782515Y-117292002D02*
X257820610Y-117368193D01*
X257820610Y-117368193D02*
X257858705Y-117520574D01*
X257858705Y-117520574D02*
X257858705Y-117711050D01*
X257858705Y-117711050D02*
X257820610Y-117863431D01*
X257820610Y-117863431D02*
X257782515Y-117939621D01*
X257782515Y-117939621D02*
X257744420Y-117977717D01*
X257744420Y-117977717D02*
X257668229Y-118015812D01*
X257668229Y-118015812D02*
X257592039Y-118015812D01*
X257592039Y-118015812D02*
X257515848Y-117977717D01*
X257515848Y-117977717D02*
X257477753Y-117939621D01*
X257477753Y-117939621D02*
X257439658Y-117863431D01*
X257439658Y-117863431D02*
X257401562Y-117711050D01*
X257401562Y-117711050D02*
X257401562Y-117520574D01*
X257401562Y-117520574D02*
X257439658Y-117368193D01*
X257439658Y-117368193D02*
X257477753Y-117292002D01*
X257477753Y-117292002D02*
X257515848Y-117253907D01*
X257515848Y-117253907D02*
X257592039Y-117215812D01*
X258239658Y-118015812D02*
X258392039Y-118015812D01*
X258392039Y-118015812D02*
X258468229Y-117977717D01*
X258468229Y-117977717D02*
X258506325Y-117939621D01*
X258506325Y-117939621D02*
X258582515Y-117825336D01*
X258582515Y-117825336D02*
X258620610Y-117672955D01*
X258620610Y-117672955D02*
X258620610Y-117368193D01*
X258620610Y-117368193D02*
X258582515Y-117292002D01*
X258582515Y-117292002D02*
X258544420Y-117253907D01*
X258544420Y-117253907D02*
X258468229Y-117215812D01*
X258468229Y-117215812D02*
X258315848Y-117215812D01*
X258315848Y-117215812D02*
X258239658Y-117253907D01*
X258239658Y-117253907D02*
X258201563Y-117292002D01*
X258201563Y-117292002D02*
X258163467Y-117368193D01*
X258163467Y-117368193D02*
X258163467Y-117558669D01*
X258163467Y-117558669D02*
X258201563Y-117634859D01*
X258201563Y-117634859D02*
X258239658Y-117672955D01*
X258239658Y-117672955D02*
X258315848Y-117711050D01*
X258315848Y-117711050D02*
X258468229Y-117711050D01*
X258468229Y-117711050D02*
X258544420Y-117672955D01*
X258544420Y-117672955D02*
X258582515Y-117634859D01*
X258582515Y-117634859D02*
X258620610Y-117558669D01*
X276658706Y-90075812D02*
X276392039Y-89694859D01*
X276201563Y-90075812D02*
X276201563Y-89275812D01*
X276201563Y-89275812D02*
X276506325Y-89275812D01*
X276506325Y-89275812D02*
X276582515Y-89313907D01*
X276582515Y-89313907D02*
X276620610Y-89352002D01*
X276620610Y-89352002D02*
X276658706Y-89428193D01*
X276658706Y-89428193D02*
X276658706Y-89542478D01*
X276658706Y-89542478D02*
X276620610Y-89618669D01*
X276620610Y-89618669D02*
X276582515Y-89656764D01*
X276582515Y-89656764D02*
X276506325Y-89694859D01*
X276506325Y-89694859D02*
X276201563Y-89694859D01*
X276963467Y-89847240D02*
X277344420Y-89847240D01*
X276887277Y-90075812D02*
X277153944Y-89275812D01*
X277153944Y-89275812D02*
X277420610Y-90075812D01*
X277611086Y-89275812D02*
X277801562Y-90075812D01*
X277801562Y-90075812D02*
X277953943Y-89504383D01*
X277953943Y-89504383D02*
X278106324Y-90075812D01*
X278106324Y-90075812D02*
X278296801Y-89275812D01*
X276601563Y-91853907D02*
X276525373Y-91815812D01*
X276525373Y-91815812D02*
X276411087Y-91815812D01*
X276411087Y-91815812D02*
X276296801Y-91853907D01*
X276296801Y-91853907D02*
X276220611Y-91930097D01*
X276220611Y-91930097D02*
X276182516Y-92006288D01*
X276182516Y-92006288D02*
X276144420Y-92158669D01*
X276144420Y-92158669D02*
X276144420Y-92272955D01*
X276144420Y-92272955D02*
X276182516Y-92425336D01*
X276182516Y-92425336D02*
X276220611Y-92501526D01*
X276220611Y-92501526D02*
X276296801Y-92577717D01*
X276296801Y-92577717D02*
X276411087Y-92615812D01*
X276411087Y-92615812D02*
X276487278Y-92615812D01*
X276487278Y-92615812D02*
X276601563Y-92577717D01*
X276601563Y-92577717D02*
X276639659Y-92539621D01*
X276639659Y-92539621D02*
X276639659Y-92272955D01*
X276639659Y-92272955D02*
X276487278Y-92272955D01*
X276982516Y-92615812D02*
X276982516Y-91815812D01*
X276982516Y-91815812D02*
X277439659Y-92615812D01*
X277439659Y-92615812D02*
X277439659Y-91815812D01*
X277820611Y-92615812D02*
X277820611Y-91815812D01*
X277820611Y-91815812D02*
X278011087Y-91815812D01*
X278011087Y-91815812D02*
X278125373Y-91853907D01*
X278125373Y-91853907D02*
X278201563Y-91930097D01*
X278201563Y-91930097D02*
X278239658Y-92006288D01*
X278239658Y-92006288D02*
X278277754Y-92158669D01*
X278277754Y-92158669D02*
X278277754Y-92272955D01*
X278277754Y-92272955D02*
X278239658Y-92425336D01*
X278239658Y-92425336D02*
X278201563Y-92501526D01*
X278201563Y-92501526D02*
X278125373Y-92577717D01*
X278125373Y-92577717D02*
X278011087Y-92615812D01*
X278011087Y-92615812D02*
X277820611Y-92615812D01*
X276772992Y-95155812D02*
X276506325Y-94774859D01*
X276315849Y-95155812D02*
X276315849Y-94355812D01*
X276315849Y-94355812D02*
X276620611Y-94355812D01*
X276620611Y-94355812D02*
X276696801Y-94393907D01*
X276696801Y-94393907D02*
X276734896Y-94432002D01*
X276734896Y-94432002D02*
X276772992Y-94508193D01*
X276772992Y-94508193D02*
X276772992Y-94622478D01*
X276772992Y-94622478D02*
X276734896Y-94698669D01*
X276734896Y-94698669D02*
X276696801Y-94736764D01*
X276696801Y-94736764D02*
X276620611Y-94774859D01*
X276620611Y-94774859D02*
X276315849Y-94774859D01*
X277077753Y-95117717D02*
X277192039Y-95155812D01*
X277192039Y-95155812D02*
X277382515Y-95155812D01*
X277382515Y-95155812D02*
X277458706Y-95117717D01*
X277458706Y-95117717D02*
X277496801Y-95079621D01*
X277496801Y-95079621D02*
X277534896Y-95003431D01*
X277534896Y-95003431D02*
X277534896Y-94927240D01*
X277534896Y-94927240D02*
X277496801Y-94851050D01*
X277496801Y-94851050D02*
X277458706Y-94812955D01*
X277458706Y-94812955D02*
X277382515Y-94774859D01*
X277382515Y-94774859D02*
X277230134Y-94736764D01*
X277230134Y-94736764D02*
X277153944Y-94698669D01*
X277153944Y-94698669D02*
X277115849Y-94660574D01*
X277115849Y-94660574D02*
X277077753Y-94584383D01*
X277077753Y-94584383D02*
X277077753Y-94508193D01*
X277077753Y-94508193D02*
X277115849Y-94432002D01*
X277115849Y-94432002D02*
X277153944Y-94393907D01*
X277153944Y-94393907D02*
X277230134Y-94355812D01*
X277230134Y-94355812D02*
X277420611Y-94355812D01*
X277420611Y-94355812D02*
X277534896Y-94393907D01*
X277763468Y-94355812D02*
X278220611Y-94355812D01*
X277992039Y-95155812D02*
X277992039Y-94355812D01*
X276144420Y-96895812D02*
X276411087Y-97695812D01*
X276411087Y-97695812D02*
X276677753Y-96895812D01*
X277401563Y-97619621D02*
X277363467Y-97657717D01*
X277363467Y-97657717D02*
X277249182Y-97695812D01*
X277249182Y-97695812D02*
X277172991Y-97695812D01*
X277172991Y-97695812D02*
X277058705Y-97657717D01*
X277058705Y-97657717D02*
X276982515Y-97581526D01*
X276982515Y-97581526D02*
X276944420Y-97505336D01*
X276944420Y-97505336D02*
X276906324Y-97352955D01*
X276906324Y-97352955D02*
X276906324Y-97238669D01*
X276906324Y-97238669D02*
X276944420Y-97086288D01*
X276944420Y-97086288D02*
X276982515Y-97010097D01*
X276982515Y-97010097D02*
X277058705Y-96933907D01*
X277058705Y-96933907D02*
X277172991Y-96895812D01*
X277172991Y-96895812D02*
X277249182Y-96895812D01*
X277249182Y-96895812D02*
X277363467Y-96933907D01*
X277363467Y-96933907D02*
X277401563Y-96972002D01*
X278201563Y-97619621D02*
X278163467Y-97657717D01*
X278163467Y-97657717D02*
X278049182Y-97695812D01*
X278049182Y-97695812D02*
X277972991Y-97695812D01*
X277972991Y-97695812D02*
X277858705Y-97657717D01*
X277858705Y-97657717D02*
X277782515Y-97581526D01*
X277782515Y-97581526D02*
X277744420Y-97505336D01*
X277744420Y-97505336D02*
X277706324Y-97352955D01*
X277706324Y-97352955D02*
X277706324Y-97238669D01*
X277706324Y-97238669D02*
X277744420Y-97086288D01*
X277744420Y-97086288D02*
X277782515Y-97010097D01*
X277782515Y-97010097D02*
X277858705Y-96933907D01*
X277858705Y-96933907D02*
X277972991Y-96895812D01*
X277972991Y-96895812D02*
X278049182Y-96895812D01*
X278049182Y-96895812D02*
X278163467Y-96933907D01*
X278163467Y-96933907D02*
X278201563Y-96972002D01*
X276239658Y-100235812D02*
X276239658Y-99435812D01*
X276239658Y-99435812D02*
X276544420Y-99435812D01*
X276544420Y-99435812D02*
X276620610Y-99473907D01*
X276620610Y-99473907D02*
X276658705Y-99512002D01*
X276658705Y-99512002D02*
X276696801Y-99588193D01*
X276696801Y-99588193D02*
X276696801Y-99702478D01*
X276696801Y-99702478D02*
X276658705Y-99778669D01*
X276658705Y-99778669D02*
X276620610Y-99816764D01*
X276620610Y-99816764D02*
X276544420Y-99854859D01*
X276544420Y-99854859D02*
X276239658Y-99854859D01*
X277001562Y-99512002D02*
X277039658Y-99473907D01*
X277039658Y-99473907D02*
X277115848Y-99435812D01*
X277115848Y-99435812D02*
X277306324Y-99435812D01*
X277306324Y-99435812D02*
X277382515Y-99473907D01*
X277382515Y-99473907D02*
X277420610Y-99512002D01*
X277420610Y-99512002D02*
X277458705Y-99588193D01*
X277458705Y-99588193D02*
X277458705Y-99664383D01*
X277458705Y-99664383D02*
X277420610Y-99778669D01*
X277420610Y-99778669D02*
X276963467Y-100235812D01*
X276963467Y-100235812D02*
X277458705Y-100235812D01*
X278220610Y-100235812D02*
X277763467Y-100235812D01*
X277992039Y-100235812D02*
X277992039Y-99435812D01*
X277992039Y-99435812D02*
X277915848Y-99550097D01*
X277915848Y-99550097D02*
X277839658Y-99626288D01*
X277839658Y-99626288D02*
X277763467Y-99664383D01*
X276239658Y-102775812D02*
X276239658Y-101975812D01*
X276239658Y-101975812D02*
X276544420Y-101975812D01*
X276544420Y-101975812D02*
X276620610Y-102013907D01*
X276620610Y-102013907D02*
X276658705Y-102052002D01*
X276658705Y-102052002D02*
X276696801Y-102128193D01*
X276696801Y-102128193D02*
X276696801Y-102242478D01*
X276696801Y-102242478D02*
X276658705Y-102318669D01*
X276658705Y-102318669D02*
X276620610Y-102356764D01*
X276620610Y-102356764D02*
X276544420Y-102394859D01*
X276544420Y-102394859D02*
X276239658Y-102394859D01*
X277001562Y-102052002D02*
X277039658Y-102013907D01*
X277039658Y-102013907D02*
X277115848Y-101975812D01*
X277115848Y-101975812D02*
X277306324Y-101975812D01*
X277306324Y-101975812D02*
X277382515Y-102013907D01*
X277382515Y-102013907D02*
X277420610Y-102052002D01*
X277420610Y-102052002D02*
X277458705Y-102128193D01*
X277458705Y-102128193D02*
X277458705Y-102204383D01*
X277458705Y-102204383D02*
X277420610Y-102318669D01*
X277420610Y-102318669D02*
X276963467Y-102775812D01*
X276963467Y-102775812D02*
X277458705Y-102775812D01*
X277953944Y-101975812D02*
X278030134Y-101975812D01*
X278030134Y-101975812D02*
X278106325Y-102013907D01*
X278106325Y-102013907D02*
X278144420Y-102052002D01*
X278144420Y-102052002D02*
X278182515Y-102128193D01*
X278182515Y-102128193D02*
X278220610Y-102280574D01*
X278220610Y-102280574D02*
X278220610Y-102471050D01*
X278220610Y-102471050D02*
X278182515Y-102623431D01*
X278182515Y-102623431D02*
X278144420Y-102699621D01*
X278144420Y-102699621D02*
X278106325Y-102737717D01*
X278106325Y-102737717D02*
X278030134Y-102775812D01*
X278030134Y-102775812D02*
X277953944Y-102775812D01*
X277953944Y-102775812D02*
X277877753Y-102737717D01*
X277877753Y-102737717D02*
X277839658Y-102699621D01*
X277839658Y-102699621D02*
X277801563Y-102623431D01*
X277801563Y-102623431D02*
X277763467Y-102471050D01*
X277763467Y-102471050D02*
X277763467Y-102280574D01*
X277763467Y-102280574D02*
X277801563Y-102128193D01*
X277801563Y-102128193D02*
X277839658Y-102052002D01*
X277839658Y-102052002D02*
X277877753Y-102013907D01*
X277877753Y-102013907D02*
X277953944Y-101975812D01*
X276239658Y-105315812D02*
X276239658Y-104515812D01*
X276239658Y-104515812D02*
X276544420Y-104515812D01*
X276544420Y-104515812D02*
X276620610Y-104553907D01*
X276620610Y-104553907D02*
X276658705Y-104592002D01*
X276658705Y-104592002D02*
X276696801Y-104668193D01*
X276696801Y-104668193D02*
X276696801Y-104782478D01*
X276696801Y-104782478D02*
X276658705Y-104858669D01*
X276658705Y-104858669D02*
X276620610Y-104896764D01*
X276620610Y-104896764D02*
X276544420Y-104934859D01*
X276544420Y-104934859D02*
X276239658Y-104934859D01*
X277458705Y-105315812D02*
X277001562Y-105315812D01*
X277230134Y-105315812D02*
X277230134Y-104515812D01*
X277230134Y-104515812D02*
X277153943Y-104630097D01*
X277153943Y-104630097D02*
X277077753Y-104706288D01*
X277077753Y-104706288D02*
X277001562Y-104744383D01*
X277839658Y-105315812D02*
X277992039Y-105315812D01*
X277992039Y-105315812D02*
X278068229Y-105277717D01*
X278068229Y-105277717D02*
X278106325Y-105239621D01*
X278106325Y-105239621D02*
X278182515Y-105125336D01*
X278182515Y-105125336D02*
X278220610Y-104972955D01*
X278220610Y-104972955D02*
X278220610Y-104668193D01*
X278220610Y-104668193D02*
X278182515Y-104592002D01*
X278182515Y-104592002D02*
X278144420Y-104553907D01*
X278144420Y-104553907D02*
X278068229Y-104515812D01*
X278068229Y-104515812D02*
X277915848Y-104515812D01*
X277915848Y-104515812D02*
X277839658Y-104553907D01*
X277839658Y-104553907D02*
X277801563Y-104592002D01*
X277801563Y-104592002D02*
X277763467Y-104668193D01*
X277763467Y-104668193D02*
X277763467Y-104858669D01*
X277763467Y-104858669D02*
X277801563Y-104934859D01*
X277801563Y-104934859D02*
X277839658Y-104972955D01*
X277839658Y-104972955D02*
X277915848Y-105011050D01*
X277915848Y-105011050D02*
X278068229Y-105011050D01*
X278068229Y-105011050D02*
X278144420Y-104972955D01*
X278144420Y-104972955D02*
X278182515Y-104934859D01*
X278182515Y-104934859D02*
X278220610Y-104858669D01*
X276239658Y-107855812D02*
X276239658Y-107055812D01*
X276239658Y-107055812D02*
X276544420Y-107055812D01*
X276544420Y-107055812D02*
X276620610Y-107093907D01*
X276620610Y-107093907D02*
X276658705Y-107132002D01*
X276658705Y-107132002D02*
X276696801Y-107208193D01*
X276696801Y-107208193D02*
X276696801Y-107322478D01*
X276696801Y-107322478D02*
X276658705Y-107398669D01*
X276658705Y-107398669D02*
X276620610Y-107436764D01*
X276620610Y-107436764D02*
X276544420Y-107474859D01*
X276544420Y-107474859D02*
X276239658Y-107474859D01*
X277458705Y-107855812D02*
X277001562Y-107855812D01*
X277230134Y-107855812D02*
X277230134Y-107055812D01*
X277230134Y-107055812D02*
X277153943Y-107170097D01*
X277153943Y-107170097D02*
X277077753Y-107246288D01*
X277077753Y-107246288D02*
X277001562Y-107284383D01*
X277915848Y-107398669D02*
X277839658Y-107360574D01*
X277839658Y-107360574D02*
X277801563Y-107322478D01*
X277801563Y-107322478D02*
X277763467Y-107246288D01*
X277763467Y-107246288D02*
X277763467Y-107208193D01*
X277763467Y-107208193D02*
X277801563Y-107132002D01*
X277801563Y-107132002D02*
X277839658Y-107093907D01*
X277839658Y-107093907D02*
X277915848Y-107055812D01*
X277915848Y-107055812D02*
X278068229Y-107055812D01*
X278068229Y-107055812D02*
X278144420Y-107093907D01*
X278144420Y-107093907D02*
X278182515Y-107132002D01*
X278182515Y-107132002D02*
X278220610Y-107208193D01*
X278220610Y-107208193D02*
X278220610Y-107246288D01*
X278220610Y-107246288D02*
X278182515Y-107322478D01*
X278182515Y-107322478D02*
X278144420Y-107360574D01*
X278144420Y-107360574D02*
X278068229Y-107398669D01*
X278068229Y-107398669D02*
X277915848Y-107398669D01*
X277915848Y-107398669D02*
X277839658Y-107436764D01*
X277839658Y-107436764D02*
X277801563Y-107474859D01*
X277801563Y-107474859D02*
X277763467Y-107551050D01*
X277763467Y-107551050D02*
X277763467Y-107703431D01*
X277763467Y-107703431D02*
X277801563Y-107779621D01*
X277801563Y-107779621D02*
X277839658Y-107817717D01*
X277839658Y-107817717D02*
X277915848Y-107855812D01*
X277915848Y-107855812D02*
X278068229Y-107855812D01*
X278068229Y-107855812D02*
X278144420Y-107817717D01*
X278144420Y-107817717D02*
X278182515Y-107779621D01*
X278182515Y-107779621D02*
X278220610Y-107703431D01*
X278220610Y-107703431D02*
X278220610Y-107551050D01*
X278220610Y-107551050D02*
X278182515Y-107474859D01*
X278182515Y-107474859D02*
X278144420Y-107436764D01*
X278144420Y-107436764D02*
X278068229Y-107398669D01*
X276239658Y-110395812D02*
X276239658Y-109595812D01*
X276239658Y-109595812D02*
X276544420Y-109595812D01*
X276544420Y-109595812D02*
X276620610Y-109633907D01*
X276620610Y-109633907D02*
X276658705Y-109672002D01*
X276658705Y-109672002D02*
X276696801Y-109748193D01*
X276696801Y-109748193D02*
X276696801Y-109862478D01*
X276696801Y-109862478D02*
X276658705Y-109938669D01*
X276658705Y-109938669D02*
X276620610Y-109976764D01*
X276620610Y-109976764D02*
X276544420Y-110014859D01*
X276544420Y-110014859D02*
X276239658Y-110014859D01*
X277458705Y-110395812D02*
X277001562Y-110395812D01*
X277230134Y-110395812D02*
X277230134Y-109595812D01*
X277230134Y-109595812D02*
X277153943Y-109710097D01*
X277153943Y-109710097D02*
X277077753Y-109786288D01*
X277077753Y-109786288D02*
X277001562Y-109824383D01*
X278182515Y-109595812D02*
X277801563Y-109595812D01*
X277801563Y-109595812D02*
X277763467Y-109976764D01*
X277763467Y-109976764D02*
X277801563Y-109938669D01*
X277801563Y-109938669D02*
X277877753Y-109900574D01*
X277877753Y-109900574D02*
X278068229Y-109900574D01*
X278068229Y-109900574D02*
X278144420Y-109938669D01*
X278144420Y-109938669D02*
X278182515Y-109976764D01*
X278182515Y-109976764D02*
X278220610Y-110052955D01*
X278220610Y-110052955D02*
X278220610Y-110243431D01*
X278220610Y-110243431D02*
X278182515Y-110319621D01*
X278182515Y-110319621D02*
X278144420Y-110357717D01*
X278144420Y-110357717D02*
X278068229Y-110395812D01*
X278068229Y-110395812D02*
X277877753Y-110395812D01*
X277877753Y-110395812D02*
X277801563Y-110357717D01*
X277801563Y-110357717D02*
X277763467Y-110319621D01*
X276239658Y-112935812D02*
X276239658Y-112135812D01*
X276239658Y-112135812D02*
X276544420Y-112135812D01*
X276544420Y-112135812D02*
X276620610Y-112173907D01*
X276620610Y-112173907D02*
X276658705Y-112212002D01*
X276658705Y-112212002D02*
X276696801Y-112288193D01*
X276696801Y-112288193D02*
X276696801Y-112402478D01*
X276696801Y-112402478D02*
X276658705Y-112478669D01*
X276658705Y-112478669D02*
X276620610Y-112516764D01*
X276620610Y-112516764D02*
X276544420Y-112554859D01*
X276544420Y-112554859D02*
X276239658Y-112554859D01*
X277458705Y-112935812D02*
X277001562Y-112935812D01*
X277230134Y-112935812D02*
X277230134Y-112135812D01*
X277230134Y-112135812D02*
X277153943Y-112250097D01*
X277153943Y-112250097D02*
X277077753Y-112326288D01*
X277077753Y-112326288D02*
X277001562Y-112364383D01*
X278144420Y-112402478D02*
X278144420Y-112935812D01*
X277953944Y-112097717D02*
X277763467Y-112669145D01*
X277763467Y-112669145D02*
X278258706Y-112669145D01*
X276239658Y-115475812D02*
X276239658Y-114675812D01*
X276239658Y-114675812D02*
X276544420Y-114675812D01*
X276544420Y-114675812D02*
X276620610Y-114713907D01*
X276620610Y-114713907D02*
X276658705Y-114752002D01*
X276658705Y-114752002D02*
X276696801Y-114828193D01*
X276696801Y-114828193D02*
X276696801Y-114942478D01*
X276696801Y-114942478D02*
X276658705Y-115018669D01*
X276658705Y-115018669D02*
X276620610Y-115056764D01*
X276620610Y-115056764D02*
X276544420Y-115094859D01*
X276544420Y-115094859D02*
X276239658Y-115094859D01*
X277458705Y-115475812D02*
X277001562Y-115475812D01*
X277230134Y-115475812D02*
X277230134Y-114675812D01*
X277230134Y-114675812D02*
X277153943Y-114790097D01*
X277153943Y-114790097D02*
X277077753Y-114866288D01*
X277077753Y-114866288D02*
X277001562Y-114904383D01*
X278144420Y-114675812D02*
X277992039Y-114675812D01*
X277992039Y-114675812D02*
X277915848Y-114713907D01*
X277915848Y-114713907D02*
X277877753Y-114752002D01*
X277877753Y-114752002D02*
X277801563Y-114866288D01*
X277801563Y-114866288D02*
X277763467Y-115018669D01*
X277763467Y-115018669D02*
X277763467Y-115323431D01*
X277763467Y-115323431D02*
X277801563Y-115399621D01*
X277801563Y-115399621D02*
X277839658Y-115437717D01*
X277839658Y-115437717D02*
X277915848Y-115475812D01*
X277915848Y-115475812D02*
X278068229Y-115475812D01*
X278068229Y-115475812D02*
X278144420Y-115437717D01*
X278144420Y-115437717D02*
X278182515Y-115399621D01*
X278182515Y-115399621D02*
X278220610Y-115323431D01*
X278220610Y-115323431D02*
X278220610Y-115132955D01*
X278220610Y-115132955D02*
X278182515Y-115056764D01*
X278182515Y-115056764D02*
X278144420Y-115018669D01*
X278144420Y-115018669D02*
X278068229Y-114980574D01*
X278068229Y-114980574D02*
X277915848Y-114980574D01*
X277915848Y-114980574D02*
X277839658Y-115018669D01*
X277839658Y-115018669D02*
X277801563Y-115056764D01*
X277801563Y-115056764D02*
X277763467Y-115132955D01*
X276239658Y-118015812D02*
X276239658Y-117215812D01*
X276239658Y-117215812D02*
X276544420Y-117215812D01*
X276544420Y-117215812D02*
X276620610Y-117253907D01*
X276620610Y-117253907D02*
X276658705Y-117292002D01*
X276658705Y-117292002D02*
X276696801Y-117368193D01*
X276696801Y-117368193D02*
X276696801Y-117482478D01*
X276696801Y-117482478D02*
X276658705Y-117558669D01*
X276658705Y-117558669D02*
X276620610Y-117596764D01*
X276620610Y-117596764D02*
X276544420Y-117634859D01*
X276544420Y-117634859D02*
X276239658Y-117634859D01*
X277458705Y-118015812D02*
X277001562Y-118015812D01*
X277230134Y-118015812D02*
X277230134Y-117215812D01*
X277230134Y-117215812D02*
X277153943Y-117330097D01*
X277153943Y-117330097D02*
X277077753Y-117406288D01*
X277077753Y-117406288D02*
X277001562Y-117444383D01*
X277953944Y-117215812D02*
X278030134Y-117215812D01*
X278030134Y-117215812D02*
X278106325Y-117253907D01*
X278106325Y-117253907D02*
X278144420Y-117292002D01*
X278144420Y-117292002D02*
X278182515Y-117368193D01*
X278182515Y-117368193D02*
X278220610Y-117520574D01*
X278220610Y-117520574D02*
X278220610Y-117711050D01*
X278220610Y-117711050D02*
X278182515Y-117863431D01*
X278182515Y-117863431D02*
X278144420Y-117939621D01*
X278144420Y-117939621D02*
X278106325Y-117977717D01*
X278106325Y-117977717D02*
X278030134Y-118015812D01*
X278030134Y-118015812D02*
X277953944Y-118015812D01*
X277953944Y-118015812D02*
X277877753Y-117977717D01*
X277877753Y-117977717D02*
X277839658Y-117939621D01*
X277839658Y-117939621D02*
X277801563Y-117863431D01*
X277801563Y-117863431D02*
X277763467Y-117711050D01*
X277763467Y-117711050D02*
X277763467Y-117520574D01*
X277763467Y-117520574D02*
X277801563Y-117368193D01*
X277801563Y-117368193D02*
X277839658Y-117292002D01*
X277839658Y-117292002D02*
X277877753Y-117253907D01*
X277877753Y-117253907D02*
X277953944Y-117215812D01*
%TO.C,_2*%
X255111086Y-128626764D02*
X255225372Y-128664859D01*
X255225372Y-128664859D02*
X255263467Y-128702955D01*
X255263467Y-128702955D02*
X255301563Y-128779145D01*
X255301563Y-128779145D02*
X255301563Y-128893431D01*
X255301563Y-128893431D02*
X255263467Y-128969621D01*
X255263467Y-128969621D02*
X255225372Y-129007717D01*
X255225372Y-129007717D02*
X255149182Y-129045812D01*
X255149182Y-129045812D02*
X254844420Y-129045812D01*
X254844420Y-129045812D02*
X254844420Y-128245812D01*
X254844420Y-128245812D02*
X255111086Y-128245812D01*
X255111086Y-128245812D02*
X255187277Y-128283907D01*
X255187277Y-128283907D02*
X255225372Y-128322002D01*
X255225372Y-128322002D02*
X255263467Y-128398193D01*
X255263467Y-128398193D02*
X255263467Y-128474383D01*
X255263467Y-128474383D02*
X255225372Y-128550574D01*
X255225372Y-128550574D02*
X255187277Y-128588669D01*
X255187277Y-128588669D02*
X255111086Y-128626764D01*
X255111086Y-128626764D02*
X254844420Y-128626764D01*
X255644420Y-128512478D02*
X255644420Y-129312478D01*
X255644420Y-128550574D02*
X255720610Y-128512478D01*
X255720610Y-128512478D02*
X255872991Y-128512478D01*
X255872991Y-128512478D02*
X255949182Y-128550574D01*
X255949182Y-128550574D02*
X255987277Y-128588669D01*
X255987277Y-128588669D02*
X256025372Y-128664859D01*
X256025372Y-128664859D02*
X256025372Y-128893431D01*
X256025372Y-128893431D02*
X255987277Y-128969621D01*
X255987277Y-128969621D02*
X255949182Y-129007717D01*
X255949182Y-129007717D02*
X255872991Y-129045812D01*
X255872991Y-129045812D02*
X255720610Y-129045812D01*
X255720610Y-129045812D02*
X255644420Y-129007717D01*
X256482515Y-129045812D02*
X256406325Y-129007717D01*
X256406325Y-129007717D02*
X256368230Y-128931526D01*
X256368230Y-128931526D02*
X256368230Y-128245812D01*
X257130135Y-128512478D02*
X257130135Y-129045812D01*
X256787278Y-128512478D02*
X256787278Y-128931526D01*
X256787278Y-128931526D02*
X256825373Y-129007717D01*
X256825373Y-129007717D02*
X256901563Y-129045812D01*
X256901563Y-129045812D02*
X257015849Y-129045812D01*
X257015849Y-129045812D02*
X257092040Y-129007717D01*
X257092040Y-129007717D02*
X257130135Y-128969621D01*
X257472992Y-129007717D02*
X257549183Y-129045812D01*
X257549183Y-129045812D02*
X257701564Y-129045812D01*
X257701564Y-129045812D02*
X257777754Y-129007717D01*
X257777754Y-129007717D02*
X257815850Y-128931526D01*
X257815850Y-128931526D02*
X257815850Y-128893431D01*
X257815850Y-128893431D02*
X257777754Y-128817240D01*
X257777754Y-128817240D02*
X257701564Y-128779145D01*
X257701564Y-128779145D02*
X257587278Y-128779145D01*
X257587278Y-128779145D02*
X257511088Y-128741050D01*
X257511088Y-128741050D02*
X257472992Y-128664859D01*
X257472992Y-128664859D02*
X257472992Y-128626764D01*
X257472992Y-128626764D02*
X257511088Y-128550574D01*
X257511088Y-128550574D02*
X257587278Y-128512478D01*
X257587278Y-128512478D02*
X257701564Y-128512478D01*
X257701564Y-128512478D02*
X257777754Y-128550574D01*
X256701563Y-130283907D02*
X256625373Y-130245812D01*
X256625373Y-130245812D02*
X256511087Y-130245812D01*
X256511087Y-130245812D02*
X256396801Y-130283907D01*
X256396801Y-130283907D02*
X256320611Y-130360097D01*
X256320611Y-130360097D02*
X256282516Y-130436288D01*
X256282516Y-130436288D02*
X256244420Y-130588669D01*
X256244420Y-130588669D02*
X256244420Y-130702955D01*
X256244420Y-130702955D02*
X256282516Y-130855336D01*
X256282516Y-130855336D02*
X256320611Y-130931526D01*
X256320611Y-130931526D02*
X256396801Y-131007717D01*
X256396801Y-131007717D02*
X256511087Y-131045812D01*
X256511087Y-131045812D02*
X256587278Y-131045812D01*
X256587278Y-131045812D02*
X256701563Y-131007717D01*
X256701563Y-131007717D02*
X256739659Y-130969621D01*
X256739659Y-130969621D02*
X256739659Y-130702955D01*
X256739659Y-130702955D02*
X256587278Y-130702955D01*
X257082516Y-131045812D02*
X257082516Y-130245812D01*
X257082516Y-130245812D02*
X257539659Y-131045812D01*
X257539659Y-131045812D02*
X257539659Y-130245812D01*
X257920611Y-131045812D02*
X257920611Y-130245812D01*
X257920611Y-130245812D02*
X258111087Y-130245812D01*
X258111087Y-130245812D02*
X258225373Y-130283907D01*
X258225373Y-130283907D02*
X258301563Y-130360097D01*
X258301563Y-130360097D02*
X258339658Y-130436288D01*
X258339658Y-130436288D02*
X258377754Y-130588669D01*
X258377754Y-130588669D02*
X258377754Y-130702955D01*
X258377754Y-130702955D02*
X258339658Y-130855336D01*
X258339658Y-130855336D02*
X258301563Y-130931526D01*
X258301563Y-130931526D02*
X258225373Y-131007717D01*
X258225373Y-131007717D02*
X258111087Y-131045812D01*
X258111087Y-131045812D02*
X257920611Y-131045812D01*
%TO.C,PAD1*%
X266961086Y-128326764D02*
X267075372Y-128364859D01*
X267075372Y-128364859D02*
X267113467Y-128402955D01*
X267113467Y-128402955D02*
X267151563Y-128479145D01*
X267151563Y-128479145D02*
X267151563Y-128593431D01*
X267151563Y-128593431D02*
X267113467Y-128669621D01*
X267113467Y-128669621D02*
X267075372Y-128707717D01*
X267075372Y-128707717D02*
X266999182Y-128745812D01*
X266999182Y-128745812D02*
X266694420Y-128745812D01*
X266694420Y-128745812D02*
X266694420Y-127945812D01*
X266694420Y-127945812D02*
X266961086Y-127945812D01*
X266961086Y-127945812D02*
X267037277Y-127983907D01*
X267037277Y-127983907D02*
X267075372Y-128022002D01*
X267075372Y-128022002D02*
X267113467Y-128098193D01*
X267113467Y-128098193D02*
X267113467Y-128174383D01*
X267113467Y-128174383D02*
X267075372Y-128250574D01*
X267075372Y-128250574D02*
X267037277Y-128288669D01*
X267037277Y-128288669D02*
X266961086Y-128326764D01*
X266961086Y-128326764D02*
X266694420Y-128326764D01*
X267494420Y-128212478D02*
X267494420Y-129012478D01*
X267494420Y-128250574D02*
X267570610Y-128212478D01*
X267570610Y-128212478D02*
X267722991Y-128212478D01*
X267722991Y-128212478D02*
X267799182Y-128250574D01*
X267799182Y-128250574D02*
X267837277Y-128288669D01*
X267837277Y-128288669D02*
X267875372Y-128364859D01*
X267875372Y-128364859D02*
X267875372Y-128593431D01*
X267875372Y-128593431D02*
X267837277Y-128669621D01*
X267837277Y-128669621D02*
X267799182Y-128707717D01*
X267799182Y-128707717D02*
X267722991Y-128745812D01*
X267722991Y-128745812D02*
X267570610Y-128745812D01*
X267570610Y-128745812D02*
X267494420Y-128707717D01*
X268332515Y-128745812D02*
X268256325Y-128707717D01*
X268256325Y-128707717D02*
X268218230Y-128631526D01*
X268218230Y-128631526D02*
X268218230Y-127945812D01*
X268980135Y-128212478D02*
X268980135Y-128745812D01*
X268637278Y-128212478D02*
X268637278Y-128631526D01*
X268637278Y-128631526D02*
X268675373Y-128707717D01*
X268675373Y-128707717D02*
X268751563Y-128745812D01*
X268751563Y-128745812D02*
X268865849Y-128745812D01*
X268865849Y-128745812D02*
X268942040Y-128707717D01*
X268942040Y-128707717D02*
X268980135Y-128669621D01*
X269322992Y-128707717D02*
X269399183Y-128745812D01*
X269399183Y-128745812D02*
X269551564Y-128745812D01*
X269551564Y-128745812D02*
X269627754Y-128707717D01*
X269627754Y-128707717D02*
X269665850Y-128631526D01*
X269665850Y-128631526D02*
X269665850Y-128593431D01*
X269665850Y-128593431D02*
X269627754Y-128517240D01*
X269627754Y-128517240D02*
X269551564Y-128479145D01*
X269551564Y-128479145D02*
X269437278Y-128479145D01*
X269437278Y-128479145D02*
X269361088Y-128441050D01*
X269361088Y-128441050D02*
X269322992Y-128364859D01*
X269322992Y-128364859D02*
X269322992Y-128326764D01*
X269322992Y-128326764D02*
X269361088Y-128250574D01*
X269361088Y-128250574D02*
X269437278Y-128212478D01*
X269437278Y-128212478D02*
X269551564Y-128212478D01*
X269551564Y-128212478D02*
X269627754Y-128250574D01*
%TO.C,PAD2*%
X266551563Y-130583907D02*
X266475373Y-130545812D01*
X266475373Y-130545812D02*
X266361087Y-130545812D01*
X266361087Y-130545812D02*
X266246801Y-130583907D01*
X266246801Y-130583907D02*
X266170611Y-130660097D01*
X266170611Y-130660097D02*
X266132516Y-130736288D01*
X266132516Y-130736288D02*
X266094420Y-130888669D01*
X266094420Y-130888669D02*
X266094420Y-131002955D01*
X266094420Y-131002955D02*
X266132516Y-131155336D01*
X266132516Y-131155336D02*
X266170611Y-131231526D01*
X266170611Y-131231526D02*
X266246801Y-131307717D01*
X266246801Y-131307717D02*
X266361087Y-131345812D01*
X266361087Y-131345812D02*
X266437278Y-131345812D01*
X266437278Y-131345812D02*
X266551563Y-131307717D01*
X266551563Y-131307717D02*
X266589659Y-131269621D01*
X266589659Y-131269621D02*
X266589659Y-131002955D01*
X266589659Y-131002955D02*
X266437278Y-131002955D01*
X266932516Y-131345812D02*
X266932516Y-130545812D01*
X266932516Y-130545812D02*
X267389659Y-131345812D01*
X267389659Y-131345812D02*
X267389659Y-130545812D01*
X267770611Y-131345812D02*
X267770611Y-130545812D01*
X267770611Y-130545812D02*
X267961087Y-130545812D01*
X267961087Y-130545812D02*
X268075373Y-130583907D01*
X268075373Y-130583907D02*
X268151563Y-130660097D01*
X268151563Y-130660097D02*
X268189658Y-130736288D01*
X268189658Y-130736288D02*
X268227754Y-130888669D01*
X268227754Y-130888669D02*
X268227754Y-131002955D01*
X268227754Y-131002955D02*
X268189658Y-131155336D01*
X268189658Y-131155336D02*
X268151563Y-131231526D01*
X268151563Y-131231526D02*
X268075373Y-131307717D01*
X268075373Y-131307717D02*
X267961087Y-131345812D01*
X267961087Y-131345812D02*
X267770611Y-131345812D01*
%TO.C,TRRS_F*%
X271299182Y-139192336D02*
X271870610Y-139192336D01*
X271584896Y-140192336D02*
X271584896Y-139192336D01*
X272775372Y-140192336D02*
X272442039Y-139716145D01*
X272203944Y-140192336D02*
X272203944Y-139192336D01*
X272203944Y-139192336D02*
X272584896Y-139192336D01*
X272584896Y-139192336D02*
X272680134Y-139239955D01*
X272680134Y-139239955D02*
X272727753Y-139287574D01*
X272727753Y-139287574D02*
X272775372Y-139382812D01*
X272775372Y-139382812D02*
X272775372Y-139525669D01*
X272775372Y-139525669D02*
X272727753Y-139620907D01*
X272727753Y-139620907D02*
X272680134Y-139668526D01*
X272680134Y-139668526D02*
X272584896Y-139716145D01*
X272584896Y-139716145D02*
X272203944Y-139716145D01*
X273775372Y-140192336D02*
X273442039Y-139716145D01*
X273203944Y-140192336D02*
X273203944Y-139192336D01*
X273203944Y-139192336D02*
X273584896Y-139192336D01*
X273584896Y-139192336D02*
X273680134Y-139239955D01*
X273680134Y-139239955D02*
X273727753Y-139287574D01*
X273727753Y-139287574D02*
X273775372Y-139382812D01*
X273775372Y-139382812D02*
X273775372Y-139525669D01*
X273775372Y-139525669D02*
X273727753Y-139620907D01*
X273727753Y-139620907D02*
X273680134Y-139668526D01*
X273680134Y-139668526D02*
X273584896Y-139716145D01*
X273584896Y-139716145D02*
X273203944Y-139716145D01*
X274156325Y-140144717D02*
X274299182Y-140192336D01*
X274299182Y-140192336D02*
X274537277Y-140192336D01*
X274537277Y-140192336D02*
X274632515Y-140144717D01*
X274632515Y-140144717D02*
X274680134Y-140097097D01*
X274680134Y-140097097D02*
X274727753Y-140001859D01*
X274727753Y-140001859D02*
X274727753Y-139906621D01*
X274727753Y-139906621D02*
X274680134Y-139811383D01*
X274680134Y-139811383D02*
X274632515Y-139763764D01*
X274632515Y-139763764D02*
X274537277Y-139716145D01*
X274537277Y-139716145D02*
X274346801Y-139668526D01*
X274346801Y-139668526D02*
X274251563Y-139620907D01*
X274251563Y-139620907D02*
X274203944Y-139573288D01*
X274203944Y-139573288D02*
X274156325Y-139478050D01*
X274156325Y-139478050D02*
X274156325Y-139382812D01*
X274156325Y-139382812D02*
X274203944Y-139287574D01*
X274203944Y-139287574D02*
X274251563Y-139239955D01*
X274251563Y-139239955D02*
X274346801Y-139192336D01*
X274346801Y-139192336D02*
X274584896Y-139192336D01*
X274584896Y-139192336D02*
X274727753Y-139239955D01*
%TO.C,J2*%
X268865906Y-134850183D02*
X269580191Y-134850183D01*
X269580191Y-134850183D02*
X269723048Y-134897802D01*
X269723048Y-134897802D02*
X269818287Y-134993040D01*
X269818287Y-134993040D02*
X269865906Y-135135897D01*
X269865906Y-135135897D02*
X269865906Y-135231135D01*
X269199239Y-133945421D02*
X269865906Y-133945421D01*
X269199239Y-134373992D02*
X269723048Y-134373992D01*
X269723048Y-134373992D02*
X269818287Y-134326373D01*
X269818287Y-134326373D02*
X269865906Y-134231135D01*
X269865906Y-134231135D02*
X269865906Y-134088278D01*
X269865906Y-134088278D02*
X269818287Y-133993040D01*
X269818287Y-133993040D02*
X269770667Y-133945421D01*
X269865906Y-133469230D02*
X269199239Y-133469230D01*
X269294477Y-133469230D02*
X269246858Y-133421611D01*
X269246858Y-133421611D02*
X269199239Y-133326373D01*
X269199239Y-133326373D02*
X269199239Y-133183516D01*
X269199239Y-133183516D02*
X269246858Y-133088278D01*
X269246858Y-133088278D02*
X269342096Y-133040659D01*
X269342096Y-133040659D02*
X269865906Y-133040659D01*
X269342096Y-133040659D02*
X269246858Y-132993040D01*
X269246858Y-132993040D02*
X269199239Y-132897802D01*
X269199239Y-132897802D02*
X269199239Y-132754945D01*
X269199239Y-132754945D02*
X269246858Y-132659706D01*
X269246858Y-132659706D02*
X269342096Y-132612087D01*
X269342096Y-132612087D02*
X269865906Y-132612087D01*
X269199239Y-132135897D02*
X270199239Y-132135897D01*
X269246858Y-132135897D02*
X269199239Y-132040659D01*
X269199239Y-132040659D02*
X269199239Y-131850183D01*
X269199239Y-131850183D02*
X269246858Y-131754945D01*
X269246858Y-131754945D02*
X269294477Y-131707326D01*
X269294477Y-131707326D02*
X269389715Y-131659707D01*
X269389715Y-131659707D02*
X269675429Y-131659707D01*
X269675429Y-131659707D02*
X269770667Y-131707326D01*
X269770667Y-131707326D02*
X269818287Y-131754945D01*
X269818287Y-131754945D02*
X269865906Y-131850183D01*
X269865906Y-131850183D02*
X269865906Y-132040659D01*
X269865906Y-132040659D02*
X269818287Y-132135897D01*
X269818287Y-130850183D02*
X269865906Y-130945421D01*
X269865906Y-130945421D02*
X269865906Y-131135897D01*
X269865906Y-131135897D02*
X269818287Y-131231135D01*
X269818287Y-131231135D02*
X269723048Y-131278754D01*
X269723048Y-131278754D02*
X269342096Y-131278754D01*
X269342096Y-131278754D02*
X269246858Y-131231135D01*
X269246858Y-131231135D02*
X269199239Y-131135897D01*
X269199239Y-131135897D02*
X269199239Y-130945421D01*
X269199239Y-130945421D02*
X269246858Y-130850183D01*
X269246858Y-130850183D02*
X269342096Y-130802564D01*
X269342096Y-130802564D02*
X269437334Y-130802564D01*
X269437334Y-130802564D02*
X269532572Y-131278754D01*
X269865906Y-130373992D02*
X269199239Y-130373992D01*
X269389715Y-130373992D02*
X269294477Y-130326373D01*
X269294477Y-130326373D02*
X269246858Y-130278754D01*
X269246858Y-130278754D02*
X269199239Y-130183516D01*
X269199239Y-130183516D02*
X269199239Y-130088278D01*
%TO.C,_3*%
X273565906Y-132850183D02*
X273565906Y-132659707D01*
X273565906Y-132659707D02*
X273613525Y-132564469D01*
X273613525Y-132564469D02*
X273708763Y-132469231D01*
X273708763Y-132469231D02*
X273899239Y-132421612D01*
X273899239Y-132421612D02*
X274232572Y-132421612D01*
X274232572Y-132421612D02*
X274423048Y-132469231D01*
X274423048Y-132469231D02*
X274518287Y-132564469D01*
X274518287Y-132564469D02*
X274565906Y-132659707D01*
X274565906Y-132659707D02*
X274565906Y-132850183D01*
X274565906Y-132850183D02*
X274518287Y-132945421D01*
X274518287Y-132945421D02*
X274423048Y-133040659D01*
X274423048Y-133040659D02*
X274232572Y-133088278D01*
X274232572Y-133088278D02*
X273899239Y-133088278D01*
X273899239Y-133088278D02*
X273708763Y-133040659D01*
X273708763Y-133040659D02*
X273613525Y-132945421D01*
X273613525Y-132945421D02*
X273565906Y-132850183D01*
X273899239Y-131993040D02*
X274565906Y-131993040D01*
X273994477Y-131993040D02*
X273946858Y-131945421D01*
X273946858Y-131945421D02*
X273899239Y-131850183D01*
X273899239Y-131850183D02*
X273899239Y-131707326D01*
X273899239Y-131707326D02*
X273946858Y-131612088D01*
X273946858Y-131612088D02*
X274042096Y-131564469D01*
X274042096Y-131564469D02*
X274565906Y-131564469D01*
X273518287Y-130373993D02*
X274804001Y-131231135D01*
X273565906Y-129850183D02*
X273565906Y-129659707D01*
X273565906Y-129659707D02*
X273613525Y-129564469D01*
X273613525Y-129564469D02*
X273708763Y-129469231D01*
X273708763Y-129469231D02*
X273899239Y-129421612D01*
X273899239Y-129421612D02*
X274232572Y-129421612D01*
X274232572Y-129421612D02*
X274423048Y-129469231D01*
X274423048Y-129469231D02*
X274518287Y-129564469D01*
X274518287Y-129564469D02*
X274565906Y-129659707D01*
X274565906Y-129659707D02*
X274565906Y-129850183D01*
X274565906Y-129850183D02*
X274518287Y-129945421D01*
X274518287Y-129945421D02*
X274423048Y-130040659D01*
X274423048Y-130040659D02*
X274232572Y-130088278D01*
X274232572Y-130088278D02*
X273899239Y-130088278D01*
X273899239Y-130088278D02*
X273708763Y-130040659D01*
X273708763Y-130040659D02*
X273613525Y-129945421D01*
X273613525Y-129945421D02*
X273565906Y-129850183D01*
X273899239Y-129135897D02*
X273899239Y-128754945D01*
X274565906Y-128993040D02*
X273708763Y-128993040D01*
X273708763Y-128993040D02*
X273613525Y-128945421D01*
X273613525Y-128945421D02*
X273565906Y-128850183D01*
X273565906Y-128850183D02*
X273565906Y-128754945D01*
X273899239Y-128564468D02*
X273899239Y-128183516D01*
X274565906Y-128421611D02*
X273708763Y-128421611D01*
X273708763Y-128421611D02*
X273613525Y-128373992D01*
X273613525Y-128373992D02*
X273565906Y-128278754D01*
X273565906Y-128278754D02*
X273565906Y-128183516D01*
%TO.C,_4_F*%
X260958705Y-138688336D02*
X260625372Y-138212145D01*
X260387277Y-138688336D02*
X260387277Y-137688336D01*
X260387277Y-137688336D02*
X260768229Y-137688336D01*
X260768229Y-137688336D02*
X260863467Y-137735955D01*
X260863467Y-137735955D02*
X260911086Y-137783574D01*
X260911086Y-137783574D02*
X260958705Y-137878812D01*
X260958705Y-137878812D02*
X260958705Y-138021669D01*
X260958705Y-138021669D02*
X260911086Y-138116907D01*
X260911086Y-138116907D02*
X260863467Y-138164526D01*
X260863467Y-138164526D02*
X260768229Y-138212145D01*
X260768229Y-138212145D02*
X260387277Y-138212145D01*
X261387277Y-138164526D02*
X261720610Y-138164526D01*
X261863467Y-138688336D02*
X261387277Y-138688336D01*
X261387277Y-138688336D02*
X261387277Y-137688336D01*
X261387277Y-137688336D02*
X261863467Y-137688336D01*
X262244420Y-138640717D02*
X262387277Y-138688336D01*
X262387277Y-138688336D02*
X262625372Y-138688336D01*
X262625372Y-138688336D02*
X262720610Y-138640717D01*
X262720610Y-138640717D02*
X262768229Y-138593097D01*
X262768229Y-138593097D02*
X262815848Y-138497859D01*
X262815848Y-138497859D02*
X262815848Y-138402621D01*
X262815848Y-138402621D02*
X262768229Y-138307383D01*
X262768229Y-138307383D02*
X262720610Y-138259764D01*
X262720610Y-138259764D02*
X262625372Y-138212145D01*
X262625372Y-138212145D02*
X262434896Y-138164526D01*
X262434896Y-138164526D02*
X262339658Y-138116907D01*
X262339658Y-138116907D02*
X262292039Y-138069288D01*
X262292039Y-138069288D02*
X262244420Y-137974050D01*
X262244420Y-137974050D02*
X262244420Y-137878812D01*
X262244420Y-137878812D02*
X262292039Y-137783574D01*
X262292039Y-137783574D02*
X262339658Y-137735955D01*
X262339658Y-137735955D02*
X262434896Y-137688336D01*
X262434896Y-137688336D02*
X262672991Y-137688336D01*
X262672991Y-137688336D02*
X262815848Y-137735955D01*
X263244420Y-138164526D02*
X263577753Y-138164526D01*
X263720610Y-138688336D02*
X263244420Y-138688336D01*
X263244420Y-138688336D02*
X263244420Y-137688336D01*
X263244420Y-137688336D02*
X263720610Y-137688336D01*
X264006325Y-137688336D02*
X264577753Y-137688336D01*
X264292039Y-138688336D02*
X264292039Y-137688336D01*
D11*
%TO.C,_7*%
X216211339Y-121608183D02*
X216211339Y-121227231D01*
X215878006Y-121465326D02*
X216735148Y-121465326D01*
X216735148Y-121465326D02*
X216830387Y-121417707D01*
X216830387Y-121417707D02*
X216878006Y-121322469D01*
X216878006Y-121322469D02*
X216878006Y-121227231D01*
X216830387Y-120512945D02*
X216878006Y-120608183D01*
X216878006Y-120608183D02*
X216878006Y-120798659D01*
X216878006Y-120798659D02*
X216830387Y-120893897D01*
X216830387Y-120893897D02*
X216735148Y-120941516D01*
X216735148Y-120941516D02*
X216354196Y-120941516D01*
X216354196Y-120941516D02*
X216258958Y-120893897D01*
X216258958Y-120893897D02*
X216211339Y-120798659D01*
X216211339Y-120798659D02*
X216211339Y-120608183D01*
X216211339Y-120608183D02*
X216258958Y-120512945D01*
X216258958Y-120512945D02*
X216354196Y-120465326D01*
X216354196Y-120465326D02*
X216449434Y-120465326D01*
X216449434Y-120465326D02*
X216544672Y-120941516D01*
X216211339Y-120036754D02*
X216878006Y-120036754D01*
X216306577Y-120036754D02*
X216258958Y-119989135D01*
X216258958Y-119989135D02*
X216211339Y-119893897D01*
X216211339Y-119893897D02*
X216211339Y-119751040D01*
X216211339Y-119751040D02*
X216258958Y-119655802D01*
X216258958Y-119655802D02*
X216354196Y-119608183D01*
X216354196Y-119608183D02*
X216878006Y-119608183D01*
X216211339Y-119274849D02*
X216211339Y-118893897D01*
X215878006Y-119131992D02*
X216735148Y-119131992D01*
X216735148Y-119131992D02*
X216830387Y-119084373D01*
X216830387Y-119084373D02*
X216878006Y-118989135D01*
X216878006Y-118989135D02*
X216878006Y-118893897D01*
X216878006Y-118560563D02*
X216211339Y-118560563D01*
X215878006Y-118560563D02*
X215925625Y-118608182D01*
X215925625Y-118608182D02*
X215973244Y-118560563D01*
X215973244Y-118560563D02*
X215925625Y-118512944D01*
X215925625Y-118512944D02*
X215878006Y-118560563D01*
X215878006Y-118560563D02*
X215973244Y-118560563D01*
X216211339Y-118084373D02*
X216878006Y-118084373D01*
X216306577Y-118084373D02*
X216258958Y-118036754D01*
X216258958Y-118036754D02*
X216211339Y-117941516D01*
X216211339Y-117941516D02*
X216211339Y-117798659D01*
X216211339Y-117798659D02*
X216258958Y-117703421D01*
X216258958Y-117703421D02*
X216354196Y-117655802D01*
X216354196Y-117655802D02*
X216878006Y-117655802D01*
X216211339Y-116751040D02*
X217020863Y-116751040D01*
X217020863Y-116751040D02*
X217116101Y-116798659D01*
X217116101Y-116798659D02*
X217163720Y-116846278D01*
X217163720Y-116846278D02*
X217211339Y-116941516D01*
X217211339Y-116941516D02*
X217211339Y-117084373D01*
X217211339Y-117084373D02*
X217163720Y-117179611D01*
X216830387Y-116751040D02*
X216878006Y-116846278D01*
X216878006Y-116846278D02*
X216878006Y-117036754D01*
X216878006Y-117036754D02*
X216830387Y-117131992D01*
X216830387Y-117131992D02*
X216782767Y-117179611D01*
X216782767Y-117179611D02*
X216687529Y-117227230D01*
X216687529Y-117227230D02*
X216401815Y-117227230D01*
X216401815Y-117227230D02*
X216306577Y-117179611D01*
X216306577Y-117179611D02*
X216258958Y-117131992D01*
X216258958Y-117131992D02*
X216211339Y-117036754D01*
X216211339Y-117036754D02*
X216211339Y-116846278D01*
X216211339Y-116846278D02*
X216258958Y-116751040D01*
X216147839Y-107717683D02*
X217147839Y-107717683D01*
X216195458Y-107717683D02*
X216147839Y-107622445D01*
X216147839Y-107622445D02*
X216147839Y-107431969D01*
X216147839Y-107431969D02*
X216195458Y-107336731D01*
X216195458Y-107336731D02*
X216243077Y-107289112D01*
X216243077Y-107289112D02*
X216338315Y-107241493D01*
X216338315Y-107241493D02*
X216624029Y-107241493D01*
X216624029Y-107241493D02*
X216719267Y-107289112D01*
X216719267Y-107289112D02*
X216766887Y-107336731D01*
X216766887Y-107336731D02*
X216814506Y-107431969D01*
X216814506Y-107431969D02*
X216814506Y-107622445D01*
X216814506Y-107622445D02*
X216766887Y-107717683D01*
X216147839Y-106384350D02*
X216814506Y-106384350D01*
X216147839Y-106812921D02*
X216671648Y-106812921D01*
X216671648Y-106812921D02*
X216766887Y-106765302D01*
X216766887Y-106765302D02*
X216814506Y-106670064D01*
X216814506Y-106670064D02*
X216814506Y-106527207D01*
X216814506Y-106527207D02*
X216766887Y-106431969D01*
X216766887Y-106431969D02*
X216719267Y-106384350D01*
X216766887Y-105479588D02*
X216814506Y-105574826D01*
X216814506Y-105574826D02*
X216814506Y-105765302D01*
X216814506Y-105765302D02*
X216766887Y-105860540D01*
X216766887Y-105860540D02*
X216719267Y-105908159D01*
X216719267Y-105908159D02*
X216624029Y-105955778D01*
X216624029Y-105955778D02*
X216338315Y-105955778D01*
X216338315Y-105955778D02*
X216243077Y-105908159D01*
X216243077Y-105908159D02*
X216195458Y-105860540D01*
X216195458Y-105860540D02*
X216147839Y-105765302D01*
X216147839Y-105765302D02*
X216147839Y-105574826D01*
X216147839Y-105574826D02*
X216195458Y-105479588D01*
X216814506Y-105051016D02*
X215814506Y-105051016D01*
X216433553Y-104955778D02*
X216814506Y-104670064D01*
X216147839Y-104670064D02*
X216528791Y-105051016D01*
D12*
%TO.C,S1*%
X173886088Y-142726916D02*
X171495326Y-143457846D01*
X167371639Y-147071390D02*
X167039672Y-147695728D01*
X174510427Y-143058883D02*
X173886088Y-142726916D01*
X171170964Y-150092587D02*
X172664813Y-147283065D01*
X175055575Y-146552135D02*
X175387542Y-145927797D01*
X168541126Y-150896609D02*
X171170964Y-150092587D01*
X172664813Y-147283065D02*
X175055575Y-146552135D01*
X170001477Y-146267368D02*
X167371639Y-147071390D01*
X171495326Y-143457846D02*
X170001477Y-146267368D01*
X167916788Y-150564642D02*
X168541126Y-150896609D01*
%TO.C,S2*%
X168915769Y-126469735D02*
X166525007Y-127200665D01*
X162401320Y-130814209D02*
X162069353Y-131438547D01*
X169540108Y-126801702D02*
X168915769Y-126469735D01*
X166200645Y-133835406D02*
X167694494Y-131025884D01*
X170085256Y-130294954D02*
X170417223Y-129670616D01*
X163570807Y-134639428D02*
X166200645Y-133835406D01*
X167694494Y-131025884D02*
X170085256Y-130294954D01*
X165031158Y-130010187D02*
X162401320Y-130814209D01*
X166525007Y-127200665D02*
X165031158Y-130010187D01*
X162946469Y-134307461D02*
X163570807Y-134639428D01*
%TO.C,S3*%
X163945450Y-110212554D02*
X161554688Y-110943484D01*
X157431001Y-114557028D02*
X157099034Y-115181366D01*
X164569789Y-110544521D02*
X163945450Y-110212554D01*
X161230326Y-117578225D02*
X162724175Y-114768703D01*
X165114937Y-114037773D02*
X165446904Y-113413435D01*
X158600488Y-118382247D02*
X161230326Y-117578225D01*
X162724175Y-114768703D02*
X165114937Y-114037773D01*
X160060839Y-113753006D02*
X157431001Y-114557028D01*
X161554688Y-110943484D02*
X160060839Y-113753006D01*
X157976150Y-118050280D02*
X158600488Y-118382247D01*
%TO.C,S4*%
X189132972Y-120642875D02*
X186670953Y-121076995D01*
X182137623Y-124161054D02*
X181732043Y-124740281D01*
X189712200Y-121048455D02*
X189132972Y-120642875D01*
X185540437Y-127622752D02*
X187365546Y-125016226D01*
X189827565Y-124582106D02*
X190233145Y-124002878D01*
X182832215Y-128100285D02*
X185540437Y-127622752D01*
X187365546Y-125016226D02*
X189827565Y-124582106D01*
X184845844Y-123683521D02*
X182137623Y-124161054D01*
X186670953Y-121076995D02*
X184845844Y-123683521D01*
X182252987Y-127694705D02*
X182832215Y-128100285D01*
%TO.C,S5*%
X186180953Y-103901143D02*
X183718934Y-104335263D01*
X179185604Y-107419322D02*
X178780024Y-107998549D01*
X186760181Y-104306723D02*
X186180953Y-103901143D01*
X182588418Y-110881020D02*
X184413527Y-108274494D01*
X186875546Y-107840374D02*
X187281126Y-107261146D01*
X179880196Y-111358553D02*
X182588418Y-110881020D01*
X184413527Y-108274494D02*
X186875546Y-107840374D01*
X181893825Y-106941789D02*
X179185604Y-107419322D01*
X183718934Y-104335263D02*
X181893825Y-106941789D01*
X179300968Y-110952973D02*
X179880196Y-111358553D01*
%TO.C,S6*%
X183228934Y-87159411D02*
X180766915Y-87593531D01*
X176233585Y-90677590D02*
X175828005Y-91256817D01*
X183808162Y-87564991D02*
X183228934Y-87159411D01*
X179636399Y-94139288D02*
X181461508Y-91532762D01*
X183923527Y-91098642D02*
X184329107Y-90519414D01*
X176928177Y-94616821D02*
X179636399Y-94139288D01*
X181461508Y-91532762D02*
X183923527Y-91098642D01*
X178941806Y-90200057D02*
X176233585Y-90677590D01*
X180766915Y-87593531D02*
X178941806Y-90200057D01*
X176348949Y-94211241D02*
X176928177Y-94616821D01*
%TO.C,S7*%
X208251288Y-111742641D02*
X205760802Y-111960530D01*
X200975929Y-114637747D02*
X200521409Y-115179422D01*
X208792964Y-112197160D02*
X208251288Y-111742641D01*
X204064087Y-118382847D02*
X206109425Y-115945309D01*
X208599911Y-115727420D02*
X209054431Y-115185744D01*
X201324552Y-118622526D02*
X204064087Y-118382847D01*
X206109425Y-115945309D02*
X208599911Y-115727420D01*
X203715464Y-114398069D02*
X200975929Y-114637747D01*
X205760802Y-111960530D02*
X203715464Y-114398069D01*
X200782876Y-118168006D02*
X201324552Y-118622526D01*
%TO.C,S8*%
X206968880Y-94789900D02*
X204478394Y-95007789D01*
X199693521Y-97685006D02*
X199239001Y-98226681D01*
X207510556Y-95244419D02*
X206968880Y-94789900D01*
X202781679Y-101430106D02*
X204827017Y-98992568D01*
X207317503Y-98774679D02*
X207772023Y-98233003D01*
X200042144Y-101669785D02*
X202781679Y-101430106D01*
X204827017Y-98992568D02*
X207317503Y-98774679D01*
X202433056Y-97445328D02*
X199693521Y-97685006D01*
X204478394Y-95007789D02*
X202433056Y-97445328D01*
X199500468Y-101215265D02*
X200042144Y-101669785D01*
%TO.C,S9*%
X205686471Y-77837159D02*
X203195985Y-78055048D01*
X198411112Y-80732265D02*
X197956592Y-81273940D01*
X206228147Y-78291678D02*
X205686471Y-77837159D01*
X201499270Y-84477365D02*
X203544608Y-82039827D01*
X206035094Y-81821938D02*
X206489614Y-81280262D01*
X198759735Y-84717044D02*
X201499270Y-84477365D01*
X203544608Y-82039827D02*
X206035094Y-81821938D01*
X201150647Y-80492587D02*
X198411112Y-80732265D01*
X203195985Y-78055048D02*
X201150647Y-80492587D01*
X198218059Y-84262524D02*
X198759735Y-84717044D01*
%TO.C,S10*%
X228661087Y-115850184D02*
X226161087Y-115850184D01*
X221161087Y-118100184D02*
X220661087Y-118600184D01*
X229161087Y-116350184D02*
X228661087Y-115850184D01*
X223911087Y-122100184D02*
X226161087Y-119850184D01*
X228661087Y-119850184D02*
X229161087Y-119350184D01*
X221161087Y-122100184D02*
X223911087Y-122100184D01*
X226161087Y-119850184D02*
X228661087Y-119850184D01*
X223911087Y-118100184D02*
X221161087Y-118100184D01*
X226161087Y-115850184D02*
X223911087Y-118100184D01*
X220661087Y-121600184D02*
X221161087Y-122100184D01*
%TO.C,S11*%
X228661087Y-98850184D02*
X226161087Y-98850184D01*
X221161087Y-101100184D02*
X220661087Y-101600184D01*
X229161087Y-99350184D02*
X228661087Y-98850184D01*
X223911087Y-105100184D02*
X226161087Y-102850184D01*
X228661087Y-102850184D02*
X229161087Y-102350184D01*
X221161087Y-105100184D02*
X223911087Y-105100184D01*
X226161087Y-102850184D02*
X228661087Y-102850184D01*
X223911087Y-101100184D02*
X221161087Y-101100184D01*
X226161087Y-98850184D02*
X223911087Y-101100184D01*
X220661087Y-104600184D02*
X221161087Y-105100184D01*
%TO.C,S12*%
X228661087Y-81850184D02*
X226161087Y-81850184D01*
X221161087Y-84100184D02*
X220661087Y-84600184D01*
X229161087Y-82350184D02*
X228661087Y-81850184D01*
X223911087Y-88100184D02*
X226161087Y-85850184D01*
X228661087Y-85850184D02*
X229161087Y-85350184D01*
X221161087Y-88100184D02*
X223911087Y-88100184D01*
X226161087Y-85850184D02*
X228661087Y-85850184D01*
X223911087Y-84100184D02*
X221161087Y-84100184D01*
X226161087Y-81850184D02*
X223911087Y-84100184D01*
X220661087Y-87600184D02*
X221161087Y-88100184D01*
%TO.C,S13*%
X247661087Y-118683517D02*
X245161087Y-118683517D01*
X240161087Y-120933517D02*
X239661087Y-121433517D01*
X248161087Y-119183517D02*
X247661087Y-118683517D01*
X242911087Y-124933517D02*
X245161087Y-122683517D01*
X247661087Y-122683517D02*
X248161087Y-122183517D01*
X240161087Y-124933517D02*
X242911087Y-124933517D01*
X245161087Y-122683517D02*
X247661087Y-122683517D01*
X242911087Y-120933517D02*
X240161087Y-120933517D01*
X245161087Y-118683517D02*
X242911087Y-120933517D01*
X239661087Y-124433517D02*
X240161087Y-124933517D01*
%TO.C,S14*%
X247661087Y-101683517D02*
X245161087Y-101683517D01*
X240161087Y-103933517D02*
X239661087Y-104433517D01*
X248161087Y-102183517D02*
X247661087Y-101683517D01*
X242911087Y-107933517D02*
X245161087Y-105683517D01*
X247661087Y-105683517D02*
X248161087Y-105183517D01*
X240161087Y-107933517D02*
X242911087Y-107933517D01*
X245161087Y-105683517D02*
X247661087Y-105683517D01*
X242911087Y-103933517D02*
X240161087Y-103933517D01*
X245161087Y-101683517D02*
X242911087Y-103933517D01*
X239661087Y-107433517D02*
X240161087Y-107933517D01*
%TO.C,S15*%
X247661087Y-84683517D02*
X245161087Y-84683517D01*
X240161087Y-86933517D02*
X239661087Y-87433517D01*
X248161087Y-85183517D02*
X247661087Y-84683517D01*
X242911087Y-90933517D02*
X245161087Y-88683517D01*
X247661087Y-88683517D02*
X248161087Y-88183517D01*
X240161087Y-90933517D02*
X242911087Y-90933517D01*
X245161087Y-88683517D02*
X247661087Y-88683517D01*
X242911087Y-86933517D02*
X240161087Y-86933517D01*
X245161087Y-84683517D02*
X242911087Y-86933517D01*
X239661087Y-90433517D02*
X240161087Y-90933517D01*
%TO.C,S16*%
X242482516Y-141475734D02*
X240006846Y-141127801D01*
X234742366Y-142660039D02*
X234177645Y-143085586D01*
X242908063Y-142040454D02*
X242482516Y-141475734D01*
X236908911Y-147003837D02*
X239450153Y-145088873D01*
X241925823Y-145436806D02*
X242490544Y-145011259D01*
X234185673Y-146621111D02*
X236908911Y-147003837D01*
X239450153Y-145088873D02*
X241925823Y-145436806D01*
X237465603Y-143042765D02*
X234742366Y-142660039D01*
X240006846Y-141127801D02*
X237465603Y-143042765D01*
X233760126Y-146056390D02*
X234185673Y-146621111D01*
%TO.C,S17*%
X264460902Y-147452051D02*
X262126951Y-146556131D01*
X256652721Y-146864847D02*
X256006747Y-147152453D01*
X264748508Y-148098025D02*
X264460902Y-147452051D01*
X257786595Y-151584680D02*
X260693479Y-150290452D01*
X263027430Y-151186372D02*
X263673405Y-150898766D01*
X255219249Y-150599169D02*
X257786595Y-151584680D01*
X260693479Y-150290452D02*
X263027430Y-151186372D01*
X259220067Y-147850359D02*
X256652721Y-146864847D01*
X262126951Y-146556131D02*
X259220067Y-147850359D01*
X254931643Y-149953194D02*
X255219249Y-150599169D01*
%TO.C,S18*%
X284637977Y-158773901D02*
X282590096Y-157339960D01*
X277203789Y-156315170D02*
X276507425Y-156437958D01*
X284760764Y-159470265D02*
X284637977Y-158773901D01*
X277162152Y-161169113D02*
X280295791Y-160616568D01*
X282343671Y-162050509D02*
X283040035Y-161927722D01*
X274909483Y-159591778D02*
X277162152Y-161169113D01*
X280295791Y-160616568D02*
X282343671Y-162050509D01*
X279456457Y-157892505D02*
X277203789Y-156315170D01*
X282590096Y-157339960D02*
X279456457Y-157892505D01*
X274786696Y-158895414D02*
X274909483Y-159591778D01*
%TO.C,D1*%
X174632226Y-157138484D02*
X178361815Y-155998234D01*
X174047483Y-155225875D02*
X174632226Y-157138484D01*
X174047483Y-155225875D02*
X177777071Y-154085625D01*
D11*
X176730616Y-155451250D02*
X177208769Y-155305064D01*
X175774311Y-155743622D02*
X176156833Y-155626673D01*
X176156833Y-155626673D02*
X176613668Y-155068728D01*
X176156833Y-155626673D02*
X175996029Y-155100705D01*
X176847565Y-155833772D02*
X176156833Y-155626673D01*
X176156833Y-155626673D02*
X176317638Y-156152641D01*
X176613668Y-155068728D02*
X176847565Y-155833772D01*
D12*
%TO.C,D2*%
X169661907Y-140881303D02*
X173391496Y-139741053D01*
X169077164Y-138968694D02*
X169661907Y-140881303D01*
X169077164Y-138968694D02*
X172806752Y-137828444D01*
D11*
X171760297Y-139194069D02*
X172238450Y-139047883D01*
X170803992Y-139486441D02*
X171186514Y-139369492D01*
X171186514Y-139369492D02*
X171643349Y-138811547D01*
X171186514Y-139369492D02*
X171025710Y-138843524D01*
X171877246Y-139576591D02*
X171186514Y-139369492D01*
X171186514Y-139369492D02*
X171347319Y-139895460D01*
X171643349Y-138811547D02*
X171877246Y-139576591D01*
D12*
%TO.C,D3*%
X164691588Y-124624122D02*
X168421177Y-123483872D01*
X164106845Y-122711513D02*
X164691588Y-124624122D01*
X164106845Y-122711513D02*
X167836433Y-121571263D01*
D11*
X166789978Y-122936888D02*
X167268131Y-122790702D01*
X165833673Y-123229260D02*
X166216195Y-123112311D01*
X166216195Y-123112311D02*
X166673030Y-122554366D01*
X166216195Y-123112311D02*
X166055391Y-122586343D01*
X166906927Y-123319410D02*
X166216195Y-123112311D01*
X166216195Y-123112311D02*
X166377000Y-123638279D01*
X166673030Y-122554366D02*
X166906927Y-123319410D01*
D12*
%TO.C,D4*%
X188117219Y-135037951D02*
X191957969Y-134360723D01*
X187769922Y-133068336D02*
X188117219Y-135037951D01*
X187769922Y-133068336D02*
X191610673Y-132391108D01*
D11*
X190405590Y-133619023D02*
X190897994Y-133532199D01*
X189420782Y-133792671D02*
X189814705Y-133723212D01*
X189814705Y-133723212D02*
X190336131Y-133225100D01*
X189814705Y-133723212D02*
X189719199Y-133181568D01*
X190475049Y-134012946D02*
X189814705Y-133723212D01*
X189814705Y-133723212D02*
X189910212Y-134264856D01*
X190336131Y-133225100D02*
X190475049Y-134012946D01*
D12*
%TO.C,D5*%
X185165200Y-118296220D02*
X189005950Y-117618992D01*
X184817903Y-116326605D02*
X185165200Y-118296220D01*
X184817903Y-116326605D02*
X188658654Y-115649377D01*
D11*
X187453571Y-116877292D02*
X187945975Y-116790468D01*
X186468763Y-117050940D02*
X186862686Y-116981481D01*
X186862686Y-116981481D02*
X187384112Y-116483369D01*
X186862686Y-116981481D02*
X186767180Y-116439837D01*
X187523030Y-117271215D02*
X186862686Y-116981481D01*
X186862686Y-116981481D02*
X186958193Y-117523125D01*
X187384112Y-116483369D02*
X187523030Y-117271215D01*
D12*
%TO.C,D6*%
X182213181Y-101554488D02*
X186053931Y-100877260D01*
X181865884Y-99584873D02*
X182213181Y-101554488D01*
X181865884Y-99584873D02*
X185706635Y-98907645D01*
D11*
X184501552Y-100135560D02*
X184993956Y-100048736D01*
X183516744Y-100309208D02*
X183910667Y-100239749D01*
X183910667Y-100239749D02*
X184432093Y-99741637D01*
X183910667Y-100239749D02*
X183815161Y-99698105D01*
X184571011Y-100529483D02*
X183910667Y-100239749D01*
X183910667Y-100239749D02*
X184006174Y-100781393D01*
X184432093Y-99741637D02*
X184571011Y-100529483D01*
D12*
%TO.C,D7*%
X205984788Y-125994412D02*
X209869947Y-125654505D01*
X205810476Y-124002023D02*
X205984788Y-125994412D01*
X205810476Y-124002023D02*
X209695636Y-123662115D01*
D11*
X208388119Y-124780328D02*
X208886216Y-124736750D01*
X207391924Y-124867484D02*
X207790402Y-124832622D01*
X207790402Y-124832622D02*
X208353256Y-124381850D01*
X207790402Y-124832622D02*
X207742466Y-124284714D01*
X208422981Y-125178806D02*
X207790402Y-124832622D01*
X207790402Y-124832622D02*
X207838338Y-125380529D01*
X208353256Y-124381850D02*
X208422981Y-125178806D01*
D12*
%TO.C,D8*%
X204702379Y-109041671D02*
X208587538Y-108701764D01*
X204528067Y-107049282D02*
X204702379Y-109041671D01*
X204528067Y-107049282D02*
X208413227Y-106709374D01*
D11*
X207105710Y-107827587D02*
X207603807Y-107784009D01*
X206109515Y-107914743D02*
X206507993Y-107879881D01*
X206507993Y-107879881D02*
X207070847Y-107429109D01*
X206507993Y-107879881D02*
X206460057Y-107331973D01*
X207140572Y-108226065D02*
X206507993Y-107879881D01*
X206507993Y-107879881D02*
X206555929Y-108427788D01*
X207070847Y-107429109D02*
X207140572Y-108226065D01*
D12*
%TO.C,D9*%
X203419971Y-92088930D02*
X207305130Y-91749023D01*
X203245659Y-90096541D02*
X203419971Y-92088930D01*
X203245659Y-90096541D02*
X207130819Y-89756633D01*
D11*
X205823302Y-90874846D02*
X206321399Y-90831268D01*
X204827107Y-90962002D02*
X205225585Y-90927140D01*
X205225585Y-90927140D02*
X205788439Y-90476368D01*
X205225585Y-90927140D02*
X205177649Y-90379232D01*
X205858164Y-91273324D02*
X205225585Y-90927140D01*
X205225585Y-90927140D02*
X205273521Y-91475047D01*
X205788439Y-90476368D02*
X205858164Y-91273324D01*
D12*
%TO.C,D10*%
X225161087Y-129850184D02*
X229061087Y-129850184D01*
X225161087Y-127850184D02*
X225161087Y-129850184D01*
X225161087Y-127850184D02*
X229061087Y-127850184D01*
D11*
X227661087Y-128850184D02*
X228161087Y-128850184D01*
X226661087Y-128850184D02*
X227061087Y-128850184D01*
X227061087Y-128850184D02*
X227661087Y-128450184D01*
X227061087Y-128850184D02*
X227061087Y-128300184D01*
X227661087Y-129250184D02*
X227061087Y-128850184D01*
X227061087Y-128850184D02*
X227061087Y-129400184D01*
X227661087Y-128450184D02*
X227661087Y-129250184D01*
D12*
%TO.C,D11*%
X225161087Y-112850184D02*
X229061087Y-112850184D01*
X225161087Y-110850184D02*
X225161087Y-112850184D01*
X225161087Y-110850184D02*
X229061087Y-110850184D01*
D11*
X227661087Y-111850184D02*
X228161087Y-111850184D01*
X226661087Y-111850184D02*
X227061087Y-111850184D01*
X227061087Y-111850184D02*
X227661087Y-111450184D01*
X227061087Y-111850184D02*
X227061087Y-111300184D01*
X227661087Y-112250184D02*
X227061087Y-111850184D01*
X227061087Y-111850184D02*
X227061087Y-112400184D01*
X227661087Y-111450184D02*
X227661087Y-112250184D01*
D12*
%TO.C,D12*%
X225161087Y-95850184D02*
X229061087Y-95850184D01*
X225161087Y-93850184D02*
X225161087Y-95850184D01*
X225161087Y-93850184D02*
X229061087Y-93850184D01*
D11*
X227661087Y-94850184D02*
X228161087Y-94850184D01*
X226661087Y-94850184D02*
X227061087Y-94850184D01*
X227061087Y-94850184D02*
X227661087Y-94450184D01*
X227061087Y-94850184D02*
X227061087Y-94300184D01*
X227661087Y-95250184D02*
X227061087Y-94850184D01*
X227061087Y-94850184D02*
X227061087Y-95400184D01*
X227661087Y-94450184D02*
X227661087Y-95250184D01*
D12*
%TO.C,D13*%
X244161087Y-132683517D02*
X248061087Y-132683517D01*
X244161087Y-130683517D02*
X244161087Y-132683517D01*
X244161087Y-130683517D02*
X248061087Y-130683517D01*
D11*
X246661087Y-131683517D02*
X247161087Y-131683517D01*
X245661087Y-131683517D02*
X246061087Y-131683517D01*
X246061087Y-131683517D02*
X246661087Y-131283517D01*
X246061087Y-131683517D02*
X246061087Y-131133517D01*
X246661087Y-132083517D02*
X246061087Y-131683517D01*
X246061087Y-131683517D02*
X246061087Y-132233517D01*
X246661087Y-131283517D02*
X246661087Y-132083517D01*
D12*
%TO.C,D14*%
X244161087Y-115683517D02*
X248061087Y-115683517D01*
X244161087Y-113683517D02*
X244161087Y-115683517D01*
X244161087Y-113683517D02*
X248061087Y-113683517D01*
D11*
X246661087Y-114683517D02*
X247161087Y-114683517D01*
X245661087Y-114683517D02*
X246061087Y-114683517D01*
X246061087Y-114683517D02*
X246661087Y-114283517D01*
X246061087Y-114683517D02*
X246061087Y-114133517D01*
X246661087Y-115083517D02*
X246061087Y-114683517D01*
X246061087Y-114683517D02*
X246061087Y-115233517D01*
X246661087Y-114283517D02*
X246661087Y-115083517D01*
D12*
%TO.C,D15*%
X244161087Y-98683517D02*
X248061087Y-98683517D01*
X244161087Y-96683517D02*
X244161087Y-98683517D01*
X244161087Y-96683517D02*
X248061087Y-96683517D01*
D11*
X246661087Y-97683517D02*
X247161087Y-97683517D01*
X245661087Y-97683517D02*
X246061087Y-97683517D01*
X246061087Y-97683517D02*
X246661087Y-97283517D01*
X246061087Y-97683517D02*
X246061087Y-97133517D01*
X246661087Y-98083517D02*
X246061087Y-97683517D01*
X246061087Y-97683517D02*
X246061087Y-98233517D01*
X246661087Y-97283517D02*
X246661087Y-98083517D01*
D12*
%TO.C,D16*%
X237068155Y-154852382D02*
X240930200Y-155395157D01*
X237346501Y-152871845D02*
X237068155Y-154852382D01*
X237346501Y-152871845D02*
X241208546Y-153414621D01*
D11*
X239682998Y-154210046D02*
X240178132Y-154279633D01*
X238692730Y-154070873D02*
X239088837Y-154126542D01*
X239088837Y-154126542D02*
X239738667Y-153813939D01*
X239088837Y-154126542D02*
X239165382Y-153581895D01*
X239627329Y-154606154D02*
X239088837Y-154126542D01*
X239088837Y-154126542D02*
X239012292Y-154671190D01*
X239738667Y-153813939D02*
X239627329Y-154606154D01*
D12*
%TO.C,D17*%
X256176219Y-159267889D02*
X259817183Y-160665524D01*
X256892955Y-157400728D02*
X256176219Y-159267889D01*
X256892955Y-157400728D02*
X260533919Y-158798363D01*
D11*
X258868538Y-159230228D02*
X259335328Y-159409412D01*
X257934958Y-158871860D02*
X258308390Y-159015207D01*
X258308390Y-159015207D02*
X259011885Y-158856796D01*
X258308390Y-159015207D02*
X258505492Y-158501738D01*
X258725191Y-159603660D02*
X258308390Y-159015207D01*
X258308390Y-159015207D02*
X258111287Y-159528676D01*
X259011885Y-158856796D02*
X258725191Y-159603660D01*
D12*
%TO.C,D18*%
X273740874Y-168234512D02*
X276935567Y-170471460D01*
X274888027Y-166596208D02*
X273740874Y-168234512D01*
X274888027Y-166596208D02*
X278082720Y-168833156D01*
D11*
X276362331Y-168849301D02*
X276771907Y-169136089D01*
X275543179Y-168275725D02*
X275870840Y-168505155D01*
X275870840Y-168505155D02*
X276591762Y-168521640D01*
X275870840Y-168505155D02*
X276186307Y-168054622D01*
X276132900Y-169176962D02*
X275870840Y-168505155D01*
X275870840Y-168505155D02*
X275555373Y-168955689D01*
X276591762Y-168521640D02*
X276132900Y-169176962D01*
D10*
%TO.C,MCU1*%
X261061087Y-88443517D02*
X261061087Y-90983517D01*
X261061087Y-88443517D02*
X258521087Y-88443517D01*
X261061087Y-90983517D02*
X258521087Y-90983517D01*
X258521087Y-90983517D02*
X258521087Y-88443517D01*
D12*
%TO.C,_2*%
X257911087Y-126683517D02*
X265511087Y-126683517D01*
X265511087Y-126683517D02*
X265511087Y-127683517D01*
X265511087Y-131683517D02*
X265511087Y-132683517D01*
X265511087Y-132683517D02*
X257911087Y-132683517D01*
X257911087Y-132683517D02*
X257911087Y-131683517D01*
X257911087Y-127683517D02*
X257911087Y-126683517D01*
D10*
%TO.C,TRRS_F*%
X279411087Y-142733517D02*
X279411087Y-136633517D01*
X279411087Y-136633517D02*
X267311087Y-136633517D01*
X279411087Y-142483517D02*
X281411087Y-142483517D01*
X279411087Y-136883517D02*
X281411087Y-136883517D01*
X267311087Y-142733517D02*
X267311087Y-136633517D01*
X279411087Y-142733517D02*
X267311087Y-142733517D01*
X281411087Y-142483517D02*
X281411087Y-136883517D01*
D12*
%TO.C,J2*%
X270411087Y-134083517D02*
X270411087Y-131283517D01*
X272411087Y-134083517D02*
X270411087Y-134083517D01*
X270411087Y-131283517D02*
X272411087Y-131283517D01*
X272411087Y-131283517D02*
X272411087Y-134083517D01*
%TO.C,_3*%
X279411087Y-135083517D02*
X274861087Y-135083517D01*
X279411087Y-132333517D02*
X279411087Y-135083517D01*
X279411087Y-126283517D02*
X279411087Y-129033517D01*
X274861087Y-126283517D02*
X279411087Y-126283517D01*
X274861087Y-135083517D02*
X274861087Y-134083517D01*
X274861087Y-127283517D02*
X274861087Y-126283517D01*
%TO.C,_4_F*%
X264061087Y-134283517D02*
X264061087Y-134583517D01*
X260761087Y-137083517D02*
X264061087Y-137083517D01*
X260761087Y-134283517D02*
X264061087Y-134283517D01*
X260761087Y-134583517D02*
X260761087Y-134283517D01*
X260761087Y-136783517D02*
X260761087Y-137083517D01*
X264061087Y-137083517D02*
X264061087Y-136783517D01*
D13*
%TO.C,_7*%
X197324954Y-105242136D02*
G75*
G03*
X196291088Y-109392684I19286116J-7008044D01*
G01*
X213753587Y-91930185D02*
G75*
G03*
X209603039Y-92964051I2857496J-20319982D01*
G01*
X209603041Y-131536319D02*
G75*
G03*
X213753587Y-132570184I7008046J19286135D01*
G01*
X217739472Y-101514321D02*
G75*
G03*
X216611087Y-101455184I-1128385J-10735763D01*
G01*
X219468587Y-132570183D02*
G75*
G03*
X223619134Y-131536317I-2857500J20319999D01*
G01*
X216611087Y-101455185D02*
G75*
G03*
X215482702Y-101514321I-6J-10794920D01*
G01*
X196291087Y-115107684D02*
G75*
G03*
X197324953Y-119258231I20319953J2857490D01*
G01*
X236931087Y-109392684D02*
G75*
G03*
X235897222Y-105242139I-20320019J-2857506D01*
G01*
X223619134Y-92964050D02*
G75*
G03*
X219468587Y-91930184I-7008047J-19286134D01*
G01*
X235897221Y-119258230D02*
G75*
G03*
X236931086Y-115107684I-19286184J7008058D01*
G01*
X215482702Y-122986048D02*
G75*
G03*
X216611087Y-123045184I1128379J10735785D01*
G01*
X216611087Y-123045184D02*
G75*
G03*
X217739472Y-122986047I0J10794900D01*
G01*
D14*
X214984332Y-126332051D02*
X215787278Y-125529351D01*
X216075646Y-125532445D01*
X216364014Y-125535538D01*
X215516790Y-126395675D01*
X215398865Y-126515398D01*
X215284066Y-126631947D01*
X215173612Y-126744087D01*
X215068720Y-126850580D01*
X214970608Y-126950191D01*
X214880493Y-127041684D01*
X214799594Y-127123821D01*
X214729127Y-127195366D01*
X214670311Y-127255084D01*
X214624364Y-127301738D01*
X214592503Y-127334091D01*
X214578722Y-127348087D01*
X214487878Y-127440363D01*
X214487878Y-124698493D01*
X214984332Y-124698493D01*
X214984332Y-126332051D01*
G36*
X214984332Y-126332051D02*
G01*
X215787278Y-125529351D01*
X216075646Y-125532445D01*
X216364014Y-125535538D01*
X215516790Y-126395675D01*
X215398865Y-126515398D01*
X215284066Y-126631947D01*
X215173612Y-126744087D01*
X215068720Y-126850580D01*
X214970608Y-126950191D01*
X214880493Y-127041684D01*
X214799594Y-127123821D01*
X214729127Y-127195366D01*
X214670311Y-127255084D01*
X214624364Y-127301738D01*
X214592503Y-127334091D01*
X214578722Y-127348087D01*
X214487878Y-127440363D01*
X214487878Y-124698493D01*
X214984332Y-124698493D01*
X214984332Y-126332051D01*
G37*
X215791112Y-126738582D02*
X215813815Y-126761445D01*
X215848294Y-126796976D01*
X215892563Y-126843068D01*
X215944630Y-126897614D01*
X216002509Y-126958508D01*
X216064208Y-127023643D01*
X216127741Y-127090913D01*
X216191116Y-127158211D01*
X216252346Y-127223430D01*
X216309442Y-127284465D01*
X216360414Y-127339208D01*
X216403274Y-127385553D01*
X216436032Y-127421393D01*
X216456700Y-127444622D01*
X216458993Y-127447313D01*
X216487294Y-127480948D01*
X215867280Y-127480948D01*
X215693930Y-127304879D01*
X215640188Y-127250136D01*
X215589905Y-127198623D01*
X215546089Y-127153443D01*
X215511743Y-127117697D01*
X215489875Y-127094488D01*
X215486698Y-127090996D01*
X215452816Y-127053181D01*
X215613851Y-126891837D01*
X215663564Y-126842382D01*
X215707788Y-126799057D01*
X215743935Y-126764344D01*
X215769417Y-126740724D01*
X215781646Y-126730676D01*
X215782177Y-126730493D01*
X215791112Y-126738582D01*
G36*
X215791112Y-126738582D02*
G01*
X215813815Y-126761445D01*
X215848294Y-126796976D01*
X215892563Y-126843068D01*
X215944630Y-126897614D01*
X216002509Y-126958508D01*
X216064208Y-127023643D01*
X216127741Y-127090913D01*
X216191116Y-127158211D01*
X216252346Y-127223430D01*
X216309442Y-127284465D01*
X216360414Y-127339208D01*
X216403274Y-127385553D01*
X216436032Y-127421393D01*
X216456700Y-127444622D01*
X216458993Y-127447313D01*
X216487294Y-127480948D01*
X215867280Y-127480948D01*
X215693930Y-127304879D01*
X215640188Y-127250136D01*
X215589905Y-127198623D01*
X215546089Y-127153443D01*
X215511743Y-127117697D01*
X215489875Y-127094488D01*
X215486698Y-127090996D01*
X215452816Y-127053181D01*
X215613851Y-126891837D01*
X215663564Y-126842382D01*
X215707788Y-126799057D01*
X215743935Y-126764344D01*
X215769417Y-126740724D01*
X215781646Y-126730676D01*
X215782177Y-126730493D01*
X215791112Y-126738582D01*
G37*
X217189366Y-125197834D02*
X217189558Y-125302074D01*
X217190047Y-125398819D01*
X217190797Y-125485705D01*
X217191773Y-125560367D01*
X217192942Y-125620442D01*
X217194269Y-125663565D01*
X217195718Y-125687372D01*
X217196626Y-125691402D01*
X217209057Y-125685088D01*
X217233903Y-125668745D01*
X217258037Y-125651543D01*
X217372734Y-125580821D01*
X217494950Y-125531717D01*
X217625333Y-125504041D01*
X217764534Y-125497603D01*
X217782346Y-125498271D01*
X217871981Y-125504823D01*
X217948464Y-125516760D01*
X218020116Y-125536252D01*
X218095254Y-125565469D01*
X218165105Y-125598108D01*
X218293038Y-125673401D01*
X218405958Y-125765381D01*
X218502852Y-125872370D01*
X218582710Y-125992695D01*
X218644520Y-126124680D01*
X218687272Y-126266649D01*
X218709953Y-126416928D01*
X218713514Y-126506598D01*
X218703223Y-126659076D01*
X218671867Y-126803640D01*
X218618722Y-126942876D01*
X218561467Y-127049795D01*
X218475755Y-127170088D01*
X218374142Y-127274937D01*
X218258809Y-127363259D01*
X218131934Y-127433973D01*
X217995698Y-127485996D01*
X217852279Y-127518249D01*
X217703858Y-127529648D01*
X217603612Y-127525165D01*
X217459004Y-127500284D01*
X217318436Y-127454009D01*
X217185263Y-127388030D01*
X217062843Y-127304033D01*
X216954531Y-127203707D01*
X216946137Y-127194541D01*
X216865006Y-127090421D01*
X216795314Y-126972239D01*
X216740148Y-126846376D01*
X216702595Y-126719216D01*
X216693726Y-126672766D01*
X216691113Y-126644371D01*
X216688768Y-126594299D01*
X216687299Y-126543965D01*
X217183637Y-126543965D01*
X217194209Y-126641514D01*
X217224641Y-126735533D01*
X217253295Y-126789678D01*
X217320229Y-126877961D01*
X217399710Y-126948838D01*
X217489142Y-127001331D01*
X217585928Y-127034463D01*
X217687469Y-127047257D01*
X217791170Y-127038736D01*
X217863997Y-127019448D01*
X217906994Y-127003362D01*
X217947899Y-126986002D01*
X217964066Y-126978226D01*
X218009352Y-126947222D01*
X218058675Y-126901028D01*
X218106732Y-126845572D01*
X218148217Y-126786778D01*
X218169705Y-126748451D01*
X218189886Y-126704205D01*
X218202531Y-126665597D01*
X218209888Y-126623305D01*
X218214206Y-126568002D01*
X218214488Y-126562712D01*
X218211120Y-126455467D01*
X218188264Y-126357575D01*
X218144612Y-126264152D01*
X218126842Y-126235623D01*
X218062300Y-126157719D01*
X217983483Y-126095549D01*
X217893847Y-126050053D01*
X217796848Y-126022175D01*
X217695944Y-126012855D01*
X217594592Y-126023037D01*
X217496246Y-126053662D01*
X217482243Y-126059948D01*
X217394291Y-126112897D01*
X217320301Y-126181111D01*
X217261258Y-126261457D01*
X217218145Y-126350804D01*
X217191943Y-126446017D01*
X217183637Y-126543965D01*
X216687299Y-126543965D01*
X216686715Y-126523962D01*
X216684976Y-126434773D01*
X216683573Y-126328144D01*
X216682529Y-126205488D01*
X216681865Y-126068216D01*
X216681604Y-125917742D01*
X216681601Y-125906006D01*
X216681514Y-125214292D01*
X217189218Y-124704266D01*
X217189366Y-125197834D01*
G36*
X217189366Y-125197834D02*
G01*
X217189558Y-125302074D01*
X217190047Y-125398819D01*
X217190797Y-125485705D01*
X217191773Y-125560367D01*
X217192942Y-125620442D01*
X217194269Y-125663565D01*
X217195718Y-125687372D01*
X217196626Y-125691402D01*
X217209057Y-125685088D01*
X217233903Y-125668745D01*
X217258037Y-125651543D01*
X217372734Y-125580821D01*
X217494950Y-125531717D01*
X217625333Y-125504041D01*
X217764534Y-125497603D01*
X217782346Y-125498271D01*
X217871981Y-125504823D01*
X217948464Y-125516760D01*
X218020116Y-125536252D01*
X218095254Y-125565469D01*
X218165105Y-125598108D01*
X218293038Y-125673401D01*
X218405958Y-125765381D01*
X218502852Y-125872370D01*
X218582710Y-125992695D01*
X218644520Y-126124680D01*
X218687272Y-126266649D01*
X218709953Y-126416928D01*
X218713514Y-126506598D01*
X218703223Y-126659076D01*
X218671867Y-126803640D01*
X218618722Y-126942876D01*
X218561467Y-127049795D01*
X218475755Y-127170088D01*
X218374142Y-127274937D01*
X218258809Y-127363259D01*
X218131934Y-127433973D01*
X217995698Y-127485996D01*
X217852279Y-127518249D01*
X217703858Y-127529648D01*
X217603612Y-127525165D01*
X217459004Y-127500284D01*
X217318436Y-127454009D01*
X217185263Y-127388030D01*
X217062843Y-127304033D01*
X216954531Y-127203707D01*
X216946137Y-127194541D01*
X216865006Y-127090421D01*
X216795314Y-126972239D01*
X216740148Y-126846376D01*
X216702595Y-126719216D01*
X216693726Y-126672766D01*
X216691113Y-126644371D01*
X216688768Y-126594299D01*
X216687299Y-126543965D01*
X217183637Y-126543965D01*
X217194209Y-126641514D01*
X217224641Y-126735533D01*
X217253295Y-126789678D01*
X217320229Y-126877961D01*
X217399710Y-126948838D01*
X217489142Y-127001331D01*
X217585928Y-127034463D01*
X217687469Y-127047257D01*
X217791170Y-127038736D01*
X217863997Y-127019448D01*
X217906994Y-127003362D01*
X217947899Y-126986002D01*
X217964066Y-126978226D01*
X218009352Y-126947222D01*
X218058675Y-126901028D01*
X218106732Y-126845572D01*
X218148217Y-126786778D01*
X218169705Y-126748451D01*
X218189886Y-126704205D01*
X218202531Y-126665597D01*
X218209888Y-126623305D01*
X218214206Y-126568002D01*
X218214488Y-126562712D01*
X218211120Y-126455467D01*
X218188264Y-126357575D01*
X218144612Y-126264152D01*
X218126842Y-126235623D01*
X218062300Y-126157719D01*
X217983483Y-126095549D01*
X217893847Y-126050053D01*
X217796848Y-126022175D01*
X217695944Y-126012855D01*
X217594592Y-126023037D01*
X217496246Y-126053662D01*
X217482243Y-126059948D01*
X217394291Y-126112897D01*
X217320301Y-126181111D01*
X217261258Y-126261457D01*
X217218145Y-126350804D01*
X217191943Y-126446017D01*
X217183637Y-126543965D01*
X216687299Y-126543965D01*
X216686715Y-126523962D01*
X216684976Y-126434773D01*
X216683573Y-126328144D01*
X216682529Y-126205488D01*
X216681865Y-126068216D01*
X216681604Y-125917742D01*
X216681601Y-125906006D01*
X216681514Y-125214292D01*
X217189218Y-124704266D01*
X217189366Y-125197834D01*
G37*
%TD*%
D15*
%TO.C,_2*%
X259911087Y-128683517D03*
D16*
X259911087Y-130683517D03*
%TD*%
M02*
