%TF.GenerationSoftware,KiCad,Pcbnew,7.0.5*%
%TF.CreationDate,2024-04-29T22:33:29+02:00*%
%TF.ProjectId,porcupine,706f7263-7570-4696-9e65-2e6b69636164,v0.0.1*%
%TF.SameCoordinates,Original*%
%TF.FileFunction,Soldermask,Top*%
%TF.FilePolarity,Negative*%
%FSLAX46Y46*%
G04 Gerber Fmt 4.6, Leading zero omitted, Abs format (unit mm)*
G04 Created by KiCad (PCBNEW 7.0.5) date 2024-04-29 22:33:29*
%MOMM*%
%LPD*%
G01*
G04 APERTURE LIST*
G04 Aperture macros list*
%AMRoundRect*
0 Rectangle with rounded corners*
0 $1 Rounding radius*
0 $2 $3 $4 $5 $6 $7 $8 $9 X,Y pos of 4 corners*
0 Add a 4 corners polygon primitive as box body*
4,1,4,$2,$3,$4,$5,$6,$7,$8,$9,$2,$3,0*
0 Add four circle primitives for the rounded corners*
1,1,$1+$1,$2,$3*
1,1,$1+$1,$4,$5*
1,1,$1+$1,$6,$7*
1,1,$1+$1,$8,$9*
0 Add four rect primitives between the rounded corners*
20,1,$1+$1,$2,$3,$4,$5,0*
20,1,$1+$1,$4,$5,$6,$7,0*
20,1,$1+$1,$6,$7,$8,$9,0*
20,1,$1+$1,$8,$9,$2,$3,0*%
%AMFreePoly0*
4,1,14,0.635355,0.435355,0.650000,0.400000,0.650000,0.200000,0.635355,0.164645,0.035355,-0.435355,0.000000,-0.450000,-0.035355,-0.435355,-0.635355,0.164645,-0.650000,0.200000,-0.650000,0.400000,-0.635355,0.435355,-0.600000,0.450000,0.600000,0.450000,0.635355,0.435355,0.635355,0.435355,$1*%
%AMFreePoly1*
4,1,16,0.635355,1.035355,0.650000,1.000000,0.650000,-0.250000,0.635355,-0.285355,0.600000,-0.300000,-0.600000,-0.300000,-0.635355,-0.285355,-0.650000,-0.250000,-0.650000,1.000000,-0.635355,1.035355,-0.600000,1.050000,-0.564645,1.035355,0.000000,0.470710,0.564645,1.035355,0.600000,1.050000,0.635355,1.035355,0.635355,1.035355,$1*%
%AMFreePoly2*
4,1,16,0.535355,0.785355,0.541603,0.777735,1.041603,0.027735,1.049029,-0.009806,1.041603,-0.027735,0.541603,-0.777735,0.509806,-0.799029,0.500000,-0.800000,-0.500000,-0.800000,-0.535355,-0.785355,-0.550000,-0.750000,-0.550000,0.750000,-0.535355,0.785355,-0.500000,0.800000,0.500000,0.800000,0.535355,0.785355,0.535355,0.785355,$1*%
%AMFreePoly3*
4,1,16,0.535355,0.785355,0.550000,0.750000,0.550000,-0.750000,0.535355,-0.785355,0.500000,-0.800000,-0.650000,-0.800000,-0.685355,-0.785355,-0.700000,-0.750000,-0.691603,-0.722265,-0.210093,0.000000,-0.691603,0.722265,-0.699029,0.759806,-0.677735,0.791603,-0.650000,0.800000,0.500000,0.800000,0.535355,0.785355,0.535355,0.785355,$1*%
G04 Aperture macros list end*
%ADD10C,0.250000*%
%ADD11C,0.100000*%
%ADD12C,0.200000*%
%ADD13C,3.529000*%
%ADD14C,1.801800*%
%ADD15C,3.100000*%
%ADD16RoundRect,0.050000X-0.863113X-1.623279X1.623279X-0.863113X0.863113X1.623279X-1.623279X0.863113X0*%
%ADD17RoundRect,0.050000X-1.054507X-1.505993X1.505993X-1.054507X1.054507X1.505993X-1.505993X1.054507X0*%
%ADD18RoundRect,0.050000X-1.181751X-1.408356X1.408356X-1.181751X1.181751X1.408356X-1.408356X1.181751X0*%
%ADD19RoundRect,0.050000X-1.300000X-1.300000X1.300000X-1.300000X1.300000X1.300000X-1.300000X1.300000X0*%
%ADD20RoundRect,0.050000X-1.468274X-1.106423X1.106423X-1.468274X1.468274X1.106423X-1.106423X1.468274X0*%
%ADD21RoundRect,0.050000X-1.679533X-0.747776X0.747776X-1.679533X1.679533X0.747776X-0.747776X1.679533X0*%
%ADD22RoundRect,0.050000X-1.810547X-0.319248X0.319248X-1.810547X1.810547X0.319248X-0.319248X1.810547X0*%
%ADD23RoundRect,0.050000X-0.254914X-0.705350X0.605760X-0.442216X0.254914X0.705350X-0.605760X0.442216X0*%
%ADD24C,2.005000*%
%ADD25RoundRect,0.050000X-0.590236X-1.110073X1.110073X-0.590236X0.590236X1.110073X-1.110073X0.590236X0*%
%ADD26RoundRect,0.050000X-0.338975X-0.669026X0.547352X-0.512743X0.338975X0.669026X-0.547352X0.512743X0*%
%ADD27RoundRect,0.050000X-0.721121X-1.029867X1.029867X-0.721121X0.721121X1.029867X-1.029867X0.721121X0*%
%ADD28RoundRect,0.050000X-0.395994X-0.636937X0.500581X-0.558497X0.395994X0.636937X-0.500581X0.558497X0*%
%ADD29RoundRect,0.050000X-0.808136X-0.963099X0.963099X-0.808136X0.808136X0.963099X-0.963099X0.808136X0*%
%ADD30RoundRect,0.050000X-0.450000X-0.600000X0.450000X-0.600000X0.450000X0.600000X-0.450000X0.600000X0*%
%ADD31RoundRect,0.050000X-0.889000X-0.889000X0.889000X-0.889000X0.889000X0.889000X-0.889000X0.889000X0*%
%ADD32RoundRect,0.050000X-0.529124X-0.531533X0.362117X-0.656789X0.529124X0.531533X-0.362117X0.656789X0*%
%ADD33RoundRect,0.050000X-1.004073X-0.756623X0.756623X-1.004073X1.004073X0.756623X-0.756623X1.004073X0*%
%ADD34RoundRect,0.050000X-0.635132X-0.398883X0.205090X-0.721414X0.635132X0.398883X-0.205090X0.721414X0*%
%ADD35RoundRect,0.050000X-1.148542X-0.511364X0.511364X-1.148542X1.148542X0.511364X-0.511364X1.148542X0*%
%ADD36RoundRect,0.050000X-0.712764X-0.233382X0.024473X-0.749601X0.712764X0.233382X-0.024473X0.749601X0*%
%ADD37RoundRect,0.050000X-1.238136X-0.218317X0.218317X-1.238136X1.238136X0.218317X-0.218317X1.238136X0*%
%ADD38C,1.700000*%
%ADD39FreePoly0,90.000000*%
%ADD40FreePoly1,90.000000*%
%ADD41RoundRect,0.050000X-0.800000X0.800000X-0.800000X-0.800000X0.800000X-0.800000X0.800000X0.800000X0*%
%ADD42FreePoly1,270.000000*%
%ADD43FreePoly0,270.000000*%
%ADD44RoundRect,0.300000X-0.625000X-0.350000X0.625000X-0.350000X0.625000X0.350000X-0.625000X0.350000X0*%
%ADD45O,1.850000X1.300000*%
%ADD46RoundRect,0.050000X-0.750000X-0.750000X0.750000X-0.750000X0.750000X0.750000X-0.750000X0.750000X0*%
%ADD47C,1.300000*%
%ADD48O,2.100000X1.700000*%
%ADD49FreePoly2,270.000000*%
%ADD50FreePoly3,270.000000*%
%ADD51C,1.000000*%
%ADD52RoundRect,0.050000X0.750000X-0.350000X0.750000X0.350000X-0.750000X0.350000X-0.750000X-0.350000X0*%
%ADD53RoundRect,0.050000X0.400000X-0.500000X0.400000X0.500000X-0.400000X0.500000X-0.400000X-0.500000X0*%
%ADD54RoundRect,0.050000X-0.450000X-0.850000X0.450000X-0.850000X0.450000X0.850000X-0.450000X0.850000X0*%
%ADD55C,4.500000*%
G04 APERTURE END LIST*
D10*
%TO.C,MCU1*%
X266774087Y-117653517D02*
G75*
G03*
X266774087Y-117653517I-125000J0D01*
G01*
X268298087Y-117653517D02*
G75*
G03*
X268298087Y-117653517I-125000J0D01*
G01*
X266774087Y-115113517D02*
G75*
G03*
X266774087Y-115113517I-125000J0D01*
G01*
X268298087Y-115113517D02*
G75*
G03*
X268298087Y-115113517I-125000J0D01*
G01*
X266774087Y-112573517D02*
G75*
G03*
X266774087Y-112573517I-125000J0D01*
G01*
X268298087Y-112573517D02*
G75*
G03*
X268298087Y-112573517I-125000J0D01*
G01*
X266774087Y-110033517D02*
G75*
G03*
X266774087Y-110033517I-125000J0D01*
G01*
X268298087Y-110033517D02*
G75*
G03*
X268298087Y-110033517I-125000J0D01*
G01*
X266774087Y-107493517D02*
G75*
G03*
X266774087Y-107493517I-125000J0D01*
G01*
X268298087Y-107493517D02*
G75*
G03*
X268298087Y-107493517I-125000J0D01*
G01*
X266774087Y-104953517D02*
G75*
G03*
X266774087Y-104953517I-125000J0D01*
G01*
X268298087Y-104953517D02*
G75*
G03*
X268298087Y-104953517I-125000J0D01*
G01*
X266774087Y-102413517D02*
G75*
G03*
X266774087Y-102413517I-125000J0D01*
G01*
X268298087Y-102413517D02*
G75*
G03*
X268298087Y-102413517I-125000J0D01*
G01*
X266774087Y-99873517D02*
G75*
G03*
X266774087Y-99873517I-125000J0D01*
G01*
X268298087Y-99873517D02*
G75*
G03*
X268298087Y-99873517I-125000J0D01*
G01*
X266774087Y-97333517D02*
G75*
G03*
X266774087Y-97333517I-125000J0D01*
G01*
X268298087Y-97333517D02*
G75*
G03*
X268298087Y-97333517I-125000J0D01*
G01*
X266774087Y-94793517D02*
G75*
G03*
X266774087Y-94793517I-125000J0D01*
G01*
X268298087Y-94793517D02*
G75*
G03*
X268298087Y-94793517I-125000J0D01*
G01*
X268298087Y-92253517D02*
G75*
G03*
X268298087Y-92253517I-125000J0D01*
G01*
X266774087Y-92253517D02*
G75*
G03*
X266774087Y-92253517I-125000J0D01*
G01*
X266774087Y-89713517D02*
G75*
G03*
X266774087Y-89713517I-125000J0D01*
G01*
X268298087Y-89713517D02*
G75*
G03*
X268298087Y-89713517I-125000J0D01*
G01*
D11*
X273507087Y-90221517D02*
X272491087Y-90221517D01*
X272491087Y-89205517D01*
X273507087Y-89205517D01*
X273507087Y-90221517D01*
G36*
X273507087Y-90221517D02*
G01*
X272491087Y-90221517D01*
X272491087Y-89205517D01*
X273507087Y-89205517D01*
X273507087Y-90221517D01*
G37*
X273507087Y-105461517D02*
X272491087Y-105461517D01*
X272491087Y-104445517D01*
X273507087Y-104445517D01*
X273507087Y-105461517D01*
G36*
X273507087Y-105461517D02*
G01*
X272491087Y-105461517D01*
X272491087Y-104445517D01*
X273507087Y-104445517D01*
X273507087Y-105461517D01*
G37*
X273507087Y-92761517D02*
X272491087Y-92761517D01*
X272491087Y-91745517D01*
X273507087Y-91745517D01*
X273507087Y-92761517D01*
G36*
X273507087Y-92761517D02*
G01*
X272491087Y-92761517D01*
X272491087Y-91745517D01*
X273507087Y-91745517D01*
X273507087Y-92761517D01*
G37*
X273507087Y-95301517D02*
X272491087Y-95301517D01*
X272491087Y-94285517D01*
X273507087Y-94285517D01*
X273507087Y-95301517D01*
G36*
X273507087Y-95301517D02*
G01*
X272491087Y-95301517D01*
X272491087Y-94285517D01*
X273507087Y-94285517D01*
X273507087Y-95301517D01*
G37*
X273507087Y-100381517D02*
X272491087Y-100381517D01*
X272491087Y-99365517D01*
X273507087Y-99365517D01*
X273507087Y-100381517D01*
G36*
X273507087Y-100381517D02*
G01*
X272491087Y-100381517D01*
X272491087Y-99365517D01*
X273507087Y-99365517D01*
X273507087Y-100381517D01*
G37*
X273507087Y-102921517D02*
X272491087Y-102921517D01*
X272491087Y-101905517D01*
X273507087Y-101905517D01*
X273507087Y-102921517D01*
G36*
X273507087Y-102921517D02*
G01*
X272491087Y-102921517D01*
X272491087Y-101905517D01*
X273507087Y-101905517D01*
X273507087Y-102921517D01*
G37*
X273507087Y-110541517D02*
X272491087Y-110541517D01*
X272491087Y-109525517D01*
X273507087Y-109525517D01*
X273507087Y-110541517D01*
G36*
X273507087Y-110541517D02*
G01*
X272491087Y-110541517D01*
X272491087Y-109525517D01*
X273507087Y-109525517D01*
X273507087Y-110541517D01*
G37*
X273507087Y-115621517D02*
X272491087Y-115621517D01*
X272491087Y-114605517D01*
X273507087Y-114605517D01*
X273507087Y-115621517D01*
G36*
X273507087Y-115621517D02*
G01*
X272491087Y-115621517D01*
X272491087Y-114605517D01*
X273507087Y-114605517D01*
X273507087Y-115621517D01*
G37*
X273507087Y-97841517D02*
X272491087Y-97841517D01*
X272491087Y-96825517D01*
X273507087Y-96825517D01*
X273507087Y-97841517D01*
G36*
X273507087Y-97841517D02*
G01*
X272491087Y-97841517D01*
X272491087Y-96825517D01*
X273507087Y-96825517D01*
X273507087Y-97841517D01*
G37*
X273507087Y-108001517D02*
X272491087Y-108001517D01*
X272491087Y-106985517D01*
X273507087Y-106985517D01*
X273507087Y-108001517D01*
G36*
X273507087Y-108001517D02*
G01*
X272491087Y-108001517D01*
X272491087Y-106985517D01*
X273507087Y-106985517D01*
X273507087Y-108001517D01*
G37*
X273507087Y-113081517D02*
X272491087Y-113081517D01*
X272491087Y-112065517D01*
X273507087Y-112065517D01*
X273507087Y-113081517D01*
G36*
X273507087Y-113081517D02*
G01*
X272491087Y-113081517D01*
X272491087Y-112065517D01*
X273507087Y-112065517D01*
X273507087Y-113081517D01*
G37*
X273507087Y-118161517D02*
X272491087Y-118161517D01*
X272491087Y-117145517D01*
X273507087Y-117145517D01*
X273507087Y-118161517D01*
G36*
X273507087Y-118161517D02*
G01*
X272491087Y-118161517D01*
X272491087Y-117145517D01*
X273507087Y-117145517D01*
X273507087Y-118161517D01*
G37*
X262331087Y-118161517D02*
X261315087Y-118161517D01*
X261315087Y-117145517D01*
X262331087Y-117145517D01*
X262331087Y-118161517D01*
G36*
X262331087Y-118161517D02*
G01*
X261315087Y-118161517D01*
X261315087Y-117145517D01*
X262331087Y-117145517D01*
X262331087Y-118161517D01*
G37*
X262331087Y-115621517D02*
X261315087Y-115621517D01*
X261315087Y-114605517D01*
X262331087Y-114605517D01*
X262331087Y-115621517D01*
G36*
X262331087Y-115621517D02*
G01*
X261315087Y-115621517D01*
X261315087Y-114605517D01*
X262331087Y-114605517D01*
X262331087Y-115621517D01*
G37*
X262331087Y-113081517D02*
X261315087Y-113081517D01*
X261315087Y-112065517D01*
X262331087Y-112065517D01*
X262331087Y-113081517D01*
G36*
X262331087Y-113081517D02*
G01*
X261315087Y-113081517D01*
X261315087Y-112065517D01*
X262331087Y-112065517D01*
X262331087Y-113081517D01*
G37*
X262331087Y-110541517D02*
X261315087Y-110541517D01*
X261315087Y-109525517D01*
X262331087Y-109525517D01*
X262331087Y-110541517D01*
G36*
X262331087Y-110541517D02*
G01*
X261315087Y-110541517D01*
X261315087Y-109525517D01*
X262331087Y-109525517D01*
X262331087Y-110541517D01*
G37*
X262331087Y-108001517D02*
X261315087Y-108001517D01*
X261315087Y-106985517D01*
X262331087Y-106985517D01*
X262331087Y-108001517D01*
G36*
X262331087Y-108001517D02*
G01*
X261315087Y-108001517D01*
X261315087Y-106985517D01*
X262331087Y-106985517D01*
X262331087Y-108001517D01*
G37*
X262331087Y-105461517D02*
X261315087Y-105461517D01*
X261315087Y-104445517D01*
X262331087Y-104445517D01*
X262331087Y-105461517D01*
G36*
X262331087Y-105461517D02*
G01*
X261315087Y-105461517D01*
X261315087Y-104445517D01*
X262331087Y-104445517D01*
X262331087Y-105461517D01*
G37*
X262331087Y-102921517D02*
X261315087Y-102921517D01*
X261315087Y-101905517D01*
X262331087Y-101905517D01*
X262331087Y-102921517D01*
G36*
X262331087Y-102921517D02*
G01*
X261315087Y-102921517D01*
X261315087Y-101905517D01*
X262331087Y-101905517D01*
X262331087Y-102921517D01*
G37*
X262331087Y-100381517D02*
X261315087Y-100381517D01*
X261315087Y-99365517D01*
X262331087Y-99365517D01*
X262331087Y-100381517D01*
G36*
X262331087Y-100381517D02*
G01*
X261315087Y-100381517D01*
X261315087Y-99365517D01*
X262331087Y-99365517D01*
X262331087Y-100381517D01*
G37*
X262331087Y-97841517D02*
X261315087Y-97841517D01*
X261315087Y-96825517D01*
X262331087Y-96825517D01*
X262331087Y-97841517D01*
G36*
X262331087Y-97841517D02*
G01*
X261315087Y-97841517D01*
X261315087Y-96825517D01*
X262331087Y-96825517D01*
X262331087Y-97841517D01*
G37*
X262331087Y-95301517D02*
X261315087Y-95301517D01*
X261315087Y-94285517D01*
X262331087Y-94285517D01*
X262331087Y-95301517D01*
G36*
X262331087Y-95301517D02*
G01*
X261315087Y-95301517D01*
X261315087Y-94285517D01*
X262331087Y-94285517D01*
X262331087Y-95301517D01*
G37*
X262331087Y-92761517D02*
X261315087Y-92761517D01*
X261315087Y-91745517D01*
X262331087Y-91745517D01*
X262331087Y-92761517D01*
G36*
X262331087Y-92761517D02*
G01*
X261315087Y-92761517D01*
X261315087Y-91745517D01*
X262331087Y-91745517D01*
X262331087Y-92761517D01*
G37*
X262331087Y-90221517D02*
X261315087Y-90221517D01*
X261315087Y-89205517D01*
X262331087Y-89205517D01*
X262331087Y-90221517D01*
G36*
X262331087Y-90221517D02*
G01*
X261315087Y-90221517D01*
X261315087Y-89205517D01*
X262331087Y-89205517D01*
X262331087Y-90221517D01*
G37*
%TO.C,Side_F*%
D12*
X198951023Y-149935583D02*
X198977170Y-149948894D01*
X199017806Y-149970673D01*
X199071727Y-150000246D01*
X199137733Y-150036938D01*
X199214621Y-150080073D01*
X199301188Y-150128977D01*
X199396233Y-150182974D01*
X199498554Y-150241391D01*
X199606948Y-150303552D01*
X199720213Y-150368782D01*
X199741643Y-150381154D01*
X200527731Y-150835155D01*
X200527731Y-152666278D01*
X199751077Y-153115597D01*
X199637602Y-153181164D01*
X199528695Y-153243933D01*
X199425576Y-153303211D01*
X199329463Y-153358302D01*
X199241577Y-153408515D01*
X199163136Y-153453154D01*
X199095361Y-153491526D01*
X199039470Y-153522937D01*
X198996684Y-153546694D01*
X198968221Y-153562102D01*
X198955302Y-153568467D01*
X198954885Y-153568585D01*
X198942797Y-153564344D01*
X198914328Y-153550365D01*
X198869896Y-153526884D01*
X198809920Y-153494135D01*
X198734820Y-153452354D01*
X198645016Y-153401775D01*
X198540928Y-153342633D01*
X198422974Y-153275163D01*
X198291574Y-153199601D01*
X198153808Y-153120034D01*
X197372269Y-152667812D01*
X197372269Y-152663714D01*
X198344308Y-152663714D01*
X199712000Y-152663714D01*
X199712000Y-152302253D01*
X198832769Y-152302253D01*
X198832769Y-150758714D01*
X198344308Y-150758714D01*
X198344308Y-152663714D01*
X197372269Y-152663714D01*
X197372269Y-150833645D01*
X198148923Y-150384661D01*
X198262309Y-150319159D01*
X198371039Y-150256439D01*
X198473901Y-150197194D01*
X198569683Y-150142118D01*
X198657176Y-150091903D01*
X198735167Y-150047244D01*
X198802445Y-150008833D01*
X198857799Y-149977365D01*
X198900018Y-149953533D01*
X198927891Y-149938030D01*
X198940206Y-149931549D01*
X198940566Y-149931415D01*
X198951023Y-149935583D01*
G36*
X198951023Y-149935583D02*
G01*
X198977170Y-149948894D01*
X199017806Y-149970673D01*
X199071727Y-150000246D01*
X199137733Y-150036938D01*
X199214621Y-150080073D01*
X199301188Y-150128977D01*
X199396233Y-150182974D01*
X199498554Y-150241391D01*
X199606948Y-150303552D01*
X199720213Y-150368782D01*
X199741643Y-150381154D01*
X200527731Y-150835155D01*
X200527731Y-152666278D01*
X199751077Y-153115597D01*
X199637602Y-153181164D01*
X199528695Y-153243933D01*
X199425576Y-153303211D01*
X199329463Y-153358302D01*
X199241577Y-153408515D01*
X199163136Y-153453154D01*
X199095361Y-153491526D01*
X199039470Y-153522937D01*
X198996684Y-153546694D01*
X198968221Y-153562102D01*
X198955302Y-153568467D01*
X198954885Y-153568585D01*
X198942797Y-153564344D01*
X198914328Y-153550365D01*
X198869896Y-153526884D01*
X198809920Y-153494135D01*
X198734820Y-153452354D01*
X198645016Y-153401775D01*
X198540928Y-153342633D01*
X198422974Y-153275163D01*
X198291574Y-153199601D01*
X198153808Y-153120034D01*
X197372269Y-152667812D01*
X197372269Y-152663714D01*
X198344308Y-152663714D01*
X199712000Y-152663714D01*
X199712000Y-152302253D01*
X198832769Y-152302253D01*
X198832769Y-150758714D01*
X198344308Y-150758714D01*
X198344308Y-152663714D01*
X197372269Y-152663714D01*
X197372269Y-150833645D01*
X198148923Y-150384661D01*
X198262309Y-150319159D01*
X198371039Y-150256439D01*
X198473901Y-150197194D01*
X198569683Y-150142118D01*
X198657176Y-150091903D01*
X198735167Y-150047244D01*
X198802445Y-150008833D01*
X198857799Y-149977365D01*
X198900018Y-149953533D01*
X198927891Y-149938030D01*
X198940206Y-149931549D01*
X198940566Y-149931415D01*
X198951023Y-149935583D01*
G37*
%TO.C,LOGO_F*%
G36*
X213992597Y-136880251D02*
G01*
X214001615Y-136880588D01*
X214145604Y-136889691D01*
X214231472Y-136904355D01*
X214273644Y-136928297D01*
X214285103Y-136953632D01*
X214275408Y-136993224D01*
X214225066Y-137027334D01*
X214126809Y-137057993D01*
X213973368Y-137087231D01*
X213757474Y-137117081D01*
X213657286Y-137129036D01*
X213503553Y-137147880D01*
X213379291Y-137165131D01*
X213300486Y-137178452D01*
X213281076Y-137184015D01*
X213296392Y-137199508D01*
X213372388Y-137219963D01*
X213513171Y-137246298D01*
X213675233Y-137272223D01*
X213797288Y-137295822D01*
X213886750Y-137322414D01*
X213923186Y-137345127D01*
X213964703Y-137362777D01*
X214069394Y-137374587D01*
X214228116Y-137380798D01*
X214431726Y-137381652D01*
X214671082Y-137377390D01*
X214937039Y-137368252D01*
X215220457Y-137354480D01*
X215512192Y-137336316D01*
X215803101Y-137314000D01*
X216079357Y-137288254D01*
X216210550Y-137277032D01*
X216285028Y-137278490D01*
X216317863Y-137294653D01*
X216324286Y-137321161D01*
X216288028Y-137370687D01*
X216179248Y-137418719D01*
X215997939Y-137465262D01*
X215744093Y-137510315D01*
X215417704Y-137553881D01*
X215165097Y-137581561D01*
X214918482Y-137609248D01*
X214641444Y-137644369D01*
X214368974Y-137682285D01*
X214149097Y-137716198D01*
X213955298Y-137748515D01*
X213826397Y-137771623D01*
X213755645Y-137787855D01*
X213736294Y-137799544D01*
X213761594Y-137809022D01*
X213824795Y-137818623D01*
X213845168Y-137821244D01*
X213943549Y-137830587D01*
X214098256Y-137841475D01*
X214293085Y-137852939D01*
X214511835Y-137864008D01*
X214689262Y-137871769D01*
X214967403Y-137886251D01*
X215174651Y-137904029D01*
X215310778Y-137924750D01*
X215375558Y-137948064D01*
X215368762Y-137973618D01*
X215290163Y-138001061D01*
X215139533Y-138030042D01*
X214916645Y-138060208D01*
X214818429Y-138071317D01*
X214620462Y-138096779D01*
X214416245Y-138129671D01*
X214236390Y-138164793D01*
X214156882Y-138183718D01*
X213991055Y-138219508D01*
X213818005Y-138244491D01*
X213688191Y-138252857D01*
X213580771Y-138255849D01*
X213513666Y-138263603D01*
X213501041Y-138271992D01*
X213543100Y-138281819D01*
X213641278Y-138293464D01*
X213779184Y-138305781D01*
X213940423Y-138317624D01*
X214108605Y-138327846D01*
X214267338Y-138335302D01*
X214400229Y-138338846D01*
X214455572Y-138338727D01*
X214526320Y-138337889D01*
X214659857Y-138336790D01*
X214846401Y-138335492D01*
X215076169Y-138334057D01*
X215339379Y-138332548D01*
X215626250Y-138331027D01*
X215816286Y-138330082D01*
X216237032Y-138328963D01*
X216589952Y-138330181D01*
X216879765Y-138333979D01*
X217111185Y-138340601D01*
X217288930Y-138350289D01*
X217417715Y-138363286D01*
X217502258Y-138379834D01*
X217547273Y-138400177D01*
X217558000Y-138419749D01*
X217526572Y-138461186D01*
X217430644Y-138499407D01*
X217267754Y-138535061D01*
X217035439Y-138568799D01*
X216959286Y-138577801D01*
X216768140Y-138600317D01*
X216562894Y-138625755D01*
X216383561Y-138649138D01*
X216360572Y-138652270D01*
X216192906Y-138673868D01*
X215990409Y-138697889D01*
X215790500Y-138719934D01*
X215743715Y-138724784D01*
X215570571Y-138743564D01*
X215404385Y-138763524D01*
X215272417Y-138781321D01*
X215235715Y-138787021D01*
X215072429Y-138814118D01*
X215308286Y-138836666D01*
X215436832Y-138848857D01*
X215614577Y-138865584D01*
X215818457Y-138884681D01*
X216025410Y-138903985D01*
X216034000Y-138904784D01*
X216283183Y-138931116D01*
X216463631Y-138957755D01*
X216579176Y-138985656D01*
X216633653Y-139015776D01*
X216630894Y-139049069D01*
X216627475Y-139052754D01*
X216584925Y-139061082D01*
X216478568Y-139070325D01*
X216317152Y-139080055D01*
X216109430Y-139089843D01*
X215864151Y-139099261D01*
X215590066Y-139107880D01*
X215398936Y-139112892D01*
X215121141Y-139120037D01*
X214875579Y-139127183D01*
X214669233Y-139134061D01*
X214509082Y-139140400D01*
X214402110Y-139145931D01*
X214355296Y-139150382D01*
X214364857Y-139152919D01*
X214447197Y-139161738D01*
X214590436Y-139180549D01*
X214783842Y-139207705D01*
X215016684Y-139241556D01*
X215278229Y-139280454D01*
X215557745Y-139322753D01*
X215844500Y-139366802D01*
X216127762Y-139410955D01*
X216396798Y-139453562D01*
X216640877Y-139492976D01*
X216849267Y-139527548D01*
X217011234Y-139555631D01*
X217113672Y-139575076D01*
X217242281Y-139598313D01*
X217421242Y-139625751D01*
X217628708Y-139654260D01*
X217842831Y-139680712D01*
X217884572Y-139685485D01*
X218083609Y-139709092D01*
X218267046Y-139733017D01*
X218417820Y-139754883D01*
X218518869Y-139772311D01*
X218537715Y-139776512D01*
X218646184Y-139798564D01*
X218788488Y-139821113D01*
X218882429Y-139833214D01*
X219048049Y-139862402D01*
X219198572Y-139907150D01*
X219318535Y-139960968D01*
X219392473Y-140017360D01*
X219408572Y-140054136D01*
X219391022Y-140093280D01*
X219327467Y-140094069D01*
X219308786Y-140090361D01*
X219179617Y-140068828D01*
X218992688Y-140046112D01*
X218762776Y-140023318D01*
X218504656Y-140001549D01*
X218233105Y-139981912D01*
X217962898Y-139965509D01*
X217708812Y-139953447D01*
X217485622Y-139946829D01*
X217376572Y-139945919D01*
X217130093Y-139947851D01*
X216866613Y-139952204D01*
X216595828Y-139958584D01*
X216327434Y-139966602D01*
X216071129Y-139975867D01*
X215836607Y-139985987D01*
X215633567Y-139996571D01*
X215471704Y-140007228D01*
X215360715Y-140017568D01*
X215310297Y-140027198D01*
X215308286Y-140029331D01*
X215341625Y-140048551D01*
X215432176Y-140077353D01*
X215565735Y-140112402D01*
X215728101Y-140150365D01*
X215905072Y-140187908D01*
X216082447Y-140221696D01*
X216233572Y-140246567D01*
X216567187Y-140294716D01*
X216911812Y-140342018D01*
X217249161Y-140386115D01*
X217560947Y-140424648D01*
X217828883Y-140455259D01*
X217944900Y-140467271D01*
X218177069Y-140492137D01*
X218345367Y-140515539D01*
X218458411Y-140539541D01*
X218524815Y-140566207D01*
X218553196Y-140597601D01*
X218555857Y-140613642D01*
X218543606Y-140635998D01*
X218499507Y-140649941D01*
X218412545Y-140656534D01*
X218271706Y-140656843D01*
X218138572Y-140653981D01*
X217911667Y-140645666D01*
X217654005Y-140632692D01*
X217407073Y-140617266D01*
X217304000Y-140609595D01*
X217138180Y-140598939D01*
X216942956Y-140590530D01*
X216728797Y-140584358D01*
X216506174Y-140580414D01*
X216285556Y-140578688D01*
X216077413Y-140579170D01*
X215892215Y-140581851D01*
X215740432Y-140586721D01*
X215632533Y-140593772D01*
X215578988Y-140602992D01*
X215580429Y-140611170D01*
X215642962Y-140630432D01*
X215766545Y-140662096D01*
X215941163Y-140703858D01*
X216156799Y-140753411D01*
X216403440Y-140808451D01*
X216671069Y-140866673D01*
X216923000Y-140920181D01*
X217110990Y-140960496D01*
X217348878Y-141012806D01*
X217615929Y-141072459D01*
X217891405Y-141134805D01*
X218154568Y-141195191D01*
X218301857Y-141229467D01*
X218458175Y-141263545D01*
X218658329Y-141303543D01*
X218874475Y-141344046D01*
X219045715Y-141374108D01*
X219267958Y-141412420D01*
X219510809Y-141455513D01*
X219740478Y-141497335D01*
X219880286Y-141523566D01*
X220072519Y-141558620D01*
X220298364Y-141597074D01*
X220545416Y-141637096D01*
X220801270Y-141676853D01*
X221053522Y-141714509D01*
X221289767Y-141748234D01*
X221497600Y-141776192D01*
X221664616Y-141796550D01*
X221778411Y-141807476D01*
X221810359Y-141808831D01*
X221921774Y-141821567D01*
X221968803Y-141853509D01*
X221953791Y-141895343D01*
X221879083Y-141937751D01*
X221770469Y-141967279D01*
X221692316Y-141970813D01*
X221555693Y-141965450D01*
X221373973Y-141952573D01*
X221160524Y-141933565D01*
X220928717Y-141909809D01*
X220691923Y-141882690D01*
X220463511Y-141853590D01*
X220256853Y-141823893D01*
X220085319Y-141794983D01*
X220061714Y-141790462D01*
X219913051Y-141764363D01*
X219719244Y-141734546D01*
X219507312Y-141704997D01*
X219336000Y-141683412D01*
X219119253Y-141655228D01*
X218863047Y-141618091D01*
X218599179Y-141576799D01*
X218359447Y-141536151D01*
X218356286Y-141535587D01*
X217967340Y-141477670D01*
X217529710Y-141433111D01*
X217140715Y-141407749D01*
X216903516Y-141394914D01*
X216672084Y-141380227D01*
X216463734Y-141364944D01*
X216295779Y-141350321D01*
X216197286Y-141339292D01*
X216066258Y-141325346D01*
X215884347Y-141311299D01*
X215673227Y-141298579D01*
X215454570Y-141288616D01*
X215399000Y-141286648D01*
X215216785Y-141281808D01*
X215105806Y-141281553D01*
X215064888Y-141285640D01*
X215092855Y-141293826D01*
X215188532Y-141305866D01*
X215350746Y-141321518D01*
X215578320Y-141340538D01*
X215707429Y-141350565D01*
X215866753Y-141363881D01*
X216003836Y-141379212D01*
X216134531Y-141399758D01*
X216274695Y-141428717D01*
X216440181Y-141469290D01*
X216646844Y-141524676D01*
X216850429Y-141581226D01*
X217071858Y-141641898D01*
X217294280Y-141700547D01*
X217497336Y-141751957D01*
X217660666Y-141790916D01*
X217718270Y-141803514D01*
X217853868Y-141836621D01*
X217959114Y-141871517D01*
X218015926Y-141901915D01*
X218020651Y-141908642D01*
X218000595Y-141940488D01*
X217917802Y-141953941D01*
X217779567Y-141949638D01*
X217593187Y-141928213D01*
X217365957Y-141890304D01*
X217105172Y-141836547D01*
X217050000Y-141824034D01*
X216820283Y-141773811D01*
X216582023Y-141726335D01*
X216347335Y-141683542D01*
X216128333Y-141647370D01*
X215937133Y-141619757D01*
X215785848Y-141602640D01*
X215686594Y-141597956D01*
X215658310Y-141601468D01*
X215670601Y-141615556D01*
X215739901Y-141640758D01*
X215852410Y-141672289D01*
X215889003Y-141681413D01*
X216089694Y-141732051D01*
X216295601Y-141788021D01*
X216516560Y-141852389D01*
X216762407Y-141928216D01*
X217042977Y-142018568D01*
X217368107Y-142126505D01*
X217747634Y-142255094D01*
X217916287Y-142312794D01*
X218214747Y-142414159D01*
X218522062Y-142516787D01*
X218823020Y-142615723D01*
X219102411Y-142706010D01*
X219345025Y-142782695D01*
X219535652Y-142840820D01*
X219549144Y-142844797D01*
X219769021Y-142909575D01*
X219990729Y-142975236D01*
X220193324Y-143035553D01*
X220355864Y-143084304D01*
X220406429Y-143099613D01*
X220591372Y-143151355D01*
X220796411Y-143201916D01*
X220975879Y-143240091D01*
X221107749Y-143269087D01*
X221289563Y-143315058D01*
X221502148Y-143372858D01*
X221726331Y-143437341D01*
X221854767Y-143475976D01*
X222078219Y-143543115D01*
X222302383Y-143608186D01*
X222507667Y-143665655D01*
X222674480Y-143709993D01*
X222744760Y-143727251D01*
X222942818Y-143781640D01*
X223093389Y-143840177D01*
X223188061Y-143898900D01*
X223218572Y-143950550D01*
X223214952Y-143967260D01*
X223199524Y-143977828D01*
X223165434Y-143981035D01*
X223105831Y-143975661D01*
X223013861Y-143960489D01*
X222882672Y-143934300D01*
X222705410Y-143895875D01*
X222475222Y-143843995D01*
X222185257Y-143777441D01*
X221984857Y-143731144D01*
X221779625Y-143683869D01*
X221593501Y-143641363D01*
X221440420Y-143606780D01*
X221334318Y-143583274D01*
X221295429Y-143575094D01*
X221198387Y-143554287D01*
X221040365Y-143517582D01*
X220819841Y-143464606D01*
X220535298Y-143394987D01*
X220185214Y-143308354D01*
X219768070Y-143204334D01*
X219282347Y-143082554D01*
X219227143Y-143068681D01*
X218918058Y-142991852D01*
X218610894Y-142917088D01*
X218317956Y-142847269D01*
X218051549Y-142785275D01*
X217823980Y-142733986D01*
X217647553Y-142696282D01*
X217576143Y-142682262D01*
X217367134Y-142642681D01*
X217118001Y-142594338D01*
X216859665Y-142543290D01*
X216623044Y-142495594D01*
X216618364Y-142494638D01*
X216433701Y-142457837D01*
X216276027Y-142428194D01*
X216158121Y-142407970D01*
X216092764Y-142399431D01*
X216083924Y-142399981D01*
X216108024Y-142419668D01*
X216193234Y-142458499D01*
X216331541Y-142513500D01*
X216514937Y-142581699D01*
X216735411Y-142660121D01*
X216984953Y-142745793D01*
X217255551Y-142835742D01*
X217274617Y-142841972D01*
X217532735Y-142928769D01*
X217724439Y-142999500D01*
X217853587Y-143056214D01*
X217924040Y-143100961D01*
X217939657Y-143135789D01*
X217904297Y-143162748D01*
X217888965Y-143168177D01*
X217813495Y-143171110D01*
X217680057Y-143154408D01*
X217499807Y-143120535D01*
X217283899Y-143071960D01*
X217043490Y-143011148D01*
X216789735Y-142940565D01*
X216596429Y-142882406D01*
X216324017Y-142798782D01*
X216109796Y-142736104D01*
X215943304Y-142691802D01*
X215814076Y-142663303D01*
X215711650Y-142648036D01*
X215625563Y-142643429D01*
X215624204Y-142643428D01*
X215496766Y-142630507D01*
X215384420Y-142602947D01*
X215301972Y-142579756D01*
X215254628Y-142576812D01*
X215252669Y-142578092D01*
X215279874Y-142596153D01*
X215368847Y-142637208D01*
X215513394Y-142698795D01*
X215707322Y-142778455D01*
X215944438Y-142873725D01*
X216218549Y-142982145D01*
X216523463Y-143101254D01*
X216852985Y-143228589D01*
X217200924Y-143361691D01*
X217561085Y-143498097D01*
X217685000Y-143544707D01*
X217899370Y-143626312D01*
X218110682Y-143708733D01*
X218300692Y-143784715D01*
X218451155Y-143847006D01*
X218511840Y-143873430D01*
X218637681Y-143926251D01*
X218811837Y-143994236D01*
X219013773Y-144069608D01*
X219222954Y-144144588D01*
X219280943Y-144164770D01*
X219476051Y-144233653D01*
X219657862Y-144300543D01*
X219810022Y-144359231D01*
X219916180Y-144403511D01*
X219941817Y-144415655D01*
X220032952Y-144455998D01*
X220172536Y-144510674D01*
X220339920Y-144571832D01*
X220479000Y-144619828D01*
X220741437Y-144708385D01*
X220942316Y-144777648D01*
X221089142Y-144830604D01*
X221189424Y-144870239D01*
X221250669Y-144899541D01*
X221280384Y-144921497D01*
X221286078Y-144939092D01*
X221285615Y-144940727D01*
X221237437Y-144979839D01*
X221127399Y-144991408D01*
X220954407Y-144975297D01*
X220717367Y-144931367D01*
X220415185Y-144859479D01*
X220206857Y-144804158D01*
X219954007Y-144735448D01*
X219690266Y-144664659D01*
X219436594Y-144597356D01*
X219213953Y-144539105D01*
X219063857Y-144500639D01*
X218865041Y-144449484D01*
X218663154Y-144395827D01*
X218484370Y-144346712D01*
X218374429Y-144315087D01*
X218221906Y-144269757D01*
X218081809Y-144228533D01*
X217940888Y-144187624D01*
X217785891Y-144143243D01*
X217603567Y-144091598D01*
X217380664Y-144028902D01*
X217103932Y-143951364D01*
X217036406Y-143932468D01*
X216818029Y-143870897D01*
X216623300Y-143815099D01*
X216463108Y-143768268D01*
X216348341Y-143733595D01*
X216289888Y-143714275D01*
X216285332Y-143712208D01*
X216230224Y-143692982D01*
X216120017Y-143664878D01*
X215971133Y-143631309D01*
X215799997Y-143595690D01*
X215623031Y-143561434D01*
X215456659Y-143531957D01*
X215317304Y-143510671D01*
X215313282Y-143510138D01*
X215076941Y-143472019D01*
X214836329Y-143417403D01*
X214561015Y-143339360D01*
X214553943Y-143337207D01*
X214459659Y-143304517D01*
X214316394Y-143250165D01*
X214141788Y-143181274D01*
X213953479Y-143104966D01*
X213769105Y-143028365D01*
X213606305Y-142958594D01*
X213512143Y-142916492D01*
X213390306Y-142865944D01*
X213270082Y-142824901D01*
X213169561Y-142798438D01*
X213106834Y-142791631D01*
X213094857Y-142799407D01*
X213126149Y-142819213D01*
X213208138Y-142855097D01*
X213321643Y-142898755D01*
X213454673Y-142949447D01*
X213572378Y-142997995D01*
X213639143Y-143028892D01*
X213715223Y-143064138D01*
X213843968Y-143119115D01*
X214010226Y-143187726D01*
X214198842Y-143263875D01*
X214394662Y-143341466D01*
X214582531Y-143414403D01*
X214747296Y-143476590D01*
X214800286Y-143495986D01*
X215045854Y-143588492D01*
X215225237Y-143664286D01*
X215337161Y-143722773D01*
X215380353Y-143763359D01*
X215380857Y-143766996D01*
X215351300Y-143799863D01*
X215323667Y-143804571D01*
X215277469Y-143796009D01*
X215173073Y-143772329D01*
X215022553Y-143736543D01*
X214837983Y-143691660D01*
X214631434Y-143640692D01*
X214414981Y-143586648D01*
X214200697Y-143532540D01*
X214000656Y-143481377D01*
X213826929Y-143436171D01*
X213691592Y-143399932D01*
X213621285Y-143380075D01*
X213572096Y-143370255D01*
X213580914Y-143396250D01*
X213601055Y-143421399D01*
X213656556Y-143480136D01*
X213727230Y-143537340D01*
X213820400Y-143596527D01*
X213943389Y-143661214D01*
X214103519Y-143734916D01*
X214308116Y-143821151D01*
X214564501Y-143923434D01*
X214879999Y-144045281D01*
X214979032Y-144083042D01*
X215142536Y-144151584D01*
X215235707Y-144206330D01*
X215259308Y-144248037D01*
X215214101Y-144277461D01*
X215182873Y-144284863D01*
X215082233Y-144283343D01*
X214918946Y-144253375D01*
X214696726Y-144195892D01*
X214419284Y-144111825D01*
X214183429Y-144034007D01*
X213867359Y-143928678D01*
X213614490Y-143848625D01*
X213425482Y-143793972D01*
X213300995Y-143764846D01*
X213241692Y-143761373D01*
X213248231Y-143783679D01*
X213321275Y-143831889D01*
X213430237Y-143890319D01*
X213570865Y-143961503D01*
X213689734Y-144020492D01*
X213770310Y-144059140D01*
X213793094Y-144069067D01*
X213818421Y-144098955D01*
X213800965Y-144126256D01*
X213731201Y-144148629D01*
X213655823Y-144134247D01*
X213481055Y-144082006D01*
X213293480Y-144026956D01*
X213106472Y-143972899D01*
X212933403Y-143923638D01*
X212787648Y-143882972D01*
X212682579Y-143854703D01*
X212631570Y-143842634D01*
X212629313Y-143842460D01*
X212626502Y-143847809D01*
X212649222Y-143865260D01*
X212705411Y-143899478D01*
X212803006Y-143955129D01*
X212949945Y-144036879D01*
X213113000Y-144126759D01*
X213232006Y-144198112D01*
X213321147Y-144262791D01*
X213364947Y-144309220D01*
X213367000Y-144316732D01*
X213363612Y-144340970D01*
X213347178Y-144354621D01*
X213308290Y-144356012D01*
X213237544Y-144343470D01*
X213125534Y-144315323D01*
X212962853Y-144269898D01*
X212740096Y-144205521D01*
X212737590Y-144204793D01*
X212554754Y-144152891D01*
X212397905Y-144110753D01*
X212279549Y-144081552D01*
X212212191Y-144068460D01*
X212201638Y-144068838D01*
X212220368Y-144097967D01*
X212301163Y-144157565D01*
X212441122Y-144245760D01*
X212637344Y-144360679D01*
X212768286Y-144434647D01*
X212909746Y-144515020D01*
X213033382Y-144587606D01*
X213121068Y-144641656D01*
X213146637Y-144659014D01*
X213199631Y-144708584D01*
X213191486Y-144730261D01*
X213128038Y-144724092D01*
X213015126Y-144690124D01*
X212928237Y-144657288D01*
X212780627Y-144599897D01*
X212636403Y-144546536D01*
X212535625Y-144511710D01*
X212429921Y-144475435D01*
X212284792Y-144422858D01*
X212128362Y-144364205D01*
X212098997Y-144352955D01*
X211953837Y-144299591D01*
X211853810Y-144267426D01*
X211803807Y-144256663D01*
X211808718Y-144267502D01*
X211873434Y-144300145D01*
X211986839Y-144348327D01*
X212093696Y-144398050D01*
X212166527Y-144444093D01*
X212187650Y-144471000D01*
X212159244Y-144512020D01*
X212086428Y-144572935D01*
X212024192Y-144615369D01*
X211916686Y-144698358D01*
X211849388Y-144780870D01*
X211838352Y-144808028D01*
X211826895Y-144977188D01*
X211863844Y-145181498D01*
X211946034Y-145405049D01*
X211965111Y-145445535D01*
X212042052Y-145625739D01*
X212070214Y-145760449D01*
X212047235Y-145859959D01*
X211970753Y-145934560D01*
X211839177Y-145994279D01*
X211651990Y-146048069D01*
X211439502Y-146090098D01*
X211212792Y-146120276D01*
X210982939Y-146138513D01*
X210761023Y-146144717D01*
X210558121Y-146138800D01*
X210385314Y-146120672D01*
X210253681Y-146090241D01*
X210174301Y-146047417D01*
X210155714Y-146007973D01*
X210133664Y-146001066D01*
X210083143Y-146036142D01*
X210027585Y-146077115D01*
X210010452Y-146069524D01*
X210028076Y-146023922D01*
X210076790Y-145950863D01*
X210138636Y-145876457D01*
X210320969Y-145721906D01*
X210551712Y-145611375D01*
X210791995Y-145549119D01*
X210920349Y-145516395D01*
X211026953Y-145473462D01*
X211074757Y-145441655D01*
X211107778Y-145403595D01*
X211113123Y-145368137D01*
X211083945Y-145319631D01*
X211013397Y-145242431D01*
X210966591Y-145194426D01*
X210707332Y-144955367D01*
X210454595Y-144776288D01*
X210337143Y-144711410D01*
X210240980Y-144650305D01*
X210114108Y-144552529D01*
X209976095Y-144433745D01*
X209892643Y-144355575D01*
X209779308Y-144247891D01*
X209750346Y-144221857D01*
X211716000Y-144221857D01*
X211734143Y-144239999D01*
X211752286Y-144221857D01*
X211734143Y-144203714D01*
X211716000Y-144221857D01*
X209750346Y-144221857D01*
X209709979Y-144185571D01*
X211643429Y-144185571D01*
X211661572Y-144203714D01*
X211679714Y-144185571D01*
X211661572Y-144167428D01*
X211643429Y-144185571D01*
X209709979Y-144185571D01*
X209687825Y-144165657D01*
X209628610Y-144117926D01*
X209611429Y-144111141D01*
X209635372Y-144146976D01*
X209700500Y-144222928D01*
X209796756Y-144327722D01*
X209909532Y-144445419D01*
X210033355Y-144573361D01*
X210110219Y-144656784D01*
X210144583Y-144702388D01*
X210140900Y-144716871D01*
X210103627Y-144706934D01*
X210076125Y-144695881D01*
X209980214Y-144659056D01*
X209880853Y-144629250D01*
X209769082Y-144605664D01*
X209635944Y-144587498D01*
X209472477Y-144573952D01*
X209269724Y-144564227D01*
X209018724Y-144557523D01*
X208710519Y-144553039D01*
X208450286Y-144550753D01*
X208123723Y-144546980D01*
X207820109Y-144540769D01*
X207549421Y-144532483D01*
X207321635Y-144522487D01*
X207146729Y-144511144D01*
X207036751Y-144499154D01*
X206868145Y-144468057D01*
X206649432Y-144421770D01*
X206400283Y-144365033D01*
X206140373Y-144302585D01*
X205889376Y-144239163D01*
X205666964Y-144179507D01*
X205492812Y-144128354D01*
X205479097Y-144123982D01*
X205283846Y-144061143D01*
X211407572Y-144061143D01*
X211408059Y-144075863D01*
X211459284Y-144111438D01*
X211462000Y-144112999D01*
X211540130Y-144150998D01*
X211589000Y-144164856D01*
X211588513Y-144150136D01*
X211537287Y-144114561D01*
X211534572Y-144112999D01*
X211456442Y-144075001D01*
X211407572Y-144061143D01*
X205283846Y-144061143D01*
X205247480Y-144049439D01*
X205442812Y-143927894D01*
X205564500Y-143858773D01*
X205726444Y-143775677D01*
X205901750Y-143692153D01*
X205982857Y-143655840D01*
X206166438Y-143574142D01*
X206286815Y-143515856D01*
X206348187Y-143477498D01*
X206354755Y-143455583D01*
X206310718Y-143446630D01*
X206235043Y-143446655D01*
X206157311Y-143452343D01*
X206136738Y-143461423D01*
X206155081Y-143467304D01*
X206173311Y-143481768D01*
X206144794Y-143512202D01*
X206064066Y-143562169D01*
X205925667Y-143635234D01*
X205806707Y-143694580D01*
X205526626Y-143838557D01*
X205254426Y-143989865D01*
X205004856Y-144139649D01*
X204792662Y-144279059D01*
X204632594Y-144399242D01*
X204632271Y-144399512D01*
X204461323Y-144570053D01*
X204285890Y-144794161D01*
X204116103Y-145054314D01*
X203962092Y-145332995D01*
X203833986Y-145612684D01*
X203741917Y-145875862D01*
X203714382Y-145986911D01*
X203684635Y-146125627D01*
X203658209Y-146242037D01*
X203640401Y-146312888D01*
X203639306Y-146316547D01*
X203620651Y-146348457D01*
X203579465Y-146376481D01*
X203505507Y-146403799D01*
X203388536Y-146433592D01*
X203218313Y-146469042D01*
X203037198Y-146503557D01*
X202881885Y-146525185D01*
X202685033Y-146541769D01*
X202462853Y-146553096D01*
X202231554Y-146558956D01*
X202007347Y-146559138D01*
X201806443Y-146553432D01*
X201645050Y-146541626D01*
X201539380Y-146523510D01*
X201537857Y-146523055D01*
X201446813Y-146504611D01*
X201383643Y-146506892D01*
X201339028Y-146508667D01*
X201341761Y-146467566D01*
X201387448Y-146391598D01*
X201471691Y-146288769D01*
X201546929Y-146209424D01*
X201698817Y-146075007D01*
X201863387Y-145970359D01*
X202059133Y-145886233D01*
X202304549Y-145813380D01*
X202372429Y-145796657D01*
X202477343Y-145770522D01*
X202548039Y-145750914D01*
X202564741Y-145744739D01*
X202560409Y-145706597D01*
X202533349Y-145614655D01*
X202488437Y-145482233D01*
X202430544Y-145322648D01*
X202364545Y-145149220D01*
X202295312Y-144975267D01*
X202227720Y-144814107D01*
X202206667Y-144766142D01*
X202158027Y-144686093D01*
X202075219Y-144577069D01*
X201975351Y-144461448D01*
X201965973Y-144451336D01*
X201874641Y-144349199D01*
X201806812Y-144265151D01*
X201774754Y-144214606D01*
X201773714Y-144209790D01*
X201787808Y-144161426D01*
X201825017Y-144066535D01*
X201877739Y-143944337D01*
X201886043Y-143925882D01*
X201963132Y-143753840D01*
X202012954Y-143637119D01*
X202039060Y-143565337D01*
X202045001Y-143528113D01*
X202034329Y-143515065D01*
X202026816Y-143514285D01*
X201992716Y-143542152D01*
X201991429Y-143552295D01*
X201976711Y-143598675D01*
X201936773Y-143695642D01*
X201877937Y-143828422D01*
X201815556Y-143963153D01*
X201738976Y-144121675D01*
X201669563Y-144247082D01*
X201597347Y-144345112D01*
X201512362Y-144421502D01*
X201404638Y-144481988D01*
X201264208Y-144532307D01*
X201081102Y-144578197D01*
X200845352Y-144625394D01*
X200581306Y-144673484D01*
X200344956Y-144718939D01*
X200100729Y-144771178D01*
X199871678Y-144824931D01*
X199680852Y-144874925D01*
X199613483Y-144894825D01*
X199427036Y-144949416D01*
X199286961Y-144980555D01*
X199172229Y-144991695D01*
X199061813Y-144986292D01*
X199058680Y-144985947D01*
X198826670Y-144940839D01*
X198657448Y-144863522D01*
X198557870Y-144767364D01*
X198496177Y-144684881D01*
X198410092Y-144576225D01*
X198349405Y-144502358D01*
X198271217Y-144403910D01*
X198231435Y-144329381D01*
X198220129Y-144248554D01*
X198227370Y-144131216D01*
X198227386Y-144131038D01*
X198272774Y-143901327D01*
X198363475Y-143653906D01*
X198446969Y-143496206D01*
X205715417Y-143496206D01*
X205756628Y-143501677D01*
X205837714Y-143503412D01*
X205927296Y-143501162D01*
X205960871Y-143495304D01*
X205937500Y-143488295D01*
X205820294Y-143482221D01*
X205737929Y-143488295D01*
X205715417Y-143496206D01*
X198446969Y-143496206D01*
X198488792Y-143417213D01*
X198505878Y-143390531D01*
X198574842Y-143283803D01*
X198586255Y-143265909D01*
X199378857Y-143265909D01*
X199389132Y-143292396D01*
X199430090Y-143286527D01*
X199516932Y-143245785D01*
X199524726Y-143241767D01*
X199611804Y-143181162D01*
X199669067Y-143115285D01*
X199689735Y-143067561D01*
X199667474Y-143060978D01*
X199606709Y-143081900D01*
X199505163Y-143133353D01*
X199422460Y-143197102D01*
X199380463Y-143255493D01*
X199378857Y-143265909D01*
X198586255Y-143265909D01*
X198661884Y-143147329D01*
X198737446Y-143027674D01*
X198827748Y-142891315D01*
X198941985Y-142729156D01*
X199058459Y-142571826D01*
X199082160Y-142540993D01*
X199160095Y-142439886D01*
X199229865Y-142347565D01*
X199299072Y-142253318D01*
X199335058Y-142202867D01*
X200511864Y-142202867D01*
X200556343Y-142254989D01*
X200614163Y-142305621D01*
X200737594Y-142445276D01*
X200830326Y-142619064D01*
X200877232Y-142796812D01*
X200879966Y-142835750D01*
X200883633Y-142975612D01*
X200965817Y-142880068D01*
X201022003Y-142799525D01*
X201047817Y-142732493D01*
X201048000Y-142728531D01*
X201022874Y-142616560D01*
X200957033Y-142489063D01*
X200877423Y-142380753D01*
X215940881Y-142380753D01*
X215976548Y-142386563D01*
X216023611Y-142379892D01*
X216024173Y-142367505D01*
X215975608Y-142358843D01*
X215954625Y-142364641D01*
X215940881Y-142380753D01*
X200877423Y-142380753D01*
X200864787Y-142363561D01*
X200830715Y-142328952D01*
X215792095Y-142328952D01*
X215797076Y-142350524D01*
X215816286Y-142353142D01*
X215846153Y-142339866D01*
X215840476Y-142328952D01*
X215797414Y-142324609D01*
X215792095Y-142328952D01*
X200830715Y-142328952D01*
X200810267Y-142308181D01*
X215614309Y-142308181D01*
X215649976Y-142313992D01*
X215697040Y-142307321D01*
X215697601Y-142294934D01*
X215649037Y-142286272D01*
X215628054Y-142292069D01*
X215614309Y-142308181D01*
X200810267Y-142308181D01*
X200772467Y-142269784D01*
X215439799Y-142269784D01*
X215489715Y-142274842D01*
X215541227Y-142269139D01*
X215535072Y-142256540D01*
X215460782Y-142251747D01*
X215444357Y-142256540D01*
X215439799Y-142269784D01*
X200772467Y-142269784D01*
X200760442Y-142257569D01*
X200724791Y-142233498D01*
X215185799Y-142233498D01*
X215235715Y-142238556D01*
X215287227Y-142232854D01*
X215281072Y-142220254D01*
X215206782Y-142215461D01*
X215190357Y-142220254D01*
X215185799Y-142233498D01*
X200724791Y-142233498D01*
X200671049Y-142197212D01*
X214931799Y-142197212D01*
X214981714Y-142202270D01*
X215033227Y-142196568D01*
X215027072Y-142183968D01*
X214952782Y-142179176D01*
X214936357Y-142183968D01*
X214931799Y-142197212D01*
X200671049Y-142197212D01*
X200658306Y-142188608D01*
X200593219Y-142171714D01*
X200524614Y-142178038D01*
X200511864Y-142202867D01*
X199335058Y-142202867D01*
X199375314Y-142146430D01*
X199466191Y-142016190D01*
X199579304Y-141851885D01*
X199722253Y-141642801D01*
X199794613Y-141536714D01*
X199954651Y-141319516D01*
X200143591Y-141091210D01*
X200347620Y-140866399D01*
X200552925Y-140659686D01*
X200745694Y-140485671D01*
X200902857Y-140365140D01*
X201007243Y-140293549D01*
X201085841Y-140237541D01*
X201120572Y-140210165D01*
X201158426Y-140185387D01*
X201245733Y-140134999D01*
X201367810Y-140067346D01*
X201456924Y-140019096D01*
X201617708Y-139929599D01*
X201776095Y-139836054D01*
X201906415Y-139753808D01*
X201946781Y-139726201D01*
X202073497Y-139640919D01*
X202204492Y-139560090D01*
X202263572Y-139526820D01*
X202367334Y-139469202D01*
X202451884Y-139418271D01*
X202470474Y-139405831D01*
X202533638Y-139377566D01*
X202556708Y-139404971D01*
X202537081Y-139481579D01*
X202517572Y-139522857D01*
X202481931Y-139602575D01*
X202471124Y-139650062D01*
X202472611Y-139653277D01*
X202503052Y-139636936D01*
X202532822Y-139610547D01*
X203518293Y-139610547D01*
X203524965Y-139657610D01*
X203537351Y-139658172D01*
X203546013Y-139609608D01*
X203540216Y-139588624D01*
X203524104Y-139574880D01*
X203518293Y-139610547D01*
X202532822Y-139610547D01*
X202568121Y-139579256D01*
X202654974Y-139493791D01*
X202696775Y-139450285D01*
X203551715Y-139450285D01*
X203564991Y-139480152D01*
X203575905Y-139474476D01*
X203580248Y-139431413D01*
X203575905Y-139426095D01*
X203554333Y-139431076D01*
X203551715Y-139450285D01*
X202696775Y-139450285D01*
X202750766Y-139394091D01*
X202842655Y-139293710D01*
X202917796Y-139206200D01*
X202963344Y-139145115D01*
X202971143Y-139127242D01*
X202995295Y-139089192D01*
X203005342Y-139087428D01*
X203028580Y-139119778D01*
X203046563Y-139201125D01*
X203050700Y-139241642D01*
X203061857Y-139395857D01*
X203279572Y-139193310D01*
X203458354Y-139033120D01*
X203591549Y-138928218D01*
X203680342Y-138878403D01*
X203725919Y-138883476D01*
X203729464Y-138943237D01*
X203692163Y-139057484D01*
X203661369Y-139128823D01*
X203621169Y-139228649D01*
X203595594Y-139313106D01*
X203587629Y-139367197D01*
X203600260Y-139375922D01*
X203615770Y-139357823D01*
X203688188Y-139288888D01*
X203809915Y-139207869D01*
X203961704Y-139126481D01*
X203992283Y-139112926D01*
X213988370Y-139112926D01*
X214038286Y-139117984D01*
X214089798Y-139112282D01*
X214083643Y-139099682D01*
X214009354Y-139094890D01*
X213992929Y-139099682D01*
X213988370Y-139112926D01*
X203992283Y-139112926D01*
X204069374Y-139078753D01*
X213763738Y-139078753D01*
X213799405Y-139084563D01*
X213846468Y-139077892D01*
X213847030Y-139065505D01*
X213798466Y-139056843D01*
X213777482Y-139062641D01*
X213763738Y-139078753D01*
X204069374Y-139078753D01*
X204087633Y-139070659D01*
X204176837Y-139033000D01*
X213639143Y-139033000D01*
X213657286Y-139051142D01*
X213675429Y-139033000D01*
X213657286Y-139014857D01*
X213639143Y-139033000D01*
X204176837Y-139033000D01*
X204210842Y-139018644D01*
X204374018Y-138946200D01*
X204514493Y-138881809D01*
X214739810Y-138881809D01*
X214744791Y-138903381D01*
X214764000Y-138905999D01*
X214793867Y-138892723D01*
X214788191Y-138881809D01*
X214745128Y-138877466D01*
X214739810Y-138881809D01*
X204514493Y-138881809D01*
X204551883Y-138864670D01*
X204559601Y-138861039D01*
X214924881Y-138861039D01*
X214960548Y-138866849D01*
X215007611Y-138860178D01*
X215008173Y-138847791D01*
X214959608Y-138839129D01*
X214938625Y-138844927D01*
X214924881Y-138861039D01*
X204559601Y-138861039D01*
X204658323Y-138814592D01*
X205029503Y-138645488D01*
X205425488Y-138478633D01*
X205831328Y-138319488D01*
X206038070Y-138244181D01*
X213364595Y-138244181D01*
X213400262Y-138249992D01*
X213447325Y-138243321D01*
X213447887Y-138230934D01*
X213399323Y-138222272D01*
X213378339Y-138228069D01*
X213364595Y-138244181D01*
X206038070Y-138244181D01*
X206232079Y-138173512D01*
X206612791Y-138046166D01*
X206678749Y-138026467D01*
X212747738Y-138026467D01*
X212783405Y-138032278D01*
X212830468Y-138025606D01*
X212831030Y-138013220D01*
X212782466Y-138004558D01*
X212761482Y-138010355D01*
X212747738Y-138026467D01*
X206678749Y-138026467D01*
X206800244Y-137990181D01*
X212892881Y-137990181D01*
X212928548Y-137995992D01*
X212975611Y-137989321D01*
X212976173Y-137976934D01*
X212927608Y-137968272D01*
X212906625Y-137974069D01*
X212892881Y-137990181D01*
X206800244Y-137990181D01*
X206921736Y-137953896D01*
X213038024Y-137953896D01*
X213073691Y-137959706D01*
X213120754Y-137953035D01*
X213121316Y-137940648D01*
X213072751Y-137931986D01*
X213051768Y-137937784D01*
X213038024Y-137953896D01*
X206921736Y-137953896D01*
X206958520Y-137942910D01*
X207067550Y-137915498D01*
X213190085Y-137915498D01*
X213240000Y-137920556D01*
X213291513Y-137914854D01*
X213285357Y-137902254D01*
X213211068Y-137897461D01*
X213194643Y-137902254D01*
X213190085Y-137915498D01*
X207067550Y-137915498D01*
X207211876Y-137879212D01*
X213371513Y-137879212D01*
X213421429Y-137884270D01*
X213472941Y-137878568D01*
X213466786Y-137865968D01*
X213392496Y-137861176D01*
X213376072Y-137865968D01*
X213371513Y-137879212D01*
X207211876Y-137879212D01*
X207234715Y-137873470D01*
X207357990Y-137845039D01*
X213546024Y-137845039D01*
X213581691Y-137850849D01*
X213628754Y-137844178D01*
X213629316Y-137831791D01*
X213580751Y-137823129D01*
X213559768Y-137828927D01*
X213546024Y-137845039D01*
X207357990Y-137845039D01*
X207451433Y-137823488D01*
X207687578Y-137765498D01*
X207909264Y-137707975D01*
X208033000Y-137673865D01*
X208587002Y-137527317D01*
X208851850Y-137466666D01*
X212018381Y-137466666D01*
X212023362Y-137488238D01*
X212042572Y-137490857D01*
X212072439Y-137477580D01*
X212066762Y-137466666D01*
X212023699Y-137462323D01*
X212018381Y-137466666D01*
X208851850Y-137466666D01*
X209010302Y-137430380D01*
X212163524Y-137430380D01*
X212168505Y-137451952D01*
X212187714Y-137454571D01*
X212217582Y-137441295D01*
X212211905Y-137430380D01*
X212168842Y-137426038D01*
X212163524Y-137430380D01*
X209010302Y-137430380D01*
X209168750Y-137394095D01*
X212272381Y-137394095D01*
X212277362Y-137415667D01*
X212296572Y-137418285D01*
X212326439Y-137405009D01*
X212320762Y-137394095D01*
X212277699Y-137389752D01*
X212272381Y-137394095D01*
X209168750Y-137394095D01*
X209187868Y-137389717D01*
X209269484Y-137373324D01*
X212421167Y-137373324D01*
X212456834Y-137379135D01*
X212503897Y-137372463D01*
X212504459Y-137360077D01*
X212455894Y-137351415D01*
X212434911Y-137357212D01*
X212421167Y-137373324D01*
X209269484Y-137373324D01*
X209527388Y-137321523D01*
X212598953Y-137321523D01*
X212603934Y-137343095D01*
X212623143Y-137345714D01*
X212653010Y-137332437D01*
X212647334Y-137321523D01*
X212604271Y-137317181D01*
X212598953Y-137321523D01*
X209527388Y-137321523D01*
X209630797Y-137300753D01*
X212747738Y-137300753D01*
X212783405Y-137306563D01*
X212830468Y-137299892D01*
X212831030Y-137287505D01*
X212782466Y-137278843D01*
X212761482Y-137284641D01*
X212747738Y-137300753D01*
X209630797Y-137300753D01*
X209665857Y-137293711D01*
X209897235Y-137250200D01*
X209904068Y-137248952D01*
X212925524Y-137248952D01*
X212930505Y-137270524D01*
X212949714Y-137273142D01*
X212979582Y-137259866D01*
X212973905Y-137248952D01*
X212930842Y-137244609D01*
X212925524Y-137248952D01*
X209904068Y-137248952D01*
X210076762Y-137217412D01*
X210104864Y-137212666D01*
X213106953Y-137212666D01*
X213111934Y-137234238D01*
X213131143Y-137236857D01*
X213161010Y-137223580D01*
X213155334Y-137212666D01*
X213112271Y-137208323D01*
X213106953Y-137212666D01*
X210104864Y-137212666D01*
X210223891Y-137192564D01*
X210358074Y-137172875D01*
X210498765Y-137155564D01*
X210665418Y-137137850D01*
X210877484Y-137116951D01*
X210954000Y-137109534D01*
X211173169Y-137087640D01*
X211389906Y-137064811D01*
X211583353Y-137043322D01*
X211732654Y-137025449D01*
X211770429Y-137020495D01*
X211924861Y-137002592D01*
X212130568Y-136983281D01*
X212373969Y-136963412D01*
X212641486Y-136943838D01*
X212919541Y-136925409D01*
X213194553Y-136908978D01*
X213452943Y-136895394D01*
X213681134Y-136885511D01*
X213865545Y-136880180D01*
X213992597Y-136880251D01*
G37*
%TD*%
D13*
%TO.C,S1*%
X175029681Y-150742819D03*
D14*
X180289357Y-149134775D03*
X169770005Y-152350863D03*
D15*
X178714811Y-145694818D03*
X173290069Y-145052806D03*
X169151763Y-148618535D03*
X173290069Y-145052806D03*
D16*
X176421967Y-144095288D03*
X166019865Y-149576052D03*
%TD*%
D13*
%TO.C,S2*%
X170059362Y-134485638D03*
D14*
X175319038Y-132877594D03*
X164799686Y-136093682D03*
D15*
X173744492Y-129437637D03*
X168319750Y-128795625D03*
X164181444Y-132361354D03*
X168319750Y-128795625D03*
D16*
X171451648Y-127838107D03*
X161049546Y-133318871D03*
%TD*%
D13*
%TO.C,S3*%
X165089043Y-118228457D03*
D14*
X170348719Y-116620413D03*
X159829367Y-119836501D03*
D15*
X168774173Y-113180456D03*
X163349431Y-112538444D03*
X159211125Y-116104173D03*
X163349431Y-112538444D03*
D16*
X166481329Y-111580926D03*
X156079227Y-117061690D03*
%TD*%
D13*
%TO.C,S4*%
X189291148Y-128738397D03*
D14*
X194707591Y-127783332D03*
X183874705Y-129693462D03*
D15*
X193564006Y-124177127D03*
X188257941Y-122878791D03*
X183715929Y-125913609D03*
X188257941Y-122878791D03*
D17*
X191483187Y-122310093D03*
X180490683Y-126482307D03*
%TD*%
D13*
%TO.C,S5*%
X186339129Y-111996665D03*
D14*
X191755572Y-111041600D03*
X180922686Y-112951730D03*
D15*
X190611987Y-107435395D03*
X185305922Y-106137059D03*
X180763910Y-109171877D03*
X185305922Y-106137059D03*
D17*
X188531168Y-105568361D03*
X177538664Y-109740575D03*
%TD*%
D13*
%TO.C,S6*%
X183387110Y-95254933D03*
D14*
X188803553Y-94299868D03*
X177970667Y-96209998D03*
D15*
X187659968Y-90693663D03*
X182353903Y-89395327D03*
X177811891Y-92430145D03*
X182353903Y-89395327D03*
D17*
X185579149Y-88826629D03*
X174586645Y-92998843D03*
%TD*%
D13*
%TO.C,S7*%
X207703291Y-119821143D03*
D14*
X213182362Y-119341786D03*
X202224220Y-120300500D03*
D15*
X212357430Y-115649634D03*
X207184714Y-113893785D03*
X202395483Y-116521192D03*
X207184714Y-113893785D03*
D18*
X210447252Y-113608349D03*
X199132946Y-116806627D03*
%TD*%
D13*
%TO.C,S8*%
X206420883Y-102868402D03*
D14*
X211899954Y-102389045D03*
X200941812Y-103347759D03*
D15*
X211075022Y-98696893D03*
X205902306Y-96941044D03*
X201113075Y-99568451D03*
X205902306Y-96941044D03*
D18*
X209164844Y-96655608D03*
X197850538Y-99853886D03*
%TD*%
D13*
%TO.C,S9*%
X205138474Y-85915661D03*
D14*
X210617545Y-85436304D03*
X199659403Y-86395018D03*
D15*
X209792613Y-81744152D03*
X204619897Y-79988303D03*
X199830666Y-82615710D03*
X204619897Y-79988303D03*
D18*
X207882435Y-79702867D03*
X196568129Y-82901145D03*
%TD*%
D13*
%TO.C,S10*%
X227411087Y-123850184D03*
D14*
X232911087Y-123850184D03*
X221911087Y-123850184D03*
D15*
X232411087Y-120100184D03*
X227411087Y-117900184D03*
X222411087Y-120100184D03*
X227411087Y-117900184D03*
D19*
X230686087Y-117900184D03*
X219136087Y-120100184D03*
%TD*%
D13*
%TO.C,S11*%
X227411087Y-106850184D03*
D14*
X232911087Y-106850184D03*
X221911087Y-106850184D03*
D15*
X232411087Y-103100184D03*
X227411087Y-100900184D03*
X222411087Y-103100184D03*
X227411087Y-100900184D03*
D19*
X230686087Y-100900184D03*
X219136087Y-103100184D03*
%TD*%
D13*
%TO.C,S12*%
X227411087Y-89850184D03*
D14*
X232911087Y-89850184D03*
X221911087Y-89850184D03*
D15*
X232411087Y-86100184D03*
X227411087Y-83900184D03*
X222411087Y-86100184D03*
X227411087Y-83900184D03*
D19*
X230686087Y-83900184D03*
X219136087Y-86100184D03*
%TD*%
D13*
%TO.C,S13*%
X246411087Y-126683517D03*
D14*
X251911087Y-126683517D03*
X240911087Y-126683517D03*
D15*
X251411087Y-122933517D03*
X246411087Y-120733517D03*
X241411087Y-122933517D03*
X246411087Y-120733517D03*
D19*
X249686087Y-120733517D03*
X238136087Y-122933517D03*
%TD*%
D13*
%TO.C,S14*%
X246411087Y-109683517D03*
D14*
X251911087Y-109683517D03*
X240911087Y-109683517D03*
D15*
X251411087Y-105933517D03*
X246411087Y-103733517D03*
X241411087Y-105933517D03*
X246411087Y-103733517D03*
D19*
X249686087Y-103733517D03*
X238136087Y-105933517D03*
%TD*%
D13*
%TO.C,S15*%
X246411087Y-92683517D03*
D14*
X251911087Y-92683517D03*
X240911087Y-92683517D03*
D15*
X251411087Y-88933517D03*
X246411087Y-86733517D03*
X241411087Y-88933517D03*
X246411087Y-86733517D03*
D19*
X249686087Y-86733517D03*
X238136087Y-88933517D03*
%TD*%
D13*
%TO.C,S16*%
X240131296Y-149223912D03*
D14*
X245577770Y-149989364D03*
X234684822Y-148458460D03*
D15*
X245604535Y-146206272D03*
X240959376Y-143331817D03*
X235701855Y-144814541D03*
X240959376Y-143331817D03*
D20*
X244202504Y-143787609D03*
X232458727Y-144358749D03*
%TD*%
D13*
%TO.C,S17*%
X260426983Y-154472734D03*
D14*
X265561675Y-156443758D03*
X255292291Y-152501710D03*
D15*
X266438765Y-152763647D03*
X262559272Y-148917930D03*
X257102961Y-149179968D03*
X262559272Y-148917930D03*
D21*
X265616748Y-150091585D03*
X254045485Y-148006313D03*
%TD*%
D13*
%TO.C,S18*%
X279025425Y-164610147D03*
D14*
X283530761Y-167764817D03*
X274520089Y-161455477D03*
D15*
X285272097Y-164406209D03*
X282438205Y-159736192D03*
X277080576Y-158670445D03*
X282438205Y-159736192D03*
D22*
X285120928Y-161614655D03*
X274397853Y-156791982D03*
%TD*%
D23*
%TO.C,D1*%
X174913637Y-156006756D03*
X178069443Y-155041930D03*
D24*
X180135061Y-154410407D03*
D25*
X172848019Y-156638279D03*
%TD*%
D23*
%TO.C,D2*%
X169943318Y-139749575D03*
X173099124Y-138784749D03*
D24*
X175164742Y-138153226D03*
D25*
X167877700Y-140381098D03*
%TD*%
D23*
%TO.C,D3*%
X164972999Y-123492394D03*
X168128805Y-122527568D03*
D24*
X170194423Y-121896045D03*
D25*
X162907381Y-124123917D03*
%TD*%
D26*
%TO.C,D4*%
X188534455Y-133948954D03*
X191784321Y-133375916D03*
D24*
X193911506Y-133000835D03*
D27*
X186407270Y-134324035D03*
%TD*%
D26*
%TO.C,D5*%
X185582436Y-117207223D03*
X188832302Y-116634185D03*
D24*
X190959487Y-116259104D03*
D27*
X183455251Y-117582304D03*
%TD*%
D26*
%TO.C,D6*%
X182630417Y-100465491D03*
X185880283Y-99892453D03*
D24*
X188007468Y-99517372D03*
D27*
X180503232Y-100840572D03*
%TD*%
D28*
%TO.C,D7*%
X206495349Y-124945924D03*
X209782791Y-124658310D03*
D24*
X211934572Y-124470054D03*
D29*
X204343568Y-125134180D03*
%TD*%
D28*
%TO.C,D8*%
X205212940Y-107993183D03*
X208500382Y-107705569D03*
D24*
X210652163Y-107517313D03*
D29*
X203061159Y-108181439D03*
%TD*%
D28*
%TO.C,D9*%
X203930532Y-91040442D03*
X207217974Y-90752828D03*
D24*
X209369755Y-90564572D03*
D29*
X201778751Y-91228698D03*
%TD*%
D30*
%TO.C,D10*%
X225761087Y-128850184D03*
X229061087Y-128850184D03*
D24*
X231221087Y-128850184D03*
D31*
X223601087Y-128850184D03*
%TD*%
D30*
%TO.C,D11*%
X225761087Y-111850184D03*
X229061087Y-111850184D03*
D24*
X231221087Y-111850184D03*
D31*
X223601087Y-111850184D03*
%TD*%
D30*
%TO.C,D12*%
X225761087Y-94850184D03*
X229061087Y-94850184D03*
D24*
X231221087Y-94850184D03*
D31*
X223601087Y-94850184D03*
%TD*%
D30*
%TO.C,D13*%
X244761087Y-131683517D03*
X248061087Y-131683517D03*
D24*
X250221087Y-131683517D03*
D31*
X242601087Y-131683517D03*
%TD*%
D30*
%TO.C,D14*%
X244761087Y-114683517D03*
X248061087Y-114683517D03*
D24*
X250221087Y-114683517D03*
D31*
X242601087Y-114683517D03*
%TD*%
D30*
%TO.C,D15*%
X244761087Y-97683517D03*
X248061087Y-97683517D03*
D24*
X250221087Y-97683517D03*
D31*
X242601087Y-97683517D03*
%TD*%
D32*
%TO.C,D16*%
X237801489Y-153945617D03*
X241069373Y-154404889D03*
D24*
X243208352Y-154705503D03*
D33*
X235662510Y-153645003D03*
%TD*%
D34*
%TO.C,D17*%
X257094735Y-158549329D03*
X260175551Y-159731943D03*
D24*
X262192084Y-160506018D03*
D35*
X255078202Y-157775254D03*
%TD*%
D36*
%TO.C,D18*%
X274805942Y-167759506D03*
X277509144Y-169652308D03*
D24*
X279278512Y-170891233D03*
D37*
X273036574Y-166520581D03*
%TD*%
D38*
%TO.C,MCU1*%
X259791087Y-89713517D03*
X259791087Y-92253517D03*
X259791087Y-94793517D03*
X259791087Y-97333517D03*
X259791087Y-99873517D03*
X259791087Y-102413517D03*
X259791087Y-104953517D03*
X259791087Y-107493517D03*
X259791087Y-110033517D03*
X259791087Y-112573517D03*
X259791087Y-115113517D03*
X259791087Y-117653517D03*
X275031087Y-117653517D03*
X275031087Y-115113517D03*
X275031087Y-112573517D03*
X275031087Y-110033517D03*
X275031087Y-107493517D03*
X275031087Y-104953517D03*
X275031087Y-102413517D03*
X275031087Y-99873517D03*
X275031087Y-97333517D03*
X275031087Y-94793517D03*
X275031087Y-92253517D03*
X275031087Y-89713517D03*
D39*
X261569087Y-89713517D03*
D40*
X262585087Y-89713517D03*
D41*
X259791087Y-89713517D03*
D39*
X261569087Y-92253517D03*
D40*
X262585087Y-92253517D03*
D39*
X261569087Y-94793517D03*
D40*
X262585087Y-94793517D03*
D39*
X261569087Y-97333517D03*
D40*
X262585087Y-97333517D03*
D39*
X261569087Y-99873517D03*
D40*
X262585087Y-99873517D03*
D39*
X261569087Y-102413517D03*
D40*
X262585087Y-102413517D03*
D39*
X261569087Y-104953517D03*
D40*
X262585087Y-104953517D03*
D39*
X261569087Y-107493517D03*
D40*
X262585087Y-107493517D03*
D39*
X261569087Y-110033517D03*
D40*
X262585087Y-110033517D03*
D39*
X261569087Y-112573517D03*
D40*
X262585087Y-112573517D03*
D39*
X261569087Y-115113517D03*
D40*
X262585087Y-115113517D03*
D39*
X261569087Y-117653517D03*
D40*
X262585087Y-117653517D03*
D42*
X272237087Y-89713517D03*
X272237087Y-94793517D03*
D43*
X273253087Y-94793517D03*
X273253087Y-89713517D03*
D42*
X272237087Y-92253517D03*
X272237087Y-97333517D03*
D43*
X273253087Y-92253517D03*
X273253087Y-97333517D03*
D42*
X272237087Y-102413517D03*
X272237087Y-104953517D03*
D43*
X273253087Y-104953517D03*
D42*
X272237087Y-107493517D03*
X272237087Y-117653517D03*
D43*
X273253087Y-107493517D03*
X273253087Y-117653517D03*
D42*
X272237087Y-110033517D03*
D43*
X273253087Y-99873517D03*
X273253087Y-102413517D03*
X273253087Y-110033517D03*
D42*
X272237087Y-112573517D03*
D43*
X273253087Y-112573517D03*
X273253087Y-115113517D03*
D42*
X272237087Y-115113517D03*
X272237087Y-99873517D03*
%TD*%
D44*
%TO.C,_2*%
X259911087Y-128683517D03*
D45*
X259911087Y-130683517D03*
%TD*%
D46*
%TO.C,PAD1*%
X264411087Y-128383517D03*
%TD*%
%TO.C,PAD2*%
X264411087Y-130983517D03*
%TD*%
D47*
%TO.C,TRRS_F*%
X277811087Y-139683517D03*
X270811087Y-139683517D03*
%TD*%
%TO.C,TRRS_B*%
X277811087Y-139683517D03*
X270811087Y-139683517D03*
D48*
X273211087Y-137383517D03*
X276211087Y-137383517D03*
X268111087Y-141983517D03*
X269211087Y-137383517D03*
X273211087Y-141983517D03*
X276211087Y-141983517D03*
X268111087Y-137383517D03*
X269211087Y-141983517D03*
%TD*%
D49*
%TO.C,J2*%
X271411087Y-131958517D03*
D50*
X271411087Y-133408517D03*
%TD*%
D51*
%TO.C,_3*%
X277641087Y-132183517D03*
X277641087Y-129183517D03*
D52*
X275881087Y-132933517D03*
X275881087Y-129933517D03*
X275881087Y-128433517D03*
D53*
X278741087Y-134333517D03*
X278741087Y-127033517D03*
X276531087Y-127033517D03*
X276531087Y-134333517D03*
D51*
X277641087Y-132183517D03*
X277641087Y-129183517D03*
%TD*%
D54*
%TO.C,_4_B*%
X264111087Y-135683517D03*
X260711087Y-135683517D03*
%TD*%
D55*
%TO.C,_7*%
X216611087Y-93200184D03*
X216611087Y-131300184D03*
X197561087Y-112250184D03*
%TD*%
%TO.C,_71*%
X262411087Y-122683517D03*
%TD*%
%TO.C,_72*%
X272911087Y-122683517D03*
%TD*%
M02*
