%TF.GenerationSoftware,KiCad,Pcbnew,7.0.5*%
%TF.CreationDate,2024-04-29T22:33:29+02:00*%
%TF.ProjectId,porcupine,706f7263-7570-4696-9e65-2e6b69636164,v0.0.1*%
%TF.SameCoordinates,Original*%
%TF.FileFunction,Legend,Bot*%
%TF.FilePolarity,Positive*%
%FSLAX46Y46*%
G04 Gerber Fmt 4.6, Leading zero omitted, Abs format (unit mm)*
G04 Created by KiCad (PCBNEW 7.0.5) date 2024-04-29 22:33:29*
%MOMM*%
%LPD*%
G01*
G04 APERTURE LIST*
G04 Aperture macros list*
%AMRoundRect*
0 Rectangle with rounded corners*
0 $1 Rounding radius*
0 $2 $3 $4 $5 $6 $7 $8 $9 X,Y pos of 4 corners*
0 Add a 4 corners polygon primitive as box body*
4,1,4,$2,$3,$4,$5,$6,$7,$8,$9,$2,$3,0*
0 Add four circle primitives for the rounded corners*
1,1,$1+$1,$2,$3*
1,1,$1+$1,$4,$5*
1,1,$1+$1,$6,$7*
1,1,$1+$1,$8,$9*
0 Add four rect primitives between the rounded corners*
20,1,$1+$1,$2,$3,$4,$5,0*
20,1,$1+$1,$4,$5,$6,$7,0*
20,1,$1+$1,$6,$7,$8,$9,0*
20,1,$1+$1,$8,$9,$2,$3,0*%
G04 Aperture macros list end*
%ADD10C,0.150000*%
%ADD11C,0.100000*%
%ADD12C,0.120000*%
%ADD13C,0.200000*%
%ADD14C,0.010000*%
%ADD15RoundRect,0.250000X-0.625000X-0.350000X0.625000X-0.350000X0.625000X0.350000X-0.625000X0.350000X0*%
%ADD16O,1.750000X1.200000*%
G04 APERTURE END LIST*
D10*
X213063220Y-148283152D02*
X213063220Y-149283152D01*
X213063220Y-148330771D02*
X212967982Y-148283152D01*
X212967982Y-148283152D02*
X212777506Y-148283152D01*
X212777506Y-148283152D02*
X212682268Y-148330771D01*
X212682268Y-148330771D02*
X212634649Y-148378390D01*
X212634649Y-148378390D02*
X212587030Y-148473628D01*
X212587030Y-148473628D02*
X212587030Y-148759342D01*
X212587030Y-148759342D02*
X212634649Y-148854580D01*
X212634649Y-148854580D02*
X212682268Y-148902200D01*
X212682268Y-148902200D02*
X212777506Y-148949819D01*
X212777506Y-148949819D02*
X212967982Y-148949819D01*
X212967982Y-148949819D02*
X213063220Y-148902200D01*
X212015601Y-148949819D02*
X212110839Y-148902200D01*
X212110839Y-148902200D02*
X212158458Y-148854580D01*
X212158458Y-148854580D02*
X212206077Y-148759342D01*
X212206077Y-148759342D02*
X212206077Y-148473628D01*
X212206077Y-148473628D02*
X212158458Y-148378390D01*
X212158458Y-148378390D02*
X212110839Y-148330771D01*
X212110839Y-148330771D02*
X212015601Y-148283152D01*
X212015601Y-148283152D02*
X211872744Y-148283152D01*
X211872744Y-148283152D02*
X211777506Y-148330771D01*
X211777506Y-148330771D02*
X211729887Y-148378390D01*
X211729887Y-148378390D02*
X211682268Y-148473628D01*
X211682268Y-148473628D02*
X211682268Y-148759342D01*
X211682268Y-148759342D02*
X211729887Y-148854580D01*
X211729887Y-148854580D02*
X211777506Y-148902200D01*
X211777506Y-148902200D02*
X211872744Y-148949819D01*
X211872744Y-148949819D02*
X212015601Y-148949819D01*
X211253696Y-148949819D02*
X211253696Y-148283152D01*
X211253696Y-148473628D02*
X211206077Y-148378390D01*
X211206077Y-148378390D02*
X211158458Y-148330771D01*
X211158458Y-148330771D02*
X211063220Y-148283152D01*
X211063220Y-148283152D02*
X210967982Y-148283152D01*
X210206077Y-148902200D02*
X210301315Y-148949819D01*
X210301315Y-148949819D02*
X210491791Y-148949819D01*
X210491791Y-148949819D02*
X210587029Y-148902200D01*
X210587029Y-148902200D02*
X210634648Y-148854580D01*
X210634648Y-148854580D02*
X210682267Y-148759342D01*
X210682267Y-148759342D02*
X210682267Y-148473628D01*
X210682267Y-148473628D02*
X210634648Y-148378390D01*
X210634648Y-148378390D02*
X210587029Y-148330771D01*
X210587029Y-148330771D02*
X210491791Y-148283152D01*
X210491791Y-148283152D02*
X210301315Y-148283152D01*
X210301315Y-148283152D02*
X210206077Y-148330771D01*
X209348934Y-148283152D02*
X209348934Y-148949819D01*
X209777505Y-148283152D02*
X209777505Y-148806961D01*
X209777505Y-148806961D02*
X209729886Y-148902200D01*
X209729886Y-148902200D02*
X209634648Y-148949819D01*
X209634648Y-148949819D02*
X209491791Y-148949819D01*
X209491791Y-148949819D02*
X209396553Y-148902200D01*
X209396553Y-148902200D02*
X209348934Y-148854580D01*
X208872743Y-148283152D02*
X208872743Y-149283152D01*
X208872743Y-148330771D02*
X208777505Y-148283152D01*
X208777505Y-148283152D02*
X208587029Y-148283152D01*
X208587029Y-148283152D02*
X208491791Y-148330771D01*
X208491791Y-148330771D02*
X208444172Y-148378390D01*
X208444172Y-148378390D02*
X208396553Y-148473628D01*
X208396553Y-148473628D02*
X208396553Y-148759342D01*
X208396553Y-148759342D02*
X208444172Y-148854580D01*
X208444172Y-148854580D02*
X208491791Y-148902200D01*
X208491791Y-148902200D02*
X208587029Y-148949819D01*
X208587029Y-148949819D02*
X208777505Y-148949819D01*
X208777505Y-148949819D02*
X208872743Y-148902200D01*
X207967981Y-148949819D02*
X207967981Y-148283152D01*
X207967981Y-147949819D02*
X208015600Y-147997438D01*
X208015600Y-147997438D02*
X207967981Y-148045057D01*
X207967981Y-148045057D02*
X207920362Y-147997438D01*
X207920362Y-147997438D02*
X207967981Y-147949819D01*
X207967981Y-147949819D02*
X207967981Y-148045057D01*
X207491791Y-148283152D02*
X207491791Y-148949819D01*
X207491791Y-148378390D02*
X207444172Y-148330771D01*
X207444172Y-148330771D02*
X207348934Y-148283152D01*
X207348934Y-148283152D02*
X207206077Y-148283152D01*
X207206077Y-148283152D02*
X207110839Y-148330771D01*
X207110839Y-148330771D02*
X207063220Y-148426009D01*
X207063220Y-148426009D02*
X207063220Y-148949819D01*
X206206077Y-148902200D02*
X206301315Y-148949819D01*
X206301315Y-148949819D02*
X206491791Y-148949819D01*
X206491791Y-148949819D02*
X206587029Y-148902200D01*
X206587029Y-148902200D02*
X206634648Y-148806961D01*
X206634648Y-148806961D02*
X206634648Y-148426009D01*
X206634648Y-148426009D02*
X206587029Y-148330771D01*
X206587029Y-148330771D02*
X206491791Y-148283152D01*
X206491791Y-148283152D02*
X206301315Y-148283152D01*
X206301315Y-148283152D02*
X206206077Y-148330771D01*
X206206077Y-148330771D02*
X206158458Y-148426009D01*
X206158458Y-148426009D02*
X206158458Y-148521247D01*
X206158458Y-148521247D02*
X206634648Y-148616485D01*
X205063219Y-148283152D02*
X204825124Y-148949819D01*
X204825124Y-148949819D02*
X204587029Y-148283152D01*
X204015600Y-147949819D02*
X203920362Y-147949819D01*
X203920362Y-147949819D02*
X203825124Y-147997438D01*
X203825124Y-147997438D02*
X203777505Y-148045057D01*
X203777505Y-148045057D02*
X203729886Y-148140295D01*
X203729886Y-148140295D02*
X203682267Y-148330771D01*
X203682267Y-148330771D02*
X203682267Y-148568866D01*
X203682267Y-148568866D02*
X203729886Y-148759342D01*
X203729886Y-148759342D02*
X203777505Y-148854580D01*
X203777505Y-148854580D02*
X203825124Y-148902200D01*
X203825124Y-148902200D02*
X203920362Y-148949819D01*
X203920362Y-148949819D02*
X204015600Y-148949819D01*
X204015600Y-148949819D02*
X204110838Y-148902200D01*
X204110838Y-148902200D02*
X204158457Y-148854580D01*
X204158457Y-148854580D02*
X204206076Y-148759342D01*
X204206076Y-148759342D02*
X204253695Y-148568866D01*
X204253695Y-148568866D02*
X204253695Y-148330771D01*
X204253695Y-148330771D02*
X204206076Y-148140295D01*
X204206076Y-148140295D02*
X204158457Y-148045057D01*
X204158457Y-148045057D02*
X204110838Y-147997438D01*
X204110838Y-147997438D02*
X204015600Y-147949819D01*
X203253695Y-148854580D02*
X203206076Y-148902200D01*
X203206076Y-148902200D02*
X203253695Y-148949819D01*
X203253695Y-148949819D02*
X203301314Y-148902200D01*
X203301314Y-148902200D02*
X203253695Y-148854580D01*
X203253695Y-148854580D02*
X203253695Y-148949819D01*
X202253696Y-148949819D02*
X202825124Y-148949819D01*
X202539410Y-148949819D02*
X202539410Y-147949819D01*
X202539410Y-147949819D02*
X202634648Y-148092676D01*
X202634648Y-148092676D02*
X202729886Y-148187914D01*
X202729886Y-148187914D02*
X202825124Y-148235533D01*
X213063220Y-150559819D02*
X213063220Y-149559819D01*
X213063220Y-149940771D02*
X212967982Y-149893152D01*
X212967982Y-149893152D02*
X212777506Y-149893152D01*
X212777506Y-149893152D02*
X212682268Y-149940771D01*
X212682268Y-149940771D02*
X212634649Y-149988390D01*
X212634649Y-149988390D02*
X212587030Y-150083628D01*
X212587030Y-150083628D02*
X212587030Y-150369342D01*
X212587030Y-150369342D02*
X212634649Y-150464580D01*
X212634649Y-150464580D02*
X212682268Y-150512200D01*
X212682268Y-150512200D02*
X212777506Y-150559819D01*
X212777506Y-150559819D02*
X212967982Y-150559819D01*
X212967982Y-150559819D02*
X213063220Y-150512200D01*
X212253696Y-149893152D02*
X212015601Y-150559819D01*
X211777506Y-149893152D02*
X212015601Y-150559819D01*
X212015601Y-150559819D02*
X212110839Y-150797914D01*
X212110839Y-150797914D02*
X212158458Y-150845533D01*
X212158458Y-150845533D02*
X212253696Y-150893152D01*
X210682267Y-150274104D02*
X210206077Y-150274104D01*
X210777505Y-150559819D02*
X210444172Y-149559819D01*
X210444172Y-149559819D02*
X210110839Y-150559819D01*
X209777505Y-149893152D02*
X209777505Y-150559819D01*
X209777505Y-149988390D02*
X209729886Y-149940771D01*
X209729886Y-149940771D02*
X209634648Y-149893152D01*
X209634648Y-149893152D02*
X209491791Y-149893152D01*
X209491791Y-149893152D02*
X209396553Y-149940771D01*
X209396553Y-149940771D02*
X209348934Y-150036009D01*
X209348934Y-150036009D02*
X209348934Y-150559819D01*
X208444172Y-150559819D02*
X208444172Y-150036009D01*
X208444172Y-150036009D02*
X208491791Y-149940771D01*
X208491791Y-149940771D02*
X208587029Y-149893152D01*
X208587029Y-149893152D02*
X208777505Y-149893152D01*
X208777505Y-149893152D02*
X208872743Y-149940771D01*
X208444172Y-150512200D02*
X208539410Y-150559819D01*
X208539410Y-150559819D02*
X208777505Y-150559819D01*
X208777505Y-150559819D02*
X208872743Y-150512200D01*
X208872743Y-150512200D02*
X208920362Y-150416961D01*
X208920362Y-150416961D02*
X208920362Y-150321723D01*
X208920362Y-150321723D02*
X208872743Y-150226485D01*
X208872743Y-150226485D02*
X208777505Y-150178866D01*
X208777505Y-150178866D02*
X208539410Y-150178866D01*
X208539410Y-150178866D02*
X208444172Y-150131247D01*
X207967981Y-150559819D02*
X207967981Y-149893152D01*
X207967981Y-150083628D02*
X207920362Y-149988390D01*
X207920362Y-149988390D02*
X207872743Y-149940771D01*
X207872743Y-149940771D02*
X207777505Y-149893152D01*
X207777505Y-149893152D02*
X207682267Y-149893152D01*
X207348933Y-150559819D02*
X207348933Y-149893152D01*
X207348933Y-149559819D02*
X207396552Y-149607438D01*
X207396552Y-149607438D02*
X207348933Y-149655057D01*
X207348933Y-149655057D02*
X207301314Y-149607438D01*
X207301314Y-149607438D02*
X207348933Y-149559819D01*
X207348933Y-149559819D02*
X207348933Y-149655057D01*
X206729886Y-150559819D02*
X206825124Y-150512200D01*
X206825124Y-150512200D02*
X206872743Y-150464580D01*
X206872743Y-150464580D02*
X206920362Y-150369342D01*
X206920362Y-150369342D02*
X206920362Y-150083628D01*
X206920362Y-150083628D02*
X206872743Y-149988390D01*
X206872743Y-149988390D02*
X206825124Y-149940771D01*
X206825124Y-149940771D02*
X206729886Y-149893152D01*
X206729886Y-149893152D02*
X206587029Y-149893152D01*
X206587029Y-149893152D02*
X206491791Y-149940771D01*
X206491791Y-149940771D02*
X206444172Y-149988390D01*
X206444172Y-149988390D02*
X206396553Y-150083628D01*
X206396553Y-150083628D02*
X206396553Y-150369342D01*
X206396553Y-150369342D02*
X206444172Y-150464580D01*
X206444172Y-150464580D02*
X206491791Y-150512200D01*
X206491791Y-150512200D02*
X206587029Y-150559819D01*
X206587029Y-150559819D02*
X206729886Y-150559819D01*
X205967981Y-150559819D02*
X205967981Y-149559819D01*
X205967981Y-149559819D02*
X205396553Y-150559819D01*
X205396553Y-150559819D02*
X205396553Y-149559819D01*
X264818287Y-95572677D02*
X264865906Y-95709581D01*
X264865906Y-95709581D02*
X264865906Y-95947677D01*
X264865906Y-95947677D02*
X264818287Y-96048867D01*
X264818287Y-96048867D02*
X264770667Y-96102439D01*
X264770667Y-96102439D02*
X264675429Y-96161962D01*
X264675429Y-96161962D02*
X264580191Y-96173867D01*
X264580191Y-96173867D02*
X264484953Y-96138153D01*
X264484953Y-96138153D02*
X264437334Y-96096486D01*
X264437334Y-96096486D02*
X264389715Y-96007201D01*
X264389715Y-96007201D02*
X264342096Y-95822677D01*
X264342096Y-95822677D02*
X264294477Y-95733391D01*
X264294477Y-95733391D02*
X264246858Y-95691724D01*
X264246858Y-95691724D02*
X264151620Y-95656010D01*
X264151620Y-95656010D02*
X264056382Y-95667915D01*
X264056382Y-95667915D02*
X263961144Y-95727439D01*
X263961144Y-95727439D02*
X263913525Y-95781010D01*
X263913525Y-95781010D02*
X263865906Y-95882201D01*
X263865906Y-95882201D02*
X263865906Y-96120296D01*
X263865906Y-96120296D02*
X263913525Y-96257201D01*
X264865906Y-96709582D02*
X264818287Y-96620296D01*
X264818287Y-96620296D02*
X264770667Y-96578629D01*
X264770667Y-96578629D02*
X264675429Y-96542915D01*
X264675429Y-96542915D02*
X264389715Y-96578629D01*
X264389715Y-96578629D02*
X264294477Y-96638153D01*
X264294477Y-96638153D02*
X264246858Y-96691724D01*
X264246858Y-96691724D02*
X264199239Y-96792915D01*
X264199239Y-96792915D02*
X264199239Y-96935772D01*
X264199239Y-96935772D02*
X264246858Y-97025058D01*
X264246858Y-97025058D02*
X264294477Y-97066724D01*
X264294477Y-97066724D02*
X264389715Y-97102439D01*
X264389715Y-97102439D02*
X264675429Y-97066724D01*
X264675429Y-97066724D02*
X264770667Y-97007201D01*
X264770667Y-97007201D02*
X264818287Y-96953629D01*
X264818287Y-96953629D02*
X264865906Y-96852439D01*
X264865906Y-96852439D02*
X264865906Y-96709582D01*
X264865906Y-97614344D02*
X264818287Y-97525058D01*
X264818287Y-97525058D02*
X264723048Y-97489344D01*
X264723048Y-97489344D02*
X263865906Y-97596486D01*
X264865906Y-98423868D02*
X263865906Y-98548868D01*
X264818287Y-98429820D02*
X264865906Y-98328630D01*
X264865906Y-98328630D02*
X264865906Y-98138154D01*
X264865906Y-98138154D02*
X264818287Y-98048868D01*
X264818287Y-98048868D02*
X264770667Y-98007201D01*
X264770667Y-98007201D02*
X264675429Y-97971487D01*
X264675429Y-97971487D02*
X264389715Y-98007201D01*
X264389715Y-98007201D02*
X264294477Y-98066725D01*
X264294477Y-98066725D02*
X264246858Y-98120296D01*
X264246858Y-98120296D02*
X264199239Y-98221487D01*
X264199239Y-98221487D02*
X264199239Y-98411963D01*
X264199239Y-98411963D02*
X264246858Y-98501249D01*
X264818287Y-99286963D02*
X264865906Y-99185773D01*
X264865906Y-99185773D02*
X264865906Y-98995296D01*
X264865906Y-98995296D02*
X264818287Y-98906011D01*
X264818287Y-98906011D02*
X264723048Y-98870296D01*
X264723048Y-98870296D02*
X264342096Y-98917916D01*
X264342096Y-98917916D02*
X264246858Y-98977439D01*
X264246858Y-98977439D02*
X264199239Y-99078630D01*
X264199239Y-99078630D02*
X264199239Y-99269106D01*
X264199239Y-99269106D02*
X264246858Y-99358392D01*
X264246858Y-99358392D02*
X264342096Y-99394106D01*
X264342096Y-99394106D02*
X264437334Y-99382201D01*
X264437334Y-99382201D02*
X264532572Y-98894106D01*
X264865906Y-99757201D02*
X264199239Y-99840535D01*
X264389715Y-99816725D02*
X264294477Y-99876249D01*
X264294477Y-99876249D02*
X264246858Y-99929820D01*
X264246858Y-99929820D02*
X264199239Y-100031011D01*
X264199239Y-100031011D02*
X264199239Y-100126249D01*
X264199239Y-101078631D02*
X264199239Y-101459583D01*
X263865906Y-101263154D02*
X264723048Y-101156012D01*
X264723048Y-101156012D02*
X264818287Y-101191726D01*
X264818287Y-101191726D02*
X264865906Y-101281012D01*
X264865906Y-101281012D02*
X264865906Y-101376250D01*
X264865906Y-101709583D02*
X263865906Y-101834583D01*
X264865906Y-102138155D02*
X264342096Y-102203631D01*
X264342096Y-102203631D02*
X264246858Y-102167917D01*
X264246858Y-102167917D02*
X264199239Y-102078631D01*
X264199239Y-102078631D02*
X264199239Y-101935774D01*
X264199239Y-101935774D02*
X264246858Y-101834583D01*
X264246858Y-101834583D02*
X264294477Y-101781012D01*
X264818287Y-103001250D02*
X264865906Y-102900060D01*
X264865906Y-102900060D02*
X264865906Y-102709583D01*
X264865906Y-102709583D02*
X264818287Y-102620298D01*
X264818287Y-102620298D02*
X264723048Y-102584583D01*
X264723048Y-102584583D02*
X264342096Y-102632203D01*
X264342096Y-102632203D02*
X264246858Y-102691726D01*
X264246858Y-102691726D02*
X264199239Y-102792917D01*
X264199239Y-102792917D02*
X264199239Y-102983393D01*
X264199239Y-102983393D02*
X264246858Y-103072679D01*
X264246858Y-103072679D02*
X264342096Y-103108393D01*
X264342096Y-103108393D02*
X264437334Y-103096488D01*
X264437334Y-103096488D02*
X264532572Y-102608393D01*
X264199239Y-104316727D02*
X265056382Y-104209584D01*
X265056382Y-104209584D02*
X265151620Y-104150060D01*
X265151620Y-104150060D02*
X265199239Y-104048870D01*
X265199239Y-104048870D02*
X265199239Y-104001251D01*
X263865906Y-104358393D02*
X263913525Y-104304822D01*
X263913525Y-104304822D02*
X263961144Y-104346489D01*
X263961144Y-104346489D02*
X263913525Y-104400060D01*
X263913525Y-104400060D02*
X263865906Y-104358393D01*
X263865906Y-104358393D02*
X263961144Y-104346489D01*
X264199239Y-105221488D02*
X264865906Y-105138155D01*
X264199239Y-104792917D02*
X264723048Y-104727441D01*
X264723048Y-104727441D02*
X264818287Y-104763155D01*
X264818287Y-104763155D02*
X264865906Y-104852441D01*
X264865906Y-104852441D02*
X264865906Y-104995298D01*
X264865906Y-104995298D02*
X264818287Y-105096488D01*
X264818287Y-105096488D02*
X264770667Y-105150060D01*
X264865906Y-105614345D02*
X264199239Y-105697679D01*
X264294477Y-105685774D02*
X264246858Y-105739345D01*
X264246858Y-105739345D02*
X264199239Y-105840536D01*
X264199239Y-105840536D02*
X264199239Y-105983393D01*
X264199239Y-105983393D02*
X264246858Y-106072679D01*
X264246858Y-106072679D02*
X264342096Y-106108393D01*
X264342096Y-106108393D02*
X264865906Y-106042917D01*
X264342096Y-106108393D02*
X264246858Y-106167917D01*
X264246858Y-106167917D02*
X264199239Y-106269107D01*
X264199239Y-106269107D02*
X264199239Y-106411964D01*
X264199239Y-106411964D02*
X264246858Y-106501250D01*
X264246858Y-106501250D02*
X264342096Y-106536964D01*
X264342096Y-106536964D02*
X264865906Y-106471488D01*
X264199239Y-107031012D02*
X265199239Y-106906012D01*
X264246858Y-107025059D02*
X264199239Y-107126250D01*
X264199239Y-107126250D02*
X264199239Y-107316726D01*
X264199239Y-107316726D02*
X264246858Y-107406012D01*
X264246858Y-107406012D02*
X264294477Y-107447678D01*
X264294477Y-107447678D02*
X264389715Y-107483393D01*
X264389715Y-107483393D02*
X264675429Y-107447678D01*
X264675429Y-107447678D02*
X264770667Y-107388155D01*
X264770667Y-107388155D02*
X264818287Y-107334583D01*
X264818287Y-107334583D02*
X264865906Y-107233393D01*
X264865906Y-107233393D02*
X264865906Y-107042916D01*
X264865906Y-107042916D02*
X264818287Y-106953631D01*
X264818287Y-108239345D02*
X264865906Y-108138155D01*
X264865906Y-108138155D02*
X264865906Y-107947678D01*
X264865906Y-107947678D02*
X264818287Y-107858393D01*
X264818287Y-107858393D02*
X264723048Y-107822678D01*
X264723048Y-107822678D02*
X264342096Y-107870298D01*
X264342096Y-107870298D02*
X264246858Y-107929821D01*
X264246858Y-107929821D02*
X264199239Y-108031012D01*
X264199239Y-108031012D02*
X264199239Y-108221488D01*
X264199239Y-108221488D02*
X264246858Y-108310774D01*
X264246858Y-108310774D02*
X264342096Y-108346488D01*
X264342096Y-108346488D02*
X264437334Y-108334583D01*
X264437334Y-108334583D02*
X264532572Y-107846488D01*
X264865906Y-108709583D02*
X264199239Y-108792917D01*
X264389715Y-108769107D02*
X264294477Y-108828631D01*
X264294477Y-108828631D02*
X264246858Y-108882202D01*
X264246858Y-108882202D02*
X264199239Y-108983393D01*
X264199239Y-108983393D02*
X264199239Y-109078631D01*
X264818287Y-109286965D02*
X264865906Y-109376250D01*
X264865906Y-109376250D02*
X264865906Y-109566727D01*
X264865906Y-109566727D02*
X264818287Y-109667917D01*
X264818287Y-109667917D02*
X264723048Y-109727441D01*
X264723048Y-109727441D02*
X264675429Y-109733393D01*
X264675429Y-109733393D02*
X264580191Y-109697679D01*
X264580191Y-109697679D02*
X264532572Y-109608393D01*
X264532572Y-109608393D02*
X264532572Y-109465536D01*
X264532572Y-109465536D02*
X264484953Y-109376250D01*
X264484953Y-109376250D02*
X264389715Y-109340536D01*
X264389715Y-109340536D02*
X264342096Y-109346489D01*
X264342096Y-109346489D02*
X264246858Y-109406012D01*
X264246858Y-109406012D02*
X264199239Y-109507203D01*
X264199239Y-109507203D02*
X264199239Y-109650060D01*
X264199239Y-109650060D02*
X264246858Y-109739346D01*
X264818287Y-110191727D02*
X264865906Y-110185774D01*
X264865906Y-110185774D02*
X264961144Y-110126251D01*
X264961144Y-110126251D02*
X265008763Y-110072679D01*
X270265906Y-96042915D02*
X269742096Y-96108391D01*
X269742096Y-96108391D02*
X269646858Y-96072677D01*
X269646858Y-96072677D02*
X269599239Y-95983391D01*
X269599239Y-95983391D02*
X269599239Y-95792915D01*
X269599239Y-95792915D02*
X269646858Y-95691724D01*
X270218287Y-96048867D02*
X270265906Y-95947677D01*
X270265906Y-95947677D02*
X270265906Y-95709581D01*
X270265906Y-95709581D02*
X270218287Y-95620296D01*
X270218287Y-95620296D02*
X270123048Y-95584581D01*
X270123048Y-95584581D02*
X270027810Y-95596486D01*
X270027810Y-95596486D02*
X269932572Y-95656010D01*
X269932572Y-95656010D02*
X269884953Y-95757201D01*
X269884953Y-95757201D02*
X269884953Y-95995296D01*
X269884953Y-95995296D02*
X269837334Y-96096486D01*
X269599239Y-96602439D02*
X270265906Y-96519105D01*
X269694477Y-96590534D02*
X269646858Y-96644105D01*
X269646858Y-96644105D02*
X269599239Y-96745296D01*
X269599239Y-96745296D02*
X269599239Y-96888153D01*
X269599239Y-96888153D02*
X269646858Y-96977439D01*
X269646858Y-96977439D02*
X269742096Y-97013153D01*
X269742096Y-97013153D02*
X270265906Y-96947677D01*
X270265906Y-97852439D02*
X269265906Y-97977439D01*
X270218287Y-97858391D02*
X270265906Y-97757201D01*
X270265906Y-97757201D02*
X270265906Y-97566725D01*
X270265906Y-97566725D02*
X270218287Y-97477439D01*
X270218287Y-97477439D02*
X270170667Y-97435772D01*
X270170667Y-97435772D02*
X270075429Y-97400058D01*
X270075429Y-97400058D02*
X269789715Y-97435772D01*
X269789715Y-97435772D02*
X269694477Y-97495296D01*
X269694477Y-97495296D02*
X269646858Y-97548867D01*
X269646858Y-97548867D02*
X269599239Y-97650058D01*
X269599239Y-97650058D02*
X269599239Y-97840534D01*
X269599239Y-97840534D02*
X269646858Y-97929820D01*
X269599239Y-99173868D02*
X270599239Y-99048868D01*
X269646858Y-99167915D02*
X269599239Y-99269106D01*
X269599239Y-99269106D02*
X269599239Y-99459582D01*
X269599239Y-99459582D02*
X269646858Y-99548868D01*
X269646858Y-99548868D02*
X269694477Y-99590534D01*
X269694477Y-99590534D02*
X269789715Y-99626249D01*
X269789715Y-99626249D02*
X270075429Y-99590534D01*
X270075429Y-99590534D02*
X270170667Y-99531011D01*
X270170667Y-99531011D02*
X270218287Y-99477439D01*
X270218287Y-99477439D02*
X270265906Y-99376249D01*
X270265906Y-99376249D02*
X270265906Y-99185772D01*
X270265906Y-99185772D02*
X270218287Y-99096487D01*
X270265906Y-100138154D02*
X270218287Y-100048868D01*
X270218287Y-100048868D02*
X270123048Y-100013154D01*
X270123048Y-100013154D02*
X269265906Y-100120296D01*
X270265906Y-100947678D02*
X269742096Y-101013154D01*
X269742096Y-101013154D02*
X269646858Y-100977440D01*
X269646858Y-100977440D02*
X269599239Y-100888154D01*
X269599239Y-100888154D02*
X269599239Y-100697678D01*
X269599239Y-100697678D02*
X269646858Y-100596487D01*
X270218287Y-100953630D02*
X270265906Y-100852440D01*
X270265906Y-100852440D02*
X270265906Y-100614344D01*
X270265906Y-100614344D02*
X270218287Y-100525059D01*
X270218287Y-100525059D02*
X270123048Y-100489344D01*
X270123048Y-100489344D02*
X270027810Y-100501249D01*
X270027810Y-100501249D02*
X269932572Y-100560773D01*
X269932572Y-100560773D02*
X269884953Y-100661964D01*
X269884953Y-100661964D02*
X269884953Y-100900059D01*
X269884953Y-100900059D02*
X269837334Y-101001249D01*
X270218287Y-101858392D02*
X270265906Y-101757202D01*
X270265906Y-101757202D02*
X270265906Y-101566726D01*
X270265906Y-101566726D02*
X270218287Y-101477440D01*
X270218287Y-101477440D02*
X270170667Y-101435773D01*
X270170667Y-101435773D02*
X270075429Y-101400059D01*
X270075429Y-101400059D02*
X269789715Y-101435773D01*
X269789715Y-101435773D02*
X269694477Y-101495297D01*
X269694477Y-101495297D02*
X269646858Y-101548868D01*
X269646858Y-101548868D02*
X269599239Y-101650059D01*
X269599239Y-101650059D02*
X269599239Y-101840535D01*
X269599239Y-101840535D02*
X269646858Y-101929821D01*
X270218287Y-102667916D02*
X270265906Y-102566726D01*
X270265906Y-102566726D02*
X270265906Y-102376249D01*
X270265906Y-102376249D02*
X270218287Y-102286964D01*
X270218287Y-102286964D02*
X270123048Y-102251249D01*
X270123048Y-102251249D02*
X269742096Y-102298869D01*
X269742096Y-102298869D02*
X269646858Y-102358392D01*
X269646858Y-102358392D02*
X269599239Y-102459583D01*
X269599239Y-102459583D02*
X269599239Y-102650059D01*
X269599239Y-102650059D02*
X269646858Y-102739345D01*
X269646858Y-102739345D02*
X269742096Y-102775059D01*
X269742096Y-102775059D02*
X269837334Y-102763154D01*
X269837334Y-102763154D02*
X269932572Y-102275059D01*
X270265906Y-103900059D02*
X269265906Y-104025059D01*
X269265906Y-104025059D02*
X269980191Y-104269107D01*
X269980191Y-104269107D02*
X269265906Y-104691726D01*
X269265906Y-104691726D02*
X270265906Y-104566726D01*
X270170667Y-105626250D02*
X270218287Y-105572678D01*
X270218287Y-105572678D02*
X270265906Y-105423869D01*
X270265906Y-105423869D02*
X270265906Y-105328631D01*
X270265906Y-105328631D02*
X270218287Y-105191726D01*
X270218287Y-105191726D02*
X270123048Y-105108393D01*
X270123048Y-105108393D02*
X270027810Y-105072678D01*
X270027810Y-105072678D02*
X269837334Y-105048869D01*
X269837334Y-105048869D02*
X269694477Y-105066726D01*
X269694477Y-105066726D02*
X269504001Y-105138154D01*
X269504001Y-105138154D02*
X269408763Y-105197678D01*
X269408763Y-105197678D02*
X269313525Y-105304821D01*
X269313525Y-105304821D02*
X269265906Y-105453631D01*
X269265906Y-105453631D02*
X269265906Y-105548869D01*
X269265906Y-105548869D02*
X269313525Y-105685774D01*
X269313525Y-105685774D02*
X269361144Y-105727440D01*
X269265906Y-106167916D02*
X270075429Y-106066726D01*
X270075429Y-106066726D02*
X270170667Y-106102440D01*
X270170667Y-106102440D02*
X270218287Y-106144107D01*
X270218287Y-106144107D02*
X270265906Y-106233393D01*
X270265906Y-106233393D02*
X270265906Y-106423869D01*
X270265906Y-106423869D02*
X270218287Y-106525059D01*
X270218287Y-106525059D02*
X270170667Y-106578631D01*
X270170667Y-106578631D02*
X270075429Y-106638154D01*
X270075429Y-106638154D02*
X269265906Y-106739345D01*
X269599239Y-107792917D02*
X269599239Y-108173869D01*
X270265906Y-107852440D02*
X269408763Y-107959583D01*
X269408763Y-107959583D02*
X269313525Y-108019107D01*
X269313525Y-108019107D02*
X269265906Y-108120298D01*
X269265906Y-108120298D02*
X269265906Y-108215536D01*
X270265906Y-108852441D02*
X269742096Y-108917917D01*
X269742096Y-108917917D02*
X269646858Y-108882203D01*
X269646858Y-108882203D02*
X269599239Y-108792917D01*
X269599239Y-108792917D02*
X269599239Y-108602441D01*
X269599239Y-108602441D02*
X269646858Y-108501250D01*
X270218287Y-108858393D02*
X270265906Y-108757203D01*
X270265906Y-108757203D02*
X270265906Y-108519107D01*
X270265906Y-108519107D02*
X270218287Y-108429822D01*
X270218287Y-108429822D02*
X270123048Y-108394107D01*
X270123048Y-108394107D02*
X270027810Y-108406012D01*
X270027810Y-108406012D02*
X269932572Y-108465536D01*
X269932572Y-108465536D02*
X269884953Y-108566727D01*
X269884953Y-108566727D02*
X269884953Y-108804822D01*
X269884953Y-108804822D02*
X269837334Y-108906012D01*
X270218287Y-109763155D02*
X270265906Y-109661965D01*
X270265906Y-109661965D02*
X270265906Y-109471489D01*
X270265906Y-109471489D02*
X270218287Y-109382203D01*
X270218287Y-109382203D02*
X270170667Y-109340536D01*
X270170667Y-109340536D02*
X270075429Y-109304822D01*
X270075429Y-109304822D02*
X269789715Y-109340536D01*
X269789715Y-109340536D02*
X269694477Y-109400060D01*
X269694477Y-109400060D02*
X269646858Y-109453631D01*
X269646858Y-109453631D02*
X269599239Y-109554822D01*
X269599239Y-109554822D02*
X269599239Y-109745298D01*
X269599239Y-109745298D02*
X269646858Y-109834584D01*
X270265906Y-110185774D02*
X269599239Y-110269108D01*
X269265906Y-110310774D02*
X269313525Y-110257203D01*
X269313525Y-110257203D02*
X269361144Y-110298870D01*
X269361144Y-110298870D02*
X269313525Y-110352441D01*
X269313525Y-110352441D02*
X269265906Y-110310774D01*
X269265906Y-110310774D02*
X269361144Y-110298870D01*
X269599239Y-110745298D02*
X270265906Y-110661964D01*
X269694477Y-110733393D02*
X269646858Y-110786964D01*
X269646858Y-110786964D02*
X269599239Y-110888155D01*
X269599239Y-110888155D02*
X269599239Y-111031012D01*
X269599239Y-111031012D02*
X269646858Y-111120298D01*
X269646858Y-111120298D02*
X269742096Y-111156012D01*
X269742096Y-111156012D02*
X270265906Y-111090536D01*
X269599239Y-112078631D02*
X270408763Y-111977441D01*
X270408763Y-111977441D02*
X270504001Y-111917917D01*
X270504001Y-111917917D02*
X270551620Y-111864345D01*
X270551620Y-111864345D02*
X270599239Y-111763155D01*
X270599239Y-111763155D02*
X270599239Y-111620298D01*
X270599239Y-111620298D02*
X270551620Y-111531012D01*
X270218287Y-112001250D02*
X270265906Y-111900060D01*
X270265906Y-111900060D02*
X270265906Y-111709584D01*
X270265906Y-111709584D02*
X270218287Y-111620298D01*
X270218287Y-111620298D02*
X270170667Y-111578631D01*
X270170667Y-111578631D02*
X270075429Y-111542917D01*
X270075429Y-111542917D02*
X269789715Y-111578631D01*
X269789715Y-111578631D02*
X269694477Y-111638155D01*
X269694477Y-111638155D02*
X269646858Y-111691726D01*
X269646858Y-111691726D02*
X269599239Y-111792917D01*
X269599239Y-111792917D02*
X269599239Y-111983393D01*
X269599239Y-111983393D02*
X269646858Y-112072679D01*
X269265906Y-113358393D02*
X270075429Y-113257203D01*
X270075429Y-113257203D02*
X270170667Y-113292917D01*
X270170667Y-113292917D02*
X270218287Y-113334584D01*
X270218287Y-113334584D02*
X270265906Y-113423870D01*
X270265906Y-113423870D02*
X270265906Y-113614346D01*
X270265906Y-113614346D02*
X270218287Y-113715536D01*
X270218287Y-113715536D02*
X270170667Y-113769108D01*
X270170667Y-113769108D02*
X270075429Y-113828631D01*
X270075429Y-113828631D02*
X269265906Y-113929822D01*
X270265906Y-114281012D02*
X269265906Y-114406012D01*
X269265906Y-114406012D02*
X269265906Y-114786965D01*
X269265906Y-114786965D02*
X269313525Y-114876250D01*
X269313525Y-114876250D02*
X269361144Y-114917917D01*
X269361144Y-114917917D02*
X269456382Y-114953631D01*
X269456382Y-114953631D02*
X269599239Y-114935774D01*
X269599239Y-114935774D02*
X269694477Y-114876250D01*
X269694477Y-114876250D02*
X269742096Y-114822679D01*
X269742096Y-114822679D02*
X269789715Y-114721489D01*
X269789715Y-114721489D02*
X269789715Y-114340536D01*
X270170667Y-115292917D02*
X270218287Y-115334584D01*
X270218287Y-115334584D02*
X270265906Y-115281012D01*
X270265906Y-115281012D02*
X270218287Y-115239346D01*
X270218287Y-115239346D02*
X270170667Y-115292917D01*
X270170667Y-115292917D02*
X270265906Y-115281012D01*
X269884953Y-115328631D02*
X269313525Y-115352441D01*
X269313525Y-115352441D02*
X269265906Y-115406012D01*
X269265906Y-115406012D02*
X269313525Y-115447679D01*
X269313525Y-115447679D02*
X269884953Y-115328631D01*
X269884953Y-115328631D02*
X269265906Y-115406012D01*
X170382150Y-159483554D02*
X183770416Y-155390350D01*
X183770416Y-155390350D02*
X179677212Y-142002084D01*
X179677212Y-142002084D02*
X166288946Y-146095288D01*
X166288946Y-146095288D02*
X170382150Y-159483554D01*
X165411831Y-143226373D02*
X178800097Y-139133170D01*
X178800097Y-139133170D02*
X174706893Y-125744903D01*
X174706893Y-125744903D02*
X161318627Y-129838107D01*
X161318627Y-129838107D02*
X165411831Y-143226373D01*
X160441512Y-126969192D02*
X173829778Y-122875989D01*
X173829778Y-122875989D02*
X169736574Y-109487722D01*
X169736574Y-109487722D02*
X156348308Y-113580926D01*
X156348308Y-113580926D02*
X160441512Y-126969192D01*
X183613031Y-136847588D02*
X197400339Y-134416514D01*
X197400339Y-134416514D02*
X194969265Y-120629205D01*
X194969265Y-120629205D02*
X181181956Y-123060280D01*
X181181956Y-123060280D02*
X183613031Y-136847588D01*
X180661012Y-120105856D02*
X194448320Y-117674782D01*
X194448320Y-117674782D02*
X192017246Y-103887473D01*
X192017246Y-103887473D02*
X178229937Y-106318548D01*
X178229937Y-106318548D02*
X180661012Y-120105856D01*
X177708993Y-103364125D02*
X191496301Y-100933050D01*
X191496301Y-100933050D02*
X189065227Y-87145742D01*
X189065227Y-87145742D02*
X175277918Y-89576816D01*
X175277918Y-89576816D02*
X177708993Y-103364125D01*
X201340019Y-127404596D02*
X215286744Y-126184416D01*
X215286744Y-126184416D02*
X214066564Y-112237690D01*
X214066564Y-112237690D02*
X200119838Y-113457870D01*
X200119838Y-113457870D02*
X201340019Y-127404596D01*
X200057610Y-110451855D02*
X214004336Y-109231675D01*
X214004336Y-109231675D02*
X212784155Y-95284949D01*
X212784155Y-95284949D02*
X198837429Y-96505129D01*
X198837429Y-96505129D02*
X200057610Y-110451855D01*
X198775201Y-93499114D02*
X212721927Y-92278934D01*
X212721927Y-92278934D02*
X211501747Y-78332208D01*
X211501747Y-78332208D02*
X197555021Y-79552388D01*
X197555021Y-79552388D02*
X198775201Y-93499114D01*
X220411087Y-130850184D02*
X234411087Y-130850184D01*
X234411087Y-130850184D02*
X234411087Y-116850184D01*
X234411087Y-116850184D02*
X220411087Y-116850184D01*
X220411087Y-116850184D02*
X220411087Y-130850184D01*
X220411087Y-113850184D02*
X234411087Y-113850184D01*
X234411087Y-113850184D02*
X234411087Y-99850184D01*
X234411087Y-99850184D02*
X220411087Y-99850184D01*
X220411087Y-99850184D02*
X220411087Y-113850184D01*
X220411087Y-96850184D02*
X234411087Y-96850184D01*
X234411087Y-96850184D02*
X234411087Y-82850184D01*
X234411087Y-82850184D02*
X220411087Y-82850184D01*
X220411087Y-82850184D02*
X220411087Y-96850184D01*
X239411087Y-133683517D02*
X253411087Y-133683517D01*
X253411087Y-133683517D02*
X253411087Y-119683517D01*
X253411087Y-119683517D02*
X239411087Y-119683517D01*
X239411087Y-119683517D02*
X239411087Y-133683517D01*
X239411087Y-116683517D02*
X253411087Y-116683517D01*
X253411087Y-116683517D02*
X253411087Y-102683517D01*
X253411087Y-102683517D02*
X239411087Y-102683517D01*
X239411087Y-102683517D02*
X239411087Y-116683517D01*
X239411087Y-99683517D02*
X253411087Y-99683517D01*
X253411087Y-99683517D02*
X253411087Y-85683517D01*
X253411087Y-85683517D02*
X239411087Y-85683517D01*
X239411087Y-85683517D02*
X239411087Y-99683517D01*
X232225208Y-155181577D02*
X246088961Y-157130001D01*
X246088961Y-157130001D02*
X248037384Y-143266248D01*
X248037384Y-143266248D02*
X234173631Y-141317824D01*
X234173631Y-141317824D02*
X232225208Y-155181577D01*
X251383344Y-158499221D02*
X264453470Y-163516373D01*
X264453470Y-163516373D02*
X269470621Y-150446247D01*
X269470621Y-150446247D02*
X256400495Y-145429095D01*
X256400495Y-145429095D02*
X251383344Y-158499221D01*
X269276325Y-166329176D02*
X280744454Y-174359246D01*
X280744454Y-174359246D02*
X288774524Y-162891118D01*
X288774524Y-162891118D02*
X277306395Y-154861047D01*
X277306395Y-154861047D02*
X269276325Y-166329176D01*
%TO.C,MCU1*%
X258163467Y-90075812D02*
X258430134Y-89694859D01*
X258620610Y-90075812D02*
X258620610Y-89275812D01*
X258620610Y-89275812D02*
X258315848Y-89275812D01*
X258315848Y-89275812D02*
X258239658Y-89313907D01*
X258239658Y-89313907D02*
X258201563Y-89352002D01*
X258201563Y-89352002D02*
X258163467Y-89428193D01*
X258163467Y-89428193D02*
X258163467Y-89542478D01*
X258163467Y-89542478D02*
X258201563Y-89618669D01*
X258201563Y-89618669D02*
X258239658Y-89656764D01*
X258239658Y-89656764D02*
X258315848Y-89694859D01*
X258315848Y-89694859D02*
X258620610Y-89694859D01*
X257858706Y-89847240D02*
X257477753Y-89847240D01*
X257934896Y-90075812D02*
X257668229Y-89275812D01*
X257668229Y-89275812D02*
X257401563Y-90075812D01*
X257211087Y-89275812D02*
X257020611Y-90075812D01*
X257020611Y-90075812D02*
X256868230Y-89504383D01*
X256868230Y-89504383D02*
X256715849Y-90075812D01*
X256715849Y-90075812D02*
X256525373Y-89275812D01*
X258220610Y-91853907D02*
X258296800Y-91815812D01*
X258296800Y-91815812D02*
X258411086Y-91815812D01*
X258411086Y-91815812D02*
X258525372Y-91853907D01*
X258525372Y-91853907D02*
X258601562Y-91930097D01*
X258601562Y-91930097D02*
X258639657Y-92006288D01*
X258639657Y-92006288D02*
X258677753Y-92158669D01*
X258677753Y-92158669D02*
X258677753Y-92272955D01*
X258677753Y-92272955D02*
X258639657Y-92425336D01*
X258639657Y-92425336D02*
X258601562Y-92501526D01*
X258601562Y-92501526D02*
X258525372Y-92577717D01*
X258525372Y-92577717D02*
X258411086Y-92615812D01*
X258411086Y-92615812D02*
X258334895Y-92615812D01*
X258334895Y-92615812D02*
X258220610Y-92577717D01*
X258220610Y-92577717D02*
X258182514Y-92539621D01*
X258182514Y-92539621D02*
X258182514Y-92272955D01*
X258182514Y-92272955D02*
X258334895Y-92272955D01*
X257839657Y-92615812D02*
X257839657Y-91815812D01*
X257839657Y-91815812D02*
X257382514Y-92615812D01*
X257382514Y-92615812D02*
X257382514Y-91815812D01*
X257001562Y-92615812D02*
X257001562Y-91815812D01*
X257001562Y-91815812D02*
X256811086Y-91815812D01*
X256811086Y-91815812D02*
X256696800Y-91853907D01*
X256696800Y-91853907D02*
X256620610Y-91930097D01*
X256620610Y-91930097D02*
X256582515Y-92006288D01*
X256582515Y-92006288D02*
X256544419Y-92158669D01*
X256544419Y-92158669D02*
X256544419Y-92272955D01*
X256544419Y-92272955D02*
X256582515Y-92425336D01*
X256582515Y-92425336D02*
X256620610Y-92501526D01*
X256620610Y-92501526D02*
X256696800Y-92577717D01*
X256696800Y-92577717D02*
X256811086Y-92615812D01*
X256811086Y-92615812D02*
X257001562Y-92615812D01*
X258049181Y-95155812D02*
X258315848Y-94774859D01*
X258506324Y-95155812D02*
X258506324Y-94355812D01*
X258506324Y-94355812D02*
X258201562Y-94355812D01*
X258201562Y-94355812D02*
X258125372Y-94393907D01*
X258125372Y-94393907D02*
X258087277Y-94432002D01*
X258087277Y-94432002D02*
X258049181Y-94508193D01*
X258049181Y-94508193D02*
X258049181Y-94622478D01*
X258049181Y-94622478D02*
X258087277Y-94698669D01*
X258087277Y-94698669D02*
X258125372Y-94736764D01*
X258125372Y-94736764D02*
X258201562Y-94774859D01*
X258201562Y-94774859D02*
X258506324Y-94774859D01*
X257744420Y-95117717D02*
X257630134Y-95155812D01*
X257630134Y-95155812D02*
X257439658Y-95155812D01*
X257439658Y-95155812D02*
X257363467Y-95117717D01*
X257363467Y-95117717D02*
X257325372Y-95079621D01*
X257325372Y-95079621D02*
X257287277Y-95003431D01*
X257287277Y-95003431D02*
X257287277Y-94927240D01*
X257287277Y-94927240D02*
X257325372Y-94851050D01*
X257325372Y-94851050D02*
X257363467Y-94812955D01*
X257363467Y-94812955D02*
X257439658Y-94774859D01*
X257439658Y-94774859D02*
X257592039Y-94736764D01*
X257592039Y-94736764D02*
X257668229Y-94698669D01*
X257668229Y-94698669D02*
X257706324Y-94660574D01*
X257706324Y-94660574D02*
X257744420Y-94584383D01*
X257744420Y-94584383D02*
X257744420Y-94508193D01*
X257744420Y-94508193D02*
X257706324Y-94432002D01*
X257706324Y-94432002D02*
X257668229Y-94393907D01*
X257668229Y-94393907D02*
X257592039Y-94355812D01*
X257592039Y-94355812D02*
X257401562Y-94355812D01*
X257401562Y-94355812D02*
X257287277Y-94393907D01*
X257058705Y-94355812D02*
X256601562Y-94355812D01*
X256830134Y-95155812D02*
X256830134Y-94355812D01*
X258677753Y-96895812D02*
X258411086Y-97695812D01*
X258411086Y-97695812D02*
X258144420Y-96895812D01*
X257420610Y-97619621D02*
X257458706Y-97657717D01*
X257458706Y-97657717D02*
X257572991Y-97695812D01*
X257572991Y-97695812D02*
X257649182Y-97695812D01*
X257649182Y-97695812D02*
X257763468Y-97657717D01*
X257763468Y-97657717D02*
X257839658Y-97581526D01*
X257839658Y-97581526D02*
X257877753Y-97505336D01*
X257877753Y-97505336D02*
X257915849Y-97352955D01*
X257915849Y-97352955D02*
X257915849Y-97238669D01*
X257915849Y-97238669D02*
X257877753Y-97086288D01*
X257877753Y-97086288D02*
X257839658Y-97010097D01*
X257839658Y-97010097D02*
X257763468Y-96933907D01*
X257763468Y-96933907D02*
X257649182Y-96895812D01*
X257649182Y-96895812D02*
X257572991Y-96895812D01*
X257572991Y-96895812D02*
X257458706Y-96933907D01*
X257458706Y-96933907D02*
X257420610Y-96972002D01*
X256620610Y-97619621D02*
X256658706Y-97657717D01*
X256658706Y-97657717D02*
X256772991Y-97695812D01*
X256772991Y-97695812D02*
X256849182Y-97695812D01*
X256849182Y-97695812D02*
X256963468Y-97657717D01*
X256963468Y-97657717D02*
X257039658Y-97581526D01*
X257039658Y-97581526D02*
X257077753Y-97505336D01*
X257077753Y-97505336D02*
X257115849Y-97352955D01*
X257115849Y-97352955D02*
X257115849Y-97238669D01*
X257115849Y-97238669D02*
X257077753Y-97086288D01*
X257077753Y-97086288D02*
X257039658Y-97010097D01*
X257039658Y-97010097D02*
X256963468Y-96933907D01*
X256963468Y-96933907D02*
X256849182Y-96895812D01*
X256849182Y-96895812D02*
X256772991Y-96895812D01*
X256772991Y-96895812D02*
X256658706Y-96933907D01*
X256658706Y-96933907D02*
X256620610Y-96972002D01*
X258582515Y-100235812D02*
X258582515Y-99435812D01*
X258582515Y-99435812D02*
X258277753Y-99435812D01*
X258277753Y-99435812D02*
X258201563Y-99473907D01*
X258201563Y-99473907D02*
X258163468Y-99512002D01*
X258163468Y-99512002D02*
X258125372Y-99588193D01*
X258125372Y-99588193D02*
X258125372Y-99702478D01*
X258125372Y-99702478D02*
X258163468Y-99778669D01*
X258163468Y-99778669D02*
X258201563Y-99816764D01*
X258201563Y-99816764D02*
X258277753Y-99854859D01*
X258277753Y-99854859D02*
X258582515Y-99854859D01*
X257820611Y-99512002D02*
X257782515Y-99473907D01*
X257782515Y-99473907D02*
X257706325Y-99435812D01*
X257706325Y-99435812D02*
X257515849Y-99435812D01*
X257515849Y-99435812D02*
X257439658Y-99473907D01*
X257439658Y-99473907D02*
X257401563Y-99512002D01*
X257401563Y-99512002D02*
X257363468Y-99588193D01*
X257363468Y-99588193D02*
X257363468Y-99664383D01*
X257363468Y-99664383D02*
X257401563Y-99778669D01*
X257401563Y-99778669D02*
X257858706Y-100235812D01*
X257858706Y-100235812D02*
X257363468Y-100235812D01*
X256601563Y-100235812D02*
X257058706Y-100235812D01*
X256830134Y-100235812D02*
X256830134Y-99435812D01*
X256830134Y-99435812D02*
X256906325Y-99550097D01*
X256906325Y-99550097D02*
X256982515Y-99626288D01*
X256982515Y-99626288D02*
X257058706Y-99664383D01*
X258582515Y-102775812D02*
X258582515Y-101975812D01*
X258582515Y-101975812D02*
X258277753Y-101975812D01*
X258277753Y-101975812D02*
X258201563Y-102013907D01*
X258201563Y-102013907D02*
X258163468Y-102052002D01*
X258163468Y-102052002D02*
X258125372Y-102128193D01*
X258125372Y-102128193D02*
X258125372Y-102242478D01*
X258125372Y-102242478D02*
X258163468Y-102318669D01*
X258163468Y-102318669D02*
X258201563Y-102356764D01*
X258201563Y-102356764D02*
X258277753Y-102394859D01*
X258277753Y-102394859D02*
X258582515Y-102394859D01*
X257820611Y-102052002D02*
X257782515Y-102013907D01*
X257782515Y-102013907D02*
X257706325Y-101975812D01*
X257706325Y-101975812D02*
X257515849Y-101975812D01*
X257515849Y-101975812D02*
X257439658Y-102013907D01*
X257439658Y-102013907D02*
X257401563Y-102052002D01*
X257401563Y-102052002D02*
X257363468Y-102128193D01*
X257363468Y-102128193D02*
X257363468Y-102204383D01*
X257363468Y-102204383D02*
X257401563Y-102318669D01*
X257401563Y-102318669D02*
X257858706Y-102775812D01*
X257858706Y-102775812D02*
X257363468Y-102775812D01*
X256868229Y-101975812D02*
X256792039Y-101975812D01*
X256792039Y-101975812D02*
X256715848Y-102013907D01*
X256715848Y-102013907D02*
X256677753Y-102052002D01*
X256677753Y-102052002D02*
X256639658Y-102128193D01*
X256639658Y-102128193D02*
X256601563Y-102280574D01*
X256601563Y-102280574D02*
X256601563Y-102471050D01*
X256601563Y-102471050D02*
X256639658Y-102623431D01*
X256639658Y-102623431D02*
X256677753Y-102699621D01*
X256677753Y-102699621D02*
X256715848Y-102737717D01*
X256715848Y-102737717D02*
X256792039Y-102775812D01*
X256792039Y-102775812D02*
X256868229Y-102775812D01*
X256868229Y-102775812D02*
X256944420Y-102737717D01*
X256944420Y-102737717D02*
X256982515Y-102699621D01*
X256982515Y-102699621D02*
X257020610Y-102623431D01*
X257020610Y-102623431D02*
X257058706Y-102471050D01*
X257058706Y-102471050D02*
X257058706Y-102280574D01*
X257058706Y-102280574D02*
X257020610Y-102128193D01*
X257020610Y-102128193D02*
X256982515Y-102052002D01*
X256982515Y-102052002D02*
X256944420Y-102013907D01*
X256944420Y-102013907D02*
X256868229Y-101975812D01*
X258582515Y-105315812D02*
X258582515Y-104515812D01*
X258582515Y-104515812D02*
X258277753Y-104515812D01*
X258277753Y-104515812D02*
X258201563Y-104553907D01*
X258201563Y-104553907D02*
X258163468Y-104592002D01*
X258163468Y-104592002D02*
X258125372Y-104668193D01*
X258125372Y-104668193D02*
X258125372Y-104782478D01*
X258125372Y-104782478D02*
X258163468Y-104858669D01*
X258163468Y-104858669D02*
X258201563Y-104896764D01*
X258201563Y-104896764D02*
X258277753Y-104934859D01*
X258277753Y-104934859D02*
X258582515Y-104934859D01*
X257363468Y-105315812D02*
X257820611Y-105315812D01*
X257592039Y-105315812D02*
X257592039Y-104515812D01*
X257592039Y-104515812D02*
X257668230Y-104630097D01*
X257668230Y-104630097D02*
X257744420Y-104706288D01*
X257744420Y-104706288D02*
X257820611Y-104744383D01*
X256982515Y-105315812D02*
X256830134Y-105315812D01*
X256830134Y-105315812D02*
X256753944Y-105277717D01*
X256753944Y-105277717D02*
X256715848Y-105239621D01*
X256715848Y-105239621D02*
X256639658Y-105125336D01*
X256639658Y-105125336D02*
X256601563Y-104972955D01*
X256601563Y-104972955D02*
X256601563Y-104668193D01*
X256601563Y-104668193D02*
X256639658Y-104592002D01*
X256639658Y-104592002D02*
X256677753Y-104553907D01*
X256677753Y-104553907D02*
X256753944Y-104515812D01*
X256753944Y-104515812D02*
X256906325Y-104515812D01*
X256906325Y-104515812D02*
X256982515Y-104553907D01*
X256982515Y-104553907D02*
X257020610Y-104592002D01*
X257020610Y-104592002D02*
X257058706Y-104668193D01*
X257058706Y-104668193D02*
X257058706Y-104858669D01*
X257058706Y-104858669D02*
X257020610Y-104934859D01*
X257020610Y-104934859D02*
X256982515Y-104972955D01*
X256982515Y-104972955D02*
X256906325Y-105011050D01*
X256906325Y-105011050D02*
X256753944Y-105011050D01*
X256753944Y-105011050D02*
X256677753Y-104972955D01*
X256677753Y-104972955D02*
X256639658Y-104934859D01*
X256639658Y-104934859D02*
X256601563Y-104858669D01*
X258582515Y-107855812D02*
X258582515Y-107055812D01*
X258582515Y-107055812D02*
X258277753Y-107055812D01*
X258277753Y-107055812D02*
X258201563Y-107093907D01*
X258201563Y-107093907D02*
X258163468Y-107132002D01*
X258163468Y-107132002D02*
X258125372Y-107208193D01*
X258125372Y-107208193D02*
X258125372Y-107322478D01*
X258125372Y-107322478D02*
X258163468Y-107398669D01*
X258163468Y-107398669D02*
X258201563Y-107436764D01*
X258201563Y-107436764D02*
X258277753Y-107474859D01*
X258277753Y-107474859D02*
X258582515Y-107474859D01*
X257363468Y-107855812D02*
X257820611Y-107855812D01*
X257592039Y-107855812D02*
X257592039Y-107055812D01*
X257592039Y-107055812D02*
X257668230Y-107170097D01*
X257668230Y-107170097D02*
X257744420Y-107246288D01*
X257744420Y-107246288D02*
X257820611Y-107284383D01*
X256906325Y-107398669D02*
X256982515Y-107360574D01*
X256982515Y-107360574D02*
X257020610Y-107322478D01*
X257020610Y-107322478D02*
X257058706Y-107246288D01*
X257058706Y-107246288D02*
X257058706Y-107208193D01*
X257058706Y-107208193D02*
X257020610Y-107132002D01*
X257020610Y-107132002D02*
X256982515Y-107093907D01*
X256982515Y-107093907D02*
X256906325Y-107055812D01*
X256906325Y-107055812D02*
X256753944Y-107055812D01*
X256753944Y-107055812D02*
X256677753Y-107093907D01*
X256677753Y-107093907D02*
X256639658Y-107132002D01*
X256639658Y-107132002D02*
X256601563Y-107208193D01*
X256601563Y-107208193D02*
X256601563Y-107246288D01*
X256601563Y-107246288D02*
X256639658Y-107322478D01*
X256639658Y-107322478D02*
X256677753Y-107360574D01*
X256677753Y-107360574D02*
X256753944Y-107398669D01*
X256753944Y-107398669D02*
X256906325Y-107398669D01*
X256906325Y-107398669D02*
X256982515Y-107436764D01*
X256982515Y-107436764D02*
X257020610Y-107474859D01*
X257020610Y-107474859D02*
X257058706Y-107551050D01*
X257058706Y-107551050D02*
X257058706Y-107703431D01*
X257058706Y-107703431D02*
X257020610Y-107779621D01*
X257020610Y-107779621D02*
X256982515Y-107817717D01*
X256982515Y-107817717D02*
X256906325Y-107855812D01*
X256906325Y-107855812D02*
X256753944Y-107855812D01*
X256753944Y-107855812D02*
X256677753Y-107817717D01*
X256677753Y-107817717D02*
X256639658Y-107779621D01*
X256639658Y-107779621D02*
X256601563Y-107703431D01*
X256601563Y-107703431D02*
X256601563Y-107551050D01*
X256601563Y-107551050D02*
X256639658Y-107474859D01*
X256639658Y-107474859D02*
X256677753Y-107436764D01*
X256677753Y-107436764D02*
X256753944Y-107398669D01*
X258582515Y-110395812D02*
X258582515Y-109595812D01*
X258582515Y-109595812D02*
X258277753Y-109595812D01*
X258277753Y-109595812D02*
X258201563Y-109633907D01*
X258201563Y-109633907D02*
X258163468Y-109672002D01*
X258163468Y-109672002D02*
X258125372Y-109748193D01*
X258125372Y-109748193D02*
X258125372Y-109862478D01*
X258125372Y-109862478D02*
X258163468Y-109938669D01*
X258163468Y-109938669D02*
X258201563Y-109976764D01*
X258201563Y-109976764D02*
X258277753Y-110014859D01*
X258277753Y-110014859D02*
X258582515Y-110014859D01*
X257363468Y-110395812D02*
X257820611Y-110395812D01*
X257592039Y-110395812D02*
X257592039Y-109595812D01*
X257592039Y-109595812D02*
X257668230Y-109710097D01*
X257668230Y-109710097D02*
X257744420Y-109786288D01*
X257744420Y-109786288D02*
X257820611Y-109824383D01*
X256639658Y-109595812D02*
X257020610Y-109595812D01*
X257020610Y-109595812D02*
X257058706Y-109976764D01*
X257058706Y-109976764D02*
X257020610Y-109938669D01*
X257020610Y-109938669D02*
X256944420Y-109900574D01*
X256944420Y-109900574D02*
X256753944Y-109900574D01*
X256753944Y-109900574D02*
X256677753Y-109938669D01*
X256677753Y-109938669D02*
X256639658Y-109976764D01*
X256639658Y-109976764D02*
X256601563Y-110052955D01*
X256601563Y-110052955D02*
X256601563Y-110243431D01*
X256601563Y-110243431D02*
X256639658Y-110319621D01*
X256639658Y-110319621D02*
X256677753Y-110357717D01*
X256677753Y-110357717D02*
X256753944Y-110395812D01*
X256753944Y-110395812D02*
X256944420Y-110395812D01*
X256944420Y-110395812D02*
X257020610Y-110357717D01*
X257020610Y-110357717D02*
X257058706Y-110319621D01*
X258582515Y-112935812D02*
X258582515Y-112135812D01*
X258582515Y-112135812D02*
X258277753Y-112135812D01*
X258277753Y-112135812D02*
X258201563Y-112173907D01*
X258201563Y-112173907D02*
X258163468Y-112212002D01*
X258163468Y-112212002D02*
X258125372Y-112288193D01*
X258125372Y-112288193D02*
X258125372Y-112402478D01*
X258125372Y-112402478D02*
X258163468Y-112478669D01*
X258163468Y-112478669D02*
X258201563Y-112516764D01*
X258201563Y-112516764D02*
X258277753Y-112554859D01*
X258277753Y-112554859D02*
X258582515Y-112554859D01*
X257363468Y-112935812D02*
X257820611Y-112935812D01*
X257592039Y-112935812D02*
X257592039Y-112135812D01*
X257592039Y-112135812D02*
X257668230Y-112250097D01*
X257668230Y-112250097D02*
X257744420Y-112326288D01*
X257744420Y-112326288D02*
X257820611Y-112364383D01*
X256677753Y-112402478D02*
X256677753Y-112935812D01*
X256868229Y-112097717D02*
X257058706Y-112669145D01*
X257058706Y-112669145D02*
X256563467Y-112669145D01*
X258582515Y-115475812D02*
X258582515Y-114675812D01*
X258582515Y-114675812D02*
X258277753Y-114675812D01*
X258277753Y-114675812D02*
X258201563Y-114713907D01*
X258201563Y-114713907D02*
X258163468Y-114752002D01*
X258163468Y-114752002D02*
X258125372Y-114828193D01*
X258125372Y-114828193D02*
X258125372Y-114942478D01*
X258125372Y-114942478D02*
X258163468Y-115018669D01*
X258163468Y-115018669D02*
X258201563Y-115056764D01*
X258201563Y-115056764D02*
X258277753Y-115094859D01*
X258277753Y-115094859D02*
X258582515Y-115094859D01*
X257363468Y-115475812D02*
X257820611Y-115475812D01*
X257592039Y-115475812D02*
X257592039Y-114675812D01*
X257592039Y-114675812D02*
X257668230Y-114790097D01*
X257668230Y-114790097D02*
X257744420Y-114866288D01*
X257744420Y-114866288D02*
X257820611Y-114904383D01*
X256677753Y-114675812D02*
X256830134Y-114675812D01*
X256830134Y-114675812D02*
X256906325Y-114713907D01*
X256906325Y-114713907D02*
X256944420Y-114752002D01*
X256944420Y-114752002D02*
X257020610Y-114866288D01*
X257020610Y-114866288D02*
X257058706Y-115018669D01*
X257058706Y-115018669D02*
X257058706Y-115323431D01*
X257058706Y-115323431D02*
X257020610Y-115399621D01*
X257020610Y-115399621D02*
X256982515Y-115437717D01*
X256982515Y-115437717D02*
X256906325Y-115475812D01*
X256906325Y-115475812D02*
X256753944Y-115475812D01*
X256753944Y-115475812D02*
X256677753Y-115437717D01*
X256677753Y-115437717D02*
X256639658Y-115399621D01*
X256639658Y-115399621D02*
X256601563Y-115323431D01*
X256601563Y-115323431D02*
X256601563Y-115132955D01*
X256601563Y-115132955D02*
X256639658Y-115056764D01*
X256639658Y-115056764D02*
X256677753Y-115018669D01*
X256677753Y-115018669D02*
X256753944Y-114980574D01*
X256753944Y-114980574D02*
X256906325Y-114980574D01*
X256906325Y-114980574D02*
X256982515Y-115018669D01*
X256982515Y-115018669D02*
X257020610Y-115056764D01*
X257020610Y-115056764D02*
X257058706Y-115132955D01*
X258582515Y-118015812D02*
X258582515Y-117215812D01*
X258582515Y-117215812D02*
X258277753Y-117215812D01*
X258277753Y-117215812D02*
X258201563Y-117253907D01*
X258201563Y-117253907D02*
X258163468Y-117292002D01*
X258163468Y-117292002D02*
X258125372Y-117368193D01*
X258125372Y-117368193D02*
X258125372Y-117482478D01*
X258125372Y-117482478D02*
X258163468Y-117558669D01*
X258163468Y-117558669D02*
X258201563Y-117596764D01*
X258201563Y-117596764D02*
X258277753Y-117634859D01*
X258277753Y-117634859D02*
X258582515Y-117634859D01*
X257363468Y-118015812D02*
X257820611Y-118015812D01*
X257592039Y-118015812D02*
X257592039Y-117215812D01*
X257592039Y-117215812D02*
X257668230Y-117330097D01*
X257668230Y-117330097D02*
X257744420Y-117406288D01*
X257744420Y-117406288D02*
X257820611Y-117444383D01*
X256868229Y-117215812D02*
X256792039Y-117215812D01*
X256792039Y-117215812D02*
X256715848Y-117253907D01*
X256715848Y-117253907D02*
X256677753Y-117292002D01*
X256677753Y-117292002D02*
X256639658Y-117368193D01*
X256639658Y-117368193D02*
X256601563Y-117520574D01*
X256601563Y-117520574D02*
X256601563Y-117711050D01*
X256601563Y-117711050D02*
X256639658Y-117863431D01*
X256639658Y-117863431D02*
X256677753Y-117939621D01*
X256677753Y-117939621D02*
X256715848Y-117977717D01*
X256715848Y-117977717D02*
X256792039Y-118015812D01*
X256792039Y-118015812D02*
X256868229Y-118015812D01*
X256868229Y-118015812D02*
X256944420Y-117977717D01*
X256944420Y-117977717D02*
X256982515Y-117939621D01*
X256982515Y-117939621D02*
X257020610Y-117863431D01*
X257020610Y-117863431D02*
X257058706Y-117711050D01*
X257058706Y-117711050D02*
X257058706Y-117520574D01*
X257058706Y-117520574D02*
X257020610Y-117368193D01*
X257020610Y-117368193D02*
X256982515Y-117292002D01*
X256982515Y-117292002D02*
X256944420Y-117253907D01*
X256944420Y-117253907D02*
X256868229Y-117215812D01*
X278182515Y-90075812D02*
X278182515Y-89275812D01*
X278182515Y-89275812D02*
X277877753Y-89275812D01*
X277877753Y-89275812D02*
X277801563Y-89313907D01*
X277801563Y-89313907D02*
X277763468Y-89352002D01*
X277763468Y-89352002D02*
X277725372Y-89428193D01*
X277725372Y-89428193D02*
X277725372Y-89542478D01*
X277725372Y-89542478D02*
X277763468Y-89618669D01*
X277763468Y-89618669D02*
X277801563Y-89656764D01*
X277801563Y-89656764D02*
X277877753Y-89694859D01*
X277877753Y-89694859D02*
X278182515Y-89694859D01*
X277230134Y-89275812D02*
X277153944Y-89275812D01*
X277153944Y-89275812D02*
X277077753Y-89313907D01*
X277077753Y-89313907D02*
X277039658Y-89352002D01*
X277039658Y-89352002D02*
X277001563Y-89428193D01*
X277001563Y-89428193D02*
X276963468Y-89580574D01*
X276963468Y-89580574D02*
X276963468Y-89771050D01*
X276963468Y-89771050D02*
X277001563Y-89923431D01*
X277001563Y-89923431D02*
X277039658Y-89999621D01*
X277039658Y-89999621D02*
X277077753Y-90037717D01*
X277077753Y-90037717D02*
X277153944Y-90075812D01*
X277153944Y-90075812D02*
X277230134Y-90075812D01*
X277230134Y-90075812D02*
X277306325Y-90037717D01*
X277306325Y-90037717D02*
X277344420Y-89999621D01*
X277344420Y-89999621D02*
X277382515Y-89923431D01*
X277382515Y-89923431D02*
X277420611Y-89771050D01*
X277420611Y-89771050D02*
X277420611Y-89580574D01*
X277420611Y-89580574D02*
X277382515Y-89428193D01*
X277382515Y-89428193D02*
X277344420Y-89352002D01*
X277344420Y-89352002D02*
X277306325Y-89313907D01*
X277306325Y-89313907D02*
X277230134Y-89275812D01*
X276201563Y-90075812D02*
X276658706Y-90075812D01*
X276430134Y-90075812D02*
X276430134Y-89275812D01*
X276430134Y-89275812D02*
X276506325Y-89390097D01*
X276506325Y-89390097D02*
X276582515Y-89466288D01*
X276582515Y-89466288D02*
X276658706Y-89504383D01*
X278182515Y-92615812D02*
X278182515Y-91815812D01*
X278182515Y-91815812D02*
X277877753Y-91815812D01*
X277877753Y-91815812D02*
X277801563Y-91853907D01*
X277801563Y-91853907D02*
X277763468Y-91892002D01*
X277763468Y-91892002D02*
X277725372Y-91968193D01*
X277725372Y-91968193D02*
X277725372Y-92082478D01*
X277725372Y-92082478D02*
X277763468Y-92158669D01*
X277763468Y-92158669D02*
X277801563Y-92196764D01*
X277801563Y-92196764D02*
X277877753Y-92234859D01*
X277877753Y-92234859D02*
X278182515Y-92234859D01*
X277230134Y-91815812D02*
X277153944Y-91815812D01*
X277153944Y-91815812D02*
X277077753Y-91853907D01*
X277077753Y-91853907D02*
X277039658Y-91892002D01*
X277039658Y-91892002D02*
X277001563Y-91968193D01*
X277001563Y-91968193D02*
X276963468Y-92120574D01*
X276963468Y-92120574D02*
X276963468Y-92311050D01*
X276963468Y-92311050D02*
X277001563Y-92463431D01*
X277001563Y-92463431D02*
X277039658Y-92539621D01*
X277039658Y-92539621D02*
X277077753Y-92577717D01*
X277077753Y-92577717D02*
X277153944Y-92615812D01*
X277153944Y-92615812D02*
X277230134Y-92615812D01*
X277230134Y-92615812D02*
X277306325Y-92577717D01*
X277306325Y-92577717D02*
X277344420Y-92539621D01*
X277344420Y-92539621D02*
X277382515Y-92463431D01*
X277382515Y-92463431D02*
X277420611Y-92311050D01*
X277420611Y-92311050D02*
X277420611Y-92120574D01*
X277420611Y-92120574D02*
X277382515Y-91968193D01*
X277382515Y-91968193D02*
X277344420Y-91892002D01*
X277344420Y-91892002D02*
X277306325Y-91853907D01*
X277306325Y-91853907D02*
X277230134Y-91815812D01*
X276468229Y-91815812D02*
X276392039Y-91815812D01*
X276392039Y-91815812D02*
X276315848Y-91853907D01*
X276315848Y-91853907D02*
X276277753Y-91892002D01*
X276277753Y-91892002D02*
X276239658Y-91968193D01*
X276239658Y-91968193D02*
X276201563Y-92120574D01*
X276201563Y-92120574D02*
X276201563Y-92311050D01*
X276201563Y-92311050D02*
X276239658Y-92463431D01*
X276239658Y-92463431D02*
X276277753Y-92539621D01*
X276277753Y-92539621D02*
X276315848Y-92577717D01*
X276315848Y-92577717D02*
X276392039Y-92615812D01*
X276392039Y-92615812D02*
X276468229Y-92615812D01*
X276468229Y-92615812D02*
X276544420Y-92577717D01*
X276544420Y-92577717D02*
X276582515Y-92539621D01*
X276582515Y-92539621D02*
X276620610Y-92463431D01*
X276620610Y-92463431D02*
X276658706Y-92311050D01*
X276658706Y-92311050D02*
X276658706Y-92120574D01*
X276658706Y-92120574D02*
X276620610Y-91968193D01*
X276620610Y-91968193D02*
X276582515Y-91892002D01*
X276582515Y-91892002D02*
X276544420Y-91853907D01*
X276544420Y-91853907D02*
X276468229Y-91815812D01*
X277820610Y-94393907D02*
X277896800Y-94355812D01*
X277896800Y-94355812D02*
X278011086Y-94355812D01*
X278011086Y-94355812D02*
X278125372Y-94393907D01*
X278125372Y-94393907D02*
X278201562Y-94470097D01*
X278201562Y-94470097D02*
X278239657Y-94546288D01*
X278239657Y-94546288D02*
X278277753Y-94698669D01*
X278277753Y-94698669D02*
X278277753Y-94812955D01*
X278277753Y-94812955D02*
X278239657Y-94965336D01*
X278239657Y-94965336D02*
X278201562Y-95041526D01*
X278201562Y-95041526D02*
X278125372Y-95117717D01*
X278125372Y-95117717D02*
X278011086Y-95155812D01*
X278011086Y-95155812D02*
X277934895Y-95155812D01*
X277934895Y-95155812D02*
X277820610Y-95117717D01*
X277820610Y-95117717D02*
X277782514Y-95079621D01*
X277782514Y-95079621D02*
X277782514Y-94812955D01*
X277782514Y-94812955D02*
X277934895Y-94812955D01*
X277439657Y-95155812D02*
X277439657Y-94355812D01*
X277439657Y-94355812D02*
X276982514Y-95155812D01*
X276982514Y-95155812D02*
X276982514Y-94355812D01*
X276601562Y-95155812D02*
X276601562Y-94355812D01*
X276601562Y-94355812D02*
X276411086Y-94355812D01*
X276411086Y-94355812D02*
X276296800Y-94393907D01*
X276296800Y-94393907D02*
X276220610Y-94470097D01*
X276220610Y-94470097D02*
X276182515Y-94546288D01*
X276182515Y-94546288D02*
X276144419Y-94698669D01*
X276144419Y-94698669D02*
X276144419Y-94812955D01*
X276144419Y-94812955D02*
X276182515Y-94965336D01*
X276182515Y-94965336D02*
X276220610Y-95041526D01*
X276220610Y-95041526D02*
X276296800Y-95117717D01*
X276296800Y-95117717D02*
X276411086Y-95155812D01*
X276411086Y-95155812D02*
X276601562Y-95155812D01*
X277820610Y-96933907D02*
X277896800Y-96895812D01*
X277896800Y-96895812D02*
X278011086Y-96895812D01*
X278011086Y-96895812D02*
X278125372Y-96933907D01*
X278125372Y-96933907D02*
X278201562Y-97010097D01*
X278201562Y-97010097D02*
X278239657Y-97086288D01*
X278239657Y-97086288D02*
X278277753Y-97238669D01*
X278277753Y-97238669D02*
X278277753Y-97352955D01*
X278277753Y-97352955D02*
X278239657Y-97505336D01*
X278239657Y-97505336D02*
X278201562Y-97581526D01*
X278201562Y-97581526D02*
X278125372Y-97657717D01*
X278125372Y-97657717D02*
X278011086Y-97695812D01*
X278011086Y-97695812D02*
X277934895Y-97695812D01*
X277934895Y-97695812D02*
X277820610Y-97657717D01*
X277820610Y-97657717D02*
X277782514Y-97619621D01*
X277782514Y-97619621D02*
X277782514Y-97352955D01*
X277782514Y-97352955D02*
X277934895Y-97352955D01*
X277439657Y-97695812D02*
X277439657Y-96895812D01*
X277439657Y-96895812D02*
X276982514Y-97695812D01*
X276982514Y-97695812D02*
X276982514Y-96895812D01*
X276601562Y-97695812D02*
X276601562Y-96895812D01*
X276601562Y-96895812D02*
X276411086Y-96895812D01*
X276411086Y-96895812D02*
X276296800Y-96933907D01*
X276296800Y-96933907D02*
X276220610Y-97010097D01*
X276220610Y-97010097D02*
X276182515Y-97086288D01*
X276182515Y-97086288D02*
X276144419Y-97238669D01*
X276144419Y-97238669D02*
X276144419Y-97352955D01*
X276144419Y-97352955D02*
X276182515Y-97505336D01*
X276182515Y-97505336D02*
X276220610Y-97581526D01*
X276220610Y-97581526D02*
X276296800Y-97657717D01*
X276296800Y-97657717D02*
X276411086Y-97695812D01*
X276411086Y-97695812D02*
X276601562Y-97695812D01*
X278182515Y-100235812D02*
X278182515Y-99435812D01*
X278182515Y-99435812D02*
X277877753Y-99435812D01*
X277877753Y-99435812D02*
X277801563Y-99473907D01*
X277801563Y-99473907D02*
X277763468Y-99512002D01*
X277763468Y-99512002D02*
X277725372Y-99588193D01*
X277725372Y-99588193D02*
X277725372Y-99702478D01*
X277725372Y-99702478D02*
X277763468Y-99778669D01*
X277763468Y-99778669D02*
X277801563Y-99816764D01*
X277801563Y-99816764D02*
X277877753Y-99854859D01*
X277877753Y-99854859D02*
X278182515Y-99854859D01*
X277230134Y-99435812D02*
X277153944Y-99435812D01*
X277153944Y-99435812D02*
X277077753Y-99473907D01*
X277077753Y-99473907D02*
X277039658Y-99512002D01*
X277039658Y-99512002D02*
X277001563Y-99588193D01*
X277001563Y-99588193D02*
X276963468Y-99740574D01*
X276963468Y-99740574D02*
X276963468Y-99931050D01*
X276963468Y-99931050D02*
X277001563Y-100083431D01*
X277001563Y-100083431D02*
X277039658Y-100159621D01*
X277039658Y-100159621D02*
X277077753Y-100197717D01*
X277077753Y-100197717D02*
X277153944Y-100235812D01*
X277153944Y-100235812D02*
X277230134Y-100235812D01*
X277230134Y-100235812D02*
X277306325Y-100197717D01*
X277306325Y-100197717D02*
X277344420Y-100159621D01*
X277344420Y-100159621D02*
X277382515Y-100083431D01*
X277382515Y-100083431D02*
X277420611Y-99931050D01*
X277420611Y-99931050D02*
X277420611Y-99740574D01*
X277420611Y-99740574D02*
X277382515Y-99588193D01*
X277382515Y-99588193D02*
X277344420Y-99512002D01*
X277344420Y-99512002D02*
X277306325Y-99473907D01*
X277306325Y-99473907D02*
X277230134Y-99435812D01*
X276658706Y-99512002D02*
X276620610Y-99473907D01*
X276620610Y-99473907D02*
X276544420Y-99435812D01*
X276544420Y-99435812D02*
X276353944Y-99435812D01*
X276353944Y-99435812D02*
X276277753Y-99473907D01*
X276277753Y-99473907D02*
X276239658Y-99512002D01*
X276239658Y-99512002D02*
X276201563Y-99588193D01*
X276201563Y-99588193D02*
X276201563Y-99664383D01*
X276201563Y-99664383D02*
X276239658Y-99778669D01*
X276239658Y-99778669D02*
X276696801Y-100235812D01*
X276696801Y-100235812D02*
X276201563Y-100235812D01*
X278182515Y-102775812D02*
X278182515Y-101975812D01*
X278182515Y-101975812D02*
X277877753Y-101975812D01*
X277877753Y-101975812D02*
X277801563Y-102013907D01*
X277801563Y-102013907D02*
X277763468Y-102052002D01*
X277763468Y-102052002D02*
X277725372Y-102128193D01*
X277725372Y-102128193D02*
X277725372Y-102242478D01*
X277725372Y-102242478D02*
X277763468Y-102318669D01*
X277763468Y-102318669D02*
X277801563Y-102356764D01*
X277801563Y-102356764D02*
X277877753Y-102394859D01*
X277877753Y-102394859D02*
X278182515Y-102394859D01*
X277230134Y-101975812D02*
X277153944Y-101975812D01*
X277153944Y-101975812D02*
X277077753Y-102013907D01*
X277077753Y-102013907D02*
X277039658Y-102052002D01*
X277039658Y-102052002D02*
X277001563Y-102128193D01*
X277001563Y-102128193D02*
X276963468Y-102280574D01*
X276963468Y-102280574D02*
X276963468Y-102471050D01*
X276963468Y-102471050D02*
X277001563Y-102623431D01*
X277001563Y-102623431D02*
X277039658Y-102699621D01*
X277039658Y-102699621D02*
X277077753Y-102737717D01*
X277077753Y-102737717D02*
X277153944Y-102775812D01*
X277153944Y-102775812D02*
X277230134Y-102775812D01*
X277230134Y-102775812D02*
X277306325Y-102737717D01*
X277306325Y-102737717D02*
X277344420Y-102699621D01*
X277344420Y-102699621D02*
X277382515Y-102623431D01*
X277382515Y-102623431D02*
X277420611Y-102471050D01*
X277420611Y-102471050D02*
X277420611Y-102280574D01*
X277420611Y-102280574D02*
X277382515Y-102128193D01*
X277382515Y-102128193D02*
X277344420Y-102052002D01*
X277344420Y-102052002D02*
X277306325Y-102013907D01*
X277306325Y-102013907D02*
X277230134Y-101975812D01*
X276696801Y-101975812D02*
X276201563Y-101975812D01*
X276201563Y-101975812D02*
X276468229Y-102280574D01*
X276468229Y-102280574D02*
X276353944Y-102280574D01*
X276353944Y-102280574D02*
X276277753Y-102318669D01*
X276277753Y-102318669D02*
X276239658Y-102356764D01*
X276239658Y-102356764D02*
X276201563Y-102432955D01*
X276201563Y-102432955D02*
X276201563Y-102623431D01*
X276201563Y-102623431D02*
X276239658Y-102699621D01*
X276239658Y-102699621D02*
X276277753Y-102737717D01*
X276277753Y-102737717D02*
X276353944Y-102775812D01*
X276353944Y-102775812D02*
X276582515Y-102775812D01*
X276582515Y-102775812D02*
X276658706Y-102737717D01*
X276658706Y-102737717D02*
X276696801Y-102699621D01*
X278182515Y-105315812D02*
X278182515Y-104515812D01*
X278182515Y-104515812D02*
X277877753Y-104515812D01*
X277877753Y-104515812D02*
X277801563Y-104553907D01*
X277801563Y-104553907D02*
X277763468Y-104592002D01*
X277763468Y-104592002D02*
X277725372Y-104668193D01*
X277725372Y-104668193D02*
X277725372Y-104782478D01*
X277725372Y-104782478D02*
X277763468Y-104858669D01*
X277763468Y-104858669D02*
X277801563Y-104896764D01*
X277801563Y-104896764D02*
X277877753Y-104934859D01*
X277877753Y-104934859D02*
X278182515Y-104934859D01*
X277230134Y-104515812D02*
X277153944Y-104515812D01*
X277153944Y-104515812D02*
X277077753Y-104553907D01*
X277077753Y-104553907D02*
X277039658Y-104592002D01*
X277039658Y-104592002D02*
X277001563Y-104668193D01*
X277001563Y-104668193D02*
X276963468Y-104820574D01*
X276963468Y-104820574D02*
X276963468Y-105011050D01*
X276963468Y-105011050D02*
X277001563Y-105163431D01*
X277001563Y-105163431D02*
X277039658Y-105239621D01*
X277039658Y-105239621D02*
X277077753Y-105277717D01*
X277077753Y-105277717D02*
X277153944Y-105315812D01*
X277153944Y-105315812D02*
X277230134Y-105315812D01*
X277230134Y-105315812D02*
X277306325Y-105277717D01*
X277306325Y-105277717D02*
X277344420Y-105239621D01*
X277344420Y-105239621D02*
X277382515Y-105163431D01*
X277382515Y-105163431D02*
X277420611Y-105011050D01*
X277420611Y-105011050D02*
X277420611Y-104820574D01*
X277420611Y-104820574D02*
X277382515Y-104668193D01*
X277382515Y-104668193D02*
X277344420Y-104592002D01*
X277344420Y-104592002D02*
X277306325Y-104553907D01*
X277306325Y-104553907D02*
X277230134Y-104515812D01*
X276277753Y-104782478D02*
X276277753Y-105315812D01*
X276468229Y-104477717D02*
X276658706Y-105049145D01*
X276658706Y-105049145D02*
X276163467Y-105049145D01*
X278182515Y-107855812D02*
X278182515Y-107055812D01*
X278182515Y-107055812D02*
X277877753Y-107055812D01*
X277877753Y-107055812D02*
X277801563Y-107093907D01*
X277801563Y-107093907D02*
X277763468Y-107132002D01*
X277763468Y-107132002D02*
X277725372Y-107208193D01*
X277725372Y-107208193D02*
X277725372Y-107322478D01*
X277725372Y-107322478D02*
X277763468Y-107398669D01*
X277763468Y-107398669D02*
X277801563Y-107436764D01*
X277801563Y-107436764D02*
X277877753Y-107474859D01*
X277877753Y-107474859D02*
X278182515Y-107474859D01*
X277230134Y-107055812D02*
X277153944Y-107055812D01*
X277153944Y-107055812D02*
X277077753Y-107093907D01*
X277077753Y-107093907D02*
X277039658Y-107132002D01*
X277039658Y-107132002D02*
X277001563Y-107208193D01*
X277001563Y-107208193D02*
X276963468Y-107360574D01*
X276963468Y-107360574D02*
X276963468Y-107551050D01*
X276963468Y-107551050D02*
X277001563Y-107703431D01*
X277001563Y-107703431D02*
X277039658Y-107779621D01*
X277039658Y-107779621D02*
X277077753Y-107817717D01*
X277077753Y-107817717D02*
X277153944Y-107855812D01*
X277153944Y-107855812D02*
X277230134Y-107855812D01*
X277230134Y-107855812D02*
X277306325Y-107817717D01*
X277306325Y-107817717D02*
X277344420Y-107779621D01*
X277344420Y-107779621D02*
X277382515Y-107703431D01*
X277382515Y-107703431D02*
X277420611Y-107551050D01*
X277420611Y-107551050D02*
X277420611Y-107360574D01*
X277420611Y-107360574D02*
X277382515Y-107208193D01*
X277382515Y-107208193D02*
X277344420Y-107132002D01*
X277344420Y-107132002D02*
X277306325Y-107093907D01*
X277306325Y-107093907D02*
X277230134Y-107055812D01*
X276239658Y-107055812D02*
X276620610Y-107055812D01*
X276620610Y-107055812D02*
X276658706Y-107436764D01*
X276658706Y-107436764D02*
X276620610Y-107398669D01*
X276620610Y-107398669D02*
X276544420Y-107360574D01*
X276544420Y-107360574D02*
X276353944Y-107360574D01*
X276353944Y-107360574D02*
X276277753Y-107398669D01*
X276277753Y-107398669D02*
X276239658Y-107436764D01*
X276239658Y-107436764D02*
X276201563Y-107512955D01*
X276201563Y-107512955D02*
X276201563Y-107703431D01*
X276201563Y-107703431D02*
X276239658Y-107779621D01*
X276239658Y-107779621D02*
X276277753Y-107817717D01*
X276277753Y-107817717D02*
X276353944Y-107855812D01*
X276353944Y-107855812D02*
X276544420Y-107855812D01*
X276544420Y-107855812D02*
X276620610Y-107817717D01*
X276620610Y-107817717D02*
X276658706Y-107779621D01*
X278182515Y-110395812D02*
X278182515Y-109595812D01*
X278182515Y-109595812D02*
X277877753Y-109595812D01*
X277877753Y-109595812D02*
X277801563Y-109633907D01*
X277801563Y-109633907D02*
X277763468Y-109672002D01*
X277763468Y-109672002D02*
X277725372Y-109748193D01*
X277725372Y-109748193D02*
X277725372Y-109862478D01*
X277725372Y-109862478D02*
X277763468Y-109938669D01*
X277763468Y-109938669D02*
X277801563Y-109976764D01*
X277801563Y-109976764D02*
X277877753Y-110014859D01*
X277877753Y-110014859D02*
X278182515Y-110014859D01*
X277230134Y-109595812D02*
X277153944Y-109595812D01*
X277153944Y-109595812D02*
X277077753Y-109633907D01*
X277077753Y-109633907D02*
X277039658Y-109672002D01*
X277039658Y-109672002D02*
X277001563Y-109748193D01*
X277001563Y-109748193D02*
X276963468Y-109900574D01*
X276963468Y-109900574D02*
X276963468Y-110091050D01*
X276963468Y-110091050D02*
X277001563Y-110243431D01*
X277001563Y-110243431D02*
X277039658Y-110319621D01*
X277039658Y-110319621D02*
X277077753Y-110357717D01*
X277077753Y-110357717D02*
X277153944Y-110395812D01*
X277153944Y-110395812D02*
X277230134Y-110395812D01*
X277230134Y-110395812D02*
X277306325Y-110357717D01*
X277306325Y-110357717D02*
X277344420Y-110319621D01*
X277344420Y-110319621D02*
X277382515Y-110243431D01*
X277382515Y-110243431D02*
X277420611Y-110091050D01*
X277420611Y-110091050D02*
X277420611Y-109900574D01*
X277420611Y-109900574D02*
X277382515Y-109748193D01*
X277382515Y-109748193D02*
X277344420Y-109672002D01*
X277344420Y-109672002D02*
X277306325Y-109633907D01*
X277306325Y-109633907D02*
X277230134Y-109595812D01*
X276277753Y-109595812D02*
X276430134Y-109595812D01*
X276430134Y-109595812D02*
X276506325Y-109633907D01*
X276506325Y-109633907D02*
X276544420Y-109672002D01*
X276544420Y-109672002D02*
X276620610Y-109786288D01*
X276620610Y-109786288D02*
X276658706Y-109938669D01*
X276658706Y-109938669D02*
X276658706Y-110243431D01*
X276658706Y-110243431D02*
X276620610Y-110319621D01*
X276620610Y-110319621D02*
X276582515Y-110357717D01*
X276582515Y-110357717D02*
X276506325Y-110395812D01*
X276506325Y-110395812D02*
X276353944Y-110395812D01*
X276353944Y-110395812D02*
X276277753Y-110357717D01*
X276277753Y-110357717D02*
X276239658Y-110319621D01*
X276239658Y-110319621D02*
X276201563Y-110243431D01*
X276201563Y-110243431D02*
X276201563Y-110052955D01*
X276201563Y-110052955D02*
X276239658Y-109976764D01*
X276239658Y-109976764D02*
X276277753Y-109938669D01*
X276277753Y-109938669D02*
X276353944Y-109900574D01*
X276353944Y-109900574D02*
X276506325Y-109900574D01*
X276506325Y-109900574D02*
X276582515Y-109938669D01*
X276582515Y-109938669D02*
X276620610Y-109976764D01*
X276620610Y-109976764D02*
X276658706Y-110052955D01*
X278182515Y-112935812D02*
X278182515Y-112135812D01*
X278182515Y-112135812D02*
X277877753Y-112135812D01*
X277877753Y-112135812D02*
X277801563Y-112173907D01*
X277801563Y-112173907D02*
X277763468Y-112212002D01*
X277763468Y-112212002D02*
X277725372Y-112288193D01*
X277725372Y-112288193D02*
X277725372Y-112402478D01*
X277725372Y-112402478D02*
X277763468Y-112478669D01*
X277763468Y-112478669D02*
X277801563Y-112516764D01*
X277801563Y-112516764D02*
X277877753Y-112554859D01*
X277877753Y-112554859D02*
X278182515Y-112554859D01*
X277230134Y-112135812D02*
X277153944Y-112135812D01*
X277153944Y-112135812D02*
X277077753Y-112173907D01*
X277077753Y-112173907D02*
X277039658Y-112212002D01*
X277039658Y-112212002D02*
X277001563Y-112288193D01*
X277001563Y-112288193D02*
X276963468Y-112440574D01*
X276963468Y-112440574D02*
X276963468Y-112631050D01*
X276963468Y-112631050D02*
X277001563Y-112783431D01*
X277001563Y-112783431D02*
X277039658Y-112859621D01*
X277039658Y-112859621D02*
X277077753Y-112897717D01*
X277077753Y-112897717D02*
X277153944Y-112935812D01*
X277153944Y-112935812D02*
X277230134Y-112935812D01*
X277230134Y-112935812D02*
X277306325Y-112897717D01*
X277306325Y-112897717D02*
X277344420Y-112859621D01*
X277344420Y-112859621D02*
X277382515Y-112783431D01*
X277382515Y-112783431D02*
X277420611Y-112631050D01*
X277420611Y-112631050D02*
X277420611Y-112440574D01*
X277420611Y-112440574D02*
X277382515Y-112288193D01*
X277382515Y-112288193D02*
X277344420Y-112212002D01*
X277344420Y-112212002D02*
X277306325Y-112173907D01*
X277306325Y-112173907D02*
X277230134Y-112135812D01*
X276696801Y-112135812D02*
X276163467Y-112135812D01*
X276163467Y-112135812D02*
X276506325Y-112935812D01*
X278182515Y-115475812D02*
X278182515Y-114675812D01*
X278182515Y-114675812D02*
X277877753Y-114675812D01*
X277877753Y-114675812D02*
X277801563Y-114713907D01*
X277801563Y-114713907D02*
X277763468Y-114752002D01*
X277763468Y-114752002D02*
X277725372Y-114828193D01*
X277725372Y-114828193D02*
X277725372Y-114942478D01*
X277725372Y-114942478D02*
X277763468Y-115018669D01*
X277763468Y-115018669D02*
X277801563Y-115056764D01*
X277801563Y-115056764D02*
X277877753Y-115094859D01*
X277877753Y-115094859D02*
X278182515Y-115094859D01*
X277230134Y-114675812D02*
X277153944Y-114675812D01*
X277153944Y-114675812D02*
X277077753Y-114713907D01*
X277077753Y-114713907D02*
X277039658Y-114752002D01*
X277039658Y-114752002D02*
X277001563Y-114828193D01*
X277001563Y-114828193D02*
X276963468Y-114980574D01*
X276963468Y-114980574D02*
X276963468Y-115171050D01*
X276963468Y-115171050D02*
X277001563Y-115323431D01*
X277001563Y-115323431D02*
X277039658Y-115399621D01*
X277039658Y-115399621D02*
X277077753Y-115437717D01*
X277077753Y-115437717D02*
X277153944Y-115475812D01*
X277153944Y-115475812D02*
X277230134Y-115475812D01*
X277230134Y-115475812D02*
X277306325Y-115437717D01*
X277306325Y-115437717D02*
X277344420Y-115399621D01*
X277344420Y-115399621D02*
X277382515Y-115323431D01*
X277382515Y-115323431D02*
X277420611Y-115171050D01*
X277420611Y-115171050D02*
X277420611Y-114980574D01*
X277420611Y-114980574D02*
X277382515Y-114828193D01*
X277382515Y-114828193D02*
X277344420Y-114752002D01*
X277344420Y-114752002D02*
X277306325Y-114713907D01*
X277306325Y-114713907D02*
X277230134Y-114675812D01*
X276506325Y-115018669D02*
X276582515Y-114980574D01*
X276582515Y-114980574D02*
X276620610Y-114942478D01*
X276620610Y-114942478D02*
X276658706Y-114866288D01*
X276658706Y-114866288D02*
X276658706Y-114828193D01*
X276658706Y-114828193D02*
X276620610Y-114752002D01*
X276620610Y-114752002D02*
X276582515Y-114713907D01*
X276582515Y-114713907D02*
X276506325Y-114675812D01*
X276506325Y-114675812D02*
X276353944Y-114675812D01*
X276353944Y-114675812D02*
X276277753Y-114713907D01*
X276277753Y-114713907D02*
X276239658Y-114752002D01*
X276239658Y-114752002D02*
X276201563Y-114828193D01*
X276201563Y-114828193D02*
X276201563Y-114866288D01*
X276201563Y-114866288D02*
X276239658Y-114942478D01*
X276239658Y-114942478D02*
X276277753Y-114980574D01*
X276277753Y-114980574D02*
X276353944Y-115018669D01*
X276353944Y-115018669D02*
X276506325Y-115018669D01*
X276506325Y-115018669D02*
X276582515Y-115056764D01*
X276582515Y-115056764D02*
X276620610Y-115094859D01*
X276620610Y-115094859D02*
X276658706Y-115171050D01*
X276658706Y-115171050D02*
X276658706Y-115323431D01*
X276658706Y-115323431D02*
X276620610Y-115399621D01*
X276620610Y-115399621D02*
X276582515Y-115437717D01*
X276582515Y-115437717D02*
X276506325Y-115475812D01*
X276506325Y-115475812D02*
X276353944Y-115475812D01*
X276353944Y-115475812D02*
X276277753Y-115437717D01*
X276277753Y-115437717D02*
X276239658Y-115399621D01*
X276239658Y-115399621D02*
X276201563Y-115323431D01*
X276201563Y-115323431D02*
X276201563Y-115171050D01*
X276201563Y-115171050D02*
X276239658Y-115094859D01*
X276239658Y-115094859D02*
X276277753Y-115056764D01*
X276277753Y-115056764D02*
X276353944Y-115018669D01*
X278182515Y-118015812D02*
X278182515Y-117215812D01*
X278182515Y-117215812D02*
X277877753Y-117215812D01*
X277877753Y-117215812D02*
X277801563Y-117253907D01*
X277801563Y-117253907D02*
X277763468Y-117292002D01*
X277763468Y-117292002D02*
X277725372Y-117368193D01*
X277725372Y-117368193D02*
X277725372Y-117482478D01*
X277725372Y-117482478D02*
X277763468Y-117558669D01*
X277763468Y-117558669D02*
X277801563Y-117596764D01*
X277801563Y-117596764D02*
X277877753Y-117634859D01*
X277877753Y-117634859D02*
X278182515Y-117634859D01*
X277230134Y-117215812D02*
X277153944Y-117215812D01*
X277153944Y-117215812D02*
X277077753Y-117253907D01*
X277077753Y-117253907D02*
X277039658Y-117292002D01*
X277039658Y-117292002D02*
X277001563Y-117368193D01*
X277001563Y-117368193D02*
X276963468Y-117520574D01*
X276963468Y-117520574D02*
X276963468Y-117711050D01*
X276963468Y-117711050D02*
X277001563Y-117863431D01*
X277001563Y-117863431D02*
X277039658Y-117939621D01*
X277039658Y-117939621D02*
X277077753Y-117977717D01*
X277077753Y-117977717D02*
X277153944Y-118015812D01*
X277153944Y-118015812D02*
X277230134Y-118015812D01*
X277230134Y-118015812D02*
X277306325Y-117977717D01*
X277306325Y-117977717D02*
X277344420Y-117939621D01*
X277344420Y-117939621D02*
X277382515Y-117863431D01*
X277382515Y-117863431D02*
X277420611Y-117711050D01*
X277420611Y-117711050D02*
X277420611Y-117520574D01*
X277420611Y-117520574D02*
X277382515Y-117368193D01*
X277382515Y-117368193D02*
X277344420Y-117292002D01*
X277344420Y-117292002D02*
X277306325Y-117253907D01*
X277306325Y-117253907D02*
X277230134Y-117215812D01*
X276582515Y-118015812D02*
X276430134Y-118015812D01*
X276430134Y-118015812D02*
X276353944Y-117977717D01*
X276353944Y-117977717D02*
X276315848Y-117939621D01*
X276315848Y-117939621D02*
X276239658Y-117825336D01*
X276239658Y-117825336D02*
X276201563Y-117672955D01*
X276201563Y-117672955D02*
X276201563Y-117368193D01*
X276201563Y-117368193D02*
X276239658Y-117292002D01*
X276239658Y-117292002D02*
X276277753Y-117253907D01*
X276277753Y-117253907D02*
X276353944Y-117215812D01*
X276353944Y-117215812D02*
X276506325Y-117215812D01*
X276506325Y-117215812D02*
X276582515Y-117253907D01*
X276582515Y-117253907D02*
X276620610Y-117292002D01*
X276620610Y-117292002D02*
X276658706Y-117368193D01*
X276658706Y-117368193D02*
X276658706Y-117558669D01*
X276658706Y-117558669D02*
X276620610Y-117634859D01*
X276620610Y-117634859D02*
X276582515Y-117672955D01*
X276582515Y-117672955D02*
X276506325Y-117711050D01*
X276506325Y-117711050D02*
X276353944Y-117711050D01*
X276353944Y-117711050D02*
X276277753Y-117672955D01*
X276277753Y-117672955D02*
X276239658Y-117634859D01*
X276239658Y-117634859D02*
X276201563Y-117558669D01*
%TO.C,_2*%
X257511087Y-128626764D02*
X257396801Y-128664859D01*
X257396801Y-128664859D02*
X257358706Y-128702955D01*
X257358706Y-128702955D02*
X257320610Y-128779145D01*
X257320610Y-128779145D02*
X257320610Y-128893431D01*
X257320610Y-128893431D02*
X257358706Y-128969621D01*
X257358706Y-128969621D02*
X257396801Y-129007717D01*
X257396801Y-129007717D02*
X257472991Y-129045812D01*
X257472991Y-129045812D02*
X257777753Y-129045812D01*
X257777753Y-129045812D02*
X257777753Y-128245812D01*
X257777753Y-128245812D02*
X257511087Y-128245812D01*
X257511087Y-128245812D02*
X257434896Y-128283907D01*
X257434896Y-128283907D02*
X257396801Y-128322002D01*
X257396801Y-128322002D02*
X257358706Y-128398193D01*
X257358706Y-128398193D02*
X257358706Y-128474383D01*
X257358706Y-128474383D02*
X257396801Y-128550574D01*
X257396801Y-128550574D02*
X257434896Y-128588669D01*
X257434896Y-128588669D02*
X257511087Y-128626764D01*
X257511087Y-128626764D02*
X257777753Y-128626764D01*
X256977753Y-128512478D02*
X256977753Y-129312478D01*
X256977753Y-128550574D02*
X256901563Y-128512478D01*
X256901563Y-128512478D02*
X256749182Y-128512478D01*
X256749182Y-128512478D02*
X256672991Y-128550574D01*
X256672991Y-128550574D02*
X256634896Y-128588669D01*
X256634896Y-128588669D02*
X256596801Y-128664859D01*
X256596801Y-128664859D02*
X256596801Y-128893431D01*
X256596801Y-128893431D02*
X256634896Y-128969621D01*
X256634896Y-128969621D02*
X256672991Y-129007717D01*
X256672991Y-129007717D02*
X256749182Y-129045812D01*
X256749182Y-129045812D02*
X256901563Y-129045812D01*
X256901563Y-129045812D02*
X256977753Y-129007717D01*
X256139658Y-129045812D02*
X256215848Y-129007717D01*
X256215848Y-129007717D02*
X256253943Y-128931526D01*
X256253943Y-128931526D02*
X256253943Y-128245812D01*
X255492038Y-128512478D02*
X255492038Y-129045812D01*
X255834895Y-128512478D02*
X255834895Y-128931526D01*
X255834895Y-128931526D02*
X255796800Y-129007717D01*
X255796800Y-129007717D02*
X255720610Y-129045812D01*
X255720610Y-129045812D02*
X255606324Y-129045812D01*
X255606324Y-129045812D02*
X255530133Y-129007717D01*
X255530133Y-129007717D02*
X255492038Y-128969621D01*
X255149181Y-129007717D02*
X255072990Y-129045812D01*
X255072990Y-129045812D02*
X254920609Y-129045812D01*
X254920609Y-129045812D02*
X254844419Y-129007717D01*
X254844419Y-129007717D02*
X254806323Y-128931526D01*
X254806323Y-128931526D02*
X254806323Y-128893431D01*
X254806323Y-128893431D02*
X254844419Y-128817240D01*
X254844419Y-128817240D02*
X254920609Y-128779145D01*
X254920609Y-128779145D02*
X255034895Y-128779145D01*
X255034895Y-128779145D02*
X255111085Y-128741050D01*
X255111085Y-128741050D02*
X255149181Y-128664859D01*
X255149181Y-128664859D02*
X255149181Y-128626764D01*
X255149181Y-128626764D02*
X255111085Y-128550574D01*
X255111085Y-128550574D02*
X255034895Y-128512478D01*
X255034895Y-128512478D02*
X254920609Y-128512478D01*
X254920609Y-128512478D02*
X254844419Y-128550574D01*
X257920610Y-130283907D02*
X257996800Y-130245812D01*
X257996800Y-130245812D02*
X258111086Y-130245812D01*
X258111086Y-130245812D02*
X258225372Y-130283907D01*
X258225372Y-130283907D02*
X258301562Y-130360097D01*
X258301562Y-130360097D02*
X258339657Y-130436288D01*
X258339657Y-130436288D02*
X258377753Y-130588669D01*
X258377753Y-130588669D02*
X258377753Y-130702955D01*
X258377753Y-130702955D02*
X258339657Y-130855336D01*
X258339657Y-130855336D02*
X258301562Y-130931526D01*
X258301562Y-130931526D02*
X258225372Y-131007717D01*
X258225372Y-131007717D02*
X258111086Y-131045812D01*
X258111086Y-131045812D02*
X258034895Y-131045812D01*
X258034895Y-131045812D02*
X257920610Y-131007717D01*
X257920610Y-131007717D02*
X257882514Y-130969621D01*
X257882514Y-130969621D02*
X257882514Y-130702955D01*
X257882514Y-130702955D02*
X258034895Y-130702955D01*
X257539657Y-131045812D02*
X257539657Y-130245812D01*
X257539657Y-130245812D02*
X257082514Y-131045812D01*
X257082514Y-131045812D02*
X257082514Y-130245812D01*
X256701562Y-131045812D02*
X256701562Y-130245812D01*
X256701562Y-130245812D02*
X256511086Y-130245812D01*
X256511086Y-130245812D02*
X256396800Y-130283907D01*
X256396800Y-130283907D02*
X256320610Y-130360097D01*
X256320610Y-130360097D02*
X256282515Y-130436288D01*
X256282515Y-130436288D02*
X256244419Y-130588669D01*
X256244419Y-130588669D02*
X256244419Y-130702955D01*
X256244419Y-130702955D02*
X256282515Y-130855336D01*
X256282515Y-130855336D02*
X256320610Y-130931526D01*
X256320610Y-130931526D02*
X256396800Y-131007717D01*
X256396800Y-131007717D02*
X256511086Y-131045812D01*
X256511086Y-131045812D02*
X256701562Y-131045812D01*
%TO.C,PAD1*%
X269361087Y-128326764D02*
X269246801Y-128364859D01*
X269246801Y-128364859D02*
X269208706Y-128402955D01*
X269208706Y-128402955D02*
X269170610Y-128479145D01*
X269170610Y-128479145D02*
X269170610Y-128593431D01*
X269170610Y-128593431D02*
X269208706Y-128669621D01*
X269208706Y-128669621D02*
X269246801Y-128707717D01*
X269246801Y-128707717D02*
X269322991Y-128745812D01*
X269322991Y-128745812D02*
X269627753Y-128745812D01*
X269627753Y-128745812D02*
X269627753Y-127945812D01*
X269627753Y-127945812D02*
X269361087Y-127945812D01*
X269361087Y-127945812D02*
X269284896Y-127983907D01*
X269284896Y-127983907D02*
X269246801Y-128022002D01*
X269246801Y-128022002D02*
X269208706Y-128098193D01*
X269208706Y-128098193D02*
X269208706Y-128174383D01*
X269208706Y-128174383D02*
X269246801Y-128250574D01*
X269246801Y-128250574D02*
X269284896Y-128288669D01*
X269284896Y-128288669D02*
X269361087Y-128326764D01*
X269361087Y-128326764D02*
X269627753Y-128326764D01*
X268827753Y-128212478D02*
X268827753Y-129012478D01*
X268827753Y-128250574D02*
X268751563Y-128212478D01*
X268751563Y-128212478D02*
X268599182Y-128212478D01*
X268599182Y-128212478D02*
X268522991Y-128250574D01*
X268522991Y-128250574D02*
X268484896Y-128288669D01*
X268484896Y-128288669D02*
X268446801Y-128364859D01*
X268446801Y-128364859D02*
X268446801Y-128593431D01*
X268446801Y-128593431D02*
X268484896Y-128669621D01*
X268484896Y-128669621D02*
X268522991Y-128707717D01*
X268522991Y-128707717D02*
X268599182Y-128745812D01*
X268599182Y-128745812D02*
X268751563Y-128745812D01*
X268751563Y-128745812D02*
X268827753Y-128707717D01*
X267989658Y-128745812D02*
X268065848Y-128707717D01*
X268065848Y-128707717D02*
X268103943Y-128631526D01*
X268103943Y-128631526D02*
X268103943Y-127945812D01*
X267342038Y-128212478D02*
X267342038Y-128745812D01*
X267684895Y-128212478D02*
X267684895Y-128631526D01*
X267684895Y-128631526D02*
X267646800Y-128707717D01*
X267646800Y-128707717D02*
X267570610Y-128745812D01*
X267570610Y-128745812D02*
X267456324Y-128745812D01*
X267456324Y-128745812D02*
X267380133Y-128707717D01*
X267380133Y-128707717D02*
X267342038Y-128669621D01*
X266999181Y-128707717D02*
X266922990Y-128745812D01*
X266922990Y-128745812D02*
X266770609Y-128745812D01*
X266770609Y-128745812D02*
X266694419Y-128707717D01*
X266694419Y-128707717D02*
X266656323Y-128631526D01*
X266656323Y-128631526D02*
X266656323Y-128593431D01*
X266656323Y-128593431D02*
X266694419Y-128517240D01*
X266694419Y-128517240D02*
X266770609Y-128479145D01*
X266770609Y-128479145D02*
X266884895Y-128479145D01*
X266884895Y-128479145D02*
X266961085Y-128441050D01*
X266961085Y-128441050D02*
X266999181Y-128364859D01*
X266999181Y-128364859D02*
X266999181Y-128326764D01*
X266999181Y-128326764D02*
X266961085Y-128250574D01*
X266961085Y-128250574D02*
X266884895Y-128212478D01*
X266884895Y-128212478D02*
X266770609Y-128212478D01*
X266770609Y-128212478D02*
X266694419Y-128250574D01*
%TO.C,PAD2*%
X267770610Y-130583907D02*
X267846800Y-130545812D01*
X267846800Y-130545812D02*
X267961086Y-130545812D01*
X267961086Y-130545812D02*
X268075372Y-130583907D01*
X268075372Y-130583907D02*
X268151562Y-130660097D01*
X268151562Y-130660097D02*
X268189657Y-130736288D01*
X268189657Y-130736288D02*
X268227753Y-130888669D01*
X268227753Y-130888669D02*
X268227753Y-131002955D01*
X268227753Y-131002955D02*
X268189657Y-131155336D01*
X268189657Y-131155336D02*
X268151562Y-131231526D01*
X268151562Y-131231526D02*
X268075372Y-131307717D01*
X268075372Y-131307717D02*
X267961086Y-131345812D01*
X267961086Y-131345812D02*
X267884895Y-131345812D01*
X267884895Y-131345812D02*
X267770610Y-131307717D01*
X267770610Y-131307717D02*
X267732514Y-131269621D01*
X267732514Y-131269621D02*
X267732514Y-131002955D01*
X267732514Y-131002955D02*
X267884895Y-131002955D01*
X267389657Y-131345812D02*
X267389657Y-130545812D01*
X267389657Y-130545812D02*
X266932514Y-131345812D01*
X266932514Y-131345812D02*
X266932514Y-130545812D01*
X266551562Y-131345812D02*
X266551562Y-130545812D01*
X266551562Y-130545812D02*
X266361086Y-130545812D01*
X266361086Y-130545812D02*
X266246800Y-130583907D01*
X266246800Y-130583907D02*
X266170610Y-130660097D01*
X266170610Y-130660097D02*
X266132515Y-130736288D01*
X266132515Y-130736288D02*
X266094419Y-130888669D01*
X266094419Y-130888669D02*
X266094419Y-131002955D01*
X266094419Y-131002955D02*
X266132515Y-131155336D01*
X266132515Y-131155336D02*
X266170610Y-131231526D01*
X266170610Y-131231526D02*
X266246800Y-131307717D01*
X266246800Y-131307717D02*
X266361086Y-131345812D01*
X266361086Y-131345812D02*
X266551562Y-131345812D01*
%TO.C,TRRS_B*%
X274822991Y-139192336D02*
X274251563Y-139192336D01*
X274537277Y-140192336D02*
X274537277Y-139192336D01*
X273346801Y-140192336D02*
X273680134Y-139716145D01*
X273918229Y-140192336D02*
X273918229Y-139192336D01*
X273918229Y-139192336D02*
X273537277Y-139192336D01*
X273537277Y-139192336D02*
X273442039Y-139239955D01*
X273442039Y-139239955D02*
X273394420Y-139287574D01*
X273394420Y-139287574D02*
X273346801Y-139382812D01*
X273346801Y-139382812D02*
X273346801Y-139525669D01*
X273346801Y-139525669D02*
X273394420Y-139620907D01*
X273394420Y-139620907D02*
X273442039Y-139668526D01*
X273442039Y-139668526D02*
X273537277Y-139716145D01*
X273537277Y-139716145D02*
X273918229Y-139716145D01*
X272346801Y-140192336D02*
X272680134Y-139716145D01*
X272918229Y-140192336D02*
X272918229Y-139192336D01*
X272918229Y-139192336D02*
X272537277Y-139192336D01*
X272537277Y-139192336D02*
X272442039Y-139239955D01*
X272442039Y-139239955D02*
X272394420Y-139287574D01*
X272394420Y-139287574D02*
X272346801Y-139382812D01*
X272346801Y-139382812D02*
X272346801Y-139525669D01*
X272346801Y-139525669D02*
X272394420Y-139620907D01*
X272394420Y-139620907D02*
X272442039Y-139668526D01*
X272442039Y-139668526D02*
X272537277Y-139716145D01*
X272537277Y-139716145D02*
X272918229Y-139716145D01*
X271965848Y-140144717D02*
X271822991Y-140192336D01*
X271822991Y-140192336D02*
X271584896Y-140192336D01*
X271584896Y-140192336D02*
X271489658Y-140144717D01*
X271489658Y-140144717D02*
X271442039Y-140097097D01*
X271442039Y-140097097D02*
X271394420Y-140001859D01*
X271394420Y-140001859D02*
X271394420Y-139906621D01*
X271394420Y-139906621D02*
X271442039Y-139811383D01*
X271442039Y-139811383D02*
X271489658Y-139763764D01*
X271489658Y-139763764D02*
X271584896Y-139716145D01*
X271584896Y-139716145D02*
X271775372Y-139668526D01*
X271775372Y-139668526D02*
X271870610Y-139620907D01*
X271870610Y-139620907D02*
X271918229Y-139573288D01*
X271918229Y-139573288D02*
X271965848Y-139478050D01*
X271965848Y-139478050D02*
X271965848Y-139382812D01*
X271965848Y-139382812D02*
X271918229Y-139287574D01*
X271918229Y-139287574D02*
X271870610Y-139239955D01*
X271870610Y-139239955D02*
X271775372Y-139192336D01*
X271775372Y-139192336D02*
X271537277Y-139192336D01*
X271537277Y-139192336D02*
X271394420Y-139239955D01*
%TO.C,J1*%
X268865906Y-130516850D02*
X269580191Y-130516850D01*
X269580191Y-130516850D02*
X269723048Y-130469231D01*
X269723048Y-130469231D02*
X269818287Y-130373993D01*
X269818287Y-130373993D02*
X269865906Y-130231136D01*
X269865906Y-130231136D02*
X269865906Y-130135898D01*
X269199239Y-131421612D02*
X269865906Y-131421612D01*
X269199239Y-130993041D02*
X269723048Y-130993041D01*
X269723048Y-130993041D02*
X269818287Y-131040660D01*
X269818287Y-131040660D02*
X269865906Y-131135898D01*
X269865906Y-131135898D02*
X269865906Y-131278755D01*
X269865906Y-131278755D02*
X269818287Y-131373993D01*
X269818287Y-131373993D02*
X269770667Y-131421612D01*
X269865906Y-131897803D02*
X269199239Y-131897803D01*
X269294477Y-131897803D02*
X269246858Y-131945422D01*
X269246858Y-131945422D02*
X269199239Y-132040660D01*
X269199239Y-132040660D02*
X269199239Y-132183517D01*
X269199239Y-132183517D02*
X269246858Y-132278755D01*
X269246858Y-132278755D02*
X269342096Y-132326374D01*
X269342096Y-132326374D02*
X269865906Y-132326374D01*
X269342096Y-132326374D02*
X269246858Y-132373993D01*
X269246858Y-132373993D02*
X269199239Y-132469231D01*
X269199239Y-132469231D02*
X269199239Y-132612088D01*
X269199239Y-132612088D02*
X269246858Y-132707327D01*
X269246858Y-132707327D02*
X269342096Y-132754946D01*
X269342096Y-132754946D02*
X269865906Y-132754946D01*
X269199239Y-133231136D02*
X270199239Y-133231136D01*
X269246858Y-133231136D02*
X269199239Y-133326374D01*
X269199239Y-133326374D02*
X269199239Y-133516850D01*
X269199239Y-133516850D02*
X269246858Y-133612088D01*
X269246858Y-133612088D02*
X269294477Y-133659707D01*
X269294477Y-133659707D02*
X269389715Y-133707326D01*
X269389715Y-133707326D02*
X269675429Y-133707326D01*
X269675429Y-133707326D02*
X269770667Y-133659707D01*
X269770667Y-133659707D02*
X269818287Y-133612088D01*
X269818287Y-133612088D02*
X269865906Y-133516850D01*
X269865906Y-133516850D02*
X269865906Y-133326374D01*
X269865906Y-133326374D02*
X269818287Y-133231136D01*
X269818287Y-134516850D02*
X269865906Y-134421612D01*
X269865906Y-134421612D02*
X269865906Y-134231136D01*
X269865906Y-134231136D02*
X269818287Y-134135898D01*
X269818287Y-134135898D02*
X269723048Y-134088279D01*
X269723048Y-134088279D02*
X269342096Y-134088279D01*
X269342096Y-134088279D02*
X269246858Y-134135898D01*
X269246858Y-134135898D02*
X269199239Y-134231136D01*
X269199239Y-134231136D02*
X269199239Y-134421612D01*
X269199239Y-134421612D02*
X269246858Y-134516850D01*
X269246858Y-134516850D02*
X269342096Y-134564469D01*
X269342096Y-134564469D02*
X269437334Y-134564469D01*
X269437334Y-134564469D02*
X269532572Y-134088279D01*
X269865906Y-134993041D02*
X269199239Y-134993041D01*
X269389715Y-134993041D02*
X269294477Y-135040660D01*
X269294477Y-135040660D02*
X269246858Y-135088279D01*
X269246858Y-135088279D02*
X269199239Y-135183517D01*
X269199239Y-135183517D02*
X269199239Y-135278755D01*
%TO.C,_3*%
X273565906Y-128516850D02*
X273565906Y-128707326D01*
X273565906Y-128707326D02*
X273613525Y-128802564D01*
X273613525Y-128802564D02*
X273708763Y-128897802D01*
X273708763Y-128897802D02*
X273899239Y-128945421D01*
X273899239Y-128945421D02*
X274232572Y-128945421D01*
X274232572Y-128945421D02*
X274423048Y-128897802D01*
X274423048Y-128897802D02*
X274518287Y-128802564D01*
X274518287Y-128802564D02*
X274565906Y-128707326D01*
X274565906Y-128707326D02*
X274565906Y-128516850D01*
X274565906Y-128516850D02*
X274518287Y-128421612D01*
X274518287Y-128421612D02*
X274423048Y-128326374D01*
X274423048Y-128326374D02*
X274232572Y-128278755D01*
X274232572Y-128278755D02*
X273899239Y-128278755D01*
X273899239Y-128278755D02*
X273708763Y-128326374D01*
X273708763Y-128326374D02*
X273613525Y-128421612D01*
X273613525Y-128421612D02*
X273565906Y-128516850D01*
X273899239Y-129373993D02*
X274565906Y-129373993D01*
X273994477Y-129373993D02*
X273946858Y-129421612D01*
X273946858Y-129421612D02*
X273899239Y-129516850D01*
X273899239Y-129516850D02*
X273899239Y-129659707D01*
X273899239Y-129659707D02*
X273946858Y-129754945D01*
X273946858Y-129754945D02*
X274042096Y-129802564D01*
X274042096Y-129802564D02*
X274565906Y-129802564D01*
X273518287Y-130993040D02*
X274804001Y-130135898D01*
X273565906Y-131516850D02*
X273565906Y-131707326D01*
X273565906Y-131707326D02*
X273613525Y-131802564D01*
X273613525Y-131802564D02*
X273708763Y-131897802D01*
X273708763Y-131897802D02*
X273899239Y-131945421D01*
X273899239Y-131945421D02*
X274232572Y-131945421D01*
X274232572Y-131945421D02*
X274423048Y-131897802D01*
X274423048Y-131897802D02*
X274518287Y-131802564D01*
X274518287Y-131802564D02*
X274565906Y-131707326D01*
X274565906Y-131707326D02*
X274565906Y-131516850D01*
X274565906Y-131516850D02*
X274518287Y-131421612D01*
X274518287Y-131421612D02*
X274423048Y-131326374D01*
X274423048Y-131326374D02*
X274232572Y-131278755D01*
X274232572Y-131278755D02*
X273899239Y-131278755D01*
X273899239Y-131278755D02*
X273708763Y-131326374D01*
X273708763Y-131326374D02*
X273613525Y-131421612D01*
X273613525Y-131421612D02*
X273565906Y-131516850D01*
X273899239Y-132231136D02*
X273899239Y-132612088D01*
X274565906Y-132373993D02*
X273708763Y-132373993D01*
X273708763Y-132373993D02*
X273613525Y-132421612D01*
X273613525Y-132421612D02*
X273565906Y-132516850D01*
X273565906Y-132516850D02*
X273565906Y-132612088D01*
X273899239Y-132802565D02*
X273899239Y-133183517D01*
X274565906Y-132945422D02*
X273708763Y-132945422D01*
X273708763Y-132945422D02*
X273613525Y-132993041D01*
X273613525Y-132993041D02*
X273565906Y-133088279D01*
X273565906Y-133088279D02*
X273565906Y-133183517D01*
%TO.C,_4_B*%
X263863468Y-138688336D02*
X264196801Y-138212145D01*
X264434896Y-138688336D02*
X264434896Y-137688336D01*
X264434896Y-137688336D02*
X264053944Y-137688336D01*
X264053944Y-137688336D02*
X263958706Y-137735955D01*
X263958706Y-137735955D02*
X263911087Y-137783574D01*
X263911087Y-137783574D02*
X263863468Y-137878812D01*
X263863468Y-137878812D02*
X263863468Y-138021669D01*
X263863468Y-138021669D02*
X263911087Y-138116907D01*
X263911087Y-138116907D02*
X263958706Y-138164526D01*
X263958706Y-138164526D02*
X264053944Y-138212145D01*
X264053944Y-138212145D02*
X264434896Y-138212145D01*
X263434896Y-138164526D02*
X263101563Y-138164526D01*
X262958706Y-138688336D02*
X263434896Y-138688336D01*
X263434896Y-138688336D02*
X263434896Y-137688336D01*
X263434896Y-137688336D02*
X262958706Y-137688336D01*
X262577753Y-138640717D02*
X262434896Y-138688336D01*
X262434896Y-138688336D02*
X262196801Y-138688336D01*
X262196801Y-138688336D02*
X262101563Y-138640717D01*
X262101563Y-138640717D02*
X262053944Y-138593097D01*
X262053944Y-138593097D02*
X262006325Y-138497859D01*
X262006325Y-138497859D02*
X262006325Y-138402621D01*
X262006325Y-138402621D02*
X262053944Y-138307383D01*
X262053944Y-138307383D02*
X262101563Y-138259764D01*
X262101563Y-138259764D02*
X262196801Y-138212145D01*
X262196801Y-138212145D02*
X262387277Y-138164526D01*
X262387277Y-138164526D02*
X262482515Y-138116907D01*
X262482515Y-138116907D02*
X262530134Y-138069288D01*
X262530134Y-138069288D02*
X262577753Y-137974050D01*
X262577753Y-137974050D02*
X262577753Y-137878812D01*
X262577753Y-137878812D02*
X262530134Y-137783574D01*
X262530134Y-137783574D02*
X262482515Y-137735955D01*
X262482515Y-137735955D02*
X262387277Y-137688336D01*
X262387277Y-137688336D02*
X262149182Y-137688336D01*
X262149182Y-137688336D02*
X262006325Y-137735955D01*
X261577753Y-138164526D02*
X261244420Y-138164526D01*
X261101563Y-138688336D02*
X261577753Y-138688336D01*
X261577753Y-138688336D02*
X261577753Y-137688336D01*
X261577753Y-137688336D02*
X261101563Y-137688336D01*
X260815848Y-137688336D02*
X260244420Y-137688336D01*
X260530134Y-138688336D02*
X260530134Y-137688336D01*
D11*
%TO.C,_7*%
X216147839Y-102828684D02*
X216147839Y-103209636D01*
X215814506Y-102971541D02*
X216671648Y-102971541D01*
X216671648Y-102971541D02*
X216766887Y-103019160D01*
X216766887Y-103019160D02*
X216814506Y-103114398D01*
X216814506Y-103114398D02*
X216814506Y-103209636D01*
X216766887Y-103923922D02*
X216814506Y-103828684D01*
X216814506Y-103828684D02*
X216814506Y-103638208D01*
X216814506Y-103638208D02*
X216766887Y-103542970D01*
X216766887Y-103542970D02*
X216671648Y-103495351D01*
X216671648Y-103495351D02*
X216290696Y-103495351D01*
X216290696Y-103495351D02*
X216195458Y-103542970D01*
X216195458Y-103542970D02*
X216147839Y-103638208D01*
X216147839Y-103638208D02*
X216147839Y-103828684D01*
X216147839Y-103828684D02*
X216195458Y-103923922D01*
X216195458Y-103923922D02*
X216290696Y-103971541D01*
X216290696Y-103971541D02*
X216385934Y-103971541D01*
X216385934Y-103971541D02*
X216481172Y-103495351D01*
X216147839Y-104400113D02*
X216814506Y-104400113D01*
X216243077Y-104400113D02*
X216195458Y-104447732D01*
X216195458Y-104447732D02*
X216147839Y-104542970D01*
X216147839Y-104542970D02*
X216147839Y-104685827D01*
X216147839Y-104685827D02*
X216195458Y-104781065D01*
X216195458Y-104781065D02*
X216290696Y-104828684D01*
X216290696Y-104828684D02*
X216814506Y-104828684D01*
X216147839Y-105162018D02*
X216147839Y-105542970D01*
X215814506Y-105304875D02*
X216671648Y-105304875D01*
X216671648Y-105304875D02*
X216766887Y-105352494D01*
X216766887Y-105352494D02*
X216814506Y-105447732D01*
X216814506Y-105447732D02*
X216814506Y-105542970D01*
X216814506Y-105876304D02*
X216147839Y-105876304D01*
X215814506Y-105876304D02*
X215862125Y-105828685D01*
X215862125Y-105828685D02*
X215909744Y-105876304D01*
X215909744Y-105876304D02*
X215862125Y-105923923D01*
X215862125Y-105923923D02*
X215814506Y-105876304D01*
X215814506Y-105876304D02*
X215909744Y-105876304D01*
X216147839Y-106352494D02*
X216814506Y-106352494D01*
X216243077Y-106352494D02*
X216195458Y-106400113D01*
X216195458Y-106400113D02*
X216147839Y-106495351D01*
X216147839Y-106495351D02*
X216147839Y-106638208D01*
X216147839Y-106638208D02*
X216195458Y-106733446D01*
X216195458Y-106733446D02*
X216290696Y-106781065D01*
X216290696Y-106781065D02*
X216814506Y-106781065D01*
X216147839Y-107685827D02*
X216957363Y-107685827D01*
X216957363Y-107685827D02*
X217052601Y-107638208D01*
X217052601Y-107638208D02*
X217100220Y-107590589D01*
X217100220Y-107590589D02*
X217147839Y-107495351D01*
X217147839Y-107495351D02*
X217147839Y-107352494D01*
X217147839Y-107352494D02*
X217100220Y-107257256D01*
X216766887Y-107685827D02*
X216814506Y-107590589D01*
X216814506Y-107590589D02*
X216814506Y-107400113D01*
X216814506Y-107400113D02*
X216766887Y-107304875D01*
X216766887Y-107304875D02*
X216719267Y-107257256D01*
X216719267Y-107257256D02*
X216624029Y-107209637D01*
X216624029Y-107209637D02*
X216338315Y-107209637D01*
X216338315Y-107209637D02*
X216243077Y-107257256D01*
X216243077Y-107257256D02*
X216195458Y-107304875D01*
X216195458Y-107304875D02*
X216147839Y-107400113D01*
X216147839Y-107400113D02*
X216147839Y-107590589D01*
X216147839Y-107590589D02*
X216195458Y-107685827D01*
X216211339Y-116782684D02*
X217211339Y-116782684D01*
X216258958Y-116782684D02*
X216211339Y-116877922D01*
X216211339Y-116877922D02*
X216211339Y-117068398D01*
X216211339Y-117068398D02*
X216258958Y-117163636D01*
X216258958Y-117163636D02*
X216306577Y-117211255D01*
X216306577Y-117211255D02*
X216401815Y-117258874D01*
X216401815Y-117258874D02*
X216687529Y-117258874D01*
X216687529Y-117258874D02*
X216782767Y-117211255D01*
X216782767Y-117211255D02*
X216830387Y-117163636D01*
X216830387Y-117163636D02*
X216878006Y-117068398D01*
X216878006Y-117068398D02*
X216878006Y-116877922D01*
X216878006Y-116877922D02*
X216830387Y-116782684D01*
X216211339Y-118116017D02*
X216878006Y-118116017D01*
X216211339Y-117687446D02*
X216735148Y-117687446D01*
X216735148Y-117687446D02*
X216830387Y-117735065D01*
X216830387Y-117735065D02*
X216878006Y-117830303D01*
X216878006Y-117830303D02*
X216878006Y-117973160D01*
X216878006Y-117973160D02*
X216830387Y-118068398D01*
X216830387Y-118068398D02*
X216782767Y-118116017D01*
X216830387Y-119020779D02*
X216878006Y-118925541D01*
X216878006Y-118925541D02*
X216878006Y-118735065D01*
X216878006Y-118735065D02*
X216830387Y-118639827D01*
X216830387Y-118639827D02*
X216782767Y-118592208D01*
X216782767Y-118592208D02*
X216687529Y-118544589D01*
X216687529Y-118544589D02*
X216401815Y-118544589D01*
X216401815Y-118544589D02*
X216306577Y-118592208D01*
X216306577Y-118592208D02*
X216258958Y-118639827D01*
X216258958Y-118639827D02*
X216211339Y-118735065D01*
X216211339Y-118735065D02*
X216211339Y-118925541D01*
X216211339Y-118925541D02*
X216258958Y-119020779D01*
X216878006Y-119449351D02*
X215878006Y-119449351D01*
X216497053Y-119544589D02*
X216878006Y-119830303D01*
X216211339Y-119830303D02*
X216592291Y-119449351D01*
D12*
%TO.C,S1*%
X179325448Y-143416743D02*
X179949787Y-143748710D01*
X176695610Y-144220766D02*
X179325448Y-143416743D01*
X180826902Y-146617624D02*
X180494935Y-147241963D01*
X180494935Y-147241963D02*
X177865097Y-148045985D01*
X171163360Y-144082184D02*
X171495326Y-143457846D01*
X177865097Y-148045985D02*
X175055575Y-146552135D01*
X175055575Y-146552135D02*
X172664813Y-147283065D01*
X173886088Y-142726916D02*
X176695610Y-144220766D01*
X171495326Y-143457846D02*
X173886088Y-142726916D01*
X172664813Y-147283065D02*
X172040475Y-146951098D01*
%TO.C,S2*%
X174355129Y-127159562D02*
X174979468Y-127491529D01*
X171725291Y-127963585D02*
X174355129Y-127159562D01*
X175856583Y-130360443D02*
X175524616Y-130984782D01*
X175524616Y-130984782D02*
X172894778Y-131788804D01*
X166193041Y-127825003D02*
X166525007Y-127200665D01*
X172894778Y-131788804D02*
X170085256Y-130294954D01*
X170085256Y-130294954D02*
X167694494Y-131025884D01*
X168915769Y-126469735D02*
X171725291Y-127963585D01*
X166525007Y-127200665D02*
X168915769Y-126469735D01*
X167694494Y-131025884D02*
X167070156Y-130693917D01*
%TO.C,S3*%
X169384810Y-110902381D02*
X170009149Y-111234348D01*
X166754972Y-111706404D02*
X169384810Y-110902381D01*
X170886264Y-114103262D02*
X170554297Y-114727601D01*
X170554297Y-114727601D02*
X167924459Y-115531623D01*
X161222722Y-111567822D02*
X161554688Y-110943484D01*
X167924459Y-115531623D02*
X165114937Y-114037773D01*
X165114937Y-114037773D02*
X162724175Y-114768703D01*
X163945450Y-110212554D02*
X166754972Y-111706404D01*
X161554688Y-110943484D02*
X163945450Y-110212554D01*
X162724175Y-114768703D02*
X162099837Y-114436736D01*
%TO.C,S4*%
X194447719Y-121990451D02*
X195026947Y-122396031D01*
X191739498Y-122467984D02*
X194447719Y-121990451D01*
X195547892Y-125350454D02*
X195142312Y-125929682D01*
X195142312Y-125929682D02*
X192434091Y-126407215D01*
X186265373Y-121656223D02*
X186670953Y-121076995D01*
X192434091Y-126407215D02*
X189827565Y-124582106D01*
X189827565Y-124582106D02*
X187365546Y-125016226D01*
X189132972Y-120642875D02*
X191739498Y-122467984D01*
X186670953Y-121076995D02*
X189132972Y-120642875D01*
X187365546Y-125016226D02*
X186786318Y-124610646D01*
%TO.C,S5*%
X191495700Y-105248719D02*
X192074928Y-105654299D01*
X188787479Y-105726252D02*
X191495700Y-105248719D01*
X192595873Y-108608722D02*
X192190293Y-109187950D01*
X192190293Y-109187950D02*
X189482072Y-109665483D01*
X183313354Y-104914491D02*
X183718934Y-104335263D01*
X189482072Y-109665483D02*
X186875546Y-107840374D01*
X186875546Y-107840374D02*
X184413527Y-108274494D01*
X186180953Y-103901143D02*
X188787479Y-105726252D01*
X183718934Y-104335263D02*
X186180953Y-103901143D01*
X184413527Y-108274494D02*
X183834299Y-107868914D01*
%TO.C,S6*%
X188543681Y-88506987D02*
X189122909Y-88912567D01*
X185835460Y-88984520D02*
X188543681Y-88506987D01*
X189643854Y-91866990D02*
X189238274Y-92446218D01*
X189238274Y-92446218D02*
X186530053Y-92923751D01*
X180361335Y-88172759D02*
X180766915Y-87593531D01*
X186530053Y-92923751D02*
X183923527Y-91098642D01*
X183923527Y-91098642D02*
X181461508Y-91532762D01*
X183228934Y-87159411D02*
X185835460Y-88984520D01*
X180766915Y-87593531D02*
X183228934Y-87159411D01*
X181461508Y-91532762D02*
X180882280Y-91127182D01*
%TO.C,S7*%
X213428362Y-113548300D02*
X213970038Y-114002820D01*
X210688827Y-113787978D02*
X213428362Y-113548300D01*
X214231505Y-116991404D02*
X213776985Y-117533079D01*
X213776985Y-117533079D02*
X211037450Y-117772757D01*
X205306282Y-112502205D02*
X205760802Y-111960530D01*
X211037450Y-117772757D02*
X208599911Y-115727420D01*
X208599911Y-115727420D02*
X206109425Y-115945309D01*
X208251288Y-111742641D02*
X210688827Y-113787978D01*
X205760802Y-111960530D02*
X208251288Y-111742641D01*
X206109425Y-115945309D02*
X205567749Y-115490789D01*
%TO.C,S8*%
X212145954Y-96595559D02*
X212687630Y-97050079D01*
X209406419Y-96835237D02*
X212145954Y-96595559D01*
X212949097Y-100038663D02*
X212494577Y-100580338D01*
X212494577Y-100580338D02*
X209755042Y-100820016D01*
X204023874Y-95549464D02*
X204478394Y-95007789D01*
X209755042Y-100820016D02*
X207317503Y-98774679D01*
X207317503Y-98774679D02*
X204827017Y-98992568D01*
X206968880Y-94789900D02*
X209406419Y-96835237D01*
X204478394Y-95007789D02*
X206968880Y-94789900D01*
X204827017Y-98992568D02*
X204285341Y-98538048D01*
%TO.C,S9*%
X210863545Y-79642818D02*
X211405221Y-80097338D01*
X208124010Y-79882496D02*
X210863545Y-79642818D01*
X211666688Y-83085922D02*
X211212168Y-83627597D01*
X211212168Y-83627597D02*
X208472633Y-83867275D01*
X202741465Y-78596723D02*
X203195985Y-78055048D01*
X208472633Y-83867275D02*
X206035094Y-81821938D01*
X206035094Y-81821938D02*
X203544608Y-82039827D01*
X205686471Y-77837159D02*
X208124010Y-79882496D01*
X203195985Y-78055048D02*
X205686471Y-77837159D01*
X203544608Y-82039827D02*
X203002932Y-81585307D01*
%TO.C,S10*%
X233661087Y-118100184D02*
X234161087Y-118600184D01*
X230911087Y-118100184D02*
X233661087Y-118100184D01*
X234161087Y-121600184D02*
X233661087Y-122100184D01*
X233661087Y-122100184D02*
X230911087Y-122100184D01*
X225661087Y-116350184D02*
X226161087Y-115850184D01*
X230911087Y-122100184D02*
X228661087Y-119850184D01*
X228661087Y-119850184D02*
X226161087Y-119850184D01*
X228661087Y-115850184D02*
X230911087Y-118100184D01*
X226161087Y-115850184D02*
X228661087Y-115850184D01*
X226161087Y-119850184D02*
X225661087Y-119350184D01*
%TO.C,S11*%
X233661087Y-101100184D02*
X234161087Y-101600184D01*
X230911087Y-101100184D02*
X233661087Y-101100184D01*
X234161087Y-104600184D02*
X233661087Y-105100184D01*
X233661087Y-105100184D02*
X230911087Y-105100184D01*
X225661087Y-99350184D02*
X226161087Y-98850184D01*
X230911087Y-105100184D02*
X228661087Y-102850184D01*
X228661087Y-102850184D02*
X226161087Y-102850184D01*
X228661087Y-98850184D02*
X230911087Y-101100184D01*
X226161087Y-98850184D02*
X228661087Y-98850184D01*
X226161087Y-102850184D02*
X225661087Y-102350184D01*
%TO.C,S12*%
X233661087Y-84100184D02*
X234161087Y-84600184D01*
X230911087Y-84100184D02*
X233661087Y-84100184D01*
X234161087Y-87600184D02*
X233661087Y-88100184D01*
X233661087Y-88100184D02*
X230911087Y-88100184D01*
X225661087Y-82350184D02*
X226161087Y-81850184D01*
X230911087Y-88100184D02*
X228661087Y-85850184D01*
X228661087Y-85850184D02*
X226161087Y-85850184D01*
X228661087Y-81850184D02*
X230911087Y-84100184D01*
X226161087Y-81850184D02*
X228661087Y-81850184D01*
X226161087Y-85850184D02*
X225661087Y-85350184D01*
%TO.C,S13*%
X252661087Y-120933517D02*
X253161087Y-121433517D01*
X249911087Y-120933517D02*
X252661087Y-120933517D01*
X253161087Y-124433517D02*
X252661087Y-124933517D01*
X252661087Y-124933517D02*
X249911087Y-124933517D01*
X244661087Y-119183517D02*
X245161087Y-118683517D01*
X249911087Y-124933517D02*
X247661087Y-122683517D01*
X247661087Y-122683517D02*
X245161087Y-122683517D01*
X247661087Y-118683517D02*
X249911087Y-120933517D01*
X245161087Y-118683517D02*
X247661087Y-118683517D01*
X245161087Y-122683517D02*
X244661087Y-122183517D01*
%TO.C,S14*%
X252661087Y-103933517D02*
X253161087Y-104433517D01*
X249911087Y-103933517D02*
X252661087Y-103933517D01*
X253161087Y-107433517D02*
X252661087Y-107933517D01*
X252661087Y-107933517D02*
X249911087Y-107933517D01*
X244661087Y-102183517D02*
X245161087Y-101683517D01*
X249911087Y-107933517D02*
X247661087Y-105683517D01*
X247661087Y-105683517D02*
X245161087Y-105683517D01*
X247661087Y-101683517D02*
X249911087Y-103933517D01*
X245161087Y-101683517D02*
X247661087Y-101683517D01*
X245161087Y-105683517D02*
X244661087Y-105183517D01*
%TO.C,S15*%
X252661087Y-86933517D02*
X253161087Y-87433517D01*
X249911087Y-86933517D02*
X252661087Y-86933517D01*
X253161087Y-90433517D02*
X252661087Y-90933517D01*
X252661087Y-90933517D02*
X249911087Y-90933517D01*
X244661087Y-85183517D02*
X245161087Y-84683517D01*
X249911087Y-90933517D02*
X247661087Y-88683517D01*
X247661087Y-88683517D02*
X245161087Y-88683517D01*
X247661087Y-84683517D02*
X249911087Y-86933517D01*
X245161087Y-84683517D02*
X247661087Y-84683517D01*
X245161087Y-88683517D02*
X244661087Y-88183517D01*
%TO.C,S16*%
X247120717Y-144399702D02*
X247546264Y-144964423D01*
X244397480Y-144016976D02*
X247120717Y-144399702D01*
X247128745Y-147935227D02*
X246564024Y-148360775D01*
X246564024Y-148360775D02*
X243840787Y-147978049D01*
X239442125Y-141553349D02*
X240006846Y-141127801D01*
X243840787Y-147978049D02*
X241925823Y-145436806D01*
X241925823Y-145436806D02*
X239450153Y-145088873D01*
X242482516Y-141475734D02*
X244397480Y-144016976D01*
X240006846Y-141127801D02*
X242482516Y-141475734D01*
X239450153Y-145088873D02*
X239024606Y-144524153D01*
%TO.C,S17*%
X268322476Y-151344446D02*
X268610083Y-151990420D01*
X265755130Y-150358934D02*
X268322476Y-151344446D01*
X267534979Y-154791162D02*
X266889005Y-155078768D01*
X266889005Y-155078768D02*
X264321658Y-154093256D01*
X261480977Y-146843737D02*
X262126951Y-146556131D01*
X264321658Y-154093256D02*
X263027430Y-151186372D01*
X263027430Y-151186372D02*
X260693479Y-150290452D01*
X264460902Y-147452051D02*
X265755130Y-150358934D01*
X262126951Y-146556131D02*
X264460902Y-147452051D01*
X260693479Y-150290452D02*
X260405873Y-149644478D01*
%TO.C,S18*%
X287443190Y-163484875D02*
X287565978Y-164181240D01*
X285190522Y-161907540D02*
X287443190Y-163484875D01*
X285845248Y-166638696D02*
X285148884Y-166761484D01*
X285148884Y-166761484D02*
X282896216Y-165184148D01*
X281893732Y-157462748D02*
X282590096Y-157339960D01*
X282896216Y-165184148D02*
X282343671Y-162050509D01*
X282343671Y-162050509D02*
X280295791Y-160616568D01*
X284637977Y-158773901D02*
X285190522Y-161907540D01*
X282590096Y-157339960D02*
X284637977Y-158773901D01*
X280295791Y-160616568D02*
X280173003Y-159920204D01*
%TO.C,D1*%
X174632226Y-157138484D02*
X178361815Y-155998234D01*
X174047483Y-155225875D02*
X174632226Y-157138484D01*
X174047483Y-155225875D02*
X177777071Y-154085625D01*
D11*
X176156833Y-155626673D02*
X175996029Y-155100705D01*
X176156833Y-155626673D02*
X176317638Y-156152641D01*
X176847565Y-155833772D02*
X176156833Y-155626673D01*
X175774311Y-155743622D02*
X176156833Y-155626673D01*
X176730616Y-155451250D02*
X177208769Y-155305064D01*
X176613668Y-155068728D02*
X176847565Y-155833772D01*
X176156833Y-155626673D02*
X176613668Y-155068728D01*
D12*
%TO.C,D2*%
X169661907Y-140881303D02*
X173391496Y-139741053D01*
X169077164Y-138968694D02*
X169661907Y-140881303D01*
X169077164Y-138968694D02*
X172806752Y-137828444D01*
D11*
X171186514Y-139369492D02*
X171025710Y-138843524D01*
X171186514Y-139369492D02*
X171347319Y-139895460D01*
X171877246Y-139576591D02*
X171186514Y-139369492D01*
X170803992Y-139486441D02*
X171186514Y-139369492D01*
X171760297Y-139194069D02*
X172238450Y-139047883D01*
X171643349Y-138811547D02*
X171877246Y-139576591D01*
X171186514Y-139369492D02*
X171643349Y-138811547D01*
D12*
%TO.C,D3*%
X164691588Y-124624122D02*
X168421177Y-123483872D01*
X164106845Y-122711513D02*
X164691588Y-124624122D01*
X164106845Y-122711513D02*
X167836433Y-121571263D01*
D11*
X166216195Y-123112311D02*
X166055391Y-122586343D01*
X166216195Y-123112311D02*
X166377000Y-123638279D01*
X166906927Y-123319410D02*
X166216195Y-123112311D01*
X165833673Y-123229260D02*
X166216195Y-123112311D01*
X166789978Y-122936888D02*
X167268131Y-122790702D01*
X166673030Y-122554366D02*
X166906927Y-123319410D01*
X166216195Y-123112311D02*
X166673030Y-122554366D01*
D12*
%TO.C,D4*%
X188117219Y-135037951D02*
X191957969Y-134360723D01*
X187769922Y-133068336D02*
X188117219Y-135037951D01*
X187769922Y-133068336D02*
X191610673Y-132391108D01*
D11*
X189814705Y-133723212D02*
X189719199Y-133181568D01*
X189814705Y-133723212D02*
X189910212Y-134264856D01*
X190475049Y-134012946D02*
X189814705Y-133723212D01*
X189420782Y-133792671D02*
X189814705Y-133723212D01*
X190405590Y-133619023D02*
X190897994Y-133532199D01*
X190336131Y-133225100D02*
X190475049Y-134012946D01*
X189814705Y-133723212D02*
X190336131Y-133225100D01*
D12*
%TO.C,D5*%
X185165200Y-118296220D02*
X189005950Y-117618992D01*
X184817903Y-116326605D02*
X185165200Y-118296220D01*
X184817903Y-116326605D02*
X188658654Y-115649377D01*
D11*
X186862686Y-116981481D02*
X186767180Y-116439837D01*
X186862686Y-116981481D02*
X186958193Y-117523125D01*
X187523030Y-117271215D02*
X186862686Y-116981481D01*
X186468763Y-117050940D02*
X186862686Y-116981481D01*
X187453571Y-116877292D02*
X187945975Y-116790468D01*
X187384112Y-116483369D02*
X187523030Y-117271215D01*
X186862686Y-116981481D02*
X187384112Y-116483369D01*
D12*
%TO.C,D6*%
X182213181Y-101554488D02*
X186053931Y-100877260D01*
X181865884Y-99584873D02*
X182213181Y-101554488D01*
X181865884Y-99584873D02*
X185706635Y-98907645D01*
D11*
X183910667Y-100239749D02*
X183815161Y-99698105D01*
X183910667Y-100239749D02*
X184006174Y-100781393D01*
X184571011Y-100529483D02*
X183910667Y-100239749D01*
X183516744Y-100309208D02*
X183910667Y-100239749D01*
X184501552Y-100135560D02*
X184993956Y-100048736D01*
X184432093Y-99741637D02*
X184571011Y-100529483D01*
X183910667Y-100239749D02*
X184432093Y-99741637D01*
D12*
%TO.C,D7*%
X205984788Y-125994412D02*
X209869947Y-125654505D01*
X205810476Y-124002023D02*
X205984788Y-125994412D01*
X205810476Y-124002023D02*
X209695636Y-123662115D01*
D11*
X207790402Y-124832622D02*
X207742466Y-124284714D01*
X207790402Y-124832622D02*
X207838338Y-125380529D01*
X208422981Y-125178806D02*
X207790402Y-124832622D01*
X207391924Y-124867484D02*
X207790402Y-124832622D01*
X208388119Y-124780328D02*
X208886216Y-124736750D01*
X208353256Y-124381850D02*
X208422981Y-125178806D01*
X207790402Y-124832622D02*
X208353256Y-124381850D01*
D12*
%TO.C,D8*%
X204702379Y-109041671D02*
X208587538Y-108701764D01*
X204528067Y-107049282D02*
X204702379Y-109041671D01*
X204528067Y-107049282D02*
X208413227Y-106709374D01*
D11*
X206507993Y-107879881D02*
X206460057Y-107331973D01*
X206507993Y-107879881D02*
X206555929Y-108427788D01*
X207140572Y-108226065D02*
X206507993Y-107879881D01*
X206109515Y-107914743D02*
X206507993Y-107879881D01*
X207105710Y-107827587D02*
X207603807Y-107784009D01*
X207070847Y-107429109D02*
X207140572Y-108226065D01*
X206507993Y-107879881D02*
X207070847Y-107429109D01*
D12*
%TO.C,D9*%
X203419971Y-92088930D02*
X207305130Y-91749023D01*
X203245659Y-90096541D02*
X203419971Y-92088930D01*
X203245659Y-90096541D02*
X207130819Y-89756633D01*
D11*
X205225585Y-90927140D02*
X205177649Y-90379232D01*
X205225585Y-90927140D02*
X205273521Y-91475047D01*
X205858164Y-91273324D02*
X205225585Y-90927140D01*
X204827107Y-90962002D02*
X205225585Y-90927140D01*
X205823302Y-90874846D02*
X206321399Y-90831268D01*
X205788439Y-90476368D02*
X205858164Y-91273324D01*
X205225585Y-90927140D02*
X205788439Y-90476368D01*
D12*
%TO.C,D10*%
X225161087Y-129850184D02*
X229061087Y-129850184D01*
X225161087Y-127850184D02*
X225161087Y-129850184D01*
X225161087Y-127850184D02*
X229061087Y-127850184D01*
D11*
X227061087Y-128850184D02*
X227061087Y-128300184D01*
X227061087Y-128850184D02*
X227061087Y-129400184D01*
X227661087Y-129250184D02*
X227061087Y-128850184D01*
X226661087Y-128850184D02*
X227061087Y-128850184D01*
X227661087Y-128850184D02*
X228161087Y-128850184D01*
X227661087Y-128450184D02*
X227661087Y-129250184D01*
X227061087Y-128850184D02*
X227661087Y-128450184D01*
D12*
%TO.C,D11*%
X225161087Y-112850184D02*
X229061087Y-112850184D01*
X225161087Y-110850184D02*
X225161087Y-112850184D01*
X225161087Y-110850184D02*
X229061087Y-110850184D01*
D11*
X227061087Y-111850184D02*
X227061087Y-111300184D01*
X227061087Y-111850184D02*
X227061087Y-112400184D01*
X227661087Y-112250184D02*
X227061087Y-111850184D01*
X226661087Y-111850184D02*
X227061087Y-111850184D01*
X227661087Y-111850184D02*
X228161087Y-111850184D01*
X227661087Y-111450184D02*
X227661087Y-112250184D01*
X227061087Y-111850184D02*
X227661087Y-111450184D01*
D12*
%TO.C,D12*%
X225161087Y-95850184D02*
X229061087Y-95850184D01*
X225161087Y-93850184D02*
X225161087Y-95850184D01*
X225161087Y-93850184D02*
X229061087Y-93850184D01*
D11*
X227061087Y-94850184D02*
X227061087Y-94300184D01*
X227061087Y-94850184D02*
X227061087Y-95400184D01*
X227661087Y-95250184D02*
X227061087Y-94850184D01*
X226661087Y-94850184D02*
X227061087Y-94850184D01*
X227661087Y-94850184D02*
X228161087Y-94850184D01*
X227661087Y-94450184D02*
X227661087Y-95250184D01*
X227061087Y-94850184D02*
X227661087Y-94450184D01*
D12*
%TO.C,D13*%
X244161087Y-132683517D02*
X248061087Y-132683517D01*
X244161087Y-130683517D02*
X244161087Y-132683517D01*
X244161087Y-130683517D02*
X248061087Y-130683517D01*
D11*
X246061087Y-131683517D02*
X246061087Y-131133517D01*
X246061087Y-131683517D02*
X246061087Y-132233517D01*
X246661087Y-132083517D02*
X246061087Y-131683517D01*
X245661087Y-131683517D02*
X246061087Y-131683517D01*
X246661087Y-131683517D02*
X247161087Y-131683517D01*
X246661087Y-131283517D02*
X246661087Y-132083517D01*
X246061087Y-131683517D02*
X246661087Y-131283517D01*
D12*
%TO.C,D14*%
X244161087Y-115683517D02*
X248061087Y-115683517D01*
X244161087Y-113683517D02*
X244161087Y-115683517D01*
X244161087Y-113683517D02*
X248061087Y-113683517D01*
D11*
X246061087Y-114683517D02*
X246061087Y-114133517D01*
X246061087Y-114683517D02*
X246061087Y-115233517D01*
X246661087Y-115083517D02*
X246061087Y-114683517D01*
X245661087Y-114683517D02*
X246061087Y-114683517D01*
X246661087Y-114683517D02*
X247161087Y-114683517D01*
X246661087Y-114283517D02*
X246661087Y-115083517D01*
X246061087Y-114683517D02*
X246661087Y-114283517D01*
D12*
%TO.C,D15*%
X244161087Y-98683517D02*
X248061087Y-98683517D01*
X244161087Y-96683517D02*
X244161087Y-98683517D01*
X244161087Y-96683517D02*
X248061087Y-96683517D01*
D11*
X246061087Y-97683517D02*
X246061087Y-97133517D01*
X246061087Y-97683517D02*
X246061087Y-98233517D01*
X246661087Y-98083517D02*
X246061087Y-97683517D01*
X245661087Y-97683517D02*
X246061087Y-97683517D01*
X246661087Y-97683517D02*
X247161087Y-97683517D01*
X246661087Y-97283517D02*
X246661087Y-98083517D01*
X246061087Y-97683517D02*
X246661087Y-97283517D01*
D12*
%TO.C,D16*%
X237068155Y-154852382D02*
X240930200Y-155395157D01*
X237346501Y-152871845D02*
X237068155Y-154852382D01*
X237346501Y-152871845D02*
X241208546Y-153414621D01*
D11*
X239088837Y-154126542D02*
X239165382Y-153581895D01*
X239088837Y-154126542D02*
X239012292Y-154671190D01*
X239627329Y-154606154D02*
X239088837Y-154126542D01*
X238692730Y-154070873D02*
X239088837Y-154126542D01*
X239682998Y-154210046D02*
X240178132Y-154279633D01*
X239738667Y-153813939D02*
X239627329Y-154606154D01*
X239088837Y-154126542D02*
X239738667Y-153813939D01*
D12*
%TO.C,D17*%
X256176219Y-159267889D02*
X259817183Y-160665524D01*
X256892955Y-157400728D02*
X256176219Y-159267889D01*
X256892955Y-157400728D02*
X260533919Y-158798363D01*
D11*
X258308390Y-159015207D02*
X258505492Y-158501738D01*
X258308390Y-159015207D02*
X258111287Y-159528676D01*
X258725191Y-159603660D02*
X258308390Y-159015207D01*
X257934958Y-158871860D02*
X258308390Y-159015207D01*
X258868538Y-159230228D02*
X259335328Y-159409412D01*
X259011885Y-158856796D02*
X258725191Y-159603660D01*
X258308390Y-159015207D02*
X259011885Y-158856796D01*
D12*
%TO.C,D18*%
X273740874Y-168234512D02*
X276935567Y-170471460D01*
X274888027Y-166596208D02*
X273740874Y-168234512D01*
X274888027Y-166596208D02*
X278082720Y-168833156D01*
D11*
X275870840Y-168505155D02*
X276186307Y-168054622D01*
X275870840Y-168505155D02*
X275555373Y-168955689D01*
X276132900Y-169176962D02*
X275870840Y-168505155D01*
X275543179Y-168275725D02*
X275870840Y-168505155D01*
X276362331Y-168849301D02*
X276771907Y-169136089D01*
X276591762Y-168521640D02*
X276132900Y-169176962D01*
X275870840Y-168505155D02*
X276591762Y-168521640D01*
D10*
%TO.C,MCU1*%
X273761087Y-88443517D02*
X273761087Y-90983517D01*
X273761087Y-88443517D02*
X276301087Y-88443517D01*
X273761087Y-90983517D02*
X276301087Y-90983517D01*
X276301087Y-90983517D02*
X276301087Y-88443517D01*
D12*
%TO.C,_2*%
X257911087Y-126683517D02*
X265511087Y-126683517D01*
X265511087Y-126683517D02*
X265511087Y-127683517D01*
X265511087Y-131683517D02*
X265511087Y-132683517D01*
X265511087Y-132683517D02*
X257911087Y-132683517D01*
X257911087Y-132683517D02*
X257911087Y-131683517D01*
X257911087Y-127683517D02*
X257911087Y-126683517D01*
D10*
%TO.C,TRRS_B*%
X279411087Y-142733517D02*
X279411087Y-136633517D01*
X279411087Y-136633517D02*
X267311087Y-136633517D01*
X279411087Y-142483517D02*
X281411087Y-142483517D01*
X279411087Y-136883517D02*
X281411087Y-136883517D01*
X267311087Y-142733517D02*
X267311087Y-136633517D01*
X279411087Y-142733517D02*
X267311087Y-142733517D01*
X281411087Y-142483517D02*
X281411087Y-136883517D01*
D12*
%TO.C,J1*%
X270411087Y-134083517D02*
X270411087Y-131283517D01*
X272411087Y-134083517D02*
X270411087Y-134083517D01*
X270411087Y-131283517D02*
X272411087Y-131283517D01*
X272411087Y-131283517D02*
X272411087Y-134083517D01*
%TO.C,_3*%
X279411087Y-135083517D02*
X274861087Y-135083517D01*
X279411087Y-132333517D02*
X279411087Y-135083517D01*
X279411087Y-126283517D02*
X279411087Y-129033517D01*
X274861087Y-126283517D02*
X279411087Y-126283517D01*
X274861087Y-135083517D02*
X274861087Y-134083517D01*
X274861087Y-127283517D02*
X274861087Y-126283517D01*
%TO.C,_4_B*%
X264061087Y-134283517D02*
X264061087Y-134583517D01*
X260761087Y-137083517D02*
X264061087Y-137083517D01*
X260761087Y-134283517D02*
X264061087Y-134283517D01*
X260761087Y-134583517D02*
X260761087Y-134283517D01*
X260761087Y-136783517D02*
X260761087Y-137083517D01*
X264061087Y-137083517D02*
X264061087Y-136783517D01*
D13*
%TO.C,_7*%
X213753587Y-91930184D02*
G75*
G03*
X209603041Y-92964049I2857500J-20320000D01*
G01*
X236931087Y-109392684D02*
G75*
G03*
X235897221Y-105242136I-20320000J-2857500D01*
G01*
X196291087Y-115107684D02*
G75*
G03*
X197324952Y-119258230I20320000J2857500D01*
G01*
X216611087Y-123045184D02*
G75*
G03*
X217739472Y-122986047I0J10794900D01*
G01*
X215482702Y-122986048D02*
G75*
G03*
X216611087Y-123045184I1128379J10735785D01*
G01*
X235897221Y-119258232D02*
G75*
G03*
X236931087Y-115107684I-19286134J7008048D01*
G01*
X209603042Y-131536319D02*
G75*
G03*
X213753587Y-132570184I7008045J19286135D01*
G01*
X223619136Y-92964051D02*
G75*
G03*
X219468587Y-91930184I-7008049J-19286133D01*
G01*
X197324952Y-105242140D02*
G75*
G03*
X196291087Y-109392684I19286255J-7008074D01*
G01*
X219468587Y-132570184D02*
G75*
G03*
X223619132Y-131536319I-2857506J20320019D01*
G01*
X217739472Y-101514321D02*
G75*
G03*
X216611087Y-101455184I-1128385J-10735763D01*
G01*
X216611087Y-101455185D02*
G75*
G03*
X215482702Y-101514321I-6J-10794920D01*
G01*
D14*
X217398271Y-126766853D02*
X217410500Y-126776901D01*
X217435982Y-126800521D01*
X217472129Y-126835234D01*
X217516353Y-126878559D01*
X217566066Y-126928014D01*
X217727101Y-127089358D01*
X217693219Y-127127173D01*
X217690042Y-127130665D01*
X217668174Y-127153874D01*
X217633828Y-127189620D01*
X217590012Y-127234800D01*
X217539729Y-127286313D01*
X217485987Y-127341056D01*
X217312637Y-127517125D01*
X216692623Y-127517125D01*
X216720924Y-127483490D01*
X216723217Y-127480799D01*
X216743885Y-127457570D01*
X216776643Y-127421730D01*
X216819503Y-127375385D01*
X216870475Y-127320642D01*
X216927571Y-127259607D01*
X216988801Y-127194388D01*
X217052176Y-127127090D01*
X217115709Y-127059820D01*
X217177408Y-126994685D01*
X217235287Y-126933791D01*
X217287354Y-126879245D01*
X217331623Y-126833153D01*
X217366102Y-126797622D01*
X217388805Y-126774759D01*
X217397740Y-126766670D01*
X217398271Y-126766853D01*
G36*
X217398271Y-126766853D02*
G01*
X217410500Y-126776901D01*
X217435982Y-126800521D01*
X217472129Y-126835234D01*
X217516353Y-126878559D01*
X217566066Y-126928014D01*
X217727101Y-127089358D01*
X217693219Y-127127173D01*
X217690042Y-127130665D01*
X217668174Y-127153874D01*
X217633828Y-127189620D01*
X217590012Y-127234800D01*
X217539729Y-127286313D01*
X217485987Y-127341056D01*
X217312637Y-127517125D01*
X216692623Y-127517125D01*
X216720924Y-127483490D01*
X216723217Y-127480799D01*
X216743885Y-127457570D01*
X216776643Y-127421730D01*
X216819503Y-127375385D01*
X216870475Y-127320642D01*
X216927571Y-127259607D01*
X216988801Y-127194388D01*
X217052176Y-127127090D01*
X217115709Y-127059820D01*
X217177408Y-126994685D01*
X217235287Y-126933791D01*
X217287354Y-126879245D01*
X217331623Y-126833153D01*
X217366102Y-126797622D01*
X217388805Y-126774759D01*
X217397740Y-126766670D01*
X217398271Y-126766853D01*
G37*
X216491149Y-126630476D02*
X216488804Y-126680548D01*
X216486191Y-126708943D01*
X216477322Y-126755393D01*
X216439769Y-126882553D01*
X216384603Y-127008416D01*
X216314911Y-127126598D01*
X216233780Y-127230718D01*
X216225386Y-127239884D01*
X216117074Y-127340210D01*
X215994654Y-127424207D01*
X215861481Y-127490186D01*
X215720913Y-127536461D01*
X215576305Y-127561342D01*
X215476059Y-127565825D01*
X215327638Y-127554426D01*
X215184219Y-127522173D01*
X215047983Y-127470150D01*
X214921108Y-127399436D01*
X214805775Y-127311114D01*
X214704162Y-127206265D01*
X214618450Y-127085972D01*
X214561195Y-126979053D01*
X214508050Y-126839817D01*
X214476694Y-126695253D01*
X214470190Y-126598889D01*
X214965429Y-126598889D01*
X214965711Y-126604179D01*
X214970029Y-126659482D01*
X214977386Y-126701774D01*
X214990031Y-126740382D01*
X215010212Y-126784628D01*
X215031700Y-126822955D01*
X215073185Y-126881749D01*
X215121242Y-126937205D01*
X215170565Y-126983399D01*
X215215851Y-127014403D01*
X215232018Y-127022179D01*
X215272923Y-127039539D01*
X215315920Y-127055625D01*
X215388747Y-127074913D01*
X215492448Y-127083434D01*
X215593989Y-127070640D01*
X215690775Y-127037508D01*
X215780207Y-126985015D01*
X215859688Y-126914138D01*
X215926622Y-126825855D01*
X215955276Y-126771710D01*
X215985708Y-126677691D01*
X215996280Y-126580142D01*
X215987974Y-126482194D01*
X215961772Y-126386981D01*
X215918659Y-126297634D01*
X215859616Y-126217288D01*
X215785626Y-126149074D01*
X215697674Y-126096125D01*
X215683671Y-126089839D01*
X215585325Y-126059214D01*
X215483973Y-126049032D01*
X215383069Y-126058352D01*
X215286070Y-126086230D01*
X215196434Y-126131726D01*
X215117617Y-126193896D01*
X215053075Y-126271800D01*
X215035305Y-126300329D01*
X214991653Y-126393752D01*
X214968797Y-126491644D01*
X214965429Y-126598889D01*
X214470190Y-126598889D01*
X214466403Y-126542775D01*
X214469964Y-126453105D01*
X214492645Y-126302826D01*
X214535397Y-126160857D01*
X214597207Y-126028872D01*
X214677065Y-125908547D01*
X214773959Y-125801558D01*
X214886879Y-125709578D01*
X215014812Y-125634285D01*
X215084663Y-125601646D01*
X215159801Y-125572429D01*
X215231453Y-125552937D01*
X215307936Y-125541000D01*
X215397571Y-125534448D01*
X215415383Y-125533780D01*
X215554584Y-125540218D01*
X215684967Y-125567894D01*
X215807183Y-125616998D01*
X215921880Y-125687720D01*
X215946014Y-125704922D01*
X215970860Y-125721265D01*
X215983291Y-125727579D01*
X215984199Y-125723549D01*
X215985648Y-125699742D01*
X215986975Y-125656619D01*
X215988144Y-125596544D01*
X215989120Y-125521882D01*
X215989870Y-125434996D01*
X215990359Y-125338251D01*
X215990551Y-125234011D01*
X215990699Y-124740443D01*
X216498403Y-125250469D01*
X216498316Y-125942183D01*
X216498313Y-125953919D01*
X216498052Y-126104393D01*
X216497388Y-126241665D01*
X216496344Y-126364321D01*
X216494941Y-126470950D01*
X216493202Y-126560139D01*
X216492618Y-126580142D01*
X216491149Y-126630476D01*
G36*
X216491149Y-126630476D02*
G01*
X216488804Y-126680548D01*
X216486191Y-126708943D01*
X216477322Y-126755393D01*
X216439769Y-126882553D01*
X216384603Y-127008416D01*
X216314911Y-127126598D01*
X216233780Y-127230718D01*
X216225386Y-127239884D01*
X216117074Y-127340210D01*
X215994654Y-127424207D01*
X215861481Y-127490186D01*
X215720913Y-127536461D01*
X215576305Y-127561342D01*
X215476059Y-127565825D01*
X215327638Y-127554426D01*
X215184219Y-127522173D01*
X215047983Y-127470150D01*
X214921108Y-127399436D01*
X214805775Y-127311114D01*
X214704162Y-127206265D01*
X214618450Y-127085972D01*
X214561195Y-126979053D01*
X214508050Y-126839817D01*
X214476694Y-126695253D01*
X214470190Y-126598889D01*
X214965429Y-126598889D01*
X214965711Y-126604179D01*
X214970029Y-126659482D01*
X214977386Y-126701774D01*
X214990031Y-126740382D01*
X215010212Y-126784628D01*
X215031700Y-126822955D01*
X215073185Y-126881749D01*
X215121242Y-126937205D01*
X215170565Y-126983399D01*
X215215851Y-127014403D01*
X215232018Y-127022179D01*
X215272923Y-127039539D01*
X215315920Y-127055625D01*
X215388747Y-127074913D01*
X215492448Y-127083434D01*
X215593989Y-127070640D01*
X215690775Y-127037508D01*
X215780207Y-126985015D01*
X215859688Y-126914138D01*
X215926622Y-126825855D01*
X215955276Y-126771710D01*
X215985708Y-126677691D01*
X215996280Y-126580142D01*
X215987974Y-126482194D01*
X215961772Y-126386981D01*
X215918659Y-126297634D01*
X215859616Y-126217288D01*
X215785626Y-126149074D01*
X215697674Y-126096125D01*
X215683671Y-126089839D01*
X215585325Y-126059214D01*
X215483973Y-126049032D01*
X215383069Y-126058352D01*
X215286070Y-126086230D01*
X215196434Y-126131726D01*
X215117617Y-126193896D01*
X215053075Y-126271800D01*
X215035305Y-126300329D01*
X214991653Y-126393752D01*
X214968797Y-126491644D01*
X214965429Y-126598889D01*
X214470190Y-126598889D01*
X214466403Y-126542775D01*
X214469964Y-126453105D01*
X214492645Y-126302826D01*
X214535397Y-126160857D01*
X214597207Y-126028872D01*
X214677065Y-125908547D01*
X214773959Y-125801558D01*
X214886879Y-125709578D01*
X215014812Y-125634285D01*
X215084663Y-125601646D01*
X215159801Y-125572429D01*
X215231453Y-125552937D01*
X215307936Y-125541000D01*
X215397571Y-125534448D01*
X215415383Y-125533780D01*
X215554584Y-125540218D01*
X215684967Y-125567894D01*
X215807183Y-125616998D01*
X215921880Y-125687720D01*
X215946014Y-125704922D01*
X215970860Y-125721265D01*
X215983291Y-125727579D01*
X215984199Y-125723549D01*
X215985648Y-125699742D01*
X215986975Y-125656619D01*
X215988144Y-125596544D01*
X215989120Y-125521882D01*
X215989870Y-125434996D01*
X215990359Y-125338251D01*
X215990551Y-125234011D01*
X215990699Y-124740443D01*
X216498403Y-125250469D01*
X216498316Y-125942183D01*
X216498313Y-125953919D01*
X216498052Y-126104393D01*
X216497388Y-126241665D01*
X216496344Y-126364321D01*
X216494941Y-126470950D01*
X216493202Y-126560139D01*
X216492618Y-126580142D01*
X216491149Y-126630476D01*
G37*
X218692039Y-127476540D02*
X218601195Y-127384264D01*
X218587414Y-127370268D01*
X218555553Y-127337915D01*
X218509606Y-127291261D01*
X218450790Y-127231543D01*
X218380323Y-127159998D01*
X218299424Y-127077861D01*
X218209309Y-126986368D01*
X218111197Y-126886757D01*
X218006305Y-126780264D01*
X217895851Y-126668124D01*
X217781052Y-126551575D01*
X217663127Y-126431852D01*
X216815903Y-125571715D01*
X217104271Y-125568622D01*
X217392639Y-125565528D01*
X218195585Y-126368228D01*
X218195585Y-124734670D01*
X218692039Y-124734670D01*
X218692039Y-127476540D01*
G36*
X218692039Y-127476540D02*
G01*
X218601195Y-127384264D01*
X218587414Y-127370268D01*
X218555553Y-127337915D01*
X218509606Y-127291261D01*
X218450790Y-127231543D01*
X218380323Y-127159998D01*
X218299424Y-127077861D01*
X218209309Y-126986368D01*
X218111197Y-126886757D01*
X218006305Y-126780264D01*
X217895851Y-126668124D01*
X217781052Y-126551575D01*
X217663127Y-126431852D01*
X216815903Y-125571715D01*
X217104271Y-125568622D01*
X217392639Y-125565528D01*
X218195585Y-126368228D01*
X218195585Y-124734670D01*
X218692039Y-124734670D01*
X218692039Y-127476540D01*
G37*
%TD*%
D15*
%TO.C,_2*%
X259911087Y-128683517D03*
D16*
X259911087Y-130683517D03*
%TD*%
M02*
