%TF.GenerationSoftware,KiCad,Pcbnew,7.0.5*%
%TF.CreationDate,2024-04-29T22:33:29+02:00*%
%TF.ProjectId,porcupine,706f7263-7570-4696-9e65-2e6b69636164,v0.0.1*%
%TF.SameCoordinates,Original*%
%TF.FileFunction,Profile,NP*%
%FSLAX46Y46*%
G04 Gerber Fmt 4.6, Leading zero omitted, Abs format (unit mm)*
G04 Created by KiCad (PCBNEW 7.0.5) date 2024-04-29 22:33:29*
%MOMM*%
%LPD*%
G01*
G04 APERTURE LIST*
%TA.AperFunction,Profile*%
%ADD10C,0.150000*%
%TD*%
G04 APERTURE END LIST*
D10*
X228951113Y-157886723D02*
G75*
G03*
X168901145Y-163594181I-14195637J-169399277D01*
G01*
X247900000Y-160750000D02*
X228951113Y-157886723D01*
X265500000Y-167550000D02*
X247900000Y-160750000D01*
X280978635Y-178472787D02*
G75*
G03*
X282371364Y-178227212I573564J819224D01*
G01*
X152533446Y-113074139D02*
X167767477Y-162902407D01*
X153197380Y-111825463D02*
X174037969Y-105453855D01*
X171947177Y-88539433D02*
X174730405Y-104323902D01*
X172758337Y-87380977D02*
X193885835Y-83655629D01*
X195236407Y-77145309D02*
X213367150Y-75559075D01*
X214450501Y-76468114D02*
X214701526Y-79337340D01*
X194708382Y-82583665D02*
X194327368Y-78228660D01*
X215697720Y-80250184D02*
X236511087Y-80250184D01*
X237511087Y-81250184D02*
X237511087Y-81683517D01*
X256911087Y-84683517D02*
X256911087Y-83683517D01*
X238511087Y-82683517D02*
X255911087Y-82683517D01*
X282371364Y-178227212D02*
X292850000Y-163250000D01*
X279850000Y-152900000D02*
X292589872Y-161774527D01*
X280978635Y-178472787D02*
X265500000Y-167550000D01*
X279423576Y-152080848D02*
X279411087Y-87683517D01*
X279411083Y-87683517D02*
G75*
G03*
X277411087Y-85683517I-1999983J17D01*
G01*
X277411087Y-85683517D02*
X257911087Y-85683517D01*
X167767474Y-162902408D02*
G75*
G03*
X168901145Y-163594180I956326J292408D01*
G01*
X292850000Y-163250000D02*
G75*
G03*
X292589872Y-161774527I-867796J607673D01*
G01*
X279423577Y-152080848D02*
G75*
G03*
X279849982Y-152900027I1000012J-33D01*
G01*
X256911083Y-84683517D02*
G75*
G03*
X257911087Y-85683517I1000017J17D01*
G01*
X256911083Y-83683517D02*
G75*
G03*
X255911087Y-82683517I-999983J17D01*
G01*
X237511083Y-81683517D02*
G75*
G03*
X238511087Y-82683517I1000017J17D01*
G01*
X237511116Y-81250184D02*
G75*
G03*
X236511087Y-80250184I-1000016J-16D01*
G01*
X214701520Y-79337341D02*
G75*
G03*
X215697720Y-80250184I996180J87141D01*
G01*
X214450521Y-76468112D02*
G75*
G03*
X213367150Y-75559076I-996221J-87188D01*
G01*
X195236404Y-77145272D02*
G75*
G03*
X194327369Y-78228660I87196J-996228D01*
G01*
X193885829Y-83655596D02*
G75*
G03*
X194708381Y-82583665I-173629J984796D01*
G01*
X172758338Y-87380983D02*
G75*
G03*
X171947177Y-88539433I173662J-984817D01*
G01*
X174037952Y-105453798D02*
G75*
G03*
X174730404Y-104323902I-292352J956298D01*
G01*
X153197382Y-111825471D02*
G75*
G03*
X152533447Y-113074139I292418J-956329D01*
G01*
X177753205Y-113872065D02*
G75*
G03*
X177753205Y-113872065I-2050000J0D01*
G01*
X187407772Y-147585205D02*
G75*
G03*
X187407772Y-147585205I-2050000J0D01*
G01*
X238921087Y-92683517D02*
G75*
G03*
X238921087Y-92683517I-2050000J0D01*
G01*
X237561087Y-136600184D02*
G75*
G03*
X237561087Y-136600184I-2050000J0D01*
G01*
X272559651Y-158343108D02*
G75*
G03*
X272559651Y-158343108I-2050000J0D01*
G01*
M02*
