%TF.GenerationSoftware,KiCad,Pcbnew,7.0.5*%
%TF.CreationDate,2024-04-29T22:33:29+02:00*%
%TF.ProjectId,porcupine,706f7263-7570-4696-9e65-2e6b69636164,v0.0.1*%
%TF.SameCoordinates,Original*%
%TF.FileFunction,Paste,Bot*%
%TF.FilePolarity,Positive*%
%FSLAX46Y46*%
G04 Gerber Fmt 4.6, Leading zero omitted, Abs format (unit mm)*
G04 Created by KiCad (PCBNEW 7.0.5) date 2024-04-29 22:33:29*
%MOMM*%
%LPD*%
G01*
G04 APERTURE LIST*
G04 Aperture macros list*
%AMRotRect*
0 Rectangle, with rotation*
0 The origin of the aperture is its center*
0 $1 length*
0 $2 width*
0 $3 Rotation angle, in degrees counterclockwise*
0 Add horizontal line*
21,1,$1,$2,0,0,$3*%
G04 Aperture macros list end*
%ADD10RotRect,2.600000X2.600000X17.000000*%
%ADD11RotRect,2.600000X2.600000X10.000000*%
%ADD12RotRect,2.600000X2.600000X5.000000*%
%ADD13R,2.600000X2.600000*%
%ADD14RotRect,2.600000X2.600000X352.000000*%
%ADD15RotRect,2.600000X2.600000X339.000000*%
%ADD16RotRect,2.600000X2.600000X325.000000*%
%ADD17RotRect,0.900000X1.200000X17.000000*%
%ADD18RotRect,0.900000X1.200000X10.000000*%
%ADD19RotRect,0.900000X1.200000X5.000000*%
%ADD20R,0.900000X1.200000*%
%ADD21RotRect,0.900000X1.200000X352.000000*%
%ADD22RotRect,0.900000X1.200000X339.000000*%
%ADD23RotRect,0.900000X1.200000X325.000000*%
%ADD24R,1.500000X1.500000*%
%ADD25R,1.500000X0.700000*%
%ADD26R,0.800000X1.000000*%
%ADD27R,0.900000X1.700000*%
G04 APERTURE END LIST*
D10*
%TO.C,S1*%
X170158171Y-146010323D03*
X181846709Y-144737300D03*
%TD*%
%TO.C,S2*%
X165187852Y-129753142D03*
X176876390Y-128480119D03*
%TD*%
%TO.C,S3*%
X160217533Y-113495961D03*
X171906071Y-112222938D03*
%TD*%
D11*
%TO.C,S4*%
X185032696Y-123447489D03*
X196789251Y-123608429D03*
%TD*%
%TO.C,S5*%
X182080677Y-106705757D03*
X193837232Y-106866697D03*
%TD*%
%TO.C,S6*%
X179128658Y-89964025D03*
X190885213Y-90124965D03*
%TD*%
D12*
%TO.C,S7*%
X203922177Y-114179220D03*
X215619968Y-115364199D03*
%TD*%
%TO.C,S8*%
X202639769Y-97226479D03*
X214337560Y-98411458D03*
%TD*%
%TO.C,S9*%
X201357360Y-80273738D03*
X213055151Y-81458717D03*
%TD*%
D13*
%TO.C,S10*%
X224136087Y-117900184D03*
X235686087Y-120100184D03*
%TD*%
%TO.C,S11*%
X224136087Y-100900184D03*
X235686087Y-103100184D03*
%TD*%
%TO.C,S12*%
X224136087Y-83900184D03*
X235686087Y-86100184D03*
%TD*%
%TO.C,S13*%
X243136087Y-120733517D03*
X254686087Y-122933517D03*
%TD*%
%TO.C,S14*%
X243136087Y-103733517D03*
X254686087Y-105933517D03*
%TD*%
%TO.C,S15*%
X243136087Y-86733517D03*
X254686087Y-88933517D03*
%TD*%
D14*
%TO.C,S16*%
X237716248Y-142876025D03*
X248847663Y-146662064D03*
%TD*%
D15*
%TO.C,S17*%
X259501796Y-147744275D03*
X269496241Y-153937302D03*
%TD*%
D16*
%TO.C,S18*%
X279755482Y-157857730D03*
X287954820Y-166284672D03*
%TD*%
D17*
%TO.C,D1*%
X178069443Y-155041930D03*
X174913637Y-156006756D03*
%TD*%
%TO.C,D2*%
X173099124Y-138784749D03*
X169943318Y-139749575D03*
%TD*%
%TO.C,D3*%
X168128805Y-122527568D03*
X164972999Y-123492394D03*
%TD*%
D18*
%TO.C,D4*%
X191784321Y-133375916D03*
X188534455Y-133948954D03*
%TD*%
%TO.C,D5*%
X188832302Y-116634185D03*
X185582436Y-117207223D03*
%TD*%
%TO.C,D6*%
X185880283Y-99892453D03*
X182630417Y-100465491D03*
%TD*%
D19*
%TO.C,D7*%
X209782791Y-124658310D03*
X206495349Y-124945924D03*
%TD*%
%TO.C,D8*%
X208500382Y-107705569D03*
X205212940Y-107993183D03*
%TD*%
%TO.C,D9*%
X207217974Y-90752828D03*
X203930532Y-91040442D03*
%TD*%
D20*
%TO.C,D10*%
X229061087Y-128850184D03*
X225761087Y-128850184D03*
%TD*%
%TO.C,D11*%
X229061087Y-111850184D03*
X225761087Y-111850184D03*
%TD*%
%TO.C,D12*%
X229061087Y-94850184D03*
X225761087Y-94850184D03*
%TD*%
%TO.C,D13*%
X248061087Y-131683517D03*
X244761087Y-131683517D03*
%TD*%
%TO.C,D14*%
X248061087Y-114683517D03*
X244761087Y-114683517D03*
%TD*%
%TO.C,D15*%
X248061087Y-97683517D03*
X244761087Y-97683517D03*
%TD*%
D21*
%TO.C,D16*%
X241069373Y-154404889D03*
X237801489Y-153945617D03*
%TD*%
D22*
%TO.C,D17*%
X260175551Y-159731943D03*
X257094735Y-158549329D03*
%TD*%
D23*
%TO.C,D18*%
X277509144Y-169652308D03*
X274805942Y-167759506D03*
%TD*%
D24*
%TO.C,PAD1*%
X264411087Y-128383517D03*
%TD*%
%TO.C,PAD2*%
X264411087Y-130983517D03*
%TD*%
D25*
%TO.C,_3*%
X275881087Y-128433517D03*
X275881087Y-131433517D03*
X275881087Y-132933517D03*
D26*
X278741087Y-127033517D03*
X278741087Y-134333517D03*
X276531087Y-134333517D03*
X276531087Y-127033517D03*
%TD*%
D27*
%TO.C,_4_B*%
X260711087Y-135683517D03*
X264111087Y-135683517D03*
%TD*%
M02*
